<svg width="21" height="22" viewBox="0 0 21 22" fill="none" xmlns="http://www.w3.org/2000/svg">
<path d="M7.35418 2.72527C7.29573 2.68911 7.24877 2.63708 7.21878 2.57525C7.18878 2.51341 7.17699 2.44432 7.18478 2.37604C7.19257 2.30776 7.21961 2.2431 7.26276 2.18961C7.30591 2.13611 7.36338 2.09599 7.42846 2.07393C8.75017 1.61852 10.1567 1.46314 11.5459 1.61905C12.9352 1.77495 14.2723 2.23825 15.4601 2.97529C15.5032 3.00243 15.54 3.03834 15.5683 3.08067C15.5965 3.12299 15.6156 3.1708 15.6241 3.22096C15.6326 3.27113 15.6305 3.32253 15.6179 3.37182C15.6052 3.42112 15.5824 3.46719 15.5507 3.50706C14.5018 4.8474 13.2155 5.98354 11.7559 6.85887C10.5769 5.20313 9.08067 3.79808 7.35418 2.72527ZM10.4623 7.5392C9.13924 5.73384 7.39862 4.27576 5.38929 3.28964C5.33175 3.2617 5.26776 3.24973 5.20402 3.25499C5.14027 3.26025 5.07911 3.28254 5.02693 3.31954C3.40029 4.48307 2.18432 6.13227 1.55372 8.0302C1.53788 8.07873 1.53247 8.13006 1.53785 8.18082C1.54323 8.23159 1.55927 8.28065 1.58493 8.32478C1.61059 8.36891 1.64528 8.40713 1.68674 8.43692C1.7282 8.46671 1.77548 8.4874 1.82549 8.49764C2.77103 8.70146 3.73537 8.8053 4.70262 8.80746C6.6919 8.80854 8.65747 8.37573 10.4623 7.5392ZM19.8655 9.95704C19.6352 7.85584 18.7036 5.89351 17.2212 4.38668C17.1851 4.34997 17.1415 4.32138 17.0934 4.30283C17.0454 4.28428 16.9939 4.27619 16.9425 4.2791C16.891 4.28202 16.8408 4.29587 16.7951 4.31973C16.7495 4.34359 16.7094 4.37692 16.6777 4.41748C15.5311 5.87813 14.1287 7.11823 12.5386 8.07731C13.0354 8.93788 13.4465 9.8451 13.7661 10.7859C15.064 10.4341 16.4028 10.2562 17.7475 10.2569C18.3226 10.2569 18.8973 10.2893 19.4687 10.3538C19.5219 10.3591 19.5756 10.3526 19.626 10.3347C19.6763 10.3168 19.7221 10.288 19.7601 10.2504C19.798 10.2127 19.8271 10.1671 19.8453 10.1169C19.8636 10.0666 19.8705 10.013 19.8655 9.95976V9.95704ZM14.1665 12.1765C14.435 13.3187 14.5703 14.4881 14.5696 15.6615C14.5691 16.7845 14.4442 17.9041 14.1973 18.9997C14.1815 19.0668 14.1852 19.137 14.2079 19.2021C14.2307 19.2672 14.2715 19.3244 14.3256 19.3671C14.3797 19.4098 14.4449 19.4362 14.5135 19.4432C14.582 19.4502 14.6512 19.4374 14.7128 19.4065C16.0867 18.7172 17.2717 17.703 18.1648 16.4519C19.0578 15.2008 19.632 13.7506 19.8374 12.2272C19.8436 12.1797 19.8404 12.1314 19.8278 12.0852C19.8152 12.039 19.7936 11.9957 19.7642 11.9579C19.7348 11.92 19.6982 11.8884 19.6565 11.8648C19.6148 11.8413 19.5688 11.8262 19.5213 11.8205C17.7298 11.5899 15.9106 11.713 14.1665 12.1828V12.1765ZM12.3873 11.2298C12.0953 10.3732 11.7193 9.54758 11.2649 8.76488C9.21726 9.74861 6.97433 10.2586 4.70262 10.2569C3.64073 10.2569 2.58173 10.1461 1.54285 9.92624C1.49273 9.91567 1.44093 9.91584 1.39088 9.92675C1.34083 9.93766 1.29366 9.95906 1.25248 9.98953C1.21131 10.02 1.17706 10.0589 1.152 10.1035C1.12695 10.1482 1.11165 10.1977 1.10711 10.2487C1.08839 10.4903 1.07873 10.7346 1.07813 10.9816C1.07765 12.2717 1.34283 13.548 1.85715 14.7311C2.37147 15.9142 3.12391 16.9787 4.06759 17.8583C4.10739 17.8948 4.15485 17.9219 4.20648 17.9377C4.25812 17.9535 4.31263 17.9575 4.36603 17.9495C4.41943 17.9415 4.47037 17.9217 4.51513 17.8915C4.55988 17.8613 4.59732 17.8215 4.62471 17.7749C6.39285 14.7747 9.13102 12.467 12.3873 11.2325V11.2298ZM5.76161 18.7044C5.7378 18.746 5.72247 18.7918 5.71651 18.8394C5.71054 18.8869 5.71407 18.9352 5.72687 18.9813C5.73968 19.0275 5.76151 19.0707 5.79111 19.1083C5.82071 19.146 5.85748 19.1774 5.89931 19.2008C7.79383 20.263 9.99746 20.6372 12.1364 20.2598C12.2 20.2487 12.2595 20.2205 12.3083 20.1782C12.3571 20.1359 12.3935 20.0811 12.4136 20.0197C12.8808 18.6151 13.1194 17.1445 13.1202 15.6642C13.1204 14.6444 13.0068 13.6277 12.7814 12.6331C9.81306 13.7896 7.33395 15.9337 5.76161 18.7044Z" fill="#B2215A"/>
</svg>
