<svg width="24" height="24" viewBox="0 0 24 24" fill="none" xmlns="http://www.w3.org/2000/svg">
<path fill-rule="evenodd" clip-rule="evenodd" d="M9.70222 9.2686H13.2013V11.0115C13.7053 10.0091 14.9979 9.10844 16.9397 9.10844C20.662 9.10844 21.5458 11.1039 21.5458 14.765V21.5455H17.7772V15.5988C17.7772 13.5138 17.2732 12.3381 15.99 12.3381C14.2103 12.3381 13.4707 13.6052 13.4707 15.5978V21.5455H9.70222V9.2686ZM3.24014 21.3854H7.00867V9.10844H3.24014V21.3854ZM7.54851 5.10532C7.54865 5.42119 7.486 5.73394 7.36422 6.02539C7.24243 6.31684 7.06393 6.58118 6.83908 6.80304C6.38347 7.25585 5.76676 7.50931 5.1244 7.50775C4.48318 7.50732 3.86789 7.25451 3.41161 6.80398C3.18758 6.58137 3.00968 6.31673 2.88811 6.02524C2.76653 5.73376 2.70367 5.42114 2.70312 5.10532C2.70312 4.46749 2.9575 3.85699 3.41255 3.40665C3.86843 2.95552 4.48398 2.7026 5.12535 2.70288C5.76788 2.70288 6.38403 2.95631 6.83908 3.40665C7.29319 3.85699 7.54851 4.46749 7.54851 5.10532Z" fill="#1A2E94"/>
</svg>
