<svg width="21" height="16" viewBox="0 0 21 16" fill="none" xmlns="http://www.w3.org/2000/svg">
<g clip-path="url(#clip0_373_6242)">
<path d="M5.21732 15.6139V7.71303L2.85689 5.47138L0.740234 4.22742V14.2196C0.740234 14.9911 1.34237 15.6139 2.08339 15.6139H5.21732Z" fill="#4285F4"/>
<path d="M15.9629 15.6139H19.0968C19.8401 15.6139 20.44 14.9888 20.44 14.2196V4.22754L18.0425 5.65235L15.9629 7.71307V15.6139Z" fill="#34A853"/>
<path d="M5.21767 7.71314L4.89648 4.62604L5.21767 1.67139L10.5901 5.85419L15.9626 1.67139L16.3219 4.46652L15.9626 7.71314L10.5901 11.8959L5.21767 7.71314Z" fill="#EA4335"/>
<path d="M15.9629 1.67138V7.71313L20.44 4.22751V2.36848C20.44 0.644288 18.5439 -0.338627 17.2166 0.695411L15.9629 1.67138Z" fill="#FBBC04"/>
<path d="M0.740234 4.22755L2.79933 5.83073L5.21732 7.71316V1.67141L3.96366 0.695447C2.63397 -0.33867 0.740234 0.644324 0.740234 2.36844V4.22755Z" fill="#C5221F"/>
</g>
<defs>
<clipPath id="clip0_373_6242">
<rect width="19.6991" height="15.4167" fill="white" transform="translate(0.740234 0.273193)"/>
</clipPath>
</defs>
</svg>
