<svg width="375" height="145" viewBox="0 0 375 145" fill="none" xmlns="http://www.w3.org/2000/svg">
<rect width="375" height="144.832" rx="4" fill="white"/>
<path d="M17.3828 16.1573H14.7947V14.7727H21.4203V16.1573H18.8322V24.0381H17.3828V16.1573ZM23.9677 23.6758L21.2243 17.4384H22.816L24.6795 21.9288H24.7312L26.5429 17.4384H28.1087L24.0324 26.8332H22.5313L23.9677 23.6758ZM29.1162 17.4384H30.4749V18.3054H30.5396C30.7294 18.0035 31.0098 17.749 31.3808 17.5419C31.7517 17.3349 32.1701 17.2314 32.636 17.2314C33.2313 17.2314 33.7704 17.3823 34.2536 17.6843C34.7367 17.9862 35.1163 18.4046 35.3923 18.9395C35.677 19.4658 35.8194 20.0653 35.8194 20.7382C35.8194 21.4112 35.677 22.015 35.3923 22.5499C35.1163 23.0762 34.7367 23.4903 34.2536 23.7922C33.7704 24.0942 33.2313 24.2451 32.636 24.2451C32.1701 24.2451 31.7517 24.1416 31.3808 23.9346C31.0098 23.7275 30.7294 23.4773 30.5396 23.184H30.4749L30.5396 24.1028V26.8332H29.1162V17.4384ZM32.4289 22.9381C32.774 22.9381 33.0975 22.8476 33.3995 22.6664C33.7014 22.4852 33.943 22.2264 34.1242 21.89C34.3053 21.5535 34.3959 21.1696 34.3959 20.7382C34.3959 20.3069 34.3053 19.9273 34.1242 19.5995C33.943 19.263 33.7014 19.0042 33.3995 18.823C33.0975 18.6419 32.774 18.5513 32.4289 18.5513C32.0839 18.5513 31.7603 18.6419 31.4584 18.823C31.1651 19.0042 30.9278 19.263 30.7467 19.5995C30.5655 19.9273 30.4749 20.3069 30.4749 20.7382C30.4749 21.1696 30.5655 21.5535 30.7467 21.89C30.9278 22.2264 31.1651 22.4852 31.4584 22.6664C31.7603 22.8476 32.0839 22.9381 32.4289 22.9381ZM40.3389 24.2451C39.6747 24.2451 39.0794 24.0942 38.5532 23.7922C38.0269 23.4816 37.6171 23.0589 37.3238 22.524C37.0305 21.9892 36.8838 21.3939 36.8838 20.7382C36.8838 20.0826 37.0305 19.4873 37.3238 18.9524C37.6171 18.4176 38.0269 17.9992 38.5532 17.6972C39.0794 17.3866 39.6747 17.2314 40.3389 17.2314C41.0032 17.2314 41.5985 17.3866 42.1247 17.6972C42.651 18.0078 43.0608 18.4305 43.3541 18.9654C43.6474 19.5003 43.7941 20.0912 43.7941 20.7382C43.7941 21.3939 43.6474 21.9892 43.3541 22.524C43.0608 23.0589 42.651 23.4816 42.1247 23.7922C41.5985 24.0942 41.0032 24.2451 40.3389 24.2451ZM40.3389 22.9381C40.7013 22.9381 41.0377 22.8519 41.3483 22.6793C41.6589 22.4982 41.9048 22.2437 42.0859 21.9158C42.2757 21.5794 42.3706 21.1869 42.3706 20.7382C42.3706 20.2896 42.2757 19.9014 42.0859 19.5736C41.9048 19.2458 41.6589 18.9956 41.3483 18.823C41.0377 18.6419 40.7013 18.5513 40.3389 18.5513C39.9766 18.5513 39.6402 18.6419 39.3296 18.823C39.019 18.9956 38.7688 19.2458 38.579 19.5736C38.3979 19.9014 38.3073 20.2896 38.3073 20.7382C38.3073 21.1869 38.3979 21.5794 38.579 21.9158C38.7688 22.2437 39.019 22.4982 39.3296 22.6793C39.6402 22.8519 39.9766 22.9381 40.3389 22.9381ZM48.2123 27.0403C47.4013 27.0403 46.7284 26.8548 46.1935 26.4839C45.6673 26.1129 45.3136 25.6729 45.1324 25.1639L46.4653 24.6075C46.6033 24.9526 46.8233 25.2286 47.1253 25.4357C47.4358 25.6513 47.7982 25.7592 48.2123 25.7592C48.8162 25.7592 49.2863 25.578 49.6228 25.2157C49.9679 24.862 50.1404 24.3616 50.1404 23.7146V23.1064H50.0628C49.8471 23.4169 49.5581 23.6628 49.1957 23.844C48.842 24.0165 48.4323 24.1028 47.9664 24.1028C47.4143 24.1028 46.901 23.9604 46.4265 23.6758C45.952 23.3911 45.5724 22.9899 45.2877 22.4723C45.0116 21.946 44.8736 21.3465 44.8736 20.6735C44.8736 20.0006 45.0116 19.4054 45.2877 18.8877C45.5724 18.3615 45.952 17.956 46.4265 17.6713C46.901 17.378 47.4143 17.2314 47.9664 17.2314C48.4236 17.2314 48.8334 17.3219 49.1957 17.5031C49.5581 17.6843 49.8471 17.9301 50.0628 18.2407H50.1404V17.4384H51.4992V23.6758C51.4992 24.3918 51.3611 25 51.0851 25.5004C50.809 26.0094 50.4208 26.3933 49.9204 26.6521C49.4287 26.9109 48.8593 27.0403 48.2123 27.0403ZM48.2252 22.8087C48.5703 22.8087 48.8895 22.7268 49.1828 22.5629C49.4761 22.3903 49.7091 22.1445 49.8816 21.8253C50.0541 21.4974 50.1404 21.1135 50.1404 20.6735C50.1404 20.0006 49.9549 19.4787 49.584 19.1077C49.2216 18.7281 48.7687 18.5384 48.2252 18.5384C47.8715 18.5384 47.548 18.6246 47.2547 18.7972C46.9613 18.9611 46.7284 19.2026 46.5559 19.5218C46.3833 19.841 46.2971 20.2249 46.2971 20.6735C46.2971 21.1221 46.3833 21.5061 46.5559 21.8253C46.7284 22.1445 46.9613 22.3903 47.2547 22.5629C47.548 22.7268 47.8715 22.8087 48.2252 22.8087ZM53.3015 17.4384H54.6603V18.4089H54.725C54.8717 18.0725 55.1262 17.7964 55.4885 17.5808C55.8508 17.3564 56.2347 17.2443 56.6402 17.2443C56.9594 17.2443 57.2268 17.2874 57.4425 17.3737V18.8489C57.0629 18.7109 56.7222 18.6419 56.4202 18.6419C56.0924 18.6419 55.7991 18.7281 55.5403 18.9007C55.2901 19.0732 55.0917 19.3062 54.945 19.5995C54.7983 19.8842 54.725 20.1991 54.725 20.5441V24.0381H53.3015V17.4384ZM60.5058 24.2451C60.0313 24.2451 59.6086 24.1546 59.2376 23.9734C58.8667 23.7836 58.5776 23.5205 58.3706 23.184C58.1635 22.8389 58.06 22.4507 58.06 22.0194C58.06 21.3378 58.3145 20.7986 58.8235 20.4018C59.3411 20.0049 59.9925 19.8065 60.7775 19.8065C61.1658 19.8065 61.5152 19.8453 61.8257 19.923C62.1363 19.992 62.3822 20.0697 62.5633 20.1559V19.8195C62.5633 19.414 62.4124 19.0862 62.1104 18.836C61.8085 18.5772 61.4203 18.4478 60.9458 18.4478C60.6093 18.4478 60.2901 18.5211 59.9882 18.6678C59.6948 18.8144 59.4576 19.0172 59.2764 19.276L58.28 18.5125C58.5733 18.107 58.9529 17.7921 59.4188 17.5678C59.8846 17.3435 60.4023 17.2314 60.9716 17.2314C61.9292 17.2314 62.6669 17.4686 63.1845 17.9431C63.7021 18.4089 63.9609 19.0689 63.9609 19.923V24.0381H62.5633V23.2487H62.4986C62.3088 23.5334 62.0414 23.7706 61.6963 23.9604C61.3512 24.1502 60.9544 24.2451 60.5058 24.2451ZM60.7517 23.0675C61.0967 23.0675 61.4073 22.9856 61.6834 22.8217C61.9594 22.6578 62.1751 22.4378 62.3304 22.1617C62.4857 21.8856 62.5633 21.588 62.5633 21.2688C62.3649 21.1567 62.132 21.0661 61.8645 20.9971C61.6057 20.928 61.334 20.8935 61.0493 20.8935C60.5144 20.8935 60.1219 21.0014 59.8717 21.217C59.6215 21.4241 59.4964 21.6958 59.4964 22.0323C59.4964 22.3342 59.6129 22.5844 59.8458 22.7829C60.0788 22.9726 60.3807 23.0675 60.7517 23.0675ZM65.5898 17.4384H66.9486V18.3054H67.0133C67.2031 18.0035 67.4834 17.749 67.8544 17.5419C68.2254 17.3349 68.6438 17.2314 69.1096 17.2314C69.7049 17.2314 70.2441 17.3823 70.7272 17.6843C71.2103 17.9862 71.5899 18.4046 71.866 18.9395C72.1507 19.4658 72.293 20.0653 72.293 20.7382C72.293 21.4112 72.1507 22.015 71.866 22.5499C71.5899 23.0762 71.2103 23.4903 70.7272 23.7922C70.2441 24.0942 69.7049 24.2451 69.1096 24.2451C68.6438 24.2451 68.2254 24.1416 67.8544 23.9346C67.4834 23.7275 67.2031 23.4773 67.0133 23.184H66.9486L67.0133 24.1028V26.8332H65.5898V17.4384ZM68.9026 22.9381C69.2477 22.9381 69.5712 22.8476 69.8731 22.6664C70.1751 22.4852 70.4166 22.2264 70.5978 21.89C70.779 21.5535 70.8696 21.1696 70.8696 20.7382C70.8696 20.3069 70.779 19.9273 70.5978 19.5995C70.4166 19.263 70.1751 19.0042 69.8731 18.823C69.5712 18.6419 69.2477 18.5513 68.9026 18.5513C68.5575 18.5513 68.234 18.6419 67.932 18.823C67.6387 19.0042 67.4015 19.263 67.2203 19.5995C67.0391 19.9273 66.9486 20.3069 66.9486 20.7382C66.9486 21.1696 67.0391 21.5535 67.2203 21.89C67.4015 22.2264 67.6387 22.4852 67.932 22.6664C68.234 22.8476 68.5575 22.9381 68.9026 22.9381ZM73.5934 14.7727H75.0169V17.2961L74.9522 18.3054H75.0169C75.2067 17.9948 75.4871 17.7404 75.858 17.5419C76.2376 17.3349 76.6431 17.2314 77.0744 17.2314C77.8768 17.2314 78.4893 17.4686 78.912 17.9431C79.3347 18.4089 79.5461 19.0473 79.5461 19.8583V24.0381H78.1226V20.0524C78.1226 19.552 77.9889 19.1768 77.7215 18.9266C77.4627 18.6764 77.1219 18.5513 76.6992 18.5513C76.38 18.5513 76.091 18.6419 75.8322 18.823C75.582 19.0042 75.3835 19.2458 75.2369 19.5477C75.0902 19.841 75.0169 20.1559 75.0169 20.4924V24.0381H73.5934V14.7727ZM83.1217 23.6758L80.3783 17.4384H81.97L83.8335 21.9288H83.8852L85.6969 17.4384H87.2627L83.1864 26.8332H81.6853L83.1217 23.6758Z" fill="#7CCBCD"/>
<path d="M67.164 54.9661C66.668 54.9661 66.2106 54.8506 65.7917 54.6195C65.3776 54.3835 65.0477 54.0609 64.8022 53.6516C64.5566 53.2375 64.4338 52.7753 64.4338 52.2649C64.4338 51.7545 64.5566 51.2946 64.8022 50.8854C65.0477 50.4713 65.3776 50.1487 65.7917 49.9175C66.2106 49.6816 66.668 49.5636 67.164 49.5636C67.5684 49.5636 67.9368 49.6358 68.269 49.7803C68.6061 49.9199 68.895 50.1198 69.1357 50.3798L68.464 51.037C68.2907 50.8541 68.0981 50.7168 67.8862 50.6253C67.6792 50.5339 67.436 50.4881 67.1567 50.4881C66.8389 50.4881 66.5476 50.5627 66.2828 50.712C66.018 50.8565 65.8061 51.0659 65.6472 51.3404C65.4931 51.61 65.4161 51.9182 65.4161 52.2649C65.4161 52.6116 65.4955 52.9221 65.6544 53.1966C65.8133 53.4662 66.0252 53.6757 66.29 53.825C66.5597 53.9694 66.8534 54.0417 67.1712 54.0417C67.6527 54.0417 68.0475 53.8996 68.3557 53.6155C68.452 53.5288 68.5363 53.4181 68.6085 53.2833C68.6807 53.1485 68.7337 53.0016 68.7674 52.8427H67.1423V52.0121H69.6774C69.7111 52.1469 69.728 52.2986 69.728 52.4671C69.728 52.809 69.675 53.1268 69.5691 53.4205C69.468 53.7142 69.3115 53.9718 69.0996 54.1933C68.8685 54.4437 68.5892 54.6363 68.2618 54.7711C67.9344 54.9011 67.5684 54.9661 67.164 54.9661ZM72.258 54.9661C71.8776 54.9661 71.5381 54.8819 71.2396 54.7134C70.9411 54.54 70.7075 54.3065 70.539 54.0128C70.3753 53.7142 70.2934 53.3796 70.2934 53.0088C70.2934 52.6429 70.3753 52.3106 70.539 52.0121C70.7075 51.7136 70.9411 51.48 71.2396 51.3115C71.5381 51.1382 71.8776 51.0515 72.258 51.0515C72.6336 51.0515 72.9706 51.1382 73.2692 51.3115C73.5677 51.48 73.7988 51.7136 73.9625 52.0121C74.1311 52.3106 74.2153 52.6429 74.2153 53.0088C74.2153 53.3796 74.1311 53.7142 73.9625 54.0128C73.7988 54.3065 73.5677 54.54 73.2692 54.7134C72.9706 54.8819 72.6336 54.9661 72.258 54.9661ZM72.258 54.0922C72.441 54.0922 72.6095 54.0489 72.7636 53.9622C72.9177 53.8755 73.0405 53.7503 73.1319 53.5866C73.2234 53.4229 73.2692 53.2303 73.2692 53.0088C73.2692 52.7921 73.2234 52.6019 73.1319 52.4382C73.0405 52.2745 72.9177 52.1493 72.7636 52.0626C72.6095 51.976 72.441 51.9326 72.258 51.9326C72.075 51.9326 71.9065 51.976 71.7524 52.0626C71.5983 52.1493 71.4731 52.2745 71.3768 52.4382C71.2854 52.6019 71.2396 52.7921 71.2396 53.0088C71.2396 53.2255 71.2854 53.4181 71.3768 53.5866C71.4731 53.7503 71.5983 53.8755 71.7524 53.9622C71.9065 54.0489 72.075 54.0922 72.258 54.0922ZM76.7016 54.9661C76.3212 54.9661 75.9818 54.8819 75.6832 54.7134C75.3847 54.54 75.1512 54.3065 74.9826 54.0128C74.8189 53.7142 74.7371 53.3796 74.7371 53.0088C74.7371 52.6429 74.8189 52.3106 74.9826 52.0121C75.1512 51.7136 75.3847 51.48 75.6832 51.3115C75.9818 51.1382 76.3212 51.0515 76.7016 51.0515C77.0772 51.0515 77.4142 51.1382 77.7128 51.3115C78.0113 51.48 78.2424 51.7136 78.4062 52.0121C78.5747 52.3106 78.6589 52.6429 78.6589 53.0088C78.6589 53.3796 78.5747 53.7142 78.4062 54.0128C78.2424 54.3065 78.0113 54.54 77.7128 54.7134C77.4142 54.8819 77.0772 54.9661 76.7016 54.9661ZM76.7016 54.0922C76.8846 54.0922 77.0531 54.0489 77.2072 53.9622C77.3613 53.8755 77.4841 53.7503 77.5756 53.5866C77.667 53.4229 77.7128 53.2303 77.7128 53.0088C77.7128 52.7921 77.667 52.6019 77.5756 52.4382C77.4841 52.2745 77.3613 52.1493 77.2072 52.0626C77.0531 51.976 76.8846 51.9326 76.7016 51.9326C76.5186 51.9326 76.3501 51.976 76.196 52.0626C76.0419 52.1493 75.9168 52.2745 75.8205 52.4382C75.729 52.6019 75.6832 52.7921 75.6832 53.0088C75.6832 53.2255 75.729 53.4181 75.8205 53.5866C75.9168 53.7503 76.0419 53.8755 76.196 53.9622C76.3501 54.0489 76.5186 54.0922 76.7016 54.0922ZM81.0802 56.5262C80.6132 56.5262 80.2255 56.4203 79.9174 56.2084C79.6092 56.0014 79.4022 55.751 79.2962 55.4573L80.1846 55.0962C80.2617 55.2791 80.3796 55.4236 80.5385 55.5295C80.6974 55.6354 80.878 55.6884 81.0802 55.6884C81.3788 55.6884 81.6147 55.5969 81.788 55.414C81.9662 55.231 82.0553 54.971 82.0553 54.6339V54.345H81.9975C81.8819 54.5087 81.7303 54.6339 81.5425 54.7206C81.3547 54.8073 81.1404 54.8506 80.8997 54.8506C80.5963 54.8506 80.3122 54.7735 80.0474 54.6195C79.7874 54.4606 79.5779 54.2391 79.419 53.955C79.2601 53.6661 79.1807 53.3314 79.1807 52.951C79.1807 52.5706 79.2601 52.2384 79.419 51.9543C79.5779 51.6654 79.7874 51.4439 80.0474 51.2898C80.3122 51.1309 80.5963 51.0515 80.8997 51.0515C81.1404 51.0515 81.3547 51.0948 81.5425 51.1815C81.7303 51.2682 81.8819 51.3934 81.9975 51.5571H82.0553V51.167H82.9653V54.5978C82.9653 54.9926 82.8883 55.3345 82.7342 55.6234C82.5801 55.9123 82.361 56.1338 82.0769 56.2879C81.7929 56.4468 81.4606 56.5262 81.0802 56.5262ZM81.0947 53.9911C81.3595 53.9911 81.5858 53.8996 81.7736 53.7166C81.9614 53.5288 82.0553 53.2736 82.0553 52.951C82.0553 52.6188 81.9614 52.3636 81.7736 52.1854C81.5906 52.0025 81.3643 51.911 81.0947 51.911C80.825 51.911 80.5963 52.0025 80.4085 52.1854C80.2207 52.3684 80.1268 52.6236 80.1268 52.951C80.1268 53.2785 80.2207 53.5337 80.4085 53.7166C80.5963 53.8996 80.825 53.9911 81.0947 53.9911ZM83.89 49.6792H84.8362V54.8506H83.89V49.6792ZM87.4571 54.9661C87.0912 54.9661 86.7613 54.8819 86.4676 54.7134C86.1739 54.5448 85.9428 54.3137 85.7743 54.02C85.6105 53.7214 85.5287 53.3868 85.5287 53.016C85.5287 52.6645 85.6105 52.3395 85.7743 52.041C85.938 51.7376 86.1643 51.4969 86.4532 51.3187C86.7421 51.1406 87.0647 51.0515 87.421 51.0515C87.8014 51.0515 88.1288 51.1333 88.4033 51.2971C88.6778 51.4608 88.8848 51.6847 89.0244 51.9688C89.1689 52.2528 89.2411 52.5682 89.2411 52.9149C89.2411 53.0257 89.2339 53.1316 89.2195 53.2327H86.4532C86.5013 53.5264 86.6169 53.7503 86.7999 53.9044C86.9877 54.0537 87.2116 54.1283 87.4716 54.1283C87.6883 54.1283 87.8736 54.0826 88.0277 53.9911C88.1866 53.8948 88.3118 53.7672 88.4033 53.6083L89.1689 53.9839C88.7933 54.6387 88.2227 54.9661 87.4571 54.9661ZM88.3311 52.561C88.3214 52.4454 88.2781 52.3323 88.2011 52.2215C88.1288 52.106 88.0253 52.0121 87.8905 51.9399C87.7605 51.8628 87.6064 51.8243 87.4282 51.8243C87.2019 51.8243 87.0069 51.8917 86.8432 52.0265C86.6843 52.1565 86.5687 52.3347 86.4965 52.561H88.3311ZM93.1342 54.9661C92.6816 54.9661 92.282 54.8385 91.9353 54.5833C91.5886 54.3281 91.3454 53.967 91.2058 53.5L92.1231 53.1388C92.1953 53.4133 92.3181 53.6324 92.4914 53.7961C92.6648 53.9598 92.8814 54.0417 93.1415 54.0417C93.3581 54.0417 93.5435 53.9887 93.6976 53.8828C93.8517 53.772 93.9287 53.6203 93.9287 53.4277C93.9287 53.2351 93.8541 53.0786 93.7048 52.9583C93.5604 52.8331 93.3004 52.7006 92.9248 52.561L92.607 52.4454C92.2747 52.3299 91.9906 52.1541 91.7547 51.9182C91.5188 51.6774 91.4008 51.3765 91.4008 51.0154C91.4008 50.7457 91.4706 50.5002 91.6103 50.2787C91.7499 50.0572 91.9473 49.8838 92.2025 49.7586C92.4577 49.6286 92.7466 49.5636 93.0692 49.5636C93.5363 49.5636 93.9046 49.6744 94.1743 49.8959C94.4439 50.1125 94.6293 50.3677 94.7304 50.6615L93.8709 51.0226C93.818 50.8637 93.7241 50.7313 93.5893 50.6253C93.4593 50.5146 93.2907 50.4592 93.0837 50.4592C92.8718 50.4592 92.6961 50.5098 92.5564 50.6109C92.4216 50.7072 92.3542 50.8348 92.3542 50.9937C92.3542 51.1478 92.4192 51.2802 92.5492 51.3909C92.6792 51.4969 92.8935 51.6004 93.192 51.7015L93.517 51.8099C93.9648 51.9639 94.3067 52.1686 94.5426 52.4238C94.7834 52.6742 94.9038 53.004 94.9038 53.4133C94.9038 53.7503 94.8171 54.0368 94.6438 54.2728C94.4704 54.5039 94.2465 54.6772 93.9721 54.7928C93.7024 54.9084 93.4231 54.9661 93.1342 54.9661ZM96.824 54.9661C96.434 54.9661 96.1138 54.853 95.8634 54.6267C95.613 54.3956 95.4878 54.0946 95.4878 53.7239C95.4878 53.4783 95.5529 53.2616 95.6829 53.0738C95.8129 52.886 95.991 52.7416 96.2173 52.6405C96.4436 52.5393 96.694 52.4888 96.9685 52.4888C97.3489 52.4888 97.6739 52.5442 97.9435 52.6549V52.496C97.9435 52.2938 97.8665 52.1301 97.7124 52.0049C97.5632 51.8797 97.3609 51.8171 97.1057 51.8171C96.9324 51.8171 96.7638 51.858 96.6001 51.9399C96.4412 52.0169 96.3088 52.1204 96.2029 52.2504L95.5962 51.7737C95.7743 51.5426 95.9982 51.3645 96.2679 51.2393C96.5375 51.1141 96.8313 51.0515 97.1491 51.0515C97.7124 51.0515 98.141 51.1815 98.4347 51.4415C98.7284 51.7015 98.8753 52.0819 98.8753 52.5827V54.8506H97.9435V54.475H97.8858C97.775 54.6195 97.6282 54.7374 97.4452 54.8289C97.267 54.9204 97.06 54.9661 96.824 54.9661ZM97.0479 54.2294C97.3224 54.2294 97.5391 54.1428 97.698 53.9694C97.8617 53.7913 97.9435 53.5842 97.9435 53.3483C97.698 53.2327 97.4404 53.1749 97.1707 53.1749C96.6796 53.1749 96.434 53.3579 96.434 53.7239C96.434 53.8731 96.487 53.9959 96.5929 54.0922C96.6988 54.1837 96.8505 54.2294 97.0479 54.2294ZM99.7459 51.167H100.634V51.6293H100.692C100.803 51.4511 100.959 51.3115 101.162 51.2104C101.364 51.1044 101.583 51.0515 101.819 51.0515C102.262 51.0515 102.599 51.1863 102.83 51.4559C103.061 51.7256 103.177 52.0939 103.177 52.561V54.8506H102.231V52.6766C102.231 52.4406 102.17 52.2577 102.05 52.1277C101.93 51.9976 101.761 51.9326 101.544 51.9326C101.289 51.9326 101.082 52.0314 100.923 52.2288C100.769 52.4262 100.692 52.6742 100.692 52.9727V54.8506H99.7459V51.167ZM105.436 54.9661C104.988 54.9661 104.624 54.8747 104.345 54.6917C104.07 54.5087 103.878 54.2704 103.767 53.9766L104.612 53.6083C104.689 53.7816 104.798 53.9141 104.937 54.0055C105.082 54.0922 105.248 54.1355 105.436 54.1355C105.609 54.1355 105.753 54.1091 105.869 54.0561C105.984 53.9983 106.042 53.9068 106.042 53.7816C106.042 53.6613 105.989 53.5722 105.883 53.5144C105.777 53.4518 105.619 53.3964 105.407 53.3483L104.973 53.2544C104.675 53.1822 104.427 53.0522 104.229 52.8644C104.032 52.6718 103.933 52.4334 103.933 52.1493C103.933 51.9375 103.996 51.7473 104.121 51.5787C104.251 51.4102 104.424 51.2802 104.641 51.1887C104.863 51.0972 105.106 51.0515 105.371 51.0515C106.131 51.0515 106.639 51.3187 106.895 51.8532L106.086 52.2071C105.941 51.9471 105.71 51.8171 105.392 51.8171C105.229 51.8171 105.099 51.8484 105.002 51.911C104.906 51.9688 104.858 52.0434 104.858 52.1349C104.858 52.3082 105.021 52.4382 105.349 52.5249L105.891 52.6549C106.257 52.7464 106.531 52.886 106.714 53.0738C106.902 53.2616 106.996 53.4927 106.996 53.7672C106.996 54.0031 106.926 54.2126 106.786 54.3956C106.651 54.5737 106.464 54.7134 106.223 54.8145C105.987 54.9156 105.724 54.9661 105.436 54.9661Z" fill="#4F4F4F"/>
<path d="M77.409 69.0376H80.9075L86.979 85.1982H83.616L82.2617 81.3386H76.0773L74.7231 85.1982H71.36L77.409 69.0376ZM81.2686 78.5399L79.8466 74.4771L79.2598 72.5361H79.0792L78.4924 74.4771L77.0479 78.5399H81.2686ZM92.2759 85.5594C91.0571 85.5594 90.0564 85.2058 89.274 84.4985C88.4915 83.7763 88.1003 82.8358 88.1003 81.6772C88.1003 80.9098 88.3034 80.2327 88.7097 79.6458C89.116 79.059 89.6727 78.6076 90.3799 78.2916C91.0872 77.9756 91.8696 77.8176 92.7273 77.8176C93.916 77.8176 94.9317 77.9907 95.7743 78.3367V77.8402C95.7743 77.2082 95.5336 76.6966 95.0521 76.3054C94.5856 75.9141 93.9536 75.7185 93.1561 75.7185C92.6144 75.7185 92.0878 75.8464 91.5762 76.1022C91.0796 76.343 90.6658 76.6665 90.3348 77.0728L88.4389 75.5831C88.9956 74.8608 89.6953 74.3041 90.5379 73.9129C91.3806 73.5217 92.2985 73.326 93.2916 73.326C95.0521 73.326 96.3913 73.7323 97.3092 74.5449C98.227 75.3574 98.686 76.5461 98.686 78.111V85.1982H95.7743V84.0246H95.5938C95.2477 84.476 94.7888 84.8446 94.217 85.1305C93.6602 85.4164 93.0132 85.5594 92.2759 85.5594ZM92.9756 83.2572C93.8333 83.2572 94.5104 82.9863 95.0069 82.4446C95.5185 81.8879 95.7743 81.2408 95.7743 80.5035C95.0069 80.1424 94.2019 79.9618 93.3593 79.9618C91.8245 79.9618 91.0571 80.5336 91.0571 81.6772C91.0571 82.1437 91.2226 82.5274 91.5536 82.8283C91.8847 83.1142 92.3586 83.2572 92.9756 83.2572Z" fill="#F7F7F7"/>
<path d="M175.238 69.0376H178.127L184.199 85.1982H181.4L179.955 81.0678H173.433L171.965 85.1982H169.167L175.238 69.0376ZM179.098 78.7204L177.382 73.9129L176.75 72.0395H176.615L175.983 73.9129L174.268 78.7204H179.098ZM189.6 85.5594C188.772 85.5594 188.035 85.4014 187.388 85.0854C186.741 84.7544 186.237 84.2954 185.876 83.7086C185.514 83.1067 185.334 82.4296 185.334 81.6772C185.334 80.4885 185.778 79.548 186.666 78.8559C187.568 78.1637 188.704 77.8176 190.074 77.8176C190.751 77.8176 191.36 77.8853 191.902 78.0208C192.444 78.1411 192.872 78.2766 193.188 78.427V77.8402C193.188 77.133 192.925 76.5612 192.398 76.1248C191.872 75.6734 191.195 75.4477 190.367 75.4477C189.78 75.4477 189.224 75.5756 188.697 75.8314C188.185 76.0872 187.771 76.4408 187.455 76.8922L185.718 75.5605C186.229 74.8533 186.891 74.3041 187.704 73.9129C188.516 73.5217 189.419 73.326 190.412 73.326C192.082 73.326 193.369 73.7398 194.272 74.5674C195.175 75.38 195.626 76.5311 195.626 78.0208V85.1982H193.188V83.8214H193.076C192.745 84.318 192.278 84.7318 191.676 85.0628C191.074 85.3939 190.382 85.5594 189.6 85.5594ZM190.029 83.5054C190.63 83.5054 191.172 83.3625 191.654 83.0766C192.135 82.7907 192.511 82.407 192.782 81.9255C193.053 81.444 193.188 80.9249 193.188 80.3681C192.842 80.1725 192.436 80.0145 191.97 79.8941C191.518 79.7737 191.044 79.7136 190.548 79.7136C189.615 79.7136 188.93 79.9016 188.494 80.2778C188.057 80.639 187.839 81.1129 187.839 81.6998C187.839 82.2264 188.042 82.6628 188.449 83.0089C188.855 83.3399 189.382 83.5054 190.029 83.5054Z" fill="#F7F7F7"/>
<path d="M274.895 69.0376H277.061L283.201 85.1982H281.102L279.477 80.7518H272.502L270.877 85.1982H268.778L274.895 69.0376ZM278.822 78.9462L276.678 73.1229L276.023 71.385H275.933L275.301 73.1229L273.157 78.9462H278.822ZM288.639 85.5594C287.796 85.5594 287.044 85.3939 286.382 85.0628C285.72 84.7318 285.208 84.2804 284.847 83.7086C284.486 83.1217 284.305 82.4597 284.305 81.7224C284.305 80.5035 284.764 79.5556 285.682 78.8784C286.6 78.1863 287.759 77.8402 289.158 77.8402C289.85 77.8402 290.49 77.9154 291.077 78.0659C291.679 78.2164 292.137 78.3894 292.453 78.585V77.8853C292.453 77.0276 292.153 76.343 291.551 75.8314C290.949 75.3047 290.189 75.0414 289.271 75.0414C288.624 75.0414 288.03 75.1844 287.488 75.4703C286.946 75.7411 286.517 76.1248 286.201 76.6214L284.757 75.538C285.208 74.8458 285.825 74.3041 286.608 73.9129C287.405 73.5217 288.285 73.326 289.248 73.326C290.813 73.326 292.04 73.7398 292.927 74.5674C293.83 75.38 294.282 76.4935 294.282 77.9079V85.1982H292.453V83.5506H292.363C292.032 84.1073 291.536 84.5813 290.874 84.9725C290.211 85.3638 289.467 85.5594 288.639 85.5594ZM288.82 83.8666C289.467 83.8666 290.068 83.7011 290.625 83.37C291.182 83.039 291.626 82.5951 291.957 82.0383C292.288 81.4816 292.453 80.8722 292.453 80.2101C292.092 79.9694 291.648 79.7737 291.122 79.6233C290.595 79.4728 290.038 79.3976 289.452 79.3976C288.398 79.3976 287.601 79.6157 287.059 80.0521C286.532 80.4885 286.269 81.0528 286.269 81.7449C286.269 82.3769 286.51 82.8885 286.991 83.2797C287.473 83.671 288.082 83.8666 288.82 83.8666Z" fill="#F7F7F7"/>
<path d="M165.626 75.5109H167.167L170.405 84.1299H168.912L168.142 81.927H164.663L163.88 84.1299H162.388L165.626 75.5109ZM167.684 80.6751L166.769 78.111L166.432 77.1119H166.36L166.023 78.111L165.108 80.6751H167.684ZM173.285 84.3225C172.844 84.3225 172.451 84.2382 172.106 84.0697C171.76 83.8931 171.492 83.6484 171.299 83.3354C171.106 83.0144 171.01 82.6533 171.01 82.252C171.01 81.618 171.247 81.1164 171.72 80.7473C172.202 80.3781 172.808 80.1935 173.538 80.1935C173.899 80.1935 174.224 80.2297 174.513 80.3019C174.802 80.3661 175.031 80.4383 175.199 80.5186V80.2056C175.199 79.8284 175.059 79.5234 174.778 79.2907C174.497 79.05 174.136 78.9296 173.694 78.9296C173.382 78.9296 173.085 78.9978 172.804 79.1342C172.531 79.2707 172.31 79.4592 172.142 79.7L171.215 78.9898C171.488 78.6126 171.841 78.3197 172.274 78.111C172.707 77.9024 173.189 77.798 173.719 77.798C174.609 77.798 175.296 78.0187 175.777 78.4601C176.259 78.8935 176.499 79.5074 176.499 80.3019V84.1299H175.199V83.3956H175.139C174.962 83.6604 174.714 83.8811 174.393 84.0577C174.072 84.2342 173.703 84.3225 173.285 84.3225ZM173.514 83.2271C173.835 83.2271 174.124 83.1508 174.381 82.9983C174.637 82.8459 174.838 82.6412 174.983 82.3844C175.127 82.1276 175.199 81.8507 175.199 81.5538C175.015 81.4495 174.798 81.3652 174.549 81.301C174.308 81.2368 174.056 81.2047 173.791 81.2047C173.293 81.2047 172.928 81.305 172.695 81.5057C172.463 81.6983 172.346 81.9511 172.346 82.264C172.346 82.5449 172.455 82.7776 172.671 82.9622C172.888 83.1388 173.169 83.2271 173.514 83.2271Z" fill="#7CCBCD"/>
<path d="M264.96 75.5109H266.116L269.39 84.1299H268.271L267.404 81.7585H263.684L262.818 84.1299H261.698L264.96 75.5109ZM267.055 80.7954L265.911 77.6897L265.562 76.7628H265.514L265.177 77.6897L264.033 80.7954H267.055ZM272.291 84.3225C271.841 84.3225 271.44 84.2342 271.087 84.0577C270.734 83.8811 270.461 83.6403 270.268 83.3354C270.076 83.0224 269.979 82.6693 269.979 82.2761C269.979 81.626 270.224 81.1205 270.714 80.7593C271.203 80.3902 271.821 80.2056 272.568 80.2056C272.937 80.2056 273.278 80.2457 273.591 80.326C273.912 80.4062 274.157 80.4985 274.325 80.6028V80.2297C274.325 79.7722 274.165 79.4071 273.844 79.1342C273.523 78.8533 273.117 78.7129 272.628 78.7129C272.283 78.7129 271.966 78.7891 271.677 78.9416C271.388 79.0861 271.159 79.2907 270.991 79.5555L270.22 78.9777C270.461 78.6086 270.79 78.3197 271.207 78.111C271.633 77.9024 272.102 77.798 272.616 77.798C273.45 77.798 274.104 78.0187 274.578 78.4601C275.059 78.8935 275.3 79.4873 275.3 80.2417V84.1299H274.325V83.2511H274.277C274.1 83.5481 273.836 83.8009 273.482 84.0095C273.129 84.2182 272.732 84.3225 272.291 84.3225ZM272.387 83.4197C272.732 83.4197 273.053 83.3314 273.35 83.1548C273.647 82.9783 273.884 82.7415 274.06 82.4446C274.237 82.1477 274.325 81.8227 274.325 81.4695C274.132 81.3411 273.896 81.2368 273.615 81.1566C273.334 81.0763 273.037 81.0362 272.724 81.0362C272.162 81.0362 271.737 81.1526 271.448 81.3853C271.167 81.618 271.027 81.919 271.027 82.2881C271.027 82.6252 271.155 82.898 271.412 83.1067C271.669 83.3153 271.994 83.4197 272.387 83.4197Z" fill="#7CCBCD"/>
<path d="M67.5063 75.5109H69.3721L72.6103 84.1299H70.8167L70.0944 82.0714H66.7961L66.0738 84.1299H64.2802L67.5063 75.5109ZM69.5647 80.5788L68.8064 78.412L68.4934 77.3767H68.3971L68.0841 78.412L67.3137 80.5788H69.5647ZM75.4353 84.3225C74.7853 84.3225 74.2516 84.1339 73.8343 83.7567C73.417 83.3715 73.2083 82.8699 73.2083 82.252C73.2083 81.8427 73.3166 81.4816 73.5333 81.1686C73.75 80.8556 74.0469 80.6149 74.4241 80.4463C74.8013 80.2778 75.2186 80.1935 75.676 80.1935C76.31 80.1935 76.8517 80.2858 77.3011 80.4704V80.2056C77.3011 79.8685 77.1727 79.5957 76.9159 79.387C76.6671 79.1784 76.3301 79.074 75.9048 79.074C75.6159 79.074 75.335 79.1423 75.0621 79.2787C74.7973 79.4071 74.5766 79.5796 74.4 79.7963L73.3889 79.0018C73.6858 78.6166 74.059 78.3197 74.5084 78.111C74.9578 77.9024 75.4473 77.798 75.977 77.798C76.9159 77.798 77.6302 78.0147 78.1197 78.4481C78.6092 78.8814 78.854 79.5154 78.854 80.35V84.1299H77.3011V83.5039H77.2048C77.0203 83.7447 76.7755 83.9413 76.4705 84.0938C76.1736 84.2462 75.8285 84.3225 75.4353 84.3225ZM75.8085 83.0946C76.2659 83.0946 76.627 82.9502 76.8919 82.6613C77.1647 82.3644 77.3011 82.0193 77.3011 81.626C76.8919 81.4334 76.4625 81.3371 76.0131 81.3371C75.1945 81.3371 74.7853 81.6421 74.7853 82.252C74.7853 82.5008 74.8735 82.7054 75.0501 82.8659C75.2266 83.0184 75.4794 83.0946 75.8085 83.0946Z" fill="#7CCBCD"/>
<path d="M64.7165 91.8963H66.8231C67.1241 91.8963 67.4 91.959 67.6507 92.0844C67.9065 92.2098 68.1072 92.3803 68.2526 92.596C68.3981 92.8117 68.4708 93.0474 68.4708 93.3032C68.4708 93.5741 68.4031 93.8098 68.2677 94.0104C68.1373 94.2061 67.9642 94.3565 67.7485 94.4619V94.5221C68.0294 94.6224 68.2526 94.7829 68.4181 95.0036C68.5837 95.2192 68.6664 95.4801 68.6664 95.786C68.6664 96.0819 68.5862 96.3453 68.4257 96.576C68.2702 96.8017 68.057 96.9772 67.7862 97.1026C67.5203 97.223 67.2244 97.2832 66.8984 97.2832H64.7165V91.8963ZM66.7479 94.0932C66.9686 94.0932 67.1441 94.033 67.2746 93.9126C67.41 93.7872 67.4777 93.6318 67.4777 93.4462C67.4777 93.2656 67.4125 93.1151 67.2821 92.9948C67.1567 92.8694 66.9887 92.8067 66.778 92.8067H65.7322V94.0932H66.7479ZM66.8608 96.3578C67.1065 96.3578 67.2971 96.2951 67.4326 96.1697C67.573 96.0393 67.6432 95.8713 67.6432 95.6656C67.6432 95.46 67.573 95.292 67.4326 95.1616C67.2921 95.0311 67.0915 94.9659 66.8307 94.9659H65.7322V96.3578H66.8608ZM71.2881 97.4036C70.8919 97.4036 70.5382 97.3158 70.2273 97.1403C69.9163 96.9597 69.673 96.7164 69.4975 96.4105C69.3269 96.0995 69.2417 95.7509 69.2417 95.3647C69.2417 94.9835 69.3269 94.6374 69.4975 94.3264C69.673 94.0155 69.9163 93.7722 70.2273 93.5967C70.5382 93.4161 70.8919 93.3258 71.2881 93.3258C71.6793 93.3258 72.0304 93.4161 72.3414 93.5967C72.6524 93.7722 72.8931 94.0155 73.0637 94.3264C73.2392 94.6374 73.327 94.9835 73.327 95.3647C73.327 95.7509 73.2392 96.0995 73.0637 96.4105C72.8931 96.7164 72.6524 96.9597 72.3414 97.1403C72.0304 97.3158 71.6793 97.4036 71.2881 97.4036ZM71.2881 96.4932C71.4787 96.4932 71.6542 96.4481 71.8147 96.3578C71.9752 96.2675 72.1031 96.1371 72.1984 95.9666C72.2937 95.796 72.3414 95.5954 72.3414 95.3647C72.3414 95.139 72.2937 94.9409 72.1984 94.7703C72.1031 94.5998 71.9752 94.4694 71.8147 94.3791C71.6542 94.2888 71.4787 94.2437 71.2881 94.2437C71.0975 94.2437 70.9219 94.2888 70.7614 94.3791C70.6009 94.4694 70.4705 94.5998 70.3702 94.7703C70.2749 94.9409 70.2273 95.139 70.2273 95.3647C70.2273 95.5904 70.2749 95.791 70.3702 95.9666C70.4705 96.1371 70.6009 96.2675 70.7614 96.3578C70.9219 96.4481 71.0975 96.4932 71.2881 96.4932ZM74.0444 91.8963H75.03V97.2832H74.0444V91.8963ZM77.6097 97.4036C77.2636 97.4036 76.9476 97.3183 76.6617 97.1478C76.3808 96.9722 76.1576 96.7315 75.9921 96.4255C75.8316 96.1145 75.7513 95.7609 75.7513 95.3647C75.7513 94.9735 75.8316 94.6224 75.9921 94.3114C76.1576 94.0004 76.3808 93.7597 76.6617 93.5891C76.9476 93.4136 77.2636 93.3258 77.6097 93.3258C77.8705 93.3258 78.1012 93.3835 78.3018 93.4988C78.5025 93.6092 78.6554 93.7471 78.7608 93.9126H78.821L78.7608 93.3709V91.8963H79.7388V97.2832H78.821V96.8243H78.7608C78.6605 96.9898 78.5075 97.1277 78.3018 97.2381C78.1012 97.3484 77.8705 97.4036 77.6097 97.4036ZM77.7752 96.4932C77.9608 96.4932 78.1338 96.4456 78.2943 96.3503C78.4548 96.255 78.5827 96.1221 78.678 95.9515C78.7733 95.781 78.821 95.5854 78.821 95.3647C78.821 95.144 78.7733 94.9484 78.678 94.7779C78.5827 94.6073 78.4548 94.4769 78.2943 94.3866C78.1338 94.2913 77.9608 94.2437 77.7752 94.2437C77.5946 94.2437 77.4241 94.2913 77.2636 94.3866C77.1031 94.4769 76.9752 94.6073 76.8799 94.7779C76.7846 94.9484 76.7369 95.144 76.7369 95.3647C76.7369 95.5854 76.7846 95.781 76.8799 95.9515C76.9752 96.1221 77.1031 96.255 77.2636 96.3503C77.4241 96.4456 77.5946 96.4932 77.7752 96.4932Z" fill="#4F4F4F"/>
<path d="M162.824 91.8963H163.968L165.517 95.9816H165.563L167.112 91.8963H168.256V97.2832H167.421V94.2662L167.466 93.2957H167.421L165.879 97.2832H165.201L163.659 93.2957H163.614L163.659 94.2662V97.2832H162.824V91.8963ZM171.105 97.4036C170.729 97.4036 170.391 97.3158 170.09 97.1403C169.794 96.9647 169.561 96.724 169.39 96.418C169.225 96.107 169.142 95.7584 169.142 95.3722C169.142 95.0061 169.222 94.6675 169.383 94.3565C169.548 94.0405 169.776 93.7898 170.067 93.6042C170.358 93.4186 170.689 93.3258 171.06 93.3258C171.447 93.3258 171.78 93.4111 172.061 93.5816C172.347 93.7521 172.563 93.9854 172.708 94.2813C172.858 94.5772 172.934 94.9108 172.934 95.2819C172.934 95.3522 172.926 95.4399 172.911 95.5453H169.969C170 95.9014 170.125 96.1772 170.346 96.3729C170.571 96.5634 170.832 96.6587 171.128 96.6587C171.364 96.6587 171.567 96.6061 171.737 96.5008C171.913 96.3904 172.053 96.2424 172.159 96.0569L172.858 96.3879C172.678 96.7039 172.442 96.9522 172.151 97.1327C171.86 97.3133 171.512 97.4036 171.105 97.4036ZM172.091 94.9133C172.081 94.7779 172.038 94.6449 171.963 94.5145C171.888 94.3791 171.773 94.2662 171.617 94.176C171.467 94.0857 171.281 94.0405 171.06 94.0405C170.795 94.0405 170.569 94.1208 170.383 94.2813C170.203 94.4368 170.077 94.6474 170.007 94.9133H172.091ZM175.364 97.4036C175.018 97.4036 174.705 97.3158 174.424 97.1403C174.143 96.9647 173.92 96.724 173.754 96.418C173.594 96.107 173.513 95.7559 173.513 95.3647C173.513 94.9735 173.594 94.6249 173.754 94.3189C173.92 94.0079 174.143 93.7647 174.424 93.5891C174.705 93.4136 175.018 93.3258 175.364 93.3258C175.635 93.3258 175.878 93.386 176.094 93.5064C176.31 93.6267 176.473 93.7747 176.583 93.9503H176.621L176.583 93.4086V91.8963H177.411V97.2832H176.621V96.7866H176.583C176.473 96.9572 176.31 97.1026 176.094 97.223C175.878 97.3434 175.635 97.4036 175.364 97.4036ZM175.485 96.6437C175.685 96.6437 175.871 96.591 176.041 96.4857C176.217 96.3804 176.357 96.2299 176.463 96.0343C176.568 95.8387 176.621 95.6155 176.621 95.3647C176.621 95.1139 176.568 94.8932 176.463 94.7026C176.357 94.507 176.217 94.3565 176.041 94.2512C175.871 94.1459 175.685 94.0932 175.485 94.0932C175.284 94.0932 175.096 94.1459 174.92 94.2512C174.745 94.3565 174.604 94.507 174.499 94.7026C174.394 94.8932 174.341 95.1139 174.341 95.3647C174.341 95.6155 174.394 95.8387 174.499 96.0343C174.604 96.2299 174.745 96.3804 174.92 96.4857C175.096 96.591 175.284 96.6437 175.485 96.6437ZM178.849 92.8894C178.693 92.8894 178.56 92.8368 178.45 92.7314C178.345 92.6211 178.292 92.4882 178.292 92.3327C178.292 92.1772 178.345 92.0468 178.45 91.9415C178.56 91.8311 178.693 91.7759 178.849 91.7759C179.004 91.7759 179.135 91.8311 179.24 91.9415C179.35 92.0468 179.406 92.1772 179.406 92.3327C179.406 92.4882 179.35 92.6211 179.24 92.7314C179.135 92.8368 179.004 92.8894 178.849 92.8894ZM178.435 93.4462H179.263V97.2832H178.435V93.4462ZM181.692 97.4036C181.225 97.4036 180.869 97.2656 180.624 96.9898C180.383 96.7089 180.262 96.3202 180.262 95.8236V93.4462H181.09V95.7108C181.09 96.0218 181.163 96.255 181.308 96.4105C181.459 96.566 181.654 96.6437 181.895 96.6437C182.091 96.6437 182.264 96.5935 182.414 96.4932C182.565 96.3879 182.68 96.25 182.76 96.0794C182.841 95.9089 182.881 95.7258 182.881 95.5302V93.4462H183.708V97.2832H182.926V96.7866H182.881C182.775 96.9672 182.612 97.1152 182.392 97.2305C182.171 97.3459 181.938 97.4036 181.692 97.4036ZM184.671 93.4462H185.461V93.9503H185.499C185.614 93.7647 185.777 93.6142 185.988 93.4988C186.199 93.3835 186.424 93.3258 186.665 93.3258C186.941 93.3258 187.182 93.391 187.387 93.5214C187.593 93.6468 187.741 93.8148 187.831 94.0255C187.962 93.8148 188.135 93.6468 188.351 93.5214C188.571 93.391 188.83 93.3258 189.125 93.3258C189.567 93.3258 189.9 93.4612 190.126 93.7321C190.357 93.9979 190.472 94.3615 190.472 94.823V97.2832H189.645V94.9659C189.645 94.3841 189.396 94.0932 188.9 94.0932C188.634 94.0932 188.416 94.201 188.245 94.4167C188.075 94.6324 187.989 94.8982 187.989 95.2142V97.2832H187.162V94.9659C187.162 94.3841 186.906 94.0932 186.394 94.0932C186.134 94.0932 185.918 94.201 185.747 94.4167C185.582 94.6324 185.499 94.8982 185.499 95.2142V97.2832H184.671V93.4462Z" fill="#4F4F4F"/>
<path d="M263.625 91.8963H265.446C265.742 91.8963 266.018 91.964 266.274 92.0995C266.529 92.2349 266.733 92.4255 266.883 92.6713C267.039 92.912 267.116 93.1854 267.116 93.4913C267.116 93.7421 267.059 93.9753 266.943 94.191C266.833 94.4067 266.677 94.5873 266.477 94.7327C266.281 94.8782 266.063 94.976 265.822 95.0261L265.807 95.0487L267.327 97.2531V97.2832H266.575L265.107 95.0863H264.257V97.2832H263.625V91.8963ZM265.408 94.492C265.594 94.492 265.767 94.4493 265.928 94.3641C266.093 94.2788 266.223 94.1609 266.319 94.0104C266.419 93.855 266.469 93.6819 266.469 93.4913C266.469 93.3258 266.427 93.1678 266.341 93.0173C266.256 92.8669 266.136 92.744 265.98 92.6487C265.83 92.5534 265.654 92.5057 265.454 92.5057H264.257V94.492H265.408ZM269.54 97.4036C269.174 97.4036 268.845 97.3158 268.555 97.1403C268.264 96.9647 268.035 96.724 267.87 96.418C267.709 96.107 267.629 95.7584 267.629 95.3722C267.629 95.0011 267.704 94.66 267.855 94.349C268.01 94.038 268.229 93.7898 268.509 93.6042C268.79 93.4186 269.116 93.3258 269.487 93.3258C269.864 93.3258 270.19 93.4111 270.466 93.5816C270.741 93.7471 270.952 93.9778 271.098 94.2738C271.248 94.5697 271.323 94.9083 271.323 95.2895C271.323 95.3647 271.316 95.4299 271.301 95.4851H268.269C268.284 95.776 268.354 96.0218 268.479 96.2224C268.605 96.423 268.763 96.5735 268.953 96.6738C269.149 96.7741 269.352 96.8243 269.563 96.8243C270.054 96.8243 270.433 96.5935 270.699 96.1321L271.24 96.3954C271.075 96.7064 270.849 96.9522 270.563 97.1327C270.282 97.3133 269.941 97.4036 269.54 97.4036ZM270.646 94.9584C270.636 94.7979 270.591 94.6374 270.511 94.4769C270.43 94.3164 270.303 94.181 270.127 94.0706C269.956 93.9603 269.741 93.9051 269.48 93.9051C269.179 93.9051 268.923 94.0029 268.713 94.1985C268.507 94.3891 268.371 94.6424 268.306 94.9584H270.646ZM273.794 99.0287C273.342 99.0287 272.969 98.9233 272.673 98.7127C272.382 98.502 272.186 98.2487 272.086 97.9528L272.665 97.7045C272.75 97.9252 272.891 98.1033 273.086 98.2387C273.287 98.3791 273.523 98.4494 273.794 98.4494C274.19 98.4494 274.496 98.334 274.712 98.1033C274.932 97.8725 275.043 97.5465 275.043 97.1252V96.6964H275.012C274.887 96.892 274.709 97.0525 274.478 97.1779C274.253 97.2983 273.994 97.3584 273.703 97.3584C273.372 97.3584 273.069 97.2732 272.793 97.1026C272.522 96.9321 272.307 96.6939 272.146 96.3879C271.986 96.0819 271.905 95.7333 271.905 95.3421C271.905 94.9559 271.986 94.6098 272.146 94.3039C272.307 93.9929 272.522 93.7521 272.793 93.5816C273.069 93.4111 273.372 93.3258 273.703 93.3258C273.994 93.3258 274.253 93.3885 274.478 93.5139C274.709 93.6343 274.887 93.7948 275.012 93.9954H275.043V93.4462H275.652V97.1327C275.652 97.7497 275.481 98.2186 275.14 98.5396C274.799 98.8657 274.35 99.0287 273.794 99.0287ZM273.794 96.7791C274.024 96.7791 274.233 96.7214 274.418 96.6061C274.609 96.4907 274.759 96.3252 274.87 96.1095C274.985 95.8938 275.043 95.638 275.043 95.3421C275.043 95.0412 274.985 94.7829 274.87 94.5672C274.759 94.3515 274.609 94.1885 274.418 94.0782C274.233 93.9628 274.024 93.9051 273.794 93.9051C273.563 93.9051 273.352 93.9628 273.162 94.0782C272.971 94.1935 272.818 94.359 272.703 94.5747C272.592 94.7904 272.537 95.0462 272.537 95.3421C272.537 95.638 272.592 95.8964 272.703 96.117C272.818 96.3327 272.971 96.4982 273.162 96.6136C273.352 96.724 273.563 96.7791 273.794 96.7791ZM277.953 97.4036C277.491 97.4036 277.138 97.2682 276.892 96.9973C276.651 96.7265 276.531 96.3478 276.531 95.8612V93.4462H277.17V95.7634C277.17 96.1296 277.253 96.3979 277.419 96.5685C277.584 96.739 277.807 96.8243 278.088 96.8243C278.304 96.8243 278.494 96.7666 278.66 96.6512C278.83 96.5359 278.961 96.3854 279.051 96.1998C279.146 96.0142 279.194 95.8186 279.194 95.613V93.4462H279.834V97.2832H279.224V96.7265H279.194C279.089 96.9171 278.921 97.0776 278.69 97.208C278.459 97.3384 278.213 97.4036 277.953 97.4036ZM280.778 91.8963H281.418V97.2832H280.778V91.8963ZM283.555 97.4036C283.274 97.4036 283.023 97.3484 282.802 97.2381C282.582 97.1277 282.411 96.9772 282.291 96.7866C282.17 96.591 282.11 96.3703 282.11 96.1246C282.11 95.7183 282.263 95.4023 282.569 95.1766C282.875 94.9459 283.261 94.8305 283.728 94.8305C283.959 94.8305 284.172 94.8556 284.367 94.9058C284.568 94.9559 284.721 95.0136 284.826 95.0788V94.8456C284.826 94.5597 284.726 94.3315 284.525 94.1609C284.325 93.9854 284.071 93.8976 283.765 93.8976C283.55 93.8976 283.352 93.9452 283.171 94.0405C282.99 94.1308 282.848 94.2587 282.742 94.4242L282.261 94.0631C282.411 93.8324 282.617 93.6518 282.878 93.5214C283.143 93.391 283.437 93.3258 283.758 93.3258C284.28 93.3258 284.688 93.4637 284.984 93.7396C285.285 94.0104 285.436 94.3816 285.436 94.8531V97.2832H284.826V96.734H284.796C284.686 96.9196 284.52 97.0776 284.3 97.208C284.079 97.3384 283.831 97.4036 283.555 97.4036ZM283.615 96.8393C283.831 96.8393 284.031 96.7841 284.217 96.6738C284.402 96.5634 284.55 96.4155 284.661 96.2299C284.771 96.0443 284.826 95.8412 284.826 95.6205C284.706 95.5402 284.558 95.475 284.382 95.4249C284.207 95.3747 284.021 95.3496 283.826 95.3496C283.474 95.3496 283.209 95.4224 283.028 95.5678C282.853 95.7133 282.765 95.9014 282.765 96.1321C282.765 96.3428 282.845 96.5133 283.006 96.6437C283.166 96.7741 283.369 96.8393 283.615 96.8393ZM286.325 93.4462H286.935V94.0631H286.965C287.04 93.8525 287.185 93.6794 287.401 93.544C287.617 93.4035 287.843 93.3333 288.078 93.3333C288.254 93.3333 288.404 93.3584 288.53 93.4086V94.1007C288.369 94.0205 288.189 93.9804 287.988 93.9804C287.802 93.9804 287.632 94.033 287.476 94.1383C287.321 94.2437 287.196 94.3866 287.1 94.5672C287.01 94.7427 286.965 94.9333 286.965 95.139V97.2832H286.325V93.4462Z" fill="#4F4F4F"/>
</svg>
