<svg width="375" height="145" viewBox="0 0 375 145" fill="none" xmlns="http://www.w3.org/2000/svg">
<rect width="375.079" height="144.862" rx="4" fill="white"/>
<path d="M19.8536 24.2283C18.9576 24.2283 18.1391 24.0172 17.3982 23.595C16.6572 23.1728 16.0757 22.5913 15.6535 21.8504C15.2313 21.1094 15.0203 20.2909 15.0203 19.3949C15.0203 18.4989 15.2313 17.6804 15.6535 16.9395C16.0757 16.1985 16.6572 15.617 17.3982 15.1948C18.1391 14.7726 18.9576 14.5616 19.8536 14.5616C20.5515 14.5616 21.1847 14.6908 21.7533 14.9493C22.3306 15.2077 22.8389 15.5825 23.2783 16.0736L22.2444 17.0687C21.9257 16.6896 21.5724 16.4096 21.1847 16.2287C20.797 16.0391 20.3533 15.9444 19.8536 15.9444C19.2333 15.9444 18.6647 16.0865 18.1477 16.3708C17.6394 16.6552 17.2345 17.0601 16.9329 17.5856C16.6314 18.1026 16.4806 18.7057 16.4806 19.3949C16.4806 20.0842 16.6314 20.6916 16.9329 21.2171C17.2345 21.734 17.6394 22.1347 18.1477 22.419C18.6647 22.7033 19.2333 22.8455 19.8536 22.8455C20.8875 22.8455 21.7663 22.4147 22.49 21.5531L23.5368 22.5611C23.0888 23.0867 22.5503 23.4959 21.9213 23.7889C21.2924 24.0818 20.6032 24.2283 19.8536 24.2283ZM27.8857 24.2283C27.2223 24.2283 26.6278 24.0775 26.1023 23.7759C25.5767 23.4658 25.1675 23.0436 24.8745 22.5094C24.5816 21.9753 24.4351 21.3808 24.4351 20.726C24.4351 20.0712 24.5816 19.4768 24.8745 18.9426C25.1675 18.4084 25.5767 17.9906 26.1023 17.689C26.6278 17.3789 27.2223 17.2238 27.8857 17.2238C28.5491 17.2238 29.1436 17.3789 29.6691 17.689C30.1947 17.9992 30.6039 18.4213 30.8968 18.9555C31.1898 19.4897 31.3362 20.0799 31.3362 20.726C31.3362 21.3808 31.1898 21.9753 30.8968 22.5094C30.6039 23.0436 30.1947 23.4658 29.6691 23.7759C29.1436 24.0775 28.5491 24.2283 27.8857 24.2283ZM27.8857 22.923C28.2475 22.923 28.5836 22.8368 28.8937 22.6645C29.2039 22.4836 29.4494 22.2294 29.6304 21.902C29.8199 21.566 29.9147 21.174 29.9147 20.726C29.9147 20.278 29.8199 19.8903 29.6304 19.5629C29.4494 19.2355 29.2039 18.9857 28.8937 18.8134C28.5836 18.6324 28.2475 18.542 27.8857 18.542C27.5238 18.542 27.1878 18.6324 26.8777 18.8134C26.5675 18.9857 26.3177 19.2355 26.1281 19.5629C25.9472 19.8903 25.8567 20.278 25.8567 20.726C25.8567 21.174 25.9472 21.566 26.1281 21.902C26.3177 22.2294 26.5675 22.4836 26.8777 22.6645C27.1878 22.8368 27.5238 22.923 27.8857 22.923ZM32.7131 14.7683H34.1347V24.0215H32.7131V14.7683ZM38.9599 24.2283C38.2965 24.2283 37.702 24.0775 37.1765 23.7759C36.6509 23.4658 36.2417 23.0436 35.9488 22.5094C35.6558 21.9753 35.5094 21.3808 35.5094 20.726C35.5094 20.0712 35.6558 19.4768 35.9488 18.9426C36.2417 18.4084 36.6509 17.9906 37.1765 17.689C37.702 17.3789 38.2965 17.2238 38.9599 17.2238C39.6233 17.2238 40.2178 17.3789 40.7434 17.689C41.2689 17.9992 41.6781 18.4213 41.9711 18.9555C42.264 19.4897 42.4105 20.0799 42.4105 20.726C42.4105 21.3808 42.264 21.9753 41.9711 22.5094C41.6781 23.0436 41.2689 23.4658 40.7434 23.7759C40.2178 24.0775 39.6233 24.2283 38.9599 24.2283ZM38.9599 22.923C39.3218 22.923 39.6578 22.8368 39.9679 22.6645C40.2781 22.4836 40.5237 22.2294 40.7046 21.902C40.8941 21.566 40.9889 21.174 40.9889 20.726C40.9889 20.278 40.8941 19.8903 40.7046 19.5629C40.5237 19.2355 40.2781 18.9857 39.9679 18.8134C39.6578 18.6324 39.3218 18.542 38.9599 18.542C38.5981 18.542 38.2621 18.6324 37.9519 18.8134C37.6417 18.9857 37.3919 19.2355 37.2023 19.5629C37.0214 19.8903 36.931 20.278 36.931 20.726C36.931 21.174 37.0214 21.566 37.2023 21.902C37.3919 22.2294 37.6417 22.4836 37.9519 22.6645C38.2621 22.8368 38.5981 22.923 38.9599 22.923ZM43.7242 17.4306H45.0812V18.3998H45.1458C45.2923 18.0638 45.5464 17.7881 45.9083 17.5727C46.2701 17.3487 46.6535 17.2367 47.0584 17.2367C47.3772 17.2367 47.6443 17.2798 47.8597 17.3659V18.8392C47.4806 18.7014 47.1403 18.6324 46.8387 18.6324C46.5114 18.6324 46.2184 18.7186 45.96 18.8909C45.7101 19.0632 45.5119 19.2958 45.3655 19.5888C45.219 19.8731 45.1458 20.1875 45.1458 20.5322V24.0215H43.7242V17.4306Z" fill="#72C3C4" fill-opacity="0.8"/>
<path d="M174.826 110.104H173.931L174.018 109.599H174.905L175.056 108.582H174.155L174.234 108.077H175.129L175.338 106.656H175.872L175.662 108.077H176.687L176.896 106.656H177.43L177.22 108.077H178.115L178.035 108.582H177.148L176.997 109.599H177.898L177.819 110.104H176.917L176.694 111.59H176.16L176.384 110.104H175.359L175.136 111.59H174.602L174.826 110.104ZM176.463 109.599L176.614 108.582H175.59L175.439 109.599H176.463ZM178.913 106.425H181.899V107.01H179.519V108.777H181.668V109.354H179.519V111.59H178.913V106.425ZM182.745 106.425H185.731V107.01H183.351V108.777H185.5V109.354H183.351V111.59H182.745V106.425ZM186.577 106.425H189.563V107.01H187.183V108.777H189.332V109.354H187.183V111.59H186.577V106.425ZM190.409 106.425H193.395V107.01H191.014V108.777H193.164V109.354H191.014V111.59H190.409V106.425ZM194.24 106.425H197.227V107.01H194.846V108.777H196.996V109.354H194.846V111.59H194.24V106.425ZM198.072 106.425H201.059V107.01H198.678V108.777H200.828V109.354H198.678V111.59H198.072V106.425Z" fill="#232323" fill-opacity="0.8"/>
<path d="M73.5405 110.104H72.6461L72.7326 109.599H73.6198L73.7713 108.582H72.8697L72.949 108.077H73.8434L74.0526 106.656H74.5864L74.3772 108.077H75.4015L75.6106 106.656H76.1444L75.9352 108.077H76.8297L76.7503 108.582H75.8631L75.7116 109.599H76.6133L76.5339 110.104H75.6323L75.4087 111.59H74.8749L75.0985 110.104H74.0743L73.8507 111.59H73.3169L73.5405 110.104ZM75.1779 109.599L75.3293 108.582H74.3051L74.1536 109.599H75.1779ZM79.3732 111.705C78.9836 111.705 78.6374 111.592 78.3345 111.366C78.0363 111.135 77.8055 110.825 77.642 110.436C77.4833 110.041 77.404 109.604 77.404 109.123C77.404 108.642 77.4833 108.207 77.642 107.817C77.8055 107.423 78.0363 107.113 78.3345 106.887C78.6326 106.656 78.9788 106.541 79.3732 106.541C79.7675 106.541 80.1137 106.656 80.4118 106.887C80.71 107.113 80.9384 107.423 81.0971 107.817C81.2606 108.207 81.3423 108.642 81.3423 109.123C81.3423 109.604 81.2606 110.041 81.0971 110.436C80.9384 110.825 80.7076 111.135 80.4046 111.366C80.1065 111.592 79.7627 111.705 79.3732 111.705ZM79.3732 111.121C79.6473 111.121 79.8853 111.034 80.0872 110.861C80.2892 110.683 80.4455 110.443 80.5561 110.14C80.6667 109.837 80.722 109.498 80.722 109.123C80.722 108.748 80.6667 108.409 80.5561 108.106C80.4455 107.803 80.2892 107.565 80.0872 107.392C79.8853 107.214 79.6473 107.125 79.3732 107.125C79.0991 107.125 78.861 107.214 78.6591 107.392C78.4571 107.565 78.3008 107.803 78.1902 108.106C78.0796 108.409 78.0243 108.748 78.0243 109.123C78.0243 109.498 78.0796 109.837 78.1902 110.14C78.3008 110.443 78.4571 110.683 78.6591 110.861C78.861 111.034 79.0991 111.121 79.3732 111.121ZM83.7625 106.425H84.455L86.4169 111.59H85.7461L85.2268 110.169H82.9979L82.4786 111.59H81.8078L83.7625 106.425ZM85.0176 109.592L84.3324 107.731L84.1232 107.175H84.0943L83.8924 107.731L83.2071 109.592H85.0176ZM88.8473 111.705C88.4578 111.705 88.1116 111.592 87.8087 111.366C87.5105 111.135 87.2797 110.825 87.1162 110.436C86.9575 110.041 86.8782 109.604 86.8782 109.123C86.8782 108.642 86.9575 108.207 87.1162 107.817C87.2797 107.423 87.5105 107.113 87.8087 106.887C88.1068 106.656 88.453 106.541 88.8473 106.541C89.2416 106.541 89.5879 106.656 89.886 106.887C90.1842 107.113 90.4126 107.423 90.5713 107.817C90.7347 108.207 90.8165 108.642 90.8165 109.123C90.8165 109.604 90.7347 110.041 90.5713 110.436C90.4126 110.825 90.1817 111.135 89.8788 111.366C89.5807 111.592 89.2368 111.705 88.8473 111.705ZM88.8473 111.121C89.1214 111.121 89.3595 111.034 89.5614 110.861C89.7634 110.683 89.9197 110.443 90.0303 110.14C90.1409 109.837 90.1962 109.498 90.1962 109.123C90.1962 108.748 90.1409 108.409 90.0303 108.106C89.9197 107.803 89.7634 107.565 89.5614 107.392C89.3595 107.214 89.1214 107.125 88.8473 107.125C88.5732 107.125 88.3352 107.214 88.1332 107.392C87.9313 107.565 87.775 107.803 87.6644 108.106C87.5538 108.409 87.4985 108.748 87.4985 109.123C87.4985 109.498 87.5538 109.837 87.6644 110.14C87.775 110.443 87.9313 110.683 88.1332 110.861C88.3352 111.034 88.5732 111.121 88.8473 111.121ZM93.2367 106.425H93.9292L95.8911 111.59H95.2203L94.701 110.169H92.4721L91.9528 111.59H91.282L93.2367 106.425ZM94.4918 109.592L93.8065 107.731L93.5974 107.175H93.5685L93.3665 107.731L92.6813 109.592H94.4918ZM98.3215 111.705C97.932 111.705 97.5858 111.592 97.2828 111.366C96.9847 111.135 96.7539 110.825 96.5904 110.436C96.4317 110.041 96.3523 109.604 96.3523 109.123C96.3523 108.642 96.4317 108.207 96.5904 107.817C96.7539 107.423 96.9847 107.113 97.2828 106.887C97.581 106.656 97.9272 106.541 98.3215 106.541C98.7158 106.541 99.062 106.656 99.3602 106.887C99.6583 107.113 99.8867 107.423 100.045 107.817C100.209 108.207 100.291 108.642 100.291 109.123C100.291 109.604 100.209 110.041 100.045 110.436C99.8867 110.825 99.6559 111.135 99.353 111.366C99.0548 111.592 98.711 111.705 98.3215 111.705ZM98.3215 111.121C98.5956 111.121 98.8336 111.034 99.0356 110.861C99.2376 110.683 99.3938 110.443 99.5044 110.14C99.615 109.837 99.6703 109.498 99.6703 109.123C99.6703 108.748 99.615 108.409 99.5044 108.106C99.3938 107.803 99.2376 107.565 99.0356 107.392C98.8336 107.214 98.5956 107.125 98.3215 107.125C98.0474 107.125 97.8094 107.214 97.6074 107.392C97.4055 107.565 97.2492 107.803 97.1386 108.106C97.028 108.409 96.9727 108.748 96.9727 109.123C96.9727 109.498 97.028 109.837 97.1386 110.14C97.2492 110.443 97.4055 110.683 97.6074 110.861C97.8094 111.034 98.0474 111.121 98.3215 111.121ZM102.711 106.425H103.403L105.365 111.59H104.694L104.175 110.169H101.946L101.427 111.59H100.756L102.711 106.425ZM103.966 109.592L103.281 107.731L103.072 107.175H103.043L102.841 107.731L102.155 109.592H103.966Z" fill="#232323" fill-opacity="0.8"/>
<path d="M271.9 110.104H271.005L271.092 109.599H271.979L272.131 108.582H271.229L271.308 108.077H272.203L272.412 106.656H272.946L272.737 108.077H273.761L273.97 106.656H274.504L274.295 108.077H275.189L275.11 108.582H274.222L274.071 109.599H274.973L274.893 110.104H273.992L273.768 111.59H273.234L273.458 110.104H272.434L272.21 111.59H271.676L271.9 110.104ZM273.537 109.599L273.689 108.582H272.664L272.513 109.599H273.537ZM275.965 111.424L278.266 107.24H275.735V106.656H278.901V107.284L276.506 111.705L275.965 111.424ZM282.228 111.705C281.728 111.705 281.274 111.587 280.865 111.352C280.456 111.116 280.134 110.794 279.899 110.385C279.668 109.972 279.552 109.512 279.552 109.008C279.552 108.503 279.668 108.046 279.899 107.637C280.134 107.224 280.456 106.899 280.865 106.663C281.274 106.428 281.728 106.31 282.228 106.31C282.613 106.31 282.964 106.384 283.282 106.533C283.604 106.678 283.883 106.885 284.118 107.154L283.678 107.579C283.481 107.344 283.265 107.171 283.029 107.06C282.798 106.949 282.531 106.894 282.228 106.894C281.853 106.894 281.51 106.983 281.197 107.161C280.884 107.334 280.634 107.582 280.447 107.904C280.264 108.221 280.173 108.589 280.173 109.008C280.173 109.426 280.264 109.796 280.447 110.118C280.634 110.436 280.884 110.683 281.197 110.861C281.51 111.034 281.853 111.121 282.228 111.121C282.854 111.121 283.385 110.864 283.822 110.349L284.27 110.782C284.029 111.066 283.734 111.292 283.382 111.46C283.031 111.624 282.647 111.705 282.228 111.705ZM287.462 111.705C286.962 111.705 286.508 111.587 286.099 111.352C285.69 111.116 285.368 110.794 285.132 110.385C284.901 109.972 284.786 109.512 284.786 109.008C284.786 108.503 284.901 108.046 285.132 107.637C285.368 107.224 285.69 106.899 286.099 106.663C286.508 106.428 286.962 106.31 287.462 106.31C287.847 106.31 288.198 106.384 288.515 106.533C288.837 106.678 289.116 106.885 289.352 107.154L288.912 107.579C288.715 107.344 288.498 107.171 288.263 107.06C288.032 106.949 287.765 106.894 287.462 106.894C287.087 106.894 286.743 106.983 286.431 107.161C286.118 107.334 285.868 107.582 285.68 107.904C285.498 108.221 285.406 108.589 285.406 109.008C285.406 109.426 285.498 109.796 285.68 110.118C285.868 110.436 286.118 110.683 286.431 110.861C286.743 111.034 287.087 111.121 287.462 111.121C288.087 111.121 288.619 110.864 289.056 110.349L289.503 110.782C289.263 111.066 288.967 111.292 288.616 111.46C288.265 111.624 287.88 111.705 287.462 111.705ZM290.385 106.425H292.239C292.498 106.425 292.741 106.485 292.967 106.606C293.198 106.726 293.381 106.892 293.515 107.103C293.65 107.315 293.717 107.553 293.717 107.817C293.717 108.067 293.652 108.286 293.523 108.474C293.398 108.661 293.227 108.806 293.01 108.907V108.935C293.27 109.022 293.482 109.171 293.645 109.383C293.809 109.594 293.89 109.842 293.89 110.126C293.89 110.404 293.818 110.657 293.674 110.883C293.535 111.104 293.345 111.277 293.104 111.402C292.869 111.527 292.614 111.59 292.34 111.59H290.385V106.425ZM292.239 108.661C292.412 108.661 292.563 108.62 292.693 108.539C292.828 108.457 292.931 108.354 293.003 108.229C293.075 108.099 293.111 107.966 293.111 107.832C293.111 107.702 293.075 107.575 293.003 107.45C292.936 107.32 292.837 107.214 292.708 107.132C292.582 107.05 292.436 107.01 292.268 107.01H290.991V108.661H292.239ZM292.376 111.006C292.549 111.006 292.703 110.962 292.837 110.876C292.977 110.789 293.083 110.679 293.155 110.544C293.232 110.404 293.27 110.263 293.27 110.118C293.27 109.974 293.232 109.835 293.155 109.7C293.078 109.561 292.97 109.45 292.83 109.368C292.691 109.282 292.53 109.238 292.347 109.238H290.991V111.006H292.376ZM297.183 111.705C296.683 111.705 296.228 111.587 295.82 111.352C295.411 111.116 295.089 110.794 294.853 110.385C294.622 109.972 294.507 109.512 294.507 109.008C294.507 108.503 294.622 108.046 294.853 107.637C295.089 107.224 295.411 106.899 295.82 106.663C296.228 106.428 296.683 106.31 297.183 106.31C297.568 106.31 297.919 106.384 298.236 106.533C298.558 106.678 298.837 106.885 299.073 107.154L298.633 107.579C298.435 107.344 298.219 107.171 297.983 107.06C297.753 106.949 297.486 106.894 297.183 106.894C296.808 106.894 296.464 106.983 296.151 107.161C295.839 107.334 295.589 107.582 295.401 107.904C295.218 108.221 295.127 108.589 295.127 109.008C295.127 109.426 295.218 109.796 295.401 110.118C295.589 110.436 295.839 110.683 296.151 110.861C296.464 111.034 296.808 111.121 297.183 111.121C297.808 111.121 298.339 110.864 298.777 110.349L299.224 110.782C298.984 111.066 298.688 111.292 298.337 111.46C297.986 111.624 297.601 111.705 297.183 111.705ZM300.106 106.425H301.664C302.193 106.425 302.654 106.536 303.049 106.757C303.443 106.973 303.746 107.276 303.957 107.666C304.169 108.055 304.275 108.503 304.275 109.008C304.275 109.512 304.169 109.96 303.957 110.349C303.746 110.739 303.443 111.044 303.049 111.265C302.654 111.482 302.193 111.59 301.664 111.59H300.106V106.425ZM301.664 111.006C302.274 111.006 302.758 110.83 303.113 110.479C303.474 110.128 303.654 109.638 303.654 109.008C303.654 108.378 303.474 107.887 303.113 107.536C302.758 107.185 302.274 107.01 301.664 107.01H300.712V111.006H301.664Z" fill="#232323" fill-opacity="0.8"/>
<circle cx="187.685" cy="68.876" r="21.0869" fill="#F1F1F1"/>
<g filter="url(#filter0_d_881_23588)">
<circle cx="187.56" cy="68.9996" r="16.9449" fill="white"/>
</g>
<circle cx="89.0088" cy="69.1748" r="21.0869" fill="#F1F1F1"/>
<g filter="url(#filter1_d_881_23588)">
<circle cx="88.8843" cy="69.2984" r="16.9449" fill="#0A0A0A"/>
</g>
<circle cx="286.36" cy="68.876" r="21.0869" fill="#F1F1F1"/>
<g filter="url(#filter2_d_881_23588)">
<circle cx="286.234" cy="68.9996" r="16.9449" fill="#7CCBCD"/>
</g>
<defs>
<filter id="filter0_d_881_23588" x="169.113" y="51.7541" width="36.8961" height="36.8951" filterUnits="userSpaceOnUse" color-interpolation-filters="sRGB">
<feFlood flood-opacity="0" result="BackgroundImageFix"/>
<feColorMatrix in="SourceAlpha" type="matrix" values="0 0 0 0 0 0 0 0 0 0 0 0 0 0 0 0 0 0 127 0" result="hardAlpha"/>
<feOffset dy="1.20218"/>
<feGaussianBlur stdDeviation="0.75136"/>
<feComposite in2="hardAlpha" operator="out"/>
<feColorMatrix type="matrix" values="0 0 0 0 0.1625 0 0 0 0 0.1625 0 0 0 0 0.1625 0 0 0 0.12 0"/>
<feBlend mode="normal" in2="BackgroundImageFix" result="effect1_dropShadow_881_23588"/>
<feBlend mode="normal" in="SourceGraphic" in2="effect1_dropShadow_881_23588" result="shape"/>
</filter>
<filter id="filter1_d_881_23588" x="70.4367" y="52.053" width="36.8961" height="36.8951" filterUnits="userSpaceOnUse" color-interpolation-filters="sRGB">
<feFlood flood-opacity="0" result="BackgroundImageFix"/>
<feColorMatrix in="SourceAlpha" type="matrix" values="0 0 0 0 0 0 0 0 0 0 0 0 0 0 0 0 0 0 127 0" result="hardAlpha"/>
<feOffset dy="1.20218"/>
<feGaussianBlur stdDeviation="0.75136"/>
<feComposite in2="hardAlpha" operator="out"/>
<feColorMatrix type="matrix" values="0 0 0 0 0.1625 0 0 0 0 0.1625 0 0 0 0 0.1625 0 0 0 0.32 0"/>
<feBlend mode="normal" in2="BackgroundImageFix" result="effect1_dropShadow_881_23588"/>
<feBlend mode="normal" in="SourceGraphic" in2="effect1_dropShadow_881_23588" result="shape"/>
</filter>
<filter id="filter2_d_881_23588" x="267.786" y="51.7541" width="36.8961" height="36.8951" filterUnits="userSpaceOnUse" color-interpolation-filters="sRGB">
<feFlood flood-opacity="0" result="BackgroundImageFix"/>
<feColorMatrix in="SourceAlpha" type="matrix" values="0 0 0 0 0 0 0 0 0 0 0 0 0 0 0 0 0 0 127 0" result="hardAlpha"/>
<feOffset dy="1.20218"/>
<feGaussianBlur stdDeviation="0.75136"/>
<feComposite in2="hardAlpha" operator="out"/>
<feColorMatrix type="matrix" values="0 0 0 0 0.1625 0 0 0 0 0.1625 0 0 0 0 0.1625 0 0 0 0.12 0"/>
<feBlend mode="normal" in2="BackgroundImageFix" result="effect1_dropShadow_881_23588"/>
<feBlend mode="normal" in="SourceGraphic" in2="effect1_dropShadow_881_23588" result="shape"/>
</filter>
</defs>
</svg>
