<svg width="509" height="109" viewBox="0 0 509 109" fill="none" xmlns="http://www.w3.org/2000/svg">
<rect width="509" height="109" rx="7.82022" fill="#F6F6F6"/>
<path d="M36.7502 52.816C37.1982 52.368 38.0802 51.486 39.3962 50.17C40.7122 48.84 41.5872 47.937 42.0212 47.461C42.6092 46.831 43.0082 46.32 43.2182 45.928C43.4422 45.536 43.5542 45.067 43.5542 44.521C43.5542 43.975 43.3442 43.499 42.9242 43.093C42.5042 42.687 41.9372 42.484 41.2232 42.484C40.5652 42.484 40.0262 42.68 39.6062 43.072C39.2002 43.45 38.9342 43.891 38.8082 44.395L36.7082 43.534C36.8482 43.03 37.1072 42.533 37.4852 42.043C37.8772 41.553 38.3952 41.14 39.0392 40.804C39.6832 40.468 40.4252 40.3 41.2652 40.3C42.1752 40.3 42.9802 40.489 43.6802 40.867C44.3942 41.231 44.9402 41.735 45.3182 42.379C45.7102 43.009 45.9062 43.709 45.9062 44.479C45.9062 45.305 45.6892 46.103 45.2552 46.873C44.8352 47.629 44.2962 48.336 43.6382 48.994C43.3582 49.26 42.6512 49.96 41.5172 51.094L39.7952 52.816L39.8372 52.9H46.0952V55H36.7502V52.816ZM50.5675 55.126C50.1195 55.126 49.7345 54.972 49.4125 54.664C49.1045 54.342 48.9505 53.957 48.9505 53.509C48.9505 53.061 49.1045 52.683 49.4125 52.375C49.7345 52.067 50.1195 51.913 50.5675 51.913C51.0155 51.913 51.3935 52.067 51.7015 52.375C52.0235 52.683 52.1845 53.061 52.1845 53.509C52.1845 53.957 52.0235 54.342 51.7015 54.664C51.3935 54.972 51.0155 55.126 50.5675 55.126ZM54.9907 52.816C55.4387 52.368 56.3207 51.486 57.6367 50.17C58.9527 48.84 59.8277 47.937 60.2617 47.461C60.8497 46.831 61.2487 46.32 61.4587 45.928C61.6827 45.536 61.7947 45.067 61.7947 44.521C61.7947 43.975 61.5847 43.499 61.1647 43.093C60.7447 42.687 60.1777 42.484 59.4637 42.484C58.8057 42.484 58.2667 42.68 57.8467 43.072C57.4407 43.45 57.1747 43.891 57.0487 44.395L54.9487 43.534C55.0887 43.03 55.3477 42.533 55.7257 42.043C56.1177 41.553 56.6357 41.14 57.2797 40.804C57.9237 40.468 58.6657 40.3 59.5057 40.3C60.4157 40.3 61.2207 40.489 61.9207 40.867C62.6347 41.231 63.1807 41.735 63.5587 42.379C63.9507 43.009 64.1467 43.709 64.1467 44.479C64.1467 45.305 63.9297 46.103 63.4957 46.873C63.0757 47.629 62.5367 48.336 61.8787 48.994C61.5987 49.26 60.8917 49.96 59.7577 51.094L58.0357 52.816L58.0777 52.9H64.3357V55H54.9907V52.816ZM73.2889 39.964H78.9379C79.7359 39.964 80.4709 40.139 81.1429 40.489C81.8289 40.839 82.3749 41.322 82.7809 41.938C83.1869 42.554 83.3899 43.233 83.3899 43.975C83.3899 44.717 83.2009 45.361 82.8229 45.907C82.4589 46.453 81.9759 46.866 81.3739 47.146V47.272C82.1299 47.538 82.7389 47.979 83.2009 48.595C83.6769 49.211 83.9149 49.932 83.9149 50.758C83.9149 51.584 83.6979 52.319 83.2639 52.963C82.8439 53.607 82.2699 54.111 81.5419 54.475C80.8279 54.825 80.0439 55 79.1899 55H73.2889V39.964ZM78.8329 46.264C79.5049 46.264 80.0439 46.054 80.4499 45.634C80.8699 45.214 81.0799 44.731 81.0799 44.185C81.0799 43.639 80.8769 43.163 80.4709 42.757C80.0789 42.337 79.5609 42.127 78.9169 42.127H75.6409V46.264H78.8329ZM79.1899 52.816C79.9039 52.816 80.4709 52.592 80.8909 52.144C81.3249 51.696 81.5419 51.178 81.5419 50.59C81.5419 49.988 81.3179 49.47 80.8699 49.036C80.4359 48.588 79.8479 48.364 79.1059 48.364H75.6409V52.816H79.1899ZM88.0504 42.736C87.6164 42.736 87.2454 42.589 86.9374 42.295C86.6434 41.987 86.4964 41.616 86.4964 41.182C86.4964 40.748 86.6434 40.384 86.9374 40.09C87.2454 39.782 87.6164 39.628 88.0504 39.628C88.4844 39.628 88.8484 39.782 89.1424 40.09C89.4504 40.384 89.6044 40.748 89.6044 41.182C89.6044 41.616 89.4504 41.987 89.1424 42.295C88.8484 42.589 88.4844 42.736 88.0504 42.736ZM86.8954 44.29H89.2054V55H86.8954V44.29ZM92.7099 39.964H95.0199V55H92.7099V39.964ZM98.3644 39.964H100.674V55H98.3644V39.964ZM105.342 42.736C104.908 42.736 104.537 42.589 104.229 42.295C103.935 41.987 103.788 41.616 103.788 41.182C103.788 40.748 103.935 40.384 104.229 40.09C104.537 39.782 104.908 39.628 105.342 39.628C105.776 39.628 106.14 39.782 106.434 40.09C106.742 40.384 106.896 40.748 106.896 41.182C106.896 41.616 106.742 41.987 106.434 42.295C106.14 42.589 105.776 42.736 105.342 42.736ZM104.187 44.29H106.497V55H104.187V44.29ZM114.918 55.336C113.84 55.336 112.874 55.091 112.02 54.601C111.166 54.097 110.501 53.411 110.025 52.543C109.549 51.675 109.311 50.709 109.311 49.645C109.311 48.581 109.549 47.615 110.025 46.747C110.501 45.879 111.166 45.2 112.02 44.71C112.874 44.206 113.84 43.954 114.918 43.954C115.996 43.954 116.962 44.206 117.816 44.71C118.67 45.214 119.335 45.9 119.811 46.768C120.287 47.636 120.525 48.595 120.525 49.645C120.525 50.709 120.287 51.675 119.811 52.543C119.335 53.411 118.67 54.097 117.816 54.601C116.962 55.091 115.996 55.336 114.918 55.336ZM114.918 53.215C115.506 53.215 116.052 53.075 116.556 52.795C117.06 52.501 117.459 52.088 117.753 51.556C118.061 51.01 118.215 50.373 118.215 49.645C118.215 48.917 118.061 48.287 117.753 47.755C117.459 47.223 117.06 46.817 116.556 46.537C116.052 46.243 115.506 46.096 114.918 46.096C114.33 46.096 113.784 46.243 113.28 46.537C112.776 46.817 112.37 47.223 112.062 47.755C111.768 48.287 111.621 48.917 111.621 49.645C111.621 50.373 111.768 51.01 112.062 51.556C112.37 52.088 112.776 52.501 113.28 52.795C113.784 53.075 114.33 53.215 114.918 53.215ZM123.08 44.29H125.285V45.697H125.39C125.698 45.193 126.153 44.78 126.755 44.458C127.371 44.122 128.022 43.954 128.708 43.954C130.01 43.954 130.997 44.339 131.669 45.109C132.355 45.865 132.698 46.901 132.698 48.217V55H130.388V48.532C130.388 47.692 130.178 47.076 129.758 46.684C129.352 46.292 128.785 46.096 128.057 46.096C127.539 46.096 127.077 46.243 126.671 46.537C126.265 46.817 125.95 47.195 125.726 47.671C125.502 48.147 125.39 48.658 125.39 49.204V55H123.08V44.29Z" fill="#359799"/>
<path d="M37.6742 64.408H40.4942C40.9422 64.408 41.3422 64.504 41.6942 64.696C42.0462 64.88 42.3222 65.14 42.5222 65.476C42.7222 65.812 42.8222 66.196 42.8222 66.628C42.8222 67.212 42.6862 67.724 42.4142 68.164C42.1502 68.596 41.7782 68.928 41.2982 69.16C40.8182 69.384 40.2742 69.496 39.6662 69.496H37.7942L37.1582 73H36.1502L37.6742 64.408ZM39.8462 68.524C40.4142 68.524 40.8782 68.376 41.2382 68.08C41.5982 67.776 41.7782 67.336 41.7782 66.76C41.7782 66.336 41.6462 66 41.3822 65.752C41.1262 65.504 40.8022 65.38 40.4102 65.38H38.5142L37.9622 68.524H39.8462ZM45.5918 73.192C45.0398 73.192 44.5558 73.068 44.1398 72.82C43.7238 72.564 43.4038 72.224 43.1798 71.8C42.9638 71.368 42.8558 70.896 42.8558 70.384C42.8558 69.744 42.9998 69.14 43.2878 68.572C43.5758 68.004 43.9838 67.548 44.5118 67.204C45.0398 66.86 45.6438 66.688 46.3238 66.688C46.8518 66.688 47.3078 66.804 47.6918 67.036C48.0758 67.268 48.3678 67.584 48.5678 67.984C48.7678 68.376 48.8678 68.804 48.8678 69.268C48.8678 69.612 48.8318 69.9 48.7598 70.132H43.9118C43.8958 70.292 43.8878 70.42 43.8878 70.516C43.8878 70.868 43.9678 71.18 44.1278 71.452C44.2958 71.716 44.5118 71.92 44.7758 72.064C45.0478 72.2 45.3358 72.268 45.6398 72.268C46.1118 72.268 46.5118 72.172 46.8398 71.98C47.1758 71.78 47.4558 71.496 47.6798 71.128L48.4598 71.572C48.1558 72.1 47.7598 72.504 47.2718 72.784C46.7838 73.056 46.2238 73.192 45.5918 73.192ZM47.8478 69.292V69.124C47.8478 68.86 47.7838 68.612 47.6558 68.38C47.5278 68.148 47.3398 67.964 47.0918 67.828C46.8438 67.684 46.5478 67.612 46.2038 67.612C45.6918 67.612 45.2438 67.772 44.8598 68.092C44.4838 68.404 44.2238 68.804 44.0798 69.292H47.8478ZM52.5919 73.192C52.0559 73.192 51.5759 73.064 51.1519 72.808C50.7359 72.552 50.4119 72.204 50.1799 71.764C49.9479 71.316 49.8319 70.82 49.8319 70.276C49.8319 69.612 49.9759 69.008 50.2639 68.464C50.5599 67.92 50.9759 67.488 51.5119 67.168C52.0559 66.848 52.6759 66.688 53.3719 66.688C53.9159 66.688 54.3959 66.816 54.8119 67.072C55.2359 67.328 55.5599 67.68 55.7839 68.128C56.0159 68.568 56.1319 69.06 56.1319 69.604C56.1319 70.268 55.9839 70.876 55.6879 71.428C55.3999 71.972 54.9839 72.404 54.4399 72.724C53.9039 73.036 53.2879 73.192 52.5919 73.192ZM52.7119 72.268C53.1759 72.268 53.5879 72.152 53.9479 71.92C54.3159 71.68 54.5999 71.364 54.7999 70.972C54.9999 70.572 55.0999 70.136 55.0999 69.664C55.0999 69.072 54.9279 68.584 54.5839 68.2C54.2479 67.808 53.8039 67.612 53.2519 67.612C52.7879 67.612 52.3719 67.732 52.0039 67.972C51.6439 68.204 51.3639 68.52 51.1639 68.92C50.9639 69.312 50.8639 69.744 50.8639 70.216C50.8639 70.816 51.0319 71.308 51.3679 71.692C51.7119 72.076 52.1599 72.268 52.7119 72.268ZM57.918 66.88H58.878L58.722 67.78H58.77C59.002 67.444 59.302 67.18 59.67 66.988C60.046 66.788 60.486 66.688 60.99 66.688C61.462 66.688 61.886 66.804 62.262 67.036C62.646 67.26 62.946 67.584 63.162 68.008C63.378 68.424 63.486 68.912 63.486 69.472C63.486 70.144 63.334 70.768 63.03 71.344C62.726 71.912 62.302 72.364 61.758 72.7C61.222 73.028 60.618 73.192 59.946 73.192C59.498 73.192 59.102 73.088 58.758 72.88C58.414 72.664 58.166 72.4 58.014 72.088H57.966L57.858 72.94L57.39 75.592H56.37L57.918 66.88ZM60.03 72.268C60.494 72.268 60.91 72.152 61.278 71.92C61.646 71.68 61.934 71.352 62.142 70.936C62.35 70.52 62.454 70.06 62.454 69.556C62.454 68.964 62.29 68.492 61.962 68.14C61.642 67.788 61.226 67.612 60.714 67.612C60.266 67.612 59.858 67.736 59.49 67.984C59.122 68.232 58.83 68.568 58.614 68.992C58.406 69.416 58.302 69.884 58.302 70.396C58.302 70.972 58.466 71.428 58.794 71.764C59.122 72.1 59.534 72.268 60.03 72.268ZM65.5598 64.408H66.5678L65.0558 73H64.0478L65.5598 64.408ZM69.5562 73.192C69.0042 73.192 68.5202 73.068 68.1042 72.82C67.6882 72.564 67.3682 72.224 67.1442 71.8C66.9282 71.368 66.8202 70.896 66.8202 70.384C66.8202 69.744 66.9642 69.14 67.2522 68.572C67.5402 68.004 67.9482 67.548 68.4762 67.204C69.0042 66.86 69.6082 66.688 70.2882 66.688C70.8162 66.688 71.2722 66.804 71.6562 67.036C72.0402 67.268 72.3322 67.584 72.5322 67.984C72.7322 68.376 72.8322 68.804 72.8322 69.268C72.8322 69.612 72.7962 69.9 72.7242 70.132H67.8762C67.8602 70.292 67.8522 70.42 67.8522 70.516C67.8522 70.868 67.9322 71.18 68.0922 71.452C68.2602 71.716 68.4762 71.92 68.7402 72.064C69.0122 72.2 69.3002 72.268 69.6042 72.268C70.0762 72.268 70.4762 72.172 70.8042 71.98C71.1402 71.78 71.4202 71.496 71.6442 71.128L72.4242 71.572C72.1202 72.1 71.7242 72.504 71.2362 72.784C70.7482 73.056 70.1882 73.192 69.5562 73.192ZM71.8122 69.292V69.124C71.8122 68.86 71.7482 68.612 71.6202 68.38C71.4922 68.148 71.3042 67.964 71.0562 67.828C70.8082 67.684 70.5122 67.612 70.1682 67.612C69.6562 67.612 69.2082 67.772 68.8242 68.092C68.4482 68.404 68.1882 68.804 68.0442 69.292H71.8122ZM78.3773 73.192C78.0173 73.192 77.6813 73.112 77.3693 72.952C77.0653 72.784 76.8213 72.56 76.6373 72.28C76.4613 71.992 76.3733 71.672 76.3733 71.32C76.3733 70.64 76.6213 70.1 77.1173 69.7C77.6213 69.292 78.3093 69.088 79.1813 69.088C79.5013 69.088 79.8133 69.128 80.1173 69.208C80.4293 69.28 80.7053 69.38 80.9453 69.508L81.0173 69.148C81.0413 69.012 81.0533 68.896 81.0533 68.8C81.0533 68.44 80.9093 68.152 80.6213 67.936C80.3413 67.712 79.9853 67.6 79.5533 67.6C78.8893 67.6 78.3413 67.872 77.9093 68.416L77.1173 67.852C77.4053 67.484 77.7693 67.2 78.2093 67C78.6493 66.792 79.1333 66.688 79.6613 66.688C80.3973 66.688 80.9733 66.868 81.3893 67.228C81.8133 67.58 82.0253 68.056 82.0253 68.656C82.0253 68.824 82.0053 69.028 81.9653 69.268L81.2933 73H80.3213L80.4773 72.136H80.4293C80.2133 72.456 79.9293 72.712 79.5773 72.904C79.2253 73.096 78.8253 73.192 78.3773 73.192ZM78.6053 72.292C79.1573 72.292 79.6373 72.112 80.0453 71.752C80.4533 71.384 80.7053 70.916 80.8013 70.348C80.5533 70.204 80.3053 70.096 80.0573 70.024C79.8093 69.952 79.4973 69.916 79.1213 69.916C78.6173 69.916 78.2053 70.036 77.8853 70.276C77.5733 70.508 77.4173 70.832 77.4173 71.248C77.4173 71.568 77.5293 71.824 77.7533 72.016C77.9853 72.2 78.2693 72.292 78.6053 72.292ZM83.9242 66.88H84.8842L84.7282 67.792H84.7762C84.9362 67.456 85.2002 67.192 85.5682 67C85.9442 66.8 86.3362 66.7 86.7442 66.7C87.0322 66.7 87.2682 66.74 87.4522 66.82L87.2482 67.936C87.0482 67.8 86.7722 67.732 86.4202 67.732C86.1322 67.732 85.8442 67.816 85.5562 67.984C85.2762 68.152 85.0362 68.38 84.8362 68.668C84.6442 68.948 84.5202 69.252 84.4642 69.58L83.8642 73H82.8442L83.9242 66.88ZM90.005 73.192C89.453 73.192 88.969 73.068 88.553 72.82C88.137 72.564 87.817 72.224 87.593 71.8C87.377 71.368 87.269 70.896 87.269 70.384C87.269 69.744 87.413 69.14 87.701 68.572C87.989 68.004 88.397 67.548 88.925 67.204C89.453 66.86 90.057 66.688 90.737 66.688C91.265 66.688 91.721 66.804 92.105 67.036C92.489 67.268 92.781 67.584 92.981 67.984C93.181 68.376 93.281 68.804 93.281 69.268C93.281 69.612 93.245 69.9 93.173 70.132H88.325C88.309 70.292 88.301 70.42 88.301 70.516C88.301 70.868 88.381 71.18 88.541 71.452C88.709 71.716 88.925 71.92 89.189 72.064C89.461 72.2 89.749 72.268 90.053 72.268C90.525 72.268 90.925 72.172 91.253 71.98C91.589 71.78 91.869 71.496 92.093 71.128L92.873 71.572C92.569 72.1 92.173 72.504 91.685 72.784C91.197 73.056 90.637 73.192 90.005 73.192ZM92.261 69.292V69.124C92.261 68.86 92.197 68.612 92.069 68.38C91.941 68.148 91.753 67.964 91.505 67.828C91.257 67.684 90.961 67.612 90.617 67.612C90.105 67.612 89.657 67.772 89.273 68.092C88.897 68.404 88.637 68.804 88.493 69.292H92.261ZM97.194 66.88H98.274L99.294 71.8H99.318L102.09 66.88H103.194L99.618 73H98.574L97.194 66.88ZM105.086 65.764C104.886 65.764 104.714 65.692 104.57 65.548C104.426 65.404 104.354 65.232 104.354 65.032C104.354 64.824 104.426 64.652 104.57 64.516C104.714 64.372 104.886 64.3 105.086 64.3C105.286 64.3 105.454 64.372 105.59 64.516C105.734 64.66 105.806 64.832 105.806 65.032C105.806 65.232 105.734 65.404 105.59 65.548C105.454 65.692 105.286 65.764 105.086 65.764ZM104.234 66.88H105.254L104.174 73H103.166L104.234 66.88ZM108.189 73.192C107.541 73.192 107.005 73.036 106.581 72.724C106.157 72.412 105.877 72.008 105.741 71.512L106.713 71.128C106.793 71.496 106.981 71.784 107.277 71.992C107.573 72.192 107.909 72.292 108.285 72.292C108.677 72.292 108.997 72.2 109.245 72.016C109.501 71.832 109.629 71.6 109.629 71.32C109.629 71.072 109.545 70.868 109.377 70.708C109.209 70.54 108.949 70.412 108.597 70.324L107.985 70.168C107.497 70.04 107.109 69.84 106.821 69.568C106.541 69.296 106.401 68.952 106.401 68.536C106.401 68.192 106.501 67.88 106.701 67.6C106.909 67.312 107.197 67.088 107.565 66.928C107.933 66.768 108.345 66.688 108.801 66.688C109.345 66.688 109.821 66.816 110.229 67.072C110.645 67.328 110.921 67.664 111.057 68.08L110.085 68.452C109.989 68.196 109.821 67.992 109.581 67.84C109.349 67.68 109.069 67.6 108.741 67.6C108.357 67.6 108.045 67.68 107.805 67.84C107.573 68 107.457 68.208 107.457 68.464C107.457 68.64 107.533 68.804 107.685 68.956C107.837 69.108 108.057 69.22 108.345 69.292L109.137 69.496C109.617 69.616 109.993 69.824 110.265 70.12C110.545 70.416 110.685 70.776 110.685 71.2C110.685 71.8 110.461 72.284 110.013 72.652C109.573 73.012 108.965 73.192 108.189 73.192ZM115.998 72.112C115.782 72.44 115.494 72.704 115.134 72.904C114.774 73.096 114.362 73.192 113.898 73.192C113.29 73.192 112.81 73.028 112.458 72.7C112.106 72.364 111.93 71.924 111.93 71.38C111.93 71.116 111.958 70.832 112.014 70.528L112.662 66.88H113.67L113.022 70.552C112.982 70.752 112.962 70.952 112.962 71.152C112.962 71.504 113.078 71.78 113.31 71.98C113.55 72.172 113.862 72.268 114.246 72.268C114.742 72.268 115.182 72.088 115.566 71.728C115.95 71.36 116.194 70.896 116.298 70.336L116.91 66.88H117.918L116.85 73H115.878L116.046 72.112H115.998ZM120.458 73.192C120.098 73.192 119.762 73.112 119.45 72.952C119.146 72.784 118.902 72.56 118.718 72.28C118.542 71.992 118.454 71.672 118.454 71.32C118.454 70.64 118.702 70.1 119.198 69.7C119.702 69.292 120.39 69.088 121.262 69.088C121.582 69.088 121.894 69.128 122.198 69.208C122.51 69.28 122.786 69.38 123.026 69.508L123.098 69.148C123.122 69.012 123.134 68.896 123.134 68.8C123.134 68.44 122.99 68.152 122.702 67.936C122.422 67.712 122.066 67.6 121.634 67.6C120.97 67.6 120.422 67.872 119.99 68.416L119.198 67.852C119.486 67.484 119.85 67.2 120.29 67C120.73 66.792 121.214 66.688 121.742 66.688C122.478 66.688 123.054 66.868 123.47 67.228C123.894 67.58 124.106 68.056 124.106 68.656C124.106 68.824 124.086 69.028 124.046 69.268L123.374 73H122.402L122.558 72.136H122.51C122.294 72.456 122.01 72.712 121.658 72.904C121.306 73.096 120.906 73.192 120.458 73.192ZM120.686 72.292C121.238 72.292 121.718 72.112 122.126 71.752C122.534 71.384 122.786 70.916 122.882 70.348C122.634 70.204 122.386 70.096 122.138 70.024C121.89 69.952 121.578 69.916 121.202 69.916C120.698 69.916 120.286 70.036 119.966 70.276C119.654 70.508 119.498 70.832 119.498 71.248C119.498 71.568 119.61 71.824 119.834 72.016C120.066 72.2 120.35 72.292 120.686 72.292ZM126.437 64.408H127.445L125.933 73H124.925L126.437 64.408ZM129.1 64.408H130.108L128.596 73H127.588L129.1 64.408ZM132.171 72.604L130.647 66.88H131.715L132.855 71.428H132.879L135.543 66.88H136.671L131.343 75.592H130.263L132.171 72.604ZM141.366 65.764C141.166 65.764 140.994 65.692 140.85 65.548C140.706 65.404 140.634 65.232 140.634 65.032C140.634 64.824 140.706 64.652 140.85 64.516C140.994 64.372 141.166 64.3 141.366 64.3C141.566 64.3 141.734 64.372 141.87 64.516C142.014 64.66 142.086 64.832 142.086 65.032C142.086 65.232 142.014 65.404 141.87 65.548C141.734 65.692 141.566 65.764 141.366 65.764ZM140.514 66.88H141.534L140.454 73H139.446L140.514 66.88ZM144.229 66.88L144.073 67.78H144.121C144.337 67.436 144.613 67.168 144.949 66.976C145.293 66.784 145.693 66.688 146.149 66.688C146.597 66.688 146.969 66.792 147.265 67C147.561 67.208 147.761 67.5 147.865 67.876C148.089 67.508 148.397 67.22 148.789 67.012C149.181 66.796 149.621 66.688 150.109 66.688C150.701 66.688 151.161 66.844 151.489 67.156C151.817 67.46 151.981 67.864 151.981 68.368C151.981 68.584 151.945 68.892 151.873 69.292L151.225 73H150.217L150.877 69.232C150.917 68.992 150.937 68.796 150.937 68.644C150.937 68.316 150.837 68.064 150.637 67.888C150.437 67.704 150.145 67.612 149.761 67.612C149.281 67.612 148.861 67.804 148.501 68.188C148.149 68.572 147.921 69.056 147.817 69.64L147.217 73H146.197L146.857 69.244C146.897 69.004 146.917 68.812 146.917 68.668C146.917 68.34 146.813 68.084 146.605 67.9C146.397 67.708 146.113 67.612 145.753 67.612C145.273 67.612 144.849 67.812 144.481 68.212C144.121 68.604 143.893 69.088 143.797 69.664L143.209 73H142.189L143.269 66.88H144.229ZM153.901 66.88H154.861L154.705 67.78H154.753C154.985 67.444 155.285 67.18 155.653 66.988C156.029 66.788 156.469 66.688 156.973 66.688C157.445 66.688 157.869 66.804 158.245 67.036C158.629 67.26 158.929 67.584 159.145 68.008C159.361 68.424 159.469 68.912 159.469 69.472C159.469 70.144 159.317 70.768 159.013 71.344C158.709 71.912 158.285 72.364 157.741 72.7C157.205 73.028 156.601 73.192 155.929 73.192C155.481 73.192 155.085 73.088 154.741 72.88C154.397 72.664 154.149 72.4 153.997 72.088H153.949L153.841 72.94L153.373 75.592H152.353L153.901 66.88ZM156.013 72.268C156.477 72.268 156.893 72.152 157.261 71.92C157.629 71.68 157.917 71.352 158.125 70.936C158.333 70.52 158.437 70.06 158.437 69.556C158.437 68.964 158.273 68.492 157.945 68.14C157.625 67.788 157.209 67.612 156.697 67.612C156.249 67.612 155.841 67.736 155.473 67.984C155.105 68.232 154.813 68.568 154.597 68.992C154.389 69.416 154.285 69.884 154.285 70.396C154.285 70.972 154.449 71.428 154.777 71.764C155.105 72.1 155.517 72.268 156.013 72.268ZM162.176 73.192C161.816 73.192 161.48 73.112 161.168 72.952C160.864 72.784 160.62 72.56 160.436 72.28C160.26 71.992 160.172 71.672 160.172 71.32C160.172 70.64 160.42 70.1 160.916 69.7C161.42 69.292 162.108 69.088 162.98 69.088C163.3 69.088 163.612 69.128 163.916 69.208C164.228 69.28 164.504 69.38 164.744 69.508L164.816 69.148C164.84 69.012 164.852 68.896 164.852 68.8C164.852 68.44 164.708 68.152 164.42 67.936C164.14 67.712 163.784 67.6 163.352 67.6C162.688 67.6 162.14 67.872 161.708 68.416L160.916 67.852C161.204 67.484 161.568 67.2 162.008 67C162.448 66.792 162.932 66.688 163.46 66.688C164.196 66.688 164.772 66.868 165.188 67.228C165.612 67.58 165.824 68.056 165.824 68.656C165.824 68.824 165.804 69.028 165.764 69.268L165.092 73H164.12L164.276 72.136H164.228C164.012 72.456 163.728 72.712 163.376 72.904C163.024 73.096 162.624 73.192 162.176 73.192ZM162.404 72.292C162.956 72.292 163.436 72.112 163.844 71.752C164.252 71.384 164.504 70.916 164.6 70.348C164.352 70.204 164.104 70.096 163.856 70.024C163.608 69.952 163.296 69.916 162.92 69.916C162.416 69.916 162.004 70.036 161.684 70.276C161.372 70.508 161.216 70.832 161.216 71.248C161.216 71.568 161.328 71.824 161.552 72.016C161.784 72.2 162.068 72.292 162.404 72.292ZM168.647 65.764C168.447 65.764 168.275 65.692 168.131 65.548C167.987 65.404 167.915 65.232 167.915 65.032C167.915 64.824 167.987 64.652 168.131 64.516C168.275 64.372 168.447 64.3 168.647 64.3C168.847 64.3 169.015 64.372 169.151 64.516C169.295 64.66 169.367 64.832 169.367 65.032C169.367 65.232 169.295 65.404 169.151 65.548C169.015 65.692 168.847 65.764 168.647 65.764ZM167.795 66.88H168.815L167.735 73H166.727L167.795 66.88ZM170.55 66.88H171.51L171.354 67.792H171.402C171.562 67.456 171.826 67.192 172.194 67C172.57 66.8 172.962 66.7 173.37 66.7C173.658 66.7 173.894 66.74 174.078 66.82L173.874 67.936C173.674 67.8 173.398 67.732 173.046 67.732C172.758 67.732 172.47 67.816 172.182 67.984C171.902 68.152 171.662 68.38 171.462 68.668C171.27 68.948 171.146 69.252 171.09 69.58L170.49 73H169.47L170.55 66.88ZM176.631 73.192C176.079 73.192 175.595 73.068 175.179 72.82C174.763 72.564 174.443 72.224 174.219 71.8C174.003 71.368 173.895 70.896 173.895 70.384C173.895 69.744 174.039 69.14 174.327 68.572C174.615 68.004 175.023 67.548 175.551 67.204C176.079 66.86 176.683 66.688 177.363 66.688C177.891 66.688 178.347 66.804 178.731 67.036C179.115 67.268 179.407 67.584 179.607 67.984C179.807 68.376 179.907 68.804 179.907 69.268C179.907 69.612 179.871 69.9 179.799 70.132H174.951C174.935 70.292 174.927 70.42 174.927 70.516C174.927 70.868 175.007 71.18 175.167 71.452C175.335 71.716 175.551 71.92 175.815 72.064C176.087 72.2 176.375 72.268 176.679 72.268C177.151 72.268 177.551 72.172 177.879 71.98C178.215 71.78 178.495 71.496 178.719 71.128L179.499 71.572C179.195 72.1 178.799 72.504 178.311 72.784C177.823 73.056 177.263 73.192 176.631 73.192ZM178.887 69.292V69.124C178.887 68.86 178.823 68.612 178.695 68.38C178.567 68.148 178.379 67.964 178.131 67.828C177.883 67.684 177.587 67.612 177.243 67.612C176.731 67.612 176.283 67.772 175.899 68.092C175.523 68.404 175.263 68.804 175.119 69.292H178.887ZM183.283 73.192C182.811 73.192 182.383 73.08 181.999 72.856C181.623 72.624 181.327 72.3 181.111 71.884C180.895 71.46 180.787 70.972 180.787 70.42C180.787 69.74 180.939 69.116 181.243 68.548C181.547 67.98 181.967 67.528 182.503 67.192C183.047 66.856 183.655 66.688 184.327 66.688C184.783 66.688 185.179 66.796 185.515 67.012C185.859 67.228 186.111 67.492 186.271 67.804H186.319L186.415 66.952L186.871 64.408H187.879L186.355 73H185.395L185.551 72.1H185.503C185.271 72.436 184.971 72.704 184.603 72.904C184.235 73.096 183.795 73.192 183.283 73.192ZM183.559 72.268C184.007 72.268 184.415 72.144 184.783 71.896C185.159 71.648 185.451 71.316 185.659 70.9C185.875 70.476 185.983 70.012 185.983 69.508C185.983 68.932 185.819 68.472 185.491 68.128C185.163 67.784 184.751 67.612 184.255 67.612C183.791 67.612 183.375 67.732 183.007 67.972C182.639 68.204 182.351 68.528 182.143 68.944C181.935 69.36 181.831 69.82 181.831 70.324C181.831 70.916 181.991 71.388 182.311 71.74C182.639 72.092 183.055 72.268 183.559 72.268ZM193.054 75.784C192.59 75.784 192.182 75.7 191.83 75.532C191.486 75.364 191.21 75.148 191.002 74.884C190.794 74.628 190.662 74.356 190.606 74.068L191.59 73.672C191.678 74.024 191.858 74.308 192.13 74.524C192.402 74.748 192.758 74.86 193.198 74.86C193.83 74.86 194.35 74.672 194.758 74.296C195.166 73.92 195.426 73.404 195.538 72.748L195.658 72.076H195.61C195.378 72.412 195.086 72.672 194.734 72.856C194.382 73.032 193.95 73.12 193.438 73.12C192.982 73.12 192.566 73.008 192.19 72.784C191.814 72.552 191.518 72.228 191.302 71.812C191.086 71.388 190.978 70.908 190.978 70.372C190.978 69.724 191.122 69.12 191.41 68.56C191.698 67.992 192.102 67.54 192.622 67.204C193.15 66.86 193.754 66.688 194.434 66.688C194.898 66.688 195.302 66.788 195.646 66.988C195.99 67.188 196.234 67.444 196.378 67.756H196.426L196.582 66.88H197.554L196.51 72.808C196.334 73.816 195.942 74.564 195.334 75.052C194.726 75.54 193.966 75.784 193.054 75.784ZM193.654 72.196C194.118 72.196 194.534 72.072 194.902 71.824C195.278 71.576 195.57 71.248 195.778 70.84C195.986 70.424 196.09 69.98 196.09 69.508C196.09 68.932 195.934 68.472 195.622 68.128C195.31 67.784 194.91 67.612 194.422 67.612C193.942 67.612 193.518 67.732 193.15 67.972C192.782 68.212 192.498 68.54 192.298 68.956C192.098 69.364 191.998 69.82 191.998 70.324C191.998 70.908 192.154 71.368 192.466 71.704C192.778 72.032 193.174 72.196 193.654 72.196ZM199.59 64.408H200.598L199.086 73H198.078L199.59 64.408ZM203.634 73.192C203.098 73.192 202.618 73.064 202.194 72.808C201.778 72.552 201.454 72.204 201.222 71.764C200.99 71.316 200.874 70.82 200.874 70.276C200.874 69.612 201.018 69.008 201.306 68.464C201.602 67.92 202.018 67.488 202.554 67.168C203.098 66.848 203.718 66.688 204.414 66.688C204.958 66.688 205.438 66.816 205.854 67.072C206.278 67.328 206.602 67.68 206.826 68.128C207.058 68.568 207.174 69.06 207.174 69.604C207.174 70.268 207.026 70.876 206.73 71.428C206.442 71.972 206.026 72.404 205.482 72.724C204.946 73.036 204.33 73.192 203.634 73.192ZM203.754 72.268C204.218 72.268 204.63 72.152 204.99 71.92C205.358 71.68 205.642 71.364 205.842 70.972C206.042 70.572 206.142 70.136 206.142 69.664C206.142 69.072 205.97 68.584 205.626 68.2C205.29 67.808 204.846 67.612 204.294 67.612C203.83 67.612 203.414 67.732 203.046 67.972C202.686 68.204 202.406 68.52 202.206 68.92C202.006 69.312 201.906 69.744 201.906 70.216C201.906 70.816 202.074 71.308 202.41 71.692C202.754 72.076 203.202 72.268 203.754 72.268ZM211.048 73.192C210.6 73.192 210.196 73.088 209.836 72.88C209.484 72.664 209.22 72.4 209.044 72.088H208.996L208.84 73H207.88L209.392 64.408H210.412L209.956 66.94L209.764 67.792H209.812C210.004 67.48 210.28 67.22 210.64 67.012C211 66.796 211.424 66.688 211.912 66.688C212.4 66.688 212.84 66.812 213.232 67.06C213.624 67.3 213.928 67.636 214.144 68.068C214.368 68.5 214.48 68.992 214.48 69.544C214.48 70.192 214.332 70.796 214.036 71.356C213.748 71.916 213.34 72.364 212.812 72.7C212.292 73.028 211.704 73.192 211.048 73.192ZM211.036 72.268C211.484 72.268 211.892 72.156 212.26 71.932C212.628 71.7 212.916 71.384 213.124 70.984C213.34 70.576 213.448 70.12 213.448 69.616C213.448 69.032 213.276 68.552 212.932 68.176C212.596 67.8 212.164 67.612 211.636 67.612C211.212 67.612 210.82 67.74 210.46 67.996C210.108 68.252 209.828 68.592 209.62 69.016C209.42 69.432 209.32 69.876 209.32 70.348C209.32 70.932 209.484 71.4 209.812 71.752C210.14 72.096 210.548 72.268 211.036 72.268ZM217.224 73.192C216.864 73.192 216.528 73.112 216.216 72.952C215.912 72.784 215.668 72.56 215.484 72.28C215.308 71.992 215.22 71.672 215.22 71.32C215.22 70.64 215.468 70.1 215.964 69.7C216.468 69.292 217.156 69.088 218.028 69.088C218.348 69.088 218.66 69.128 218.964 69.208C219.276 69.28 219.552 69.38 219.792 69.508L219.864 69.148C219.888 69.012 219.9 68.896 219.9 68.8C219.9 68.44 219.756 68.152 219.468 67.936C219.188 67.712 218.832 67.6 218.4 67.6C217.736 67.6 217.188 67.872 216.756 68.416L215.964 67.852C216.252 67.484 216.616 67.2 217.056 67C217.496 66.792 217.98 66.688 218.508 66.688C219.244 66.688 219.82 66.868 220.236 67.228C220.66 67.58 220.872 68.056 220.872 68.656C220.872 68.824 220.852 69.028 220.812 69.268L220.14 73H219.168L219.324 72.136H219.276C219.06 72.456 218.776 72.712 218.424 72.904C218.072 73.096 217.672 73.192 217.224 73.192ZM217.452 72.292C218.004 72.292 218.484 72.112 218.892 71.752C219.3 71.384 219.552 70.916 219.648 70.348C219.4 70.204 219.152 70.096 218.904 70.024C218.656 69.952 218.344 69.916 217.968 69.916C217.464 69.916 217.052 70.036 216.732 70.276C216.42 70.508 216.264 70.832 216.264 71.248C216.264 71.568 216.376 71.824 216.6 72.016C216.832 72.2 217.116 72.292 217.452 72.292ZM223.203 64.408H224.211L222.699 73H221.691L223.203 64.408ZM225.866 64.408H226.874L225.362 73H224.354L225.866 64.408ZM228.937 72.604L227.413 66.88H228.481L229.621 71.428H229.645L232.309 66.88H233.437L228.109 75.592H227.029L228.937 72.604Z" fill="#4F4F4F"/>
<path d="M278.797 43.765L276.445 45.466L275.269 43.681L279.49 40.636H281.107V55H278.797V43.765ZM286.38 55.126C285.932 55.126 285.547 54.972 285.225 54.664C284.917 54.342 284.763 53.957 284.763 53.509C284.763 53.061 284.917 52.683 285.225 52.375C285.547 52.067 285.932 51.913 286.38 51.913C286.828 51.913 287.206 52.067 287.514 52.375C287.836 52.683 287.997 53.061 287.997 53.509C287.997 53.957 287.836 54.342 287.514 54.664C287.206 54.972 286.828 55.126 286.38 55.126ZM295.549 55.336C294.471 55.336 293.47 55.028 292.546 54.412C291.622 53.782 290.985 52.865 290.635 51.661L292.777 50.779C292.973 51.521 293.309 52.095 293.785 52.501C294.275 52.907 294.863 53.11 295.549 53.11C296.249 53.11 296.851 52.9 297.355 52.48C297.859 52.046 298.111 51.5 298.111 50.842C298.111 50.17 297.845 49.624 297.313 49.204C296.781 48.77 296.116 48.553 295.318 48.553H294.079V46.432H295.192C295.878 46.432 296.452 46.25 296.914 45.886C297.39 45.508 297.628 44.997 297.628 44.353C297.628 43.779 297.418 43.324 296.998 42.988C296.578 42.638 296.046 42.463 295.402 42.463C294.772 42.463 294.268 42.631 293.89 42.967C293.526 43.303 293.26 43.716 293.092 44.206L290.971 43.324C291.251 42.526 291.769 41.826 292.525 41.224C293.281 40.608 294.247 40.3 295.423 40.3C296.291 40.3 297.068 40.468 297.754 40.804C298.454 41.14 299 41.609 299.392 42.211C299.784 42.799 299.98 43.464 299.98 44.206C299.98 44.962 299.798 45.606 299.434 46.138C299.07 46.656 298.622 47.055 298.09 47.335V47.461C298.79 47.755 299.364 48.203 299.812 48.805C300.26 49.407 300.484 50.128 300.484 50.968C300.484 51.808 300.267 52.557 299.833 53.215C299.413 53.873 298.825 54.391 298.069 54.769C297.327 55.147 296.487 55.336 295.549 55.336ZM309.327 39.964H312.519L316.845 51.367H316.971L321.297 39.964H324.489V55H322.158V46.579L322.284 43.87H322.158L317.853 55H315.963L311.658 43.87H311.532L311.658 46.579V55H309.327V39.964ZM329.503 42.736C329.069 42.736 328.698 42.589 328.39 42.295C328.096 41.987 327.949 41.616 327.949 41.182C327.949 40.748 328.096 40.384 328.39 40.09C328.698 39.782 329.069 39.628 329.503 39.628C329.937 39.628 330.301 39.782 330.595 40.09C330.903 40.384 331.057 40.748 331.057 41.182C331.057 41.616 330.903 41.987 330.595 42.295C330.301 42.589 329.937 42.736 329.503 42.736ZM328.348 44.29H330.658V55H328.348V44.29ZM334.162 39.964H336.472V55H334.162V39.964ZM339.817 39.964H342.127V55H339.817V39.964ZM346.794 42.736C346.36 42.736 345.989 42.589 345.681 42.295C345.387 41.987 345.24 41.616 345.24 41.182C345.24 40.748 345.387 40.384 345.681 40.09C345.989 39.782 346.36 39.628 346.794 39.628C347.228 39.628 347.592 39.782 347.886 40.09C348.194 40.384 348.348 40.748 348.348 41.182C348.348 41.616 348.194 41.987 347.886 42.295C347.592 42.589 347.228 42.736 346.794 42.736ZM345.639 44.29H347.949V55H345.639V44.29ZM356.37 55.336C355.292 55.336 354.326 55.091 353.472 54.601C352.618 54.097 351.953 53.411 351.477 52.543C351.001 51.675 350.763 50.709 350.763 49.645C350.763 48.581 351.001 47.615 351.477 46.747C351.953 45.879 352.618 45.2 353.472 44.71C354.326 44.206 355.292 43.954 356.37 43.954C357.448 43.954 358.414 44.206 359.268 44.71C360.122 45.214 360.787 45.9 361.263 46.768C361.739 47.636 361.977 48.595 361.977 49.645C361.977 50.709 361.739 51.675 361.263 52.543C360.787 53.411 360.122 54.097 359.268 54.601C358.414 55.091 357.448 55.336 356.37 55.336ZM356.37 53.215C356.958 53.215 357.504 53.075 358.008 52.795C358.512 52.501 358.911 52.088 359.205 51.556C359.513 51.01 359.667 50.373 359.667 49.645C359.667 48.917 359.513 48.287 359.205 47.755C358.911 47.223 358.512 46.817 358.008 46.537C357.504 46.243 356.958 46.096 356.37 46.096C355.782 46.096 355.236 46.243 354.732 46.537C354.228 46.817 353.822 47.223 353.514 47.755C353.22 48.287 353.073 48.917 353.073 49.645C353.073 50.373 353.22 51.01 353.514 51.556C353.822 52.088 354.228 52.501 354.732 52.795C355.236 53.075 355.782 53.215 356.37 53.215ZM364.532 44.29H366.737V45.697H366.842C367.15 45.193 367.605 44.78 368.207 44.458C368.823 44.122 369.474 43.954 370.16 43.954C371.462 43.954 372.449 44.339 373.121 45.109C373.807 45.865 374.15 46.901 374.15 48.217V55H371.84V48.532C371.84 47.692 371.63 47.076 371.21 46.684C370.804 46.292 370.237 46.096 369.509 46.096C368.991 46.096 368.529 46.243 368.123 46.537C367.717 46.817 367.402 47.195 367.178 47.671C366.954 48.147 366.842 48.658 366.842 49.204V55H364.532V44.29Z" fill="#359799"/>
<path d="M278.707 64.408H279.859L281.599 73H280.519L280.087 70.636H276.379L275.083 73H273.943L278.707 64.408ZM279.895 69.676L279.295 66.58L279.127 65.656H279.079L276.883 69.676H279.895ZM284.718 66.88L284.562 67.78H284.61C284.826 67.436 285.102 67.168 285.438 66.976C285.782 66.784 286.182 66.688 286.638 66.688C287.086 66.688 287.458 66.792 287.754 67C288.05 67.208 288.25 67.5 288.354 67.876C288.578 67.508 288.886 67.22 289.278 67.012C289.67 66.796 290.11 66.688 290.598 66.688C291.19 66.688 291.65 66.844 291.978 67.156C292.306 67.46 292.47 67.864 292.47 68.368C292.47 68.584 292.434 68.892 292.362 69.292L291.714 73H290.706L291.366 69.232C291.406 68.992 291.426 68.796 291.426 68.644C291.426 68.316 291.326 68.064 291.126 67.888C290.926 67.704 290.634 67.612 290.25 67.612C289.77 67.612 289.35 67.804 288.99 68.188C288.638 68.572 288.41 69.056 288.306 69.64L287.706 73H286.686L287.346 69.244C287.386 69.004 287.406 68.812 287.406 68.668C287.406 68.34 287.302 68.084 287.094 67.9C286.886 67.708 286.602 67.612 286.242 67.612C285.762 67.612 285.338 67.812 284.97 68.212C284.61 68.604 284.382 69.088 284.286 69.664L283.698 73H282.678L283.758 66.88H284.718ZM296.214 73.192C295.662 73.192 295.178 73.068 294.762 72.82C294.346 72.564 294.026 72.224 293.802 71.8C293.586 71.368 293.478 70.896 293.478 70.384C293.478 69.744 293.622 69.14 293.91 68.572C294.198 68.004 294.606 67.548 295.134 67.204C295.662 66.86 296.266 66.688 296.946 66.688C297.474 66.688 297.93 66.804 298.314 67.036C298.698 67.268 298.99 67.584 299.19 67.984C299.39 68.376 299.49 68.804 299.49 69.268C299.49 69.612 299.454 69.9 299.382 70.132H294.534C294.518 70.292 294.51 70.42 294.51 70.516C294.51 70.868 294.59 71.18 294.75 71.452C294.918 71.716 295.134 71.92 295.398 72.064C295.67 72.2 295.958 72.268 296.262 72.268C296.734 72.268 297.134 72.172 297.462 71.98C297.798 71.78 298.078 71.496 298.302 71.128L299.082 71.572C298.778 72.1 298.382 72.504 297.894 72.784C297.406 73.056 296.846 73.192 296.214 73.192ZM298.47 69.292V69.124C298.47 68.86 298.406 68.612 298.278 68.38C298.15 68.148 297.962 67.964 297.714 67.828C297.466 67.684 297.17 67.612 296.826 67.612C296.314 67.612 295.866 67.772 295.482 68.092C295.106 68.404 294.846 68.804 294.702 69.292H298.47ZM301.283 66.88H302.243L302.087 67.792H302.135C302.295 67.456 302.559 67.192 302.927 67C303.303 66.8 303.695 66.7 304.103 66.7C304.391 66.7 304.627 66.74 304.811 66.82L304.607 67.936C304.407 67.8 304.131 67.732 303.779 67.732C303.491 67.732 303.203 67.816 302.915 67.984C302.635 68.152 302.395 68.38 302.195 68.668C302.003 68.948 301.879 69.252 301.823 69.58L301.223 73H300.203L301.283 66.88ZM306.827 65.764C306.627 65.764 306.455 65.692 306.311 65.548C306.167 65.404 306.095 65.232 306.095 65.032C306.095 64.824 306.167 64.652 306.311 64.516C306.455 64.372 306.627 64.3 306.827 64.3C307.027 64.3 307.195 64.372 307.331 64.516C307.475 64.66 307.547 64.832 307.547 65.032C307.547 65.232 307.475 65.404 307.331 65.548C307.195 65.692 307.027 65.764 306.827 65.764ZM305.975 66.88H306.995L305.915 73H304.907L305.975 66.88ZM310.424 73.192C309.904 73.192 309.44 73.064 309.032 72.808C308.632 72.552 308.32 72.208 308.096 71.776C307.872 71.344 307.76 70.876 307.76 70.372C307.76 69.692 307.912 69.072 308.216 68.512C308.52 67.952 308.944 67.508 309.488 67.18C310.032 66.852 310.648 66.688 311.336 66.688C311.992 66.688 312.528 66.852 312.944 67.18C313.36 67.508 313.636 67.908 313.772 68.38L312.824 68.752C312.712 68.392 312.516 68.112 312.236 67.912C311.964 67.712 311.624 67.612 311.216 67.612C310.776 67.612 310.372 67.728 310.004 67.96C309.636 68.192 309.344 68.512 309.128 68.92C308.912 69.328 308.804 69.788 308.804 70.3C308.804 70.86 308.964 71.328 309.284 71.704C309.612 72.08 310.04 72.268 310.568 72.268C310.984 72.268 311.356 72.168 311.684 71.968C312.012 71.76 312.276 71.472 312.476 71.104L313.292 71.5C312.972 72.076 312.58 72.504 312.116 72.784C311.66 73.056 311.096 73.192 310.424 73.192ZM316.279 73.192C315.919 73.192 315.583 73.112 315.271 72.952C314.967 72.784 314.723 72.56 314.539 72.28C314.363 71.992 314.275 71.672 314.275 71.32C314.275 70.64 314.523 70.1 315.019 69.7C315.523 69.292 316.211 69.088 317.083 69.088C317.403 69.088 317.715 69.128 318.019 69.208C318.331 69.28 318.607 69.38 318.847 69.508L318.919 69.148C318.943 69.012 318.955 68.896 318.955 68.8C318.955 68.44 318.811 68.152 318.523 67.936C318.243 67.712 317.887 67.6 317.455 67.6C316.791 67.6 316.243 67.872 315.811 68.416L315.019 67.852C315.307 67.484 315.671 67.2 316.111 67C316.551 66.792 317.035 66.688 317.563 66.688C318.299 66.688 318.875 66.868 319.291 67.228C319.715 67.58 319.927 68.056 319.927 68.656C319.927 68.824 319.907 69.028 319.867 69.268L319.195 73H318.223L318.379 72.136H318.331C318.115 72.456 317.831 72.712 317.479 72.904C317.127 73.096 316.727 73.192 316.279 73.192ZM316.507 72.292C317.059 72.292 317.539 72.112 317.947 71.752C318.355 71.384 318.607 70.916 318.703 70.348C318.455 70.204 318.207 70.096 317.959 70.024C317.711 69.952 317.399 69.916 317.023 69.916C316.519 69.916 316.107 70.036 315.787 70.276C315.475 70.508 315.319 70.832 315.319 71.248C315.319 71.568 315.431 71.824 315.655 72.016C315.887 72.2 316.171 72.292 316.507 72.292ZM322.678 67.78C322.894 67.452 323.182 67.188 323.542 66.988C323.902 66.788 324.314 66.688 324.778 66.688C325.386 66.688 325.862 66.856 326.206 67.192C326.558 67.52 326.734 67.956 326.734 68.5C326.734 68.756 326.71 69.04 326.662 69.352L326.014 73H324.994L325.642 69.328C325.69 69.096 325.714 68.896 325.714 68.728C325.714 68.376 325.594 68.104 325.354 67.912C325.122 67.712 324.81 67.612 324.418 67.612C323.922 67.612 323.482 67.796 323.098 68.164C322.714 68.532 322.474 68.996 322.378 69.556L321.766 73H320.746L321.826 66.88H322.786L322.63 67.78H322.678ZM329.814 73.192C329.166 73.192 328.63 73.036 328.206 72.724C327.782 72.412 327.502 72.008 327.366 71.512L328.338 71.128C328.418 71.496 328.606 71.784 328.902 71.992C329.198 72.192 329.534 72.292 329.91 72.292C330.302 72.292 330.622 72.2 330.87 72.016C331.126 71.832 331.254 71.6 331.254 71.32C331.254 71.072 331.17 70.868 331.002 70.708C330.834 70.54 330.574 70.412 330.222 70.324L329.61 70.168C329.122 70.04 328.734 69.84 328.446 69.568C328.166 69.296 328.026 68.952 328.026 68.536C328.026 68.192 328.126 67.88 328.326 67.6C328.534 67.312 328.822 67.088 329.19 66.928C329.558 66.768 329.97 66.688 330.426 66.688C330.97 66.688 331.446 66.816 331.854 67.072C332.27 67.328 332.546 67.664 332.682 68.08L331.71 68.452C331.614 68.196 331.446 67.992 331.206 67.84C330.974 67.68 330.694 67.6 330.366 67.6C329.982 67.6 329.67 67.68 329.43 67.84C329.198 68 329.082 68.208 329.082 68.464C329.082 68.64 329.158 68.804 329.31 68.956C329.462 69.108 329.682 69.22 329.97 69.292L330.762 69.496C331.242 69.616 331.618 69.824 331.89 70.12C332.17 70.416 332.31 70.776 332.31 71.2C332.31 71.8 332.086 72.284 331.638 72.652C331.198 73.012 330.59 73.192 329.814 73.192ZM338.099 73.192C337.739 73.192 337.403 73.112 337.091 72.952C336.787 72.784 336.543 72.56 336.359 72.28C336.183 71.992 336.095 71.672 336.095 71.32C336.095 70.64 336.343 70.1 336.839 69.7C337.343 69.292 338.031 69.088 338.903 69.088C339.223 69.088 339.535 69.128 339.839 69.208C340.151 69.28 340.427 69.38 340.667 69.508L340.739 69.148C340.763 69.012 340.775 68.896 340.775 68.8C340.775 68.44 340.631 68.152 340.343 67.936C340.063 67.712 339.707 67.6 339.275 67.6C338.611 67.6 338.063 67.872 337.631 68.416L336.839 67.852C337.127 67.484 337.491 67.2 337.931 67C338.371 66.792 338.855 66.688 339.383 66.688C340.119 66.688 340.695 66.868 341.111 67.228C341.535 67.58 341.747 68.056 341.747 68.656C341.747 68.824 341.727 69.028 341.687 69.268L341.015 73H340.043L340.199 72.136H340.151C339.935 72.456 339.651 72.712 339.299 72.904C338.947 73.096 338.547 73.192 338.099 73.192ZM338.327 72.292C338.879 72.292 339.359 72.112 339.767 71.752C340.175 71.384 340.427 70.916 340.523 70.348C340.275 70.204 340.027 70.096 339.779 70.024C339.531 69.952 339.219 69.916 338.843 69.916C338.339 69.916 337.927 70.036 337.607 70.276C337.295 70.508 337.139 70.832 337.139 71.248C337.139 71.568 337.251 71.824 337.475 72.016C337.707 72.2 337.991 72.292 338.327 72.292ZM343.646 66.88H344.606L344.45 67.792H344.498C344.658 67.456 344.922 67.192 345.29 67C345.666 66.8 346.058 66.7 346.466 66.7C346.754 66.7 346.99 66.74 347.174 66.82L346.97 67.936C346.77 67.8 346.494 67.732 346.142 67.732C345.854 67.732 345.566 67.816 345.278 67.984C344.998 68.152 344.758 68.38 344.558 68.668C344.366 68.948 344.242 69.252 344.186 69.58L343.586 73H342.566L343.646 66.88ZM349.726 73.192C349.174 73.192 348.69 73.068 348.274 72.82C347.858 72.564 347.538 72.224 347.314 71.8C347.098 71.368 346.99 70.896 346.99 70.384C346.99 69.744 347.134 69.14 347.422 68.572C347.71 68.004 348.118 67.548 348.646 67.204C349.174 66.86 349.778 66.688 350.458 66.688C350.986 66.688 351.442 66.804 351.826 67.036C352.21 67.268 352.502 67.584 352.702 67.984C352.902 68.376 353.002 68.804 353.002 69.268C353.002 69.612 352.966 69.9 352.894 70.132H348.046C348.03 70.292 348.022 70.42 348.022 70.516C348.022 70.868 348.102 71.18 348.262 71.452C348.43 71.716 348.646 71.92 348.91 72.064C349.182 72.2 349.47 72.268 349.774 72.268C350.246 72.268 350.646 72.172 350.974 71.98C351.31 71.78 351.59 71.496 351.814 71.128L352.594 71.572C352.29 72.1 351.894 72.504 351.406 72.784C350.918 73.056 350.358 73.192 349.726 73.192ZM351.982 69.292V69.124C351.982 68.86 351.918 68.612 351.79 68.38C351.662 68.148 351.474 67.964 351.226 67.828C350.978 67.684 350.682 67.612 350.338 67.612C349.826 67.612 349.378 67.772 348.994 68.092C348.618 68.404 348.358 68.804 348.214 69.292H351.982ZM358.031 64.408H359.039L357.527 73H356.519L358.031 64.408ZM362.028 73.192C361.476 73.192 360.992 73.068 360.576 72.82C360.16 72.564 359.84 72.224 359.616 71.8C359.4 71.368 359.292 70.896 359.292 70.384C359.292 69.744 359.436 69.14 359.724 68.572C360.012 68.004 360.42 67.548 360.948 67.204C361.476 66.86 362.08 66.688 362.76 66.688C363.288 66.688 363.744 66.804 364.128 67.036C364.512 67.268 364.804 67.584 365.004 67.984C365.204 68.376 365.304 68.804 365.304 69.268C365.304 69.612 365.268 69.9 365.196 70.132H360.348C360.332 70.292 360.324 70.42 360.324 70.516C360.324 70.868 360.404 71.18 360.564 71.452C360.732 71.716 360.948 71.92 361.212 72.064C361.484 72.2 361.772 72.268 362.076 72.268C362.548 72.268 362.948 72.172 363.276 71.98C363.612 71.78 363.892 71.496 364.116 71.128L364.896 71.572C364.592 72.1 364.196 72.504 363.708 72.784C363.22 73.056 362.66 73.192 362.028 73.192ZM364.284 69.292V69.124C364.284 68.86 364.22 68.612 364.092 68.38C363.964 68.148 363.776 67.964 363.528 67.828C363.28 67.684 362.984 67.612 362.64 67.612C362.128 67.612 361.68 67.772 361.296 68.092C360.92 68.404 360.66 68.804 360.516 69.292H364.284ZM368.332 75.784C367.868 75.784 367.46 75.7 367.108 75.532C366.764 75.364 366.488 75.148 366.28 74.884C366.072 74.628 365.94 74.356 365.884 74.068L366.868 73.672C366.956 74.024 367.136 74.308 367.408 74.524C367.68 74.748 368.036 74.86 368.476 74.86C369.108 74.86 369.628 74.672 370.036 74.296C370.444 73.92 370.704 73.404 370.816 72.748L370.936 72.076H370.888C370.656 72.412 370.364 72.672 370.012 72.856C369.66 73.032 369.228 73.12 368.716 73.12C368.26 73.12 367.844 73.008 367.468 72.784C367.092 72.552 366.796 72.228 366.58 71.812C366.364 71.388 366.256 70.908 366.256 70.372C366.256 69.724 366.4 69.12 366.688 68.56C366.976 67.992 367.38 67.54 367.9 67.204C368.428 66.86 369.032 66.688 369.712 66.688C370.176 66.688 370.58 66.788 370.924 66.988C371.268 67.188 371.512 67.444 371.656 67.756H371.704L371.86 66.88H372.832L371.788 72.808C371.612 73.816 371.22 74.564 370.612 75.052C370.004 75.54 369.244 75.784 368.332 75.784ZM368.932 72.196C369.396 72.196 369.812 72.072 370.18 71.824C370.556 71.576 370.848 71.248 371.056 70.84C371.264 70.424 371.368 69.98 371.368 69.508C371.368 68.932 371.212 68.472 370.9 68.128C370.588 67.784 370.188 67.612 369.7 67.612C369.22 67.612 368.796 67.732 368.428 67.972C368.06 68.212 367.776 68.54 367.576 68.956C367.376 69.364 367.276 69.82 367.276 70.324C367.276 70.908 367.432 71.368 367.744 71.704C368.056 72.032 368.452 72.196 368.932 72.196ZM375.325 73.192C374.965 73.192 374.629 73.112 374.317 72.952C374.013 72.784 373.769 72.56 373.585 72.28C373.409 71.992 373.321 71.672 373.321 71.32C373.321 70.64 373.569 70.1 374.065 69.7C374.569 69.292 375.257 69.088 376.129 69.088C376.449 69.088 376.761 69.128 377.065 69.208C377.377 69.28 377.653 69.38 377.893 69.508L377.965 69.148C377.989 69.012 378.001 68.896 378.001 68.8C378.001 68.44 377.857 68.152 377.569 67.936C377.289 67.712 376.933 67.6 376.501 67.6C375.837 67.6 375.289 67.872 374.857 68.416L374.065 67.852C374.353 67.484 374.717 67.2 375.157 67C375.597 66.792 376.081 66.688 376.609 66.688C377.345 66.688 377.921 66.868 378.337 67.228C378.761 67.58 378.973 68.056 378.973 68.656C378.973 68.824 378.953 69.028 378.913 69.268L378.241 73H377.269L377.425 72.136H377.377C377.161 72.456 376.877 72.712 376.525 72.904C376.173 73.096 375.773 73.192 375.325 73.192ZM375.553 72.292C376.105 72.292 376.585 72.112 376.993 71.752C377.401 71.384 377.653 70.916 377.749 70.348C377.501 70.204 377.253 70.096 377.005 70.024C376.757 69.952 376.445 69.916 376.069 69.916C375.565 69.916 375.153 70.036 374.833 70.276C374.521 70.508 374.365 70.832 374.365 71.248C374.365 71.568 374.477 71.824 374.701 72.016C374.933 72.2 375.217 72.292 375.553 72.292ZM381.304 64.408H382.312L380.8 73H379.792L381.304 64.408ZM383.967 64.408H384.975L383.463 73H382.455L383.967 64.408ZM387.038 72.604L385.514 66.88H386.582L387.722 71.428H387.746L390.41 66.88H391.538L386.21 75.592H385.13L387.038 72.604ZM397.397 73.192C396.949 73.192 396.545 73.088 396.185 72.88C395.833 72.664 395.569 72.4 395.393 72.088H395.345L395.189 73H394.229L395.741 64.408H396.761L396.305 66.94L396.113 67.792H396.161C396.353 67.48 396.629 67.22 396.989 67.012C397.349 66.796 397.773 66.688 398.261 66.688C398.749 66.688 399.189 66.812 399.581 67.06C399.973 67.3 400.277 67.636 400.493 68.068C400.717 68.5 400.829 68.992 400.829 69.544C400.829 70.192 400.681 70.796 400.385 71.356C400.097 71.916 399.689 72.364 399.161 72.7C398.641 73.028 398.053 73.192 397.397 73.192ZM397.385 72.268C397.833 72.268 398.241 72.156 398.609 71.932C398.977 71.7 399.265 71.384 399.473 70.984C399.689 70.576 399.797 70.12 399.797 69.616C399.797 69.032 399.625 68.552 399.281 68.176C398.945 67.8 398.513 67.612 397.985 67.612C397.561 67.612 397.169 67.74 396.809 67.996C396.457 68.252 396.177 68.592 395.969 69.016C395.769 69.432 395.669 69.876 395.669 70.348C395.669 70.932 395.833 71.4 396.161 71.752C396.489 72.096 396.897 72.268 397.385 72.268ZM402.998 64.408H404.006L402.494 73H401.486L402.998 64.408ZM406.153 65.764C405.953 65.764 405.781 65.692 405.637 65.548C405.493 65.404 405.421 65.232 405.421 65.032C405.421 64.824 405.493 64.652 405.637 64.516C405.781 64.372 405.953 64.3 406.153 64.3C406.353 64.3 406.521 64.372 406.657 64.516C406.801 64.66 406.873 64.832 406.873 65.032C406.873 65.232 406.801 65.404 406.657 65.548C406.521 65.692 406.353 65.764 406.153 65.764ZM405.301 66.88H406.321L405.241 73H404.233L405.301 66.88ZM408.908 67.78C409.124 67.452 409.412 67.188 409.772 66.988C410.132 66.788 410.544 66.688 411.008 66.688C411.616 66.688 412.092 66.856 412.436 67.192C412.788 67.52 412.964 67.956 412.964 68.5C412.964 68.756 412.94 69.04 412.892 69.352L412.244 73H411.224L411.872 69.328C411.92 69.096 411.944 68.896 411.944 68.728C411.944 68.376 411.824 68.104 411.584 67.912C411.352 67.712 411.04 67.612 410.648 67.612C410.152 67.612 409.712 67.796 409.328 68.164C408.944 68.532 408.704 68.996 408.608 69.556L407.996 73H406.976L408.056 66.88H409.016L408.86 67.78H408.908ZM416.427 73.192C415.955 73.192 415.527 73.08 415.143 72.856C414.767 72.624 414.471 72.3 414.255 71.884C414.039 71.46 413.931 70.972 413.931 70.42C413.931 69.74 414.083 69.116 414.387 68.548C414.691 67.98 415.111 67.528 415.647 67.192C416.191 66.856 416.799 66.688 417.471 66.688C417.927 66.688 418.323 66.796 418.659 67.012C419.003 67.228 419.255 67.492 419.415 67.804H419.463L419.559 66.952L420.015 64.408H421.023L419.499 73H418.539L418.695 72.1H418.647C418.415 72.436 418.115 72.704 417.747 72.904C417.379 73.096 416.939 73.192 416.427 73.192ZM416.703 72.268C417.151 72.268 417.559 72.144 417.927 71.896C418.303 71.648 418.595 71.316 418.803 70.9C419.019 70.476 419.127 70.012 419.127 69.508C419.127 68.932 418.963 68.472 418.635 68.128C418.307 67.784 417.895 67.612 417.399 67.612C416.935 67.612 416.519 67.732 416.151 67.972C415.783 68.204 415.495 68.528 415.287 68.944C415.079 69.36 414.975 69.82 414.975 70.324C414.975 70.916 415.135 71.388 415.455 71.74C415.783 72.092 416.199 72.268 416.703 72.268ZM425.862 74.632C425.462 74.064 425.126 73.384 424.854 72.592C424.59 71.8 424.458 70.936 424.458 70C424.458 68.776 424.75 67.604 425.334 66.484C425.918 65.356 426.698 64.408 427.674 63.64L428.25 64.18C427.354 65.012 426.666 65.916 426.186 66.892C425.714 67.868 425.478 68.964 425.478 70.18C425.478 71.596 425.85 72.904 426.594 74.104L425.862 74.632ZM429.452 64.408H430.472L430.016 66.94L429.824 67.78H429.872C430.096 67.452 430.388 67.188 430.748 66.988C431.108 66.788 431.516 66.688 431.972 66.688C432.596 66.688 433.08 66.856 433.424 67.192C433.768 67.52 433.94 67.956 433.94 68.5C433.94 68.756 433.912 69.028 433.856 69.316L433.196 73H432.188L432.836 69.316C432.884 69.1 432.908 68.904 432.908 68.728C432.908 68.392 432.788 68.124 432.548 67.924C432.316 67.716 432.008 67.612 431.624 67.612C431.12 67.612 430.676 67.804 430.292 68.188C429.908 68.572 429.66 69.068 429.548 69.676L428.96 73H427.94L429.452 64.408ZM436.791 65.764C436.591 65.764 436.419 65.692 436.275 65.548C436.131 65.404 436.059 65.232 436.059 65.032C436.059 64.824 436.131 64.652 436.275 64.516C436.419 64.372 436.591 64.3 436.791 64.3C436.991 64.3 437.159 64.372 437.295 64.516C437.439 64.66 437.511 64.832 437.511 65.032C437.511 65.232 437.439 65.404 437.295 65.548C437.159 65.692 436.991 65.764 436.791 65.764ZM435.939 66.88H436.959L435.879 73H434.871L435.939 66.88ZM439.811 75.784C439.347 75.784 438.939 75.7 438.587 75.532C438.243 75.364 437.967 75.148 437.759 74.884C437.551 74.628 437.419 74.356 437.363 74.068L438.347 73.672C438.435 74.024 438.615 74.308 438.887 74.524C439.159 74.748 439.515 74.86 439.955 74.86C440.587 74.86 441.107 74.672 441.515 74.296C441.923 73.92 442.183 73.404 442.295 72.748L442.415 72.076H442.367C442.135 72.412 441.843 72.672 441.491 72.856C441.139 73.032 440.707 73.12 440.195 73.12C439.739 73.12 439.323 73.008 438.947 72.784C438.571 72.552 438.275 72.228 438.059 71.812C437.843 71.388 437.735 70.908 437.735 70.372C437.735 69.724 437.879 69.12 438.167 68.56C438.455 67.992 438.859 67.54 439.379 67.204C439.907 66.86 440.511 66.688 441.191 66.688C441.655 66.688 442.059 66.788 442.403 66.988C442.747 67.188 442.991 67.444 443.135 67.756H443.183L443.339 66.88H444.311L443.267 72.808C443.091 73.816 442.699 74.564 442.091 75.052C441.483 75.54 440.723 75.784 439.811 75.784ZM440.411 72.196C440.875 72.196 441.291 72.072 441.659 71.824C442.035 71.576 442.327 71.248 442.535 70.84C442.743 70.424 442.847 69.98 442.847 69.508C442.847 68.932 442.691 68.472 442.379 68.128C442.067 67.784 441.667 67.612 441.179 67.612C440.699 67.612 440.275 67.732 439.907 67.972C439.539 68.212 439.255 68.54 439.055 68.956C438.855 69.364 438.755 69.82 438.755 70.324C438.755 70.908 438.911 71.368 439.223 71.704C439.535 72.032 439.931 72.196 440.411 72.196ZM446.348 64.408H447.368L446.912 66.94L446.72 67.78H446.768C446.992 67.452 447.284 67.188 447.644 66.988C448.004 66.788 448.412 66.688 448.868 66.688C449.492 66.688 449.976 66.856 450.32 67.192C450.664 67.52 450.836 67.956 450.836 68.5C450.836 68.756 450.808 69.028 450.752 69.316L450.092 73H449.084L449.732 69.316C449.78 69.1 449.804 68.904 449.804 68.728C449.804 68.392 449.684 68.124 449.444 67.924C449.212 67.716 448.904 67.612 448.52 67.612C448.016 67.612 447.572 67.804 447.188 68.188C446.804 68.572 446.556 69.068 446.444 69.676L445.856 73H444.836L446.348 64.408ZM454.586 73.192C454.034 73.192 453.55 73.068 453.134 72.82C452.718 72.564 452.398 72.224 452.174 71.8C451.958 71.368 451.85 70.896 451.85 70.384C451.85 69.744 451.994 69.14 452.282 68.572C452.57 68.004 452.978 67.548 453.506 67.204C454.034 66.86 454.638 66.688 455.318 66.688C455.846 66.688 456.302 66.804 456.686 67.036C457.07 67.268 457.362 67.584 457.562 67.984C457.762 68.376 457.862 68.804 457.862 69.268C457.862 69.612 457.826 69.9 457.754 70.132H452.906C452.89 70.292 452.882 70.42 452.882 70.516C452.882 70.868 452.962 71.18 453.122 71.452C453.29 71.716 453.506 71.92 453.77 72.064C454.042 72.2 454.33 72.268 454.634 72.268C455.106 72.268 455.506 72.172 455.834 71.98C456.17 71.78 456.45 71.496 456.674 71.128L457.454 71.572C457.15 72.1 456.754 72.504 456.266 72.784C455.778 73.056 455.218 73.192 454.586 73.192ZM456.842 69.292V69.124C456.842 68.86 456.778 68.612 456.65 68.38C456.522 68.148 456.334 67.964 456.086 67.828C455.838 67.684 455.542 67.612 455.198 67.612C454.686 67.612 454.238 67.772 453.854 68.092C453.478 68.404 453.218 68.804 453.074 69.292H456.842ZM460.914 73.192C460.266 73.192 459.73 73.036 459.306 72.724C458.882 72.412 458.602 72.008 458.466 71.512L459.438 71.128C459.518 71.496 459.706 71.784 460.002 71.992C460.298 72.192 460.634 72.292 461.01 72.292C461.402 72.292 461.722 72.2 461.97 72.016C462.226 71.832 462.354 71.6 462.354 71.32C462.354 71.072 462.27 70.868 462.102 70.708C461.934 70.54 461.674 70.412 461.322 70.324L460.71 70.168C460.222 70.04 459.834 69.84 459.546 69.568C459.266 69.296 459.126 68.952 459.126 68.536C459.126 68.192 459.226 67.88 459.426 67.6C459.634 67.312 459.922 67.088 460.29 66.928C460.658 66.768 461.07 66.688 461.526 66.688C462.07 66.688 462.546 66.816 462.954 67.072C463.37 67.328 463.646 67.664 463.782 68.08L462.81 68.452C462.714 68.196 462.546 67.992 462.306 67.84C462.074 67.68 461.794 67.6 461.466 67.6C461.082 67.6 460.77 67.68 460.53 67.84C460.298 68 460.182 68.208 460.182 68.464C460.182 68.64 460.258 68.804 460.41 68.956C460.562 69.108 460.782 69.22 461.07 69.292L461.862 69.496C462.342 69.616 462.718 69.824 462.99 70.12C463.27 70.416 463.41 70.776 463.41 71.2C463.41 71.8 463.186 72.284 462.738 72.652C462.298 73.012 461.69 73.192 460.914 73.192ZM466.637 73.096C466.213 73.096 465.869 72.976 465.605 72.736C465.341 72.488 465.209 72.164 465.209 71.764C465.209 71.58 465.229 71.384 465.269 71.176L465.869 67.804H464.789L464.957 66.88H466.025L466.337 65.152H467.345L467.045 66.88H468.545L468.377 67.804H466.877L466.301 71.056C466.269 71.24 466.253 71.396 466.253 71.524C466.253 71.724 466.313 71.88 466.433 71.992C466.561 72.096 466.729 72.148 466.937 72.148C467.193 72.148 467.437 72.08 467.669 71.944L467.501 72.94C467.245 73.044 466.957 73.096 466.637 73.096ZM468.151 74.092C469.047 73.26 469.731 72.356 470.203 71.38C470.683 70.404 470.923 69.308 470.923 68.092C470.923 66.676 470.551 65.368 469.807 64.168L470.539 63.64C470.939 64.208 471.271 64.888 471.535 65.68C471.807 66.472 471.943 67.336 471.943 68.272C471.943 69.496 471.651 70.672 471.067 71.8C470.483 72.92 469.703 73.864 468.727 74.632L468.151 74.092Z" fill="#4F4F4F"/>
<line x1="255.136" y1="48.9775" x2="255.136" y2="60.7079" stroke="#E9E9E9" stroke-width="1.95506" stroke-linecap="round"/>
</svg>
