<svg width="211" height="192" viewBox="0 0 211 192" fill="none" xmlns="http://www.w3.org/2000/svg">
<path d="M163.476 123.107C163.476 123.107 165.134 127.238 165.465 127.919C165.739 128.482 166.28 128.839 166.793 129.196C166.957 129.31 167.129 129.579 167.275 129.806C167.392 129.988 167.398 130.211 167.323 130.414C166.021 133.966 162.045 135.395 161.952 135.128C161.783 134.647 162.373 133.679 163.207 133.194C164.046 132.707 164.53 131.777 164.567 130.807C164.596 130.035 164.426 129.268 164.073 128.582L162.452 125.505L163.476 123.107Z" fill="#FA968C"/>
<path d="M157.757 128.279L156.765 132.692C156.461 134.041 156.652 135.456 157.301 136.678C157.301 136.678 157.302 136.678 157.302 136.678C157.666 137.361 157.342 138.206 156.613 138.467C154.259 139.307 149.694 140.906 149.491 140.733C148.453 139.853 151.196 138.403 153.223 136.877C154.591 135.849 155.113 131.057 155.235 127.382L157.409 127.93C157.577 127.977 157.709 128.109 157.757 128.279Z" fill="#FA968C"/>
<path d="M153.684 138.132C152.709 138.453 151.641 138.558 150.662 138.678C150.549 138.692 150.442 138.736 150.353 138.805C149.413 139.533 148.94 140.266 149.49 140.732C149.711 140.92 155.074 139.019 157.166 138.268C157.603 138.111 157.795 137.604 157.576 137.193L157.177 136.446C156.083 137.143 154.92 137.726 153.684 138.132Z" fill="#05303D"/>
<path d="M155.905 79.1575C158.498 79.5116 160.707 82.5028 160.251 85.8427C159.989 87.7619 158.205 94.6316 156.242 100.062C155.489 102.146 155.796 104.51 157.208 106.218C157.437 106.496 157.637 106.784 157.796 107.076C158.614 108.584 161.763 117.493 163.613 123.437C163.465 124.216 163.002 125.202 162.419 125.545C159.166 120.498 153.877 111.283 153.006 109.679C152.523 108.788 151.995 107.758 151.609 106.79C149.503 104.001 149.911 88.415 150.333 85.3163C150.789 81.9765 153.312 78.8033 155.905 79.1575Z" fill="#05303D"/>
<path d="M155.199 53.6334C155.199 53.6334 152.953 55.0476 153.226 56.9535C153.226 56.9535 152.026 56.1036 151.755 53.1752C151.567 51.1464 155.199 53.6334 155.199 53.6334Z" fill="#05303D"/>
<path d="M154.515 65.2451C154.485 65.6077 154.451 65.9678 154.398 66.3269C154.303 66.6963 154.223 67.0648 154.082 67.4224C153.788 68.1361 153.376 68.8296 152.837 69.354C151.77 70.4377 150.493 70.9758 149.32 71.2683C148.131 71.5525 146.986 71.5993 145.878 71.5446C144.771 71.4844 143.696 71.3127 142.655 71.0385C141.613 70.7701 140.604 70.3982 139.635 69.9345C138.666 69.4704 137.735 68.9056 136.894 68.1899C136.06 67.4771 135.289 66.607 134.819 65.5287C134.342 64.4594 134.263 63.1858 134.617 62.1183C134.729 61.7809 135.093 61.598 135.43 61.7104C135.727 61.8091 135.905 62.1045 135.865 62.4044L135.864 62.4099C135.642 64.1205 136.78 65.4705 138.248 66.3456C139.736 67.2162 141.497 67.744 143.255 67.9368C144.999 68.1253 146.817 68.0434 148.221 67.5087C148.918 67.2552 149.453 66.8758 149.71 66.5069C149.969 66.1419 150.069 65.8065 150.035 65.2456L150.032 65.1983C149.956 63.9587 150.899 62.8918 152.138 62.8158C153.376 62.7398 154.442 63.6835 154.518 64.923C154.524 65.0271 154.522 65.1435 154.515 65.2451Z" fill="#FAB9AF"/>
<path d="M152.686 75.1196C151.788 72.4096 149.98 66.671 150.134 64.7951C150.233 63.5936 151.236 62.6731 152.442 62.6731H160.258C161.555 62.6731 162.615 63.7016 162.652 64.9979C162.719 67.2634 161.675 72.4204 161.089 75.1191H152.686V75.1196Z" fill="#ED9D9D"/>
<path d="M155.281 128.334C155.159 128.259 155.09 128.119 155.094 127.975C155.26 122.222 155.609 114.888 155.735 113.482C155.75 113.321 155.769 113.163 155.792 113.007C154.561 106.205 154.374 91.5831 154.252 89.0226C154.091 85.6556 156.118 81.8565 158.732 81.7318C161.345 81.6065 164.183 84.314 165.022 87.3993C165.576 89.435 163.434 100.268 161.114 108.12C160.625 109.773 160.548 111.511 160.794 113.217C160.964 114.396 161.015 115.612 160.931 116.541C160.807 117.924 159.258 123.557 157.807 128.379C157.765 128.519 157.654 128.629 157.511 128.66C156.759 128.826 155.976 128.757 155.281 128.334Z" fill="#05303D"/>
<path d="M161.982 78.5551C161.578 77.4191 161.456 76.2033 161.626 75.0091C162.021 72.2365 162.71 67.0138 162.646 64.7966C162.612 63.6113 161.642 62.6731 160.457 62.6731H159.298C158.856 63.6976 157.921 64.4893 156.467 64.4893C155.015 64.4893 154.079 63.6976 153.637 62.6731H152.549C153.732 65.2075 153.306 68.5508 151.272 70.5017C151.65 71.8394 151.968 73.1855 152.206 74.2766C152.528 75.7544 152.386 77.2943 151.804 78.6908C150.805 81.0905 150.013 84.9384 150.249 86.463C158.472 88.7957 164.158 84.6676 164.158 84.6676L161.982 78.5551Z" fill="#ED9D9D"/>
<path d="M155.199 63.212L158.746 62.839L157.623 58.9556L155.33 59.2397L155.199 63.212Z" fill="#FAB9AF"/>
<path d="M155.33 59.24L157.624 58.9558L157.974 60.1683C157.461 60.7479 156.801 61.9993 155.966 61.9993C155.702 61.9993 155.46 61.9243 155.243 61.7867L155.33 59.24Z" fill="#FA968C"/>
<path d="M155.251 61.1172C156.03 61.1172 156.872 60.727 158.032 59.7128C158.698 59.1303 159.192 58.1147 159.192 57.4285V53.6339H153.354C153.354 53.6339 152.916 55.6489 153.341 57.6486C153.66 59.1476 154.639 61.1172 155.251 61.1172Z" fill="#FAB9AF"/>
<path d="M158.202 56.7103C158.202 57.4507 158.557 58.051 158.993 58.051C159.43 58.051 159.912 57.0808 159.912 56.3399C159.912 55.5995 159.43 55.3697 158.993 55.3697C158.556 55.3697 158.202 55.97 158.202 56.7103Z" fill="#FAB9AF"/>
<path d="M159.912 54.0932C159.912 52.9084 158.952 51.9475 157.768 51.948L155.797 51.949C155.234 51.949 154.687 51.8015 154.208 51.5292C153.512 51.1346 152.633 51.2658 152.159 51.91C151.646 52.606 151.425 53.5378 152.725 54.401C153.371 54.8301 154.316 54.3546 154.946 54.5608C154.985 54.5593 155.019 54.5529 155.06 54.5529H156.797C157.401 54.5529 157.862 55.0466 157.88 55.6504C157.89 56.0322 158.203 56.3385 158.588 56.3385H158.665L158.943 55.4467L159.913 56.7548V54.0932H159.912Z" fill="#05303D"/>
<path d="M148.819 80.5269C148.819 80.5269 150.849 80.1954 151.155 80.7814C151.461 81.3679 151.56 81.8177 150.724 82.2957C149.888 82.7742 148.512 83.0317 147.657 83.0208C146.802 83.01 145.376 82.3865 145.268 82.2187C144.872 81.6086 146.42 81.7906 147.173 81.8424C147.927 81.8942 148.783 81.8774 148.705 81.5075C148.627 81.1375 147.177 81.1474 146.948 80.7528C146.719 80.3592 148.819 80.5269 148.819 80.5269Z" fill="#FAB9AF"/>
<path d="M153.789 53.5669C153.984 54.4341 153.696 54.9081 156.535 56.2611C159.375 57.6141 160.274 57.036 161.16 58.4926C161.16 58.4926 160.773 56.0796 159.204 55.2509C157.636 54.4227 154.916 53.8811 154.044 51.9633C154.044 51.9638 153.655 52.9745 153.789 53.5669Z" fill="#05303D"/>
<path d="M162.902 63.8643C163.358 64.469 163.706 64.9968 164.067 65.5808C164.423 66.153 164.764 66.7341 165.079 67.3339C165.699 68.5374 166.255 69.7908 166.689 71.1315C167.106 72.4746 167.419 73.912 167.388 75.4776C167.348 76.2649 167.258 77.0718 166.984 77.8724L166.773 78.4672C166.692 78.6626 166.58 78.8495 166.481 79.0379C166.373 79.2224 166.287 79.4187 166.155 79.5874L165.764 80.0925C165.228 80.75 164.571 81.2645 163.899 81.669C163.223 82.0547 162.525 82.3655 161.833 82.5559L161.314 82.7147C161.141 82.7631 160.969 82.7862 160.797 82.8227C160.454 82.8874 160.111 82.9574 159.77 83.0136L158.754 83.099L158.249 83.1389L157.749 83.1424C155.087 83.1818 152.537 82.7991 150.045 82.2589C149.698 82.1835 149.477 81.8411 149.553 81.4934C149.619 81.1886 149.891 80.9809 150.191 80.9858L150.203 80.9863C152.694 81.0258 155.178 80.9937 157.524 80.6188L157.963 80.5513L158.389 80.4512L159.234 80.2563L160.036 80.0018C160.167 79.9569 160.305 79.9239 160.429 79.8706L160.794 79.7043C161.775 79.2801 162.567 78.6848 162.987 77.9853C163.408 77.2903 163.573 76.4834 163.507 75.5289C163.431 74.5769 163.142 73.5411 162.735 72.5171C162.336 71.4876 161.815 70.4621 161.226 69.4658C160.933 68.9666 160.634 68.4664 160.311 67.982C159.998 67.5075 159.642 66.994 159.347 66.593L159.31 66.5422C158.577 65.5448 158.792 64.142 159.788 63.409C160.777 62.6819 162.164 62.8881 162.902 63.8643Z" fill="#FAB9AF"/>
<path d="M154.334 53.7287C154.334 53.7287 154.227 56.6488 151.677 58.0516C151.677 58.0516 152.801 55.8443 152.724 54.4015C152.648 52.9578 154.503 52.7314 154.334 53.7287Z" fill="#05303D"/>
<path d="M168.262 131.427C168.431 131.233 168.434 130.946 168.269 130.749C168.133 130.588 167.773 130.147 167.502 129.816C167.384 129.672 167.163 129.706 167.083 129.874C166.177 131.771 164.663 133.251 162.689 133.522C162.049 133.955 161.641 134.934 161.774 135.314C161.805 135.404 162.681 135.416 163.602 134.889C167.691 132.547 168.262 131.427 168.262 131.427Z" fill="#05303D"/>
<path d="M147.951 64.0573C147.939 66.5867 146.688 68.3013 144.433 69.3248C142.969 69.9892 142.87 70.4568 144.01 71.6308C145.58 73.2472 147.132 74.8814 148.724 76.4761C149.554 77.3077 149.45 77.9978 148.629 78.7599C146.889 80.3763 145.174 82.0198 143.469 83.6737C142.357 84.753 142.4 84.9464 143.765 85.6641C146.551 87.129 147.637 89.952 146.469 92.696C145.223 95.6235 142.084 97.121 139.203 96.1128C137.665 95.5746 136.546 94.5413 135.915 93.0077C135.367 91.6784 135.085 91.6291 134.044 92.6249C132.268 94.3232 130.471 95.9998 128.719 97.7223C127.894 98.5337 127.275 98.5199 126.477 97.6296C124.921 95.8928 123.234 94.2749 121.651 92.5618C120.365 91.1698 120.526 90.646 122.312 90.0062C124.889 89.0833 126.715 86.14 126.201 83.7389C125.609 80.9766 123.173 78.9301 120.472 79.1555C118.034 79.3592 116.313 80.7142 115.352 82.996C114.646 84.6706 114.242 84.7505 112.966 83.433C111.256 81.6682 109.589 79.8608 107.862 78.1142C107.131 77.3753 107.237 76.8189 107.944 76.1579C109.768 74.4513 111.566 72.716 113.361 70.9787C114.445 69.93 114.413 69.7717 113.09 69.0915C110.502 67.7607 109.339 65.2411 110.079 62.5672C110.791 59.9938 113.325 58.0223 115.928 58.1993C118.231 58.3562 119.917 59.5435 120.829 61.7187C121.313 62.872 121.654 62.9844 122.577 62.1168C124.308 60.489 125.99 58.809 127.707 57.1655C128.879 56.0433 129.174 56.0448 130.311 57.2197C131.878 58.8381 133.407 60.4925 134.974 62.1109C135.961 63.1305 136.4 63.0545 137.034 61.7404C137.848 60.053 139.12 58.9239 140.934 58.4622C144.604 57.5295 147.963 60.2197 147.951 64.0573Z" fill="#FFBE55"/>
<path d="M133.852 63.6712C133.852 63.6712 135.888 63.3787 136.005 62.7276C136.122 62.0765 136.081 61.6178 135.14 61.4121C134.199 61.2064 132.81 61.3731 131.997 61.64C131.184 61.9068 130.011 62.9294 129.958 63.1218C129.763 63.8227 131.185 63.1849 131.888 62.9091C132.592 62.6339 133.413 62.3927 133.45 62.7691C133.487 63.1454 132.1 63.5711 132 64.016C131.899 64.4609 133.852 63.6712 133.852 63.6712Z" fill="#FAB9AF"/>
<path d="M89.9324 108.468C89.9555 106.935 90.0556 105.399 89.9782 103.872C89.9166 102.662 90.4302 102.29 91.5348 102.319C94.3497 102.392 97.1657 102.435 99.9816 102.476C101.795 102.503 102.086 102.088 101.508 100.357C100.444 97.1731 101.396 93.9733 103.945 92.1586C106.409 90.4051 109.846 90.5013 112.235 92.39C114.676 94.3201 115.457 97.6027 114.213 100.703C113.623 102.173 113.949 102.695 115.542 102.731C118.308 102.793 121.075 102.812 123.841 102.874C125.598 102.914 125.919 103.258 125.891 104.979C125.844 107.945 125.776 110.911 125.737 113.877C125.717 115.34 126.002 115.542 127.39 115.012C130.118 113.969 132.692 114.456 134.682 116.406C136.634 118.318 137.108 120.915 136.271 123.568C135.426 126.247 133.547 127.854 130.752 128.331C129.491 128.546 128.306 128.262 127.141 127.792C125.796 127.248 125.473 127.454 125.429 128.922C125.338 131.986 125.232 135.051 125.22 138.115C125.216 139.467 124.692 139.953 123.35 139.9C120.389 139.784 117.423 139.79 114.46 139.715C112.624 139.668 112.261 139.039 113.064 137.404C115.334 132.785 112.794 127.716 107.956 127.215C103.033 126.705 99.3546 131.684 101.117 136.481C101.27 136.896 101.509 137.282 101.651 137.7C101.996 138.713 101.67 139.439 100.557 139.44C97.1982 139.443 93.8386 139.377 90.4805 139.297C89.6514 139.277 89.332 138.787 89.3591 137.908C89.4587 134.696 89.4385 131.48 89.5568 128.27C89.6031 127.013 89.1373 126.672 87.9933 126.947C87.0282 127.18 86.0345 127.155 85.0684 127.028C81.3392 126.538 79.2872 123.778 79.6934 119.876C80.0453 116.494 82.8849 114.184 86.4116 114.41C89.8234 114.629 89.8234 114.629 89.8796 111.136C89.8939 110.246 89.9067 109.356 89.9205 108.466C89.9245 108.468 89.9284 108.468 89.9324 108.468Z" fill="#F6F6F6"/>
<path d="M53.8582 71.8173C53.8798 70.3839 53.8956 68.9505 53.9252 67.5176C53.9622 65.7103 54.2816 65.3951 56.1354 65.4301C58.7522 65.4794 61.3685 65.5658 63.9853 65.6235C65.9771 65.6669 66.2876 65.2382 65.668 63.3905C64.7118 60.5399 65.2688 57.9794 67.4065 55.9028C69.4308 53.9362 71.9224 53.5046 74.5491 54.4758C77.265 55.4801 78.6663 57.5774 78.9896 60.423C79.1212 61.5817 78.8487 62.6802 78.4474 63.753C77.8318 65.399 78.1552 65.8745 79.9528 65.9061C82.6691 65.9535 85.386 65.9732 88.1018 66.0348C89.8438 66.0743 90.0695 66.3234 90.0429 68.0449C89.997 71.0104 89.9295 73.9754 89.8861 76.9413C89.8644 78.4206 90.1646 78.6672 91.5231 78.1454C92.8652 77.6294 94.2261 77.5253 95.5979 77.8213C99.4449 78.6524 101.657 82.601 100.512 86.515C99.3587 90.4596 95.3997 92.4721 91.6216 91.0342C89.8147 90.3461 89.6377 90.4714 89.6022 92.4647C89.5549 95.1332 89.4622 97.8027 89.4829 100.471C89.4918 101.624 89.3794 101.988 87.9732 101.845C85.1331 101.555 82.2516 101.638 79.3874 101.648C78.1783 101.652 77.7751 101.45 78.3158 100.137C79.625 96.9593 78.6091 93.3965 75.9677 91.3524C73.3932 89.3606 69.7734 89.3123 67.1334 91.235C64.4501 93.1893 63.3608 96.6969 64.5634 99.9558C65.0026 101.146 64.7389 101.417 63.5451 101.415C60.3886 101.408 57.2291 101.067 54.0765 101.416C53.1839 101.515 53.3894 100.921 53.3948 100.482C53.4279 97.6153 53.486 94.749 53.5309 91.8822C53.5644 89.7597 53.4678 89.7049 51.5149 90.3427C49.1194 91.1245 46.9068 90.7343 45.0126 89.0602C42.9976 87.2795 42.2548 84.981 42.7669 82.3627C43.6142 78.0329 47.6905 75.7693 51.7362 77.3043C53.6216 78.0196 53.7379 77.9466 53.7773 75.9701C53.8049 74.5865 53.8207 73.2024 53.8419 71.8183C53.8478 71.8173 53.8532 71.8173 53.8582 71.8173Z" fill="#F6F6F6"/>
<path d="M53.8726 108.384C53.8953 106.901 53.9963 105.413 53.9175 103.935C53.845 102.587 54.3956 102.243 55.6589 102.299C58.3728 102.42 61.0926 102.422 63.8105 102.45C65.7338 102.471 66.4283 101.496 65.7481 99.7113C64.748 97.0857 65.2187 94.7166 67.1149 92.7179C68.9149 90.8198 71.2049 90.3418 73.6542 91.1813C76.1931 92.0515 77.4781 94.0082 77.8689 96.6131C78.0291 97.6796 77.7807 98.675 77.4155 99.6546C76.5982 101.847 77.1616 102.659 79.5379 102.693C82.206 102.731 84.8745 102.805 87.5426 102.785C88.6432 102.777 89.0035 103.165 88.9577 104.267C88.8488 106.884 88.8078 109.507 88.8295 112.128C88.8374 113.077 88.4875 113.316 87.619 113.273C86.539 113.22 85.4522 113.052 84.3708 113.304C80.8554 114.119 78.2426 117.658 78.6255 121.093C79.1268 125.587 81.7067 128.041 85.951 128.061C88.5437 128.074 88.5442 128.074 88.5037 130.642C88.4678 132.916 88.4012 135.191 88.4096 137.465C88.413 138.366 88.0685 138.701 87.1852 138.679C84.1716 138.603 81.1576 138.551 78.1435 138.517C76.8772 138.503 76.7806 138.054 77.2972 136.967C79.3605 132.624 77.5959 127.836 73.4264 126.432C70.5474 125.463 67.8399 125.993 65.8111 128.234C63.7415 130.52 63.3003 133.331 64.4079 136.268C65.1802 138.315 65.2167 138.31 63.0923 138.286C60.4735 138.256 57.8533 138.155 55.2365 138.21C53.8983 138.237 53.4054 137.839 53.4685 136.442C53.6025 133.48 53.5863 130.51 53.6158 127.543C53.6321 125.918 52.8967 125.337 51.4022 125.906C48.6489 126.955 46.2416 126.507 44.2616 124.32C42.4127 122.278 42.189 119.362 43.5513 116.694C44.789 114.27 48.049 113.085 50.8374 114.051C51.2095 114.181 51.5599 114.382 51.938 114.484C53.0835 114.792 53.7602 114.312 53.8007 113.131C53.8544 111.55 53.8564 109.967 53.8805 108.385C53.8776 108.384 53.8751 108.384 53.8726 108.384Z" fill="#FFBE55"/>
</svg>
