<svg width="211" height="211" viewBox="0 0 211 211" fill="none" xmlns="http://www.w3.org/2000/svg">
<path d="M193.222 158.133C193.222 161.231 191.382 163.747 189.11 163.747H21.8903C19.6209 163.747 17.7783 161.236 17.7783 158.133C17.7783 155.035 19.6179 152.519 21.8903 152.519H189.113C191.382 152.523 193.222 155.035 193.222 158.133Z" fill="#F7F7F7"/>
<path d="M49.5497 122.78L42.5742 97.3126H61.178V120.046H74.2843V123.835H73.6509L74.388 152.987H72.91V123.517H52.4059L49.8683 152.987H48.6014L49.5497 122.78Z" fill="#B4E6FC"/>
<path d="M88.2773 114.597C87.7339 114.21 87.2327 113.763 87.0031 113.633C86.9074 113.579 86.6051 113.51 86.5209 113.483C86.2684 113.407 85.8666 113.33 85.6906 113.131L84.9444 112.313C84.5885 111.911 84.1255 111.777 83.7237 112.133C83.2875 112.515 83.4176 113.063 83.85 113.449L84.3627 114.031C84.7071 114.341 84.8793 114.777 85.0706 115.202C85.461 116.063 86.3372 116.709 87.0911 117.165C87.5656 117.448 88.2811 117.249 89.2187 116.927C89.6778 116.77 90.3475 116.388 89.7735 116.174C89.2914 115.994 87.8411 116.384 87.1982 115.049C87.1676 114.983 87.0987 114.807 87.1638 114.746C87.3589 114.563 87.7875 114.976 88.0745 115.106C88.4763 115.29 88.7977 115.228 88.9011 115.079C89.0044 114.926 88.6638 114.872 88.2773 114.597Z" fill="#FAB9AF"/>
<path d="M67.8545 85.2622C67.8545 85.2622 69.0522 99.6502 73.3533 104.506C75.9477 107.433 82.2845 112.45 83.7539 113.602C83.9414 113.747 84.2016 113.755 84.3968 113.617C84.5192 113.529 84.6608 113.422 84.7833 113.315C84.9057 113.208 85.0511 113.047 85.1774 112.898C85.3917 112.649 85.3802 112.278 85.1583 112.037C83.5129 110.246 77.0574 103.159 76.273 101.296C75.3737 99.1565 73.824 86.5403 72.4005 84.7112C70.977 82.8821 68.2448 82.4841 67.8545 85.2622Z" fill="#FFBE55"/>
<path d="M73.2843 109.033L69.6185 83.2611L59.7229 81.9065L54.5762 108.846L73.2843 109.033Z" fill="#FAB9AF"/>
<path d="M73.663 108.375L69.6183 83.2615L59.7228 81.9031L54.4038 108.421C54.3043 108.919 54.6257 109.405 55.127 109.497C56.9676 109.845 61.4141 110.576 66.3848 110.576C70.0966 110.576 72.1821 109.852 73.1311 109.397C73.5214 109.213 73.7319 108.796 73.663 108.375Z" fill="#F6F6F6"/>
<path d="M62.815 83.4679C62.815 85.2779 62.4859 87.0687 61.8698 88.7677C60.6606 92.093 58.8468 98.3839 59.9259 103.925C61.4757 111.903 63.4732 115.129 60.8864 116.989C58.2996 118.848 53.3404 115.745 53.1988 114.712C53.0572 113.679 54.1631 100.971 55.4182 95.4643C56.6733 89.9578 60.1938 82.0444 60.1938 82.0444L61.6861 82.2052C62.3252 82.2779 62.815 82.8212 62.815 83.4679Z" fill="#FFBE55"/>
<path d="M66.9365 82.8937C66.9365 82.8937 68.6508 86.6016 68.0539 91.9321C67.4569 97.2587 66.0679 113.487 70.9162 115.936C72.4506 116.713 75.9596 113.277 75.9596 112.002C75.9596 110.728 74.7887 106.462 73.679 102.581C72.5693 98.7013 69.8983 83.3031 69.8983 83.3031L66.9365 82.8937Z" fill="#FFBE55"/>
<path d="M65.5555 71.3987C63.3476 71.3987 62.5249 72.9714 62.4828 75.8796C62.4675 76.9702 62.9573 78.0493 63.3514 78.7381C63.646 79.2508 63.7264 79.8554 63.558 80.4218L63.0721 82.0634C62.743 83.5863 63.4662 84.4205 64.5338 84.7228C65.0619 84.8721 65.6971 84.7573 66.1563 84.4588C66.7035 84.1029 66.7494 83.3414 66.6499 82.6947L66.5236 82.2279C66.3553 81.5965 66.7188 80.9192 67.3578 80.7776C69.0568 80.4064 69.3017 78.6347 69.7571 75.8796C70.2278 73.0097 67.7635 71.3987 65.5555 71.3987Z" fill="#FAB9AF"/>
<path d="M70.6941 70.1241L69.4275 70.5106C68.9607 70.6522 68.4671 70.656 68.0002 70.5183L65.4708 69.7836C63.9402 69.7836 61.4108 70.6484 61.7285 72.8601L62.0116 74.4214C62.1226 75.0451 62.6468 75.512 63.2782 75.5655C63.3356 75.7798 63.5346 75.9329 63.7565 75.9329C64.0321 75.9329 64.254 75.7109 64.254 75.4393C64.254 74.7352 64.7476 74.1344 65.4364 73.9775C66.2783 73.79 67.1813 73.7441 68.1227 73.9966C69.8791 74.4673 71.7311 73.3806 71.9072 71.5668C71.9186 71.452 71.9225 71.3372 71.9225 71.2185C71.9263 70.4877 71.3217 69.9519 70.6941 70.1241Z" fill="#0B4870"/>
<path d="M63.6954 75.9328C63.6954 76.6063 63.4428 77.1535 62.7961 77.1535C62.1456 77.1535 61.7285 76.2275 61.7285 75.554C61.7285 74.8805 62.1456 74.7122 62.7961 74.7122C63.4467 74.7122 63.6954 75.2594 63.6954 75.9328Z" fill="#FAB9AF"/>
<path d="M63.4277 78.8954C63.4277 78.8954 65.077 81.1645 67.128 80.8546C67.128 80.8546 66.7033 81.0574 66.6 81.3903C66.6 81.3903 64.6522 81.2449 63.4277 78.8954Z" fill="#E8948B"/>
<path d="M43.7352 131.017L41.2709 134.185C40.7701 134.831 40.368 135.535 40.0801 136.283L39.6267 137.459C39.2522 138.424 37.9826 138.79 37.0757 138.195C34.7297 136.653 30.708 134.033 29.6711 133.358C29.5015 133.249 29.4148 133.035 29.5212 132.868C30.1481 131.884 32.7386 134.04 35.5341 134.693C37.6632 135.19 40.506 131.489 41.5429 129.743C41.9372 129.083 42.8874 128.923 43.5144 129.409C44.0348 129.808 44.1294 130.509 43.7352 131.017Z" fill="#FAB9AF"/>
<path d="M75.6897 113.455C75.2115 113.222 68.0347 105.126 63.486 104.435C58.9412 103.739 58.463 106.517 52.7208 112.992C46.9786 119.468 38.3633 132.424 38.3633 132.424L40.9953 134.273C40.9953 134.273 53.199 119.931 57.0245 116.461C60.854 112.992 62.4091 112.181 63.6026 115.42C64.8001 118.66 67.6692 124.211 73.4114 120.972C79.1575 117.736 75.6897 113.455 75.6897 113.455Z" fill="#05303D"/>
<path d="M64.9451 142.807L66.318 147.728C66.3774 147.944 66.4702 148.153 66.5852 148.341L67.5574 149.9C68.1733 150.889 67.7318 152.244 66.6743 152.592C66.6743 152.592 64.7113 153.338 62.6891 154.055C60.6185 154.788 58.0137 154.175 58.0137 153.586C58.0137 152.276 59.1454 153.318 61.0415 151.947C61.6761 151.49 62.3328 151.01 62.9154 150.513C64.5481 149.13 63.1232 145.628 62.125 143.657C61.7651 142.948 62.1473 142.066 62.8783 141.898L63.3495 141.79C64.0508 141.633 64.741 142.074 64.9451 142.807Z" fill="#FAB9AF"/>
<path d="M61.2941 111.354C61.2941 111.354 54.285 110.886 55.9215 118.605C57.558 126.324 62.4636 145.969 62.4636 145.969H66.9022L65.7327 118.369C65.7327 118.373 62.2282 111.354 61.2941 111.354Z" fill="#05303D"/>
<path d="M66.2692 147.84C66.2692 147.84 64.5912 148.736 63.6033 148.751C63.6033 148.751 63.9084 150.303 61.5621 151.309C59.2159 152.319 58.0137 151.689 58.0137 153.154C58.0137 154.615 61.0137 155.245 63.0149 154.615C65.0162 153.988 67.613 152.106 68.2159 151.689C68.8116 151.271 66.2692 147.84 66.2692 147.84Z" fill="#0B4870"/>
<path d="M40.2351 135.481C40.2351 135.481 38.304 134.612 37.6197 133.791C37.6197 133.791 36.4678 134.973 33.9854 133.61C31.5029 132.247 31.233 130.866 29.9519 131.739C28.6708 132.612 30.1686 135.499 32.0808 136.799C33.993 138.1 37.4144 139.154 38.1899 139.408C38.9654 139.662 40.2351 135.481 40.2351 135.481Z" fill="#0B4870"/>
<path d="M60.3529 81.8792C60.3529 81.8792 56.794 91.4502 57.1894 97.5756C57.5849 103.701 57.5809 108.697 54.022 104.857C50.4632 101.017 52.8397 81.4964 60.3529 81.8792Z" fill="#FFBE55"/>
<path d="M73.839 92.3201C73.3105 92.9725 72.7118 93.5692 72.5307 93.8509C72.4531 93.9695 72.346 94.3438 72.309 94.4476C72.1944 94.7589 72.0688 95.263 71.8064 95.4668L70.7199 96.3452C70.1877 96.7604 69.9844 97.3311 70.3983 97.8648C70.8455 98.443 71.5403 98.3207 72.0614 97.8092L72.8301 97.2088C73.2477 96.7974 73.8095 96.6158 74.3527 96.4082C75.4651 95.9857 76.3447 94.9294 76.9767 94.0139C77.3721 93.4395 77.1726 92.524 76.8436 91.3157C76.681 90.7227 76.2523 89.8517 75.9382 90.5596C75.6758 91.1526 76.0564 93.0095 74.3232 93.7137C74.2382 93.7471 74.0127 93.8212 73.9425 93.736C73.7282 93.4765 74.2788 92.9688 74.4673 92.6167C74.7297 92.1237 74.6743 91.7123 74.4969 91.5752C74.3121 91.4269 74.216 91.8568 73.839 92.3201Z" fill="#FAB9AF"/>
<path d="M52.3994 102.038C52.3994 102.038 53.2537 109.198 57.278 106.55C61.3062 103.901 68.6512 100.486 70.584 98.9688C72.5169 97.4511 72.5169 97.4511 72.5169 97.4511L71.3224 94.9734L52.3994 102.038Z" fill="#FFBE55"/>
<path d="M170.411 122.563L177.364 97.0703H158.824V119.827H145.76V123.619H146.392L145.653 152.801H147.13V123.302H167.568L170.098 152.801H171.36L170.411 122.563Z" fill="#B4E6FC"/>
<path d="M152.848 92.4102C155.335 92.4102 157.352 89.8096 157.352 86.6015C157.352 83.3934 155.335 80.7927 152.848 80.7927C150.36 80.7927 148.344 83.3934 148.344 86.6015C148.344 89.8096 150.36 92.4102 152.848 92.4102Z" fill="#0B4870"/>
<path d="M153.926 87.2021C153.999 83.9878 156.601 81.2824 159.812 81.0987C162.659 80.9342 165.119 82.6829 166.041 85.174C166.363 86.0465 167.22 86.6167 168.15 86.6013C168.536 86.5937 168.934 86.632 169.34 86.7123C171.693 87.1945 173.522 89.1843 173.767 91.5721C173.989 93.7264 172.983 95.6627 171.36 96.7647C170.668 97.2354 170.277 98.016 170.163 98.8426C169.631 102.677 166.133 105.489 162.138 105.053C158.725 104.678 155.993 101.869 155.702 98.4484C155.522 96.3476 156.245 94.4229 157.512 92.9917C155.358 91.9738 153.869 89.7621 153.926 87.2021Z" fill="#0B4870"/>
<path d="M152.848 78.8873C152.848 78.8873 150.315 80.483 150.621 82.6297C150.621 82.6297 149.266 81.6731 148.96 78.3707C148.75 76.0824 152.848 78.8873 152.848 78.8873Z" fill="#0B4870"/>
<path d="M151.286 91.9776C151.225 93.8411 151.103 95.7161 150.839 97.6026C150.563 99.4815 150.177 101.383 149.461 103.224C149.105 104.142 148.665 105.042 148.114 105.887C147.567 106.733 146.89 107.513 146.094 108.149C145.302 108.788 144.41 109.289 143.476 109.618C142.539 109.947 141.575 110.112 140.622 110.177C140.346 110.196 140.109 109.985 140.09 109.714C140.075 109.461 140.247 109.243 140.484 109.193H140.488C142.214 108.83 143.782 108.038 144.896 106.844C146.021 105.658 146.71 104.108 147.131 102.47C147.552 100.825 147.739 99.0873 147.812 97.3271C147.854 96.447 147.865 95.5592 147.858 94.6676C147.854 93.7761 147.839 92.8807 147.808 91.9852C147.774 91.0248 148.524 90.2173 149.484 90.1829C150.445 90.1485 151.252 90.8985 151.286 91.8589C151.286 91.8972 151.286 91.9355 151.286 91.9737V91.9776Z" fill="#FAB9AF"/>
<path d="M150.012 103.109C148.998 100.056 146.959 93.5851 147.135 91.469C147.246 90.1144 148.378 89.0774 149.737 89.0774H158.557C160.019 89.0774 161.217 90.2369 161.259 91.6986C161.331 94.2548 160.157 100.067 159.495 103.109H150.012Z" fill="#ED9D9D"/>
<path d="M160.501 106.982C160.045 105.7 159.907 104.33 160.099 102.983C160.543 99.8567 161.323 93.9676 161.251 91.4688C161.212 90.1333 160.118 89.0734 158.782 89.0734H157.474C156.976 90.229 155.92 91.1206 154.279 91.1206C152.641 91.1206 151.585 90.229 151.087 89.0734H149.859C151.194 91.9318 150.712 95.701 148.416 97.9013C148.845 99.409 149.201 100.928 149.469 102.156C149.832 103.821 149.671 105.558 149.017 107.135C147.888 109.84 146.997 114.18 147.261 115.898C156.54 118.527 162.953 113.873 162.953 113.873L160.501 106.982Z" fill="#ED9D9D"/>
<path d="M152.848 89.685L156.85 89.2641L155.584 84.8865L152.997 85.2041L152.848 89.685Z" fill="#FAB9AF"/>
<path d="M152.997 85.2045L155.584 84.8831L155.978 86.2491C155.4 86.9035 154.654 88.3117 153.713 88.3117C153.414 88.3117 153.142 88.2275 152.897 88.0706L152.997 85.2045Z" fill="#FA968C"/>
<path d="M152.905 87.3244C153.785 87.3244 154.734 86.8844 156.043 85.7403C156.793 85.0821 157.352 83.9379 157.352 83.165V78.8868H150.766C150.766 78.8868 150.272 81.1598 150.751 83.4137C151.11 85.1012 152.216 87.3244 152.905 87.3244Z" fill="#FAB9AF"/>
<path d="M156.233 82.3537C156.233 83.1879 156.631 83.8652 157.125 83.8652C157.619 83.8652 158.162 82.7708 158.162 81.9366C158.162 81.1024 157.619 80.8422 157.125 80.8422C156.635 80.8422 156.233 81.5195 156.233 82.3537Z" fill="#FAB9AF"/>
<path d="M158.163 79.4035C158.163 78.068 157.08 76.9851 155.744 76.9851H153.521C152.886 76.9851 152.27 76.8205 151.726 76.5106C150.942 76.0667 149.951 76.2121 149.415 76.9392C148.837 77.7236 148.585 78.7759 150.054 79.7479C150.785 80.23 151.849 79.6943 152.561 79.9277C152.603 79.9277 152.645 79.9201 152.691 79.9201H154.65C155.331 79.9201 155.851 80.4749 155.871 81.1561C155.882 81.5885 156.234 81.9328 156.67 81.9328H156.758L157.072 80.9265L158.167 82.3997V79.4035H158.163Z" fill="#0B4870"/>
<path d="M138.792 108.187C138.792 108.187 141.096 108.455 141.249 109.185C141.398 109.916 141.368 110.433 140.312 110.693C139.255 110.953 137.687 110.804 136.76 110.529C135.834 110.253 134.484 109.136 134.415 108.918C134.174 108.133 135.796 108.81 136.6 109.101C137.4 109.392 138.337 109.637 138.364 109.212C138.394 108.787 136.818 108.347 136.692 107.85C136.565 107.352 138.792 108.187 138.792 108.187Z" fill="#FAB9AF"/>
<path d="M145.65 109.205C145.65 109.205 147.938 108.83 148.286 109.492C148.631 110.154 148.742 110.659 147.8 111.199C146.855 111.738 145.305 112.029 144.341 112.018C143.377 112.006 141.766 111.302 141.643 111.115C141.196 110.426 142.944 110.632 143.794 110.69C144.643 110.747 145.612 110.728 145.524 110.311C145.436 109.894 143.798 109.905 143.541 109.462C143.281 109.018 145.65 109.205 145.65 109.205Z" fill="#FAB9AF"/>
<path d="M151.256 78.8102C151.478 79.786 151.152 80.3217 154.355 81.8485C157.558 83.3753 158.572 82.7209 159.575 84.3664C159.575 84.3664 159.138 81.6457 157.367 80.712C155.599 79.7783 152.53 79.166 151.543 77.004C151.543 77.004 151.106 78.1405 151.256 78.8102Z" fill="#0B4870"/>
<path d="M160.914 90.899C161.404 91.5457 161.794 92.1388 162.196 92.7778C162.59 93.4092 162.969 94.0483 163.321 94.7065C164.017 96.0266 164.641 97.4004 165.123 98.8583C165.594 100.316 165.927 101.87 165.915 103.527C165.904 104.353 165.793 105.207 165.533 106.041C165.284 106.875 164.851 107.679 164.293 108.356C163.738 109.037 163.064 109.596 162.356 110.024C161.645 110.457 160.902 110.77 160.156 111.012C159.41 111.253 158.66 111.402 157.914 111.528C157.168 111.628 156.425 111.704 155.687 111.723C152.736 111.834 149.87 111.467 147.062 110.939C146.79 110.889 146.614 110.629 146.664 110.357C146.71 110.108 146.932 109.94 147.176 109.952H147.184C148.592 110.02 149.993 110.074 151.389 110.047C152.782 110.028 154.168 109.955 155.515 109.764C156.862 109.573 158.174 109.274 159.353 108.796C160.524 108.31 161.534 107.614 162.131 106.718C162.739 105.834 162.965 104.744 162.911 103.565C162.85 102.383 162.51 101.143 162.05 99.9336C161.595 98.7167 160.998 97.519 160.328 96.3595C159.995 95.7779 159.647 95.2001 159.28 94.6376C159.096 94.3544 158.909 94.0789 158.717 93.8034C158.534 93.5355 158.327 93.2409 158.155 93.0151L158.14 92.9921C157.562 92.2268 157.715 91.1362 158.48 90.5584C159.245 89.9806 160.336 90.1337 160.914 90.899Z" fill="#FAB9AF"/>
<path d="M151.871 78.994C151.871 78.994 151.749 82.2848 148.871 83.869C148.871 83.869 150.138 81.3818 150.054 79.7516C149.969 78.1253 152.062 77.869 151.871 78.994Z" fill="#0B4870"/>
<path d="M140.121 142.622L139.087 147.207C138.774 148.607 138.969 150.08 139.646 151.347C140.025 152.055 139.688 152.935 138.931 153.203C136.482 154.075 131.737 155.736 131.526 155.556C130.447 154.642 133.298 153.134 135.406 151.55C136.826 150.482 137.369 145.504 137.496 141.685L139.757 142.255C139.933 142.309 140.071 142.446 140.121 142.622Z" fill="#FA968C"/>
<path d="M153.693 113.453L163.118 113.87C163.118 113.87 165.632 121.619 161.024 122.246C156.417 122.874 143.013 121.408 142.592 123.501C142.175 125.595 140.078 144.027 140.078 144.027H136.936C136.936 144.027 137.147 132.299 136.936 126.222C136.726 120.146 135.888 117.635 138.402 116.587C140.916 115.55 153.693 113.453 153.693 113.453Z" fill="#05303D"/>
<path d="M142.815 131.682C142.815 131.682 143.354 136.274 143.503 137.047C143.626 137.686 144.07 138.191 144.487 138.689C144.621 138.85 144.72 139.163 144.804 139.431C144.873 139.645 144.816 139.871 144.69 140.055C142.417 143.262 138.039 143.614 138.02 143.319C137.982 142.791 138.835 141.98 139.803 141.723C140.779 141.463 141.517 140.663 141.816 139.699C142.053 138.934 142.091 138.119 141.927 137.334L141.138 133.81L142.815 131.682Z" fill="#FA968C"/>
<path d="M145.355 141.325C145.577 141.176 145.658 140.889 145.547 140.648C145.455 140.449 145.214 139.909 145.03 139.504C144.95 139.328 144.72 139.301 144.594 139.446C143.17 141.103 141.249 142.175 139.194 141.911C138.433 142.171 137.759 143.039 137.79 143.456C137.798 143.556 138.674 143.805 139.742 143.525C144.479 142.289 145.355 141.325 145.355 141.325Z" fill="#0B4870"/>
<path d="M148.236 114.6L141.953 116.066L143.419 135.547L141.115 135.964C141.115 135.964 135.459 122.349 135.67 116.066C135.88 109.783 140.905 111.669 143.84 112.503C146.771 113.345 148.236 114.6 148.236 114.6Z" fill="#05303D"/>
<path d="M135.888 152.859C134.874 153.192 133.764 153.299 132.746 153.425C132.632 153.441 132.517 153.486 132.425 153.555C131.449 154.313 130.955 155.075 131.529 155.557C131.759 155.752 137.334 153.777 139.508 152.997C139.963 152.832 140.162 152.308 139.933 151.879L139.519 151.103C138.383 151.83 137.17 152.434 135.888 152.859Z" fill="#0B4870"/>
<path d="M133.19 107.265H81.5693V109.163H133.19V107.265Z" fill="#0B4870"/>
<path d="M85.1509 109.163H84.0986V153.199H85.1509V109.163Z" fill="#76838B"/>
<path d="M130.45 109.163H129.397V153.199H130.45V109.163Z" fill="#76838B"/>
<path d="M98.0819 47.2528H65.1983C64.3318 47.2528 63.6279 47.9674 63.6279 48.8473V60.5697C63.6279 61.4496 64.3318 62.1642 65.1983 62.1642H67.4612V67.3703L73.7428 62.1642H98.0819C98.9485 62.1642 99.6523 61.4496 99.6523 60.5697V48.8473C99.6485 47.9636 98.9485 47.2528 98.0819 47.2528ZM66.0043 54.2378H85.5869V54.9102H66.0043V54.2378ZM95.8039 57.3116H66.0043V56.6392H95.8039V57.3116ZM95.8039 52.6049H66.0043V51.9325H95.8039V52.6049Z" fill="#FFBE55"/>
<path d="M119.77 53.5258V65.2482C119.77 66.128 120.473 66.8427 121.34 66.8427H145.679L151.961 72.0488V66.8427H154.224C155.09 66.8427 155.794 66.128 155.794 65.2482V53.5258C155.794 52.6459 155.09 51.9313 154.224 51.9313H121.34C120.473 51.9313 119.77 52.6421 119.77 53.5258ZM153.418 59.5887H133.835V58.9163H153.418V59.5887ZM123.618 61.3177H153.418V61.99H123.618V61.3177ZM123.618 56.611H153.418V57.2834H123.618V56.611Z" fill="#ED9D9D"/>
</svg>
