<svg width="320" height="211" viewBox="0 0 320 211" fill="none" xmlns="http://www.w3.org/2000/svg">
<path d="M249.143 130.528H74.8715C72.2835 130.528 70.1875 128.422 70.1875 125.823V41.3697C70.1875 38.7699 72.2835 36.6643 74.8715 36.6643H249.143C251.731 36.6643 253.828 38.7699 253.828 41.3697V125.827C253.828 128.422 251.727 130.528 249.143 130.528Z" fill="#F6F6F6"/>
<path d="M73.6758 55.7876H250.336" stroke="#D3D3D3" stroke-width="2" stroke-miterlimit="10"/>
<path d="M114.3 39.7183V127.474" stroke="#D3D3D3" stroke-width="2" stroke-miterlimit="10"/>
<path d="M162.008 39.7183V127.474" stroke="#D3D3D3" stroke-width="2" stroke-miterlimit="10"/>
<path d="M208.316 39.7183V127.474" stroke="#D3D3D3" stroke-width="2" stroke-miterlimit="10"/>
<path d="M86.3036 62.5552L76.2598 61.8594L75.5671 71.9492L85.6109 72.645L86.3036 62.5552Z" fill="#FDBD56"/>
<path d="M104.936 64.5733L94.8975 65.343L95.6636 75.4278L105.702 74.6581L104.936 64.5733Z" fill="#084970"/>
<path d="M89.0994 78.171L79.0605 78.9407L79.8267 89.0254L89.8655 88.2558L89.0994 78.171Z" fill="#ED9D9D"/>
<path d="M106.66 82.3164H96.5918V92.4305H106.66V82.3164Z" fill="#4C8DCB"/>
<path d="M133.421 67.2515H123.353V77.3656H133.421V67.2515Z" fill="#FDBD56"/>
<path d="M153.072 77.6216L143.028 76.9258L142.336 87.0156L152.379 87.7114L153.072 77.6216Z" fill="#FDBD56"/>
<path d="M152.347 61.8297L142.309 62.5994L143.075 72.6841L153.114 71.9144L152.347 61.8297Z" fill="#4C8DCB"/>
<path d="M180.384 64.575L170.345 65.3447L171.111 75.4295L181.15 74.6598L180.384 64.575Z" fill="#084970"/>
<path d="M200.092 65.3038L190.048 64.6079L189.355 74.6977L199.399 75.3936L200.092 65.3038Z" fill="#CDE8F9"/>
<path d="M181.107 82.6778L171.063 81.9819L170.371 92.0717L180.415 92.7676L181.107 82.6778Z" fill="#FDBD56"/>
<path d="M245.974 65.305L235.931 64.6091L235.238 74.6989L245.282 75.3948L245.974 65.305Z" fill="#FDBD56"/>
<path d="M241.54 81.9515L231.501 82.7212L232.267 92.8059L242.306 92.0363L241.54 81.9515Z" fill="#ED9D9D"/>
<path d="M224.944 71.8203H214.876V81.9344H224.944V71.8203Z" fill="#084970"/>
<path d="M136.309 86.6661L126.266 85.9702L125.573 96.06L135.617 96.7559L136.309 86.6661Z" fill="#CDE8F9"/>
<path d="M150.955 97.1427L140.916 97.9124L141.682 107.997L151.721 107.227L150.955 97.1427Z" fill="#FDBD56"/>
<path d="M294.7 155.827H25.5241C24.8881 155.827 24.3721 155.309 24.3721 154.67C24.3721 154.031 24.8881 153.512 25.5241 153.512H294.7C295.336 153.512 295.852 154.031 295.852 154.67C295.852 155.309 295.336 155.827 294.7 155.827Z" fill="#F6F6F6"/>
<path d="M183.317 87.3713C183.217 88.2633 183.117 89.1554 183.017 90.0475C182.745 92.4745 182.473 94.9056 182.201 97.3327C181.801 100.925 181.397 104.517 180.997 108.11C180.509 112.494 180.017 116.878 179.529 121.262C178.993 126.064 178.457 130.865 177.921 135.667C177.381 140.513 176.837 145.364 176.297 150.21C175.793 154.73 175.285 159.251 174.781 163.771C174.353 167.593 173.929 171.414 173.501 175.236C173.193 177.984 172.885 180.733 172.581 183.481C172.437 184.783 172.249 186.085 172.145 187.391C172.141 187.447 172.133 187.504 172.125 187.56C172.065 188.098 172.629 188.564 173.125 188.564C173.717 188.564 174.065 188.102 174.125 187.56C174.225 186.668 174.325 185.776 174.425 184.884C174.697 182.457 174.969 180.025 175.241 177.598C175.641 174.006 176.045 170.414 176.445 166.821C176.933 162.437 177.425 158.053 177.913 153.669C178.449 148.867 178.985 144.066 179.521 139.264C180.061 134.418 180.605 129.568 181.145 124.721C181.649 120.201 182.157 115.68 182.661 111.16C183.089 107.338 183.513 103.517 183.941 99.6954C184.249 96.9469 184.557 94.1984 184.861 91.4499C185.005 90.1479 185.193 88.846 185.297 87.5401C185.301 87.4838 185.309 87.4275 185.317 87.3713C185.377 86.8328 184.813 86.3667 184.317 86.3667C183.725 86.3667 183.377 86.8328 183.317 87.3713Z" fill="#084970"/>
<path d="M203.176 87.3713C203.076 88.2633 202.976 89.1554 202.876 90.0475C202.604 92.4745 202.332 94.9056 202.06 97.3327C201.66 100.925 201.256 104.517 200.856 108.11C200.368 112.494 199.876 116.878 199.388 121.262C198.852 126.064 198.316 130.865 197.78 135.667C197.24 140.513 196.696 145.364 196.156 150.21C195.652 154.73 195.144 159.251 194.64 163.771C194.212 167.593 193.788 171.414 193.36 175.236C193.052 177.984 192.744 180.733 192.44 183.481C192.296 184.783 192.108 186.085 192.004 187.391C192 187.447 191.992 187.504 191.984 187.56C191.924 188.098 192.488 188.564 192.984 188.564C193.576 188.564 193.924 188.102 193.984 187.56C194.084 186.668 194.184 185.776 194.284 184.884C194.556 182.457 194.828 180.025 195.1 177.598C195.5 174.006 195.904 170.414 196.304 166.821C196.792 162.437 197.284 158.053 197.772 153.669C198.308 148.867 198.844 144.066 199.38 139.264C199.92 134.418 200.464 129.568 201.004 124.721C201.508 120.201 202.016 115.68 202.52 111.16C202.948 107.338 203.372 103.517 203.8 99.6954C204.108 96.9469 204.416 94.1984 204.72 91.4499C204.864 90.1479 205.052 88.846 205.156 87.5401C205.16 87.4838 205.168 87.4275 205.176 87.3713C205.236 86.8328 204.672 86.3667 204.176 86.3667C203.584 86.3667 203.236 86.8328 203.176 87.3713Z" fill="#084970"/>
<path d="M183.228 100.238C185.356 100.238 187.484 100.238 189.612 100.238C193.02 100.238 196.432 100.238 199.84 100.238C200.616 100.238 201.396 100.238 202.172 100.238C203.46 100.238 203.46 98.2288 202.172 98.2288C200.044 98.2288 197.916 98.2288 195.788 98.2288C192.38 98.2288 188.968 98.2288 185.56 98.2288C184.784 98.2288 184.004 98.2288 183.228 98.2288C181.94 98.2288 181.94 100.238 183.228 100.238Z" fill="#084970"/>
<path d="M182.144 112.903C184.272 112.903 186.4 112.903 188.528 112.903C191.936 112.903 195.348 112.903 198.756 112.903C199.532 112.903 200.312 112.903 201.088 112.903C202.376 112.903 202.376 110.894 201.088 110.894C198.96 110.894 196.832 110.894 194.704 110.894C191.296 110.894 187.884 110.894 184.476 110.894C183.7 110.894 182.92 110.894 182.144 110.894C180.86 110.894 180.856 112.903 182.144 112.903Z" fill="#084970"/>
<path d="M180.56 125.574C182.688 125.574 184.816 125.574 186.944 125.574C190.352 125.574 193.764 125.574 197.172 125.574C197.948 125.574 198.728 125.574 199.504 125.574C200.792 125.574 200.792 123.564 199.504 123.564C197.376 123.564 195.248 123.564 193.12 123.564C189.712 123.564 186.3 123.564 182.892 123.564C182.116 123.564 181.336 123.564 180.56 123.564C179.276 123.564 179.272 125.574 180.56 125.574Z" fill="#084970"/>
<path d="M178.672 138.243C180.8 138.243 182.928 138.243 185.056 138.243C188.464 138.243 191.876 138.243 195.284 138.243C196.06 138.243 196.84 138.243 197.616 138.243C198.904 138.243 198.904 136.234 197.616 136.234C195.488 136.234 193.36 136.234 191.232 136.234C187.824 136.234 184.412 136.234 181.004 136.234C180.228 136.234 179.448 136.234 178.672 136.234C177.384 136.234 177.38 138.243 178.672 138.243Z" fill="#084970"/>
<path d="M177.308 151.226C179.436 151.226 181.564 151.226 183.692 151.226C187.1 151.226 190.512 151.226 193.92 151.226C194.696 151.226 195.476 151.226 196.252 151.226C197.54 151.226 197.54 149.217 196.252 149.217C194.124 149.217 191.996 149.217 189.868 149.217C186.46 149.217 183.048 149.217 179.64 149.217C178.864 149.217 178.084 149.217 177.308 149.217C176.024 149.217 176.02 151.226 177.308 151.226Z" fill="#084970"/>
<path d="M176.505 163.498C178.633 163.498 180.761 163.498 182.889 163.498C186.297 163.498 189.709 163.498 193.117 163.498C193.893 163.498 194.673 163.498 195.449 163.498C196.737 163.498 196.737 161.489 195.449 161.489C193.321 161.489 191.193 161.489 189.065 161.489C185.657 161.489 182.245 161.489 178.837 161.489C178.061 161.489 177.281 161.489 176.505 161.489C175.221 161.489 175.217 163.498 176.505 163.498Z" fill="#084970"/>
<path d="M175.22 176.143C177.348 176.143 179.476 176.143 181.604 176.143C185.012 176.143 188.424 176.143 191.832 176.143C192.608 176.143 193.388 176.143 194.164 176.143C195.452 176.143 195.452 174.134 194.164 174.134C192.036 174.134 189.908 174.134 187.78 174.134C184.372 174.134 180.96 174.134 177.552 174.134C176.776 174.134 175.996 174.134 175.22 174.134C173.936 174.134 173.932 176.143 175.22 176.143Z" fill="#084970"/>
<path d="M176.08 157.097L175.336 160.902H179.556L180.488 155.288L176.08 157.097Z" fill="#FCD2B1"/>
<path d="M174.88 161.894H181.852C181.852 161.894 182.364 158.591 180.896 158.591C179.428 158.591 179.1 159.315 179.1 159.315C179.1 159.315 176.096 160.367 175.308 159.218C175.052 158.844 174.58 160.834 174.88 161.894Z" fill="#084970"/>
<path d="M190.72 144.282L189.976 148.088H194.2L195.128 142.47L190.72 144.282Z" fill="#FCD2B1"/>
<path d="M187.924 74.6611C187.924 74.6611 189.064 77.0199 187.924 78.6915C186.784 80.3631 192.868 78.9286 192.868 78.9286C192.868 78.9286 191.916 77.4016 192.44 73.6284C192.964 69.8552 187.924 74.6611 187.924 74.6611Z" fill="#E9C1A4"/>
<path d="M194.344 68.6614C194.344 68.6614 194.776 75.376 193.016 75.4724C191.252 75.5689 186.944 75.8662 186.064 71.9323C185.18 67.9984 190.036 63.5501 194.344 68.6614Z" fill="#FCD2B1"/>
<path d="M186.644 74.1989C185.728 72.7805 184.864 70.0319 185.956 67.7174C187.048 65.4028 190.476 64.8965 192.272 65.6882C194.068 66.4798 195.232 68.5251 194.856 69.0153C194.388 69.6261 194.216 69.7225 194.216 69.7225C194.216 69.7225 193.732 69.7949 191.916 69.4051C191.916 69.4051 190.184 73.769 188.924 74.7213C188.928 74.7173 187.44 75.4325 186.644 74.1989Z" fill="#0B4870"/>
<path d="M181.308 104.107L175.332 158.053L180.812 157.611C180.812 157.611 188.392 117.537 189.488 117.046C190.584 116.556 190.584 117.657 191.684 119.988C192.78 122.314 195.708 126.847 194.612 130.399C193.516 133.951 189.736 144.978 189.736 144.978L195.712 145.223C195.712 145.223 202.54 128.929 202.54 126.232C202.54 123.536 198 104.107 198 104.107H181.308Z" fill="#05303D"/>
<path d="M216.796 71.4385L218.16 69.5338C218.16 69.5338 219.144 65.6481 220.812 65.8008C222.48 65.9535 224.604 67.7055 223.996 69.4574C223.388 71.2094 220.448 71.4385 220.448 71.4385L217.856 73.8776L216.796 71.4385Z" fill="#FCD2B1"/>
<path d="M182.12 78.7518C182.12 78.7518 189.008 76.0475 193.392 77.8075C197.776 79.5676 197.248 80.114 200.492 79.4992C203.736 78.8844 208.496 79.1858 216.6 70.1326C216.6 70.1326 219.336 70.9483 219.54 73.086C219.744 75.2238 205.256 84.281 198.468 87.9457L198 104.107H181.308L181.92 93.0329C181.92 93.0329 176.868 93.6477 176.868 90.8791C176.868 88.1105 179.128 79.66 182.12 78.7518Z" fill="#4C8DCB"/>
<path d="M189.776 149L197.648 149.084C197.648 149.084 198.244 145.781 196.54 145.781C194.836 145.781 194.036 146.73 194.036 146.73C194.036 146.73 191.06 147.457 190.048 146.404C189.696 146.034 189.428 147.935 189.776 149Z" fill="#084970"/>
<path d="M39.9835 150.016L37.2115 150.306C37.2115 150.306 34.3995 145.194 33.3675 144.656C32.3355 144.118 32.0875 145.653 32.8715 147.481C33.6555 149.309 34.2355 153.09 34.8555 153.09C35.4755 153.09 40.6035 152.259 40.6035 152.259L39.9835 150.016Z" fill="#FCD2B1"/>
<path d="M35.3715 147.196C35.3715 147.196 34.2115 145.311 34.1595 146.424C34.1115 147.538 36.1075 152.95 36.1075 152.95L34.8555 153.095C34.8555 153.095 34.4515 153.276 34.1595 152.018C33.8675 150.76 33.1875 148.265 32.9715 147.738C32.7595 147.212 31.4355 144.982 32.7315 144.552C34.0315 144.118 35.3715 147.196 35.3715 147.196Z" fill="#084970"/>
<path d="M81.4156 118.143L78.5516 112.49L76.3076 115.797L77.6916 120.373L81.4156 118.143Z" fill="#F2C6A8"/>
<path d="M79.9118 110.292C79.9118 110.292 79.9118 115.15 76.6518 117.022C73.3918 118.895 70.9198 111.923 71.5758 109.102C72.2318 106.277 79.6278 104.192 79.9118 110.292Z" fill="#FCD2B1"/>
<path d="M71.6439 111.839C71.6439 111.839 71.9599 114.133 71.6439 114.555C71.3279 114.977 73.3479 114.555 73.3479 114.555L71.6439 111.839Z" fill="#FCD2B1"/>
<path d="M71.9636 110.428C71.9636 110.428 75.3476 112.112 76.9236 111.843C76.9236 111.843 77.6236 111.164 78.1196 112.277C78.6156 113.39 77.3916 112.952 77.3916 112.952C77.3916 112.952 78.1556 114.278 79.1156 114.085C80.0756 113.892 81.0676 111.871 81.0676 110.432C81.0676 108.998 80.4236 104.425 76.3116 104.863C72.1996 105.301 69.8076 107.206 70.5076 109.054C71.2036 110.894 71.9636 110.428 71.9636 110.428Z" fill="#0B4870"/>
<path d="M79.1084 106.94C79.1084 106.94 79.2444 104.465 81.3164 104.593C83.3884 104.726 84.4124 106.944 84.4284 109.066C84.4444 111.187 82.2324 113.739 84.1524 114.547C86.0764 115.35 79.5604 115.672 79.1084 106.94Z" fill="#0B4870"/>
<path d="M79.6997 105.514C79.8677 105.658 80.0077 105.843 80.1317 106.024C80.3877 106.394 80.5517 106.832 80.5677 107.286C80.5757 107.479 80.3917 107.663 80.1997 107.655C79.9957 107.647 79.8397 107.495 79.8317 107.286C79.8317 107.234 79.8237 107.181 79.8197 107.129C79.8317 107.25 79.8197 107.145 79.8157 107.117C79.8117 107.097 79.8077 107.073 79.8037 107.053C79.7797 106.956 79.7477 106.864 79.7157 106.771C79.6877 106.703 79.7477 106.844 79.7197 106.783C79.7077 106.759 79.6958 106.735 79.6838 106.711C79.6638 106.671 79.6437 106.631 79.6197 106.591C79.5797 106.518 79.5357 106.45 79.4877 106.382C79.4677 106.354 79.4437 106.325 79.4237 106.293C79.5037 106.402 79.4278 106.301 79.4078 106.273C79.3718 106.229 79.3317 106.185 79.2917 106.141C79.2557 106.104 79.2197 106.064 79.1797 106.032C79.0357 105.903 79.0397 105.638 79.1797 105.51C79.3317 105.373 79.5437 105.377 79.6997 105.514Z" fill="#FDBD56"/>
<path d="M79.5524 144.335C79.5524 144.335 61.8724 138.046 58.5684 140.027C55.2684 142.008 46.5404 148.124 44.2484 148.59C41.9564 149.056 40.9844 151.21 40.9844 151.21L69.8844 148.501L79.5524 144.335Z" fill="#05303D"/>
<path d="M37.4278 150.583L34.6558 150.872C34.6558 150.872 31.8438 145.761 30.8118 145.223C29.7798 144.684 29.5318 146.219 30.3158 148.048C31.0998 149.876 31.6798 153.657 32.2998 153.657C32.9198 153.657 38.0478 152.825 38.0478 152.825L37.4278 150.583Z" fill="#FCD2B1"/>
<path d="M86.1401 142.209C86.1401 142.209 90.0561 150.756 83.9081 153.339C77.7601 155.923 60.7481 149.819 57.4601 150.828C54.1721 151.833 48.8841 153.629 45.9521 153.556C43.0201 153.484 36.8721 153.199 36.8721 153.199V150.113C36.8721 150.113 59.6041 145.375 61.7481 145.303C63.8921 145.231 75.3081 143.326 75.3081 143.326L86.1401 142.209Z" fill="#05303D"/>
<path d="M81.6757 117.271C81.6757 117.271 87.8037 142.498 85.6517 143.322C83.4997 144.146 75.3117 143.322 75.3117 143.322C75.3117 143.322 76.7437 133.654 76.5397 132.006C76.3357 130.359 73.3477 131.641 73.3477 127.618C73.3477 125.557 75.9237 119.871 77.2557 119.461C78.5877 119.047 81.6757 117.271 81.6757 117.271Z" fill="#4C8DCB"/>
<path d="M80.2158 128.454C80.2158 128.454 76.6038 140.626 74.7398 141.096C72.8758 141.566 56.5078 145.367 56.1558 144.957C55.8078 144.547 59.0678 141.919 59.7078 142.209C60.3478 142.498 63.3198 141.972 63.3198 141.972L72.4798 137.64L77.4198 125.935L80.2158 128.454Z" fill="#FCD2B1"/>
<path d="M67.8674 142.691V144.226L52.2314 146.991V145.251L67.8674 142.691Z" fill="#D3D3D3"/>
<path d="M52.2315 146.991L43.3115 134.003L44.5355 133.067L53.6475 145.974L52.2315 146.991Z" fill="#D3D3D3"/>
<path d="M79.9564 131.548L75.1084 128.756C75.1084 128.756 76.2844 122.366 78.0644 122.366C79.8444 122.366 82.0724 121.366 81.8084 125.939C81.5444 130.512 79.9564 131.548 79.9564 131.548Z" fill="#4C8DCB"/>
<path d="M32.8119 147.762C32.8119 147.762 31.6519 145.877 31.5999 146.99C31.5479 148.103 33.5479 153.516 33.5479 153.516L32.2959 153.661C32.2959 153.661 31.8919 153.842 31.5999 152.584C31.3079 151.326 30.6279 148.831 30.4119 148.304C30.1999 147.778 28.8759 145.548 30.1719 145.118C31.4719 144.684 32.8119 147.762 32.8119 147.762Z" fill="#084970"/>
<path d="M261.337 167.946H258.437V171.788H261.337V167.946Z" fill="#FCD2B1"/>
<path d="M258.156 170.735C258.156 170.735 257.884 172.869 258.436 173.046C258.988 173.222 264.596 175.461 265.152 174.653C265.708 173.849 265.604 171.619 263.9 171.788C262.192 171.957 261.636 170.888 261.636 170.888C261.636 170.888 260.14 171.752 258.156 170.735Z" fill="#084970"/>
<path d="M251.828 88.8616L251.324 95.8333L254.752 99.3052L255.868 98.5377L255.46 90.481L251.828 88.8616Z" fill="#FCD2B1"/>
<path d="M251.412 82.2358C251.412 82.2358 250.7 82.2358 250.304 82.6658C249.908 83.0958 248.888 84.245 249.804 87.7731C250.544 90.6301 251.828 90.5256 251.828 90.5256L252.276 89.071L251.412 82.2358Z" fill="#0B4870"/>
<path d="M257.94 83.6258C257.94 83.6258 258.34 90.1074 257.316 92.0201C256.292 93.9328 253.588 93.1934 252.564 90.7704C251.54 88.3474 251.612 87.9777 251.612 87.9777C251.612 87.9777 250.516 88.05 250.516 87.2423C250.516 86.4346 250.224 84.305 251.612 85.0403C252.4 85.4582 252.02 82.1029 254.264 82.4686C256.508 82.8343 257.94 83.6258 257.94 83.6258Z" fill="#FEE3CA"/>
<path d="M257.976 84.3974C257.976 84.3974 254.12 85.8882 251.612 85.0404C249.104 84.1925 250.872 82.103 252.8 81.5444C256.34 80.5198 260.552 81.8779 257.976 84.3974Z" fill="#0B4870"/>
<path d="M250.82 94.8571C250.82 94.8571 247.068 96.2434 246.684 96.8864C246.3 97.5293 252.256 111.151 252.256 111.151L248.768 120.168L251.324 122.246L261.964 122.885L260.376 104.999L259.636 96.9105L255.544 94.7888L250.82 94.8571Z" fill="#EDEDED"/>
<path d="M253.712 97.9631H255.656L256.424 99.6227L255.344 101.19L253.252 99.3052L253.712 97.9631Z" fill="#FDBD56"/>
<path d="M251.324 94.7844L254.484 97.983L253.192 101.716L249.004 95.4555L251.324 94.7844Z" fill="white"/>
<path d="M254.484 97.983L257.4 100.442L256.676 95.3631L255.544 94.7844L254.484 97.983Z" fill="white"/>
<path d="M254.483 100.418L254.271 102.894L254.839 119.019L255.599 120.458L256.823 118.77L256.963 101.716L255.619 99.7673L254.483 100.418Z" fill="#FDBD56"/>
<path d="M250.32 167.946H247.42V171.788H250.32V167.946Z" fill="#FCD2B1"/>
<path d="M247.096 121.205L260.924 122.885C260.924 122.885 266.08 140.047 265.964 144.314C265.848 148.582 261.964 169.802 261.964 169.802L257.4 169.34C257.4 169.34 260.8 148.927 260.112 146.621C259.424 144.314 255.424 131.4 254.84 131.629C254.256 131.858 250.856 169.802 250.856 169.802H246.668L247.096 121.205Z" fill="#05303D"/>
<path d="M249.004 95.4561C249.004 95.4561 254.092 100.796 253.94 106.977C253.788 113.157 249.46 129.861 247.18 130.014C244.9 130.166 241.408 128.639 241.408 126.429C241.408 124.219 247.788 115.29 247.18 111.935C246.572 108.58 244.976 104.69 244.976 104.69C244.976 104.69 241.484 98.4618 242.32 98.2568C243.156 98.0519 249.004 95.4561 249.004 95.4561Z" fill="#05303D"/>
<path d="M243.996 97.6135C243.996 97.6135 241.356 98.0435 241.412 98.6543C241.464 99.2691 237.856 110.259 238.768 112.734C239.684 115.21 246.448 126.095 246.448 126.095L248.584 124.564C248.584 124.564 243.448 113.377 243.6 111.232C243.752 109.086 246.14 104.738 246.14 104.738L243.996 97.6135Z" fill="#05303D"/>
<path d="M256.676 95.3633C256.676 95.3633 260.704 125.067 262.268 128.494C263.832 131.922 263.86 130.809 264.724 130.021C265.588 129.234 262.728 123.68 262.176 118.866C261.624 114.052 261.808 108.684 262.636 109.608C263.464 110.532 263.74 115.72 266.14 115.72C268.536 115.72 273.144 112.742 273.144 112.742V109.054L268.292 110.629L264.204 100.446C264.204 100.446 263.068 97.927 261.964 97.6175C260.86 97.3041 256.676 95.3633 256.676 95.3633Z" fill="#05303D"/>
<path d="M270.352 102.407C270.352 102.407 266.62 116.974 267.696 117.259C268.772 117.548 276.812 117.259 276.812 117.259C276.812 117.259 277.672 117.187 277.96 115.527C278.248 113.868 280.904 101.19 280.904 101.19C280.904 101.19 281.264 100.354 279.036 100.442C276.812 100.531 271.212 100.442 271.212 100.442C271.212 100.442 270.868 100.334 270.352 102.407Z" fill="#D3D3D3"/>
<path d="M278.296 113.8C278.296 113.8 279.904 111.336 279.904 110.115C279.904 108.893 279.092 107.909 278.764 108.319C278.44 108.728 278.068 109.954 278.296 110.609C278.524 111.264 278.296 113.8 278.296 113.8Z" fill="#FCD2B1"/>
<path d="M247.136 170.735C247.136 170.735 246.864 172.869 247.416 173.046C247.972 173.222 253.576 175.461 254.132 174.653C254.688 173.849 254.584 171.619 252.88 171.788C251.172 171.957 250.616 170.888 250.616 170.888C250.616 170.888 249.12 171.752 247.136 170.735Z" fill="#084970"/>
</svg>
