<svg width="251" height="211" viewBox="0 0 251 211" fill="none" xmlns="http://www.w3.org/2000/svg">
<path d="M163.748 79.0375L161.197 76.4927" stroke="white" stroke-width="4.77775" stroke-miterlimit="10" stroke-linecap="round" stroke-linejoin="round"/>
<path d="M163.748 76.4927L161.197 79.0375" stroke="white" stroke-width="4.77775" stroke-miterlimit="10" stroke-linecap="round" stroke-linejoin="round"/>
<path d="M170.504 79.0375L167.954 76.4927" stroke="white" stroke-width="4.77775" stroke-miterlimit="10" stroke-linecap="round" stroke-linejoin="round"/>
<path opacity="0.15" d="M143.392 44.9211V146.3C143.392 148.461 141.63 150.221 139.465 150.221H64.916C62.7509 150.221 61 148.462 61 146.3V44.9211C61 42.76 62.7509 41 64.916 41H139.465C141.63 41.0006 143.392 42.76 143.392 44.9211Z" fill="#F6F6F6"/>
<path opacity="0.9" d="M86.303 58.1957H121.92H133.947C134.347 58.1957 134.661 57.8772 134.661 57.4827V56.5836C134.661 56.1849 134.347 55.8706 133.947 55.8706H121.92H86.303C85.9085 55.8706 85.5889 56.1849 85.5889 56.5836V57.4827C85.5889 57.8772 85.9085 58.1957 86.303 58.1957Z" fill="#FFBE55"/>
<path opacity="0.9" d="M133.948 60.2632H116.587H86.3028C85.907 60.2632 85.5898 60.5799 85.5898 60.9756V61.8741C85.5898 62.2686 85.907 62.5901 86.3028 62.5901H116.587H133.948C134.344 62.5901 134.662 62.2686 134.662 61.8741V60.9756C134.663 60.5805 134.344 60.2632 133.948 60.2632Z" fill="#FFBE55"/>
<path opacity="0.9" d="M133.948 64.7817H126.92H86.305C85.9104 64.7817 85.5908 65.102 85.5908 65.4965V66.3939C85.5908 66.789 85.9104 67.1074 86.305 67.1074H126.92H133.948C134.349 67.1074 134.663 66.789 134.663 66.3939V65.4965C134.664 65.102 134.349 64.7817 133.948 64.7817Z" fill="#FFBE55"/>
<path opacity="0.9" d="M86.305 82.1205H121.92H133.948C134.349 82.1205 134.663 81.802 134.663 81.4069V80.5084C134.663 80.1103 134.349 79.7954 133.948 79.7954H121.92H86.305C85.9104 79.7954 85.5908 80.1103 85.5908 80.5084V81.4069C85.5908 81.802 85.9104 82.1205 86.305 82.1205Z" fill="#FFBE55"/>
<path opacity="0.9" d="M133.95 84.1885H116.588H86.305C85.9092 84.1885 85.5908 84.5052 85.5908 84.9003V85.7994C85.5908 86.1939 85.9092 86.5154 86.305 86.5154H116.588H133.95C134.346 86.5154 134.663 86.1939 134.663 85.7994V84.9003C134.664 84.5052 134.346 84.1885 133.95 84.1885Z" fill="#FFBE55"/>
<path opacity="0.9" d="M133.948 88.7065H126.92H86.305C85.9104 88.7065 85.5908 89.0262 85.5908 89.4213V90.3187C85.5908 90.7132 85.9104 91.0322 86.305 91.0322H126.92H133.948C134.349 91.0322 134.663 90.7132 134.663 90.3187V89.4213C134.664 89.0262 134.349 88.7065 133.948 88.7065Z" fill="#FFBE55"/>
<path d="M76.0215 57.652C78.3474 58.1369 79.8428 60.4201 79.3565 62.741C78.8715 65.0631 76.5845 66.5562 74.2599 66.0713C71.934 65.5858 70.4374 63.3032 70.9236 60.9822C71.4093 58.6613 73.6968 57.1671 76.0215 57.652ZM76.2476 56.5739C73.3221 55.9633 70.4554 57.837 69.8438 60.7572C69.2334 63.6767 71.1083 66.5394 74.0338 67.1494C76.9593 67.76 79.826 65.8869 80.4364 62.9661C81.048 60.046 79.1718 57.1845 76.2476 56.5739Z" fill="#FFBE55"/>
<path d="M76.0215 81.5773C78.3474 82.0622 79.8428 84.3454 79.3565 86.6663C78.8715 88.9884 76.5845 90.4814 74.2599 89.9965C71.934 89.511 70.4374 87.2284 70.9236 84.9075C71.4093 82.5854 73.6968 81.0912 76.0215 81.5773ZM76.2476 80.4992C73.3221 79.8886 70.4554 81.7623 69.8438 84.6824C69.2334 87.6014 71.1083 90.4647 74.0338 91.0747C76.9593 91.6853 79.826 89.8116 80.4364 86.8914C81.048 83.9713 79.1718 81.1092 76.2476 80.4992Z" fill="#FFBE55"/>
<path d="M122.636 107.182V108.08C122.636 108.474 122.317 108.794 121.921 108.794H86.305C85.9104 108.794 85.5908 108.474 85.5908 108.08V107.182C85.5908 106.782 85.9104 106.469 86.305 106.469H121.92C122.317 106.469 122.636 106.782 122.636 107.182Z" fill="#FFBE55"/>
<path opacity="0.4" d="M134.664 107.182V108.08C134.664 108.474 134.349 108.794 133.948 108.794H121.921C122.317 108.794 122.636 108.474 122.636 108.08V107.182C122.636 106.782 122.317 106.469 121.921 106.469H133.948C134.348 106.469 134.664 106.782 134.664 107.182Z" fill="#FFBE55"/>
<path d="M117.303 111.716V112.614C117.303 113.01 116.984 113.331 116.588 113.331H86.305C85.9092 113.331 85.5908 113.01 85.5908 112.614V111.716C85.5908 111.321 85.9092 111.003 86.305 111.003H116.588C116.984 111.003 117.303 111.321 117.303 111.716Z" fill="#FFBE55"/>
<path opacity="0.4" d="M134.664 111.716V112.614C134.664 113.01 134.346 113.331 133.951 113.331H116.588C116.985 113.331 117.303 113.01 117.303 112.614V111.716C117.303 111.321 116.985 111.003 116.588 111.003H133.951C134.346 111.003 134.664 111.321 134.664 111.716Z" fill="#FFBE55"/>
<path d="M127.635 102.882V103.781C127.635 104.175 127.315 104.495 126.921 104.495H86.305C85.9104 104.495 85.5908 104.175 85.5908 103.781V102.882C85.5908 102.489 85.9104 102.169 86.305 102.169H126.92C127.315 102.169 127.635 102.489 127.635 102.882Z" fill="#FFBE55"/>
<path opacity="0.4" d="M134.664 102.882V103.781C134.664 104.175 134.349 104.495 133.949 104.495H126.921C127.315 104.495 127.635 104.175 127.635 103.781V102.882C127.635 102.489 127.315 102.169 126.921 102.169H133.949C134.349 102.169 134.664 102.489 134.664 102.882Z" fill="#FFBE55"/>
<path d="M76.0215 103.541C78.3474 104.025 79.8428 106.309 79.3565 108.63C78.8715 110.952 76.5845 112.445 74.2599 111.96C71.934 111.474 70.4374 109.192 70.9236 106.871C71.4093 104.549 73.6968 103.055 76.0215 103.541ZM76.2476 102.463C73.3221 101.852 70.4554 103.726 69.8438 106.646C69.2334 109.565 71.1083 112.429 74.0338 113.039C76.9593 113.649 79.826 111.775 80.4364 108.855C81.048 105.935 79.1718 103.072 76.2476 102.463Z" fill="#FFBE55"/>
<path d="M122.636 129.359V130.258C122.636 130.651 122.317 130.971 121.921 130.971H86.305C85.9104 130.971 85.5908 130.651 85.5908 130.258V129.359C85.5908 128.959 85.9104 128.646 86.305 128.646H121.92C122.317 128.646 122.636 128.959 122.636 129.359Z" fill="#FFBE55"/>
<path d="M134.664 129.359V130.258C134.664 130.651 134.349 130.971 133.948 130.971H121.921C122.317 130.971 122.636 130.651 122.636 130.258V129.359C122.636 128.959 122.317 128.646 121.921 128.646H133.948C134.348 128.646 134.664 128.959 134.664 129.359Z" fill="#FFBE55"/>
<path d="M117.303 133.893V134.791C117.303 135.187 116.984 135.508 116.588 135.508H86.305C85.9092 135.508 85.5908 135.187 85.5908 134.791V133.893C85.5908 133.498 85.9092 133.18 86.305 133.18H116.588C116.984 133.18 117.303 133.498 117.303 133.893Z" fill="#FFBE55"/>
<path opacity="0.4" d="M134.664 133.893V134.791C134.664 135.187 134.346 135.508 133.951 135.508H116.588C116.985 135.508 117.303 135.187 117.303 134.791V133.893C117.303 133.498 116.985 133.18 116.588 133.18H133.951C134.346 133.18 134.664 133.498 134.664 133.893Z" fill="#FFBE55"/>
<path d="M127.635 125.06V125.958C127.635 126.352 127.315 126.672 126.921 126.672H86.305C85.9104 126.672 85.5908 126.352 85.5908 125.958V125.06C85.5908 124.666 85.9104 124.347 86.305 124.347H126.92C127.315 124.346 127.635 124.666 127.635 125.06Z" fill="#FFBE55"/>
<path opacity="0.4" d="M134.664 125.06V125.958C134.664 126.352 134.349 126.672 133.949 126.672H126.921C127.315 126.672 127.635 126.352 127.635 125.958V125.06C127.635 124.666 127.315 124.347 126.921 124.347H133.949C134.349 124.346 134.664 124.666 134.664 125.06Z" fill="#FFBE55"/>
<path d="M76.0215 125.717C78.3474 126.202 79.8428 128.485 79.3565 130.806C78.8715 133.128 76.5845 134.621 74.2599 134.136C71.934 133.651 70.4374 131.368 70.9236 129.047C71.4093 126.726 73.6968 125.231 76.0215 125.717ZM76.2476 124.639C73.3221 124.028 70.4554 125.902 69.8438 128.822C69.2334 131.741 71.1083 134.604 74.0338 135.214C76.9593 135.825 79.826 133.951 80.4364 131.031C81.048 128.111 79.1718 125.249 76.2476 124.639Z" fill="#FFBE55"/>
<path d="M148.39 95.8635C148.63 96.2185 148.539 96.7016 148.184 96.944L140.12 102.42C139.762 102.66 139.279 102.569 139.036 102.214L131.312 90.8738C131.069 90.5188 131.163 90.0357 131.518 89.7939L139.582 84.3181C139.938 84.0775 140.423 84.1679 140.664 84.5235L148.39 95.8635Z" fill="#D3D3D3"/>
<path d="M140.364 85.3657L146.925 94.9984C147.136 95.3073 147.056 95.7293 146.746 95.9394L139.712 100.716C139.403 100.928 138.98 100.847 138.77 100.537L132.208 90.9043C131.996 90.5942 132.077 90.1728 132.388 89.9627L139.42 85.1861C139.732 84.976 140.153 85.0556 140.364 85.3657Z" fill="#CCE9FF"/>
<path d="M143.66 99.4278C143.918 99.4278 144.128 99.219 144.128 98.9615C144.128 98.7039 143.918 98.4951 143.66 98.4951C143.402 98.4951 143.193 98.7039 143.193 98.9615C143.193 99.219 143.402 99.4278 143.66 99.4278Z" fill="#0B4870"/>
<path d="M138.58 101.04C138.58 101.04 137.275 99.8684 136.644 99.3781C136.013 98.8878 134.829 97.4451 134.653 97.3613C134.479 97.2763 132.217 92.6416 131.847 92.456C131.48 92.2704 132.196 91.6455 132.977 92.7673C133.758 93.8886 135.13 95.3313 135.651 95.2259C136.172 95.1206 135.724 93.7132 136.064 93.4115C136.405 93.1097 136.389 93.3241 136.555 93.4821C136.721 93.6431 136.519 95.3906 137.003 95.9251C137.486 96.4585 137.571 97.5421 137.934 97.9545C138.297 98.3664 140.049 100.374 140.049 100.374L138.58 101.04Z" fill="#EEA886"/>
<path d="M166.677 163.699C166.677 163.699 166.959 165.656 166.994 165.949C167.029 166.243 170.134 165.776 170.134 165.776L170.384 163.447C170.385 163.447 167.065 163.423 166.677 163.699Z" fill="#424773"/>
<path d="M166.962 165.7C166.962 165.7 165.978 166.878 165.027 167.392C164.074 167.906 161.08 168.109 160.518 168.64C160.111 169.025 160.539 170.677 164.489 170.644C168.44 170.609 170.346 170.877 170.767 170.243C171.191 169.611 170.156 165.567 170.156 165.567C170.156 165.567 169.22 165.904 166.962 165.7Z" fill="#0E538C"/>
<path d="M144.436 163.699C144.436 163.699 144.718 165.656 144.753 165.949C144.788 166.243 147.892 165.776 147.892 165.776L148.143 163.447C148.144 163.447 144.823 163.423 144.436 163.699Z" fill="#424773"/>
<path d="M144.719 165.699C144.719 165.699 143.736 166.878 142.785 167.392C141.833 167.905 136.833 168.327 136.271 168.858C135.865 169.243 136.689 170.788 142.248 170.643C146.198 170.54 148.103 170.876 148.527 170.242C148.951 169.61 147.915 165.566 147.915 165.566C147.915 165.566 147.033 165.926 144.719 165.699Z" fill="#0E538C"/>
<path d="M159.24 74.55C159.24 74.55 155.325 73.0905 153.519 76.0645C151.714 79.0398 151.888 84.9962 153.86 85.7295C155.835 86.4617 158.799 86.0785 159.81 84.218C160.819 82.3556 161.731 79.6641 161.688 77.8658C161.644 76.0669 160.268 75.0684 159.24 74.55Z" fill="#EEA886"/>
<path d="M154.286 85.8656C154.286 85.8656 154.449 86.9204 154.18 87.4412C153.911 87.9608 159.252 87.9746 159.252 87.9746C159.252 87.9746 159.685 85.1466 160.507 82.7574C161.329 80.3683 154.286 85.8656 154.286 85.8656Z" fill="#EEA886"/>
<path d="M160.508 82.7573C160.508 82.7573 160.139 83.3649 158.634 83.1285C157.129 82.8926 155.293 80.8949 154.666 80.6752C154.038 80.4555 154.032 80.0868 154.032 80.0868L153.638 80.6609L152.971 80.7022C152.971 80.7022 153.58 78.9153 152.66 78.1861C151.742 77.4564 153.614 72.3985 158.44 74.0825C158.44 74.0825 162.147 75.1031 162.012 77.2079C161.877 79.3116 161.337 81.7097 160.508 82.7573Z" fill="#084970"/>
<path d="M154.131 79.3213C154.216 78.9681 155.114 77.96 155.459 79.0393C155.803 80.1205 154.938 81.5728 154.457 81.4476C153.975 81.3243 153.917 80.2168 154.131 79.3213Z" fill="#EEA886"/>
<path d="M135.897 99.1138C135.899 99.1133 135.901 99.1133 135.904 99.1133C135.874 99.1259 135.87 99.1265 135.897 99.1138Z" fill="#323657"/>
<path d="M168.556 101.732C168.401 102.238 167.687 102.661 167.227 102.851C166.932 102.97 166.601 103.01 166.266 102.946L166.032 102.906V102.901H166.026C166.011 103.031 165.99 103.161 165.976 103.295V103.315C166.296 104.801 165.816 110.192 165.551 112.791C165.466 113.66 165.401 114.22 165.401 114.22C165.401 114.22 148.75 114.074 148.971 114.22C148.46 114.015 148.211 112.797 148.106 111.195C147.896 108.026 148.266 103.37 148.361 102.237C148.196 103.414 147.356 106.609 146.356 108.414C145.962 109.124 144.652 111.345 144.018 110.835C140.953 108.395 136.209 99.1869 135.904 99.112C136.16 99.0025 138.154 98.0842 138.434 97.989C138.679 97.91 140.894 100.246 142.233 101.698C142.828 102.341 143.253 102.81 143.253 102.81C143.637 101.942 145.047 96.4667 145.488 94.5702C146.472 90.2983 146.322 90.1229 146.322 90.1229C149.316 89.2202 153.865 87.3781 153.865 87.3781L159.863 87.1333C159.863 87.1333 165.368 88.3425 167.537 89.3195C167.543 89.3195 167.547 89.3297 167.556 89.3447C167.837 89.8248 169.955 97.2359 168.556 101.732Z" fill="#0B4870"/>
<path d="M143.252 102.811L142.75 104.936C142.75 104.936 142.205 102.804 142.23 101.697C142.829 102.342 143.252 102.811 143.252 102.811Z" fill="#05303D"/>
<path d="M170.861 154.378C170.789 151.772 168.79 140.243 168.302 135.372C167.863 131.003 166.588 126.437 166.806 122.256C166.936 119.758 166.948 117.287 166.132 115.553C166.306 114.899 165.457 114.006 165.574 113.211C165.574 113.211 150.382 111.492 148.752 114.074C148.752 114.074 146.554 125.536 146.264 128.096C145.975 130.655 145.781 140.482 145.635 142.083C145.491 143.682 144.669 163.017 143.895 165.394H149.01C149.01 165.394 152.937 151.338 152.937 144.687C152.937 138.553 155.517 131.441 157.455 126.931C158.622 131.495 161.61 141.507 162.318 143.179C163.188 145.236 166.55 165.394 166.55 165.394L170.551 165.302C170.551 165.302 170.933 156.983 170.861 154.378Z" fill="#05303D"/>
<path d="M155.537 78.4442C157.346 78.4442 158.813 77.1885 158.813 75.6396C158.813 74.0906 157.346 72.835 155.537 72.835C153.728 72.835 152.262 74.0906 152.262 75.6396C152.262 77.1885 153.728 78.4442 155.537 78.4442Z" fill="#084970"/>
<path d="M179.672 62.4511C184.496 62.4511 188.407 58.5467 188.407 53.7304C188.407 48.9141 184.496 45.0098 179.672 45.0098C174.848 45.0098 170.938 48.9141 170.938 53.7304C170.938 58.5467 174.848 62.4511 179.672 62.4511Z" fill="#FFBE55"/>
<path d="M179.672 60.3915C183.357 60.3915 186.344 57.4092 186.344 53.7304C186.344 50.0516 183.357 47.0693 179.672 47.0693C175.987 47.0693 173 50.0516 173 53.7304C173 57.4092 175.987 60.3915 179.672 60.3915Z" fill="white"/>
<path d="M182.414 54.969C182.375 54.969 182.349 54.969 182.31 54.9559L179.45 53.9783L177.413 49.8721C177.335 49.7287 177.4 49.5462 177.544 49.468C177.688 49.3898 177.87 49.455 177.949 49.5984L179.881 53.4829L182.505 54.3824C182.662 54.4345 182.74 54.604 182.688 54.7604C182.662 54.8907 182.545 54.969 182.414 54.969Z" fill="#FFBE55"/>
</svg>
