<svg width="608" height="394" viewBox="0 0 608 394" fill="none" xmlns="http://www.w3.org/2000/svg">
<rect width="607.349" height="394" rx="16.3485" fill="#111111"/>
<circle cx="202" cy="191" r="161" fill="#F3FDE7"/>
<circle cx="406" cy="191" r="160.5" stroke="#424242" stroke-dasharray="12 12"/>
<circle cx="193" cy="96" r="23.5" stroke="#424242"/>
<circle cx="406" cy="96" r="23.5" stroke="#424242"/>
<circle cx="303.5" cy="191.5" r="43" stroke="#424242"/>
<circle cx="103.5" cy="191.5" r="43" stroke="#424242"/>
<path d="M76.064 187.402V196H75.482C75.39 196 75.312 195.984 75.248 195.952C75.188 195.92 75.128 195.866 75.068 195.79L70.094 189.31C70.102 189.41 70.108 189.508 70.112 189.604C70.116 189.7 70.118 189.79 70.118 189.874V196H69.098V187.402H69.698C69.75 187.402 69.794 187.406 69.83 187.414C69.866 187.418 69.898 187.428 69.926 187.444C69.954 187.456 69.982 187.476 70.01 187.504C70.038 187.528 70.068 187.56 70.1 187.6L75.074 194.074C75.066 193.97 75.058 193.87 75.05 193.774C75.046 193.674 75.044 193.58 75.044 193.492V187.402H76.064ZM79.5443 189.922V196H78.4763V189.922H79.5443ZM79.7723 188.014C79.7723 188.118 79.7503 188.216 79.7063 188.308C79.6663 188.396 79.6103 188.476 79.5383 188.548C79.4703 188.616 79.3883 188.67 79.2923 188.71C79.2003 188.75 79.1023 188.77 78.9983 188.77C78.8943 188.77 78.7963 188.75 78.7043 188.71C78.6163 188.67 78.5383 188.616 78.4703 188.548C78.4023 188.476 78.3483 188.396 78.3083 188.308C78.2683 188.216 78.2483 188.118 78.2483 188.014C78.2483 187.91 78.2683 187.812 78.3083 187.72C78.3483 187.624 78.4023 187.542 78.4703 187.474C78.5383 187.402 78.6163 187.346 78.7043 187.306C78.7963 187.266 78.8943 187.246 78.9983 187.246C79.1023 187.246 79.2003 187.266 79.2923 187.306C79.3883 187.346 79.4703 187.402 79.5383 187.474C79.6103 187.542 79.6663 187.624 79.7063 187.72C79.7503 187.812 79.7723 187.91 79.7723 188.014ZM82.8071 190.804C82.9391 190.656 83.0791 190.522 83.2271 190.402C83.3751 190.282 83.5311 190.18 83.6951 190.096C83.8631 190.008 84.0391 189.942 84.2231 189.898C84.4111 189.85 84.6131 189.826 84.8291 189.826C85.1611 189.826 85.4531 189.882 85.7051 189.994C85.9611 190.102 86.1731 190.258 86.3411 190.462C86.5131 190.662 86.6431 190.904 86.7311 191.188C86.8191 191.472 86.8631 191.786 86.8631 192.13V196H85.7891V192.13C85.7891 191.67 85.6831 191.314 85.4711 191.062C85.2631 190.806 84.9451 190.678 84.5171 190.678C84.2011 190.678 83.9051 190.754 83.6291 190.906C83.3571 191.058 83.1051 191.264 82.8731 191.524V196H81.7991V189.922H82.4411C82.5931 189.922 82.6871 189.996 82.7231 190.144L82.8071 190.804ZM90.1185 189.922V196.45C90.1185 196.694 90.0865 196.92 90.0225 197.128C89.9585 197.34 89.8565 197.524 89.7165 197.68C89.5765 197.836 89.3965 197.958 89.1765 198.046C88.9605 198.138 88.7005 198.184 88.3965 198.184C88.2685 198.184 88.1505 198.174 88.0425 198.154C87.9345 198.134 87.8265 198.104 87.7185 198.064L87.7605 197.488C87.7685 197.452 87.7825 197.424 87.8025 197.404C87.8185 197.388 87.8425 197.378 87.8745 197.374C87.9065 197.37 87.9485 197.368 88.0005 197.368C88.0485 197.372 88.1105 197.374 88.1865 197.374C88.4985 197.374 88.7205 197.3 88.8525 197.152C88.9845 197.008 89.0505 196.774 89.0505 196.45V189.922H90.1185ZM90.3405 188.014C90.3405 188.118 90.3185 188.216 90.2745 188.308C90.2345 188.396 90.1785 188.476 90.1065 188.548C90.0385 188.616 89.9585 188.67 89.8665 188.71C89.7745 188.75 89.6765 188.77 89.5725 188.77C89.4685 188.77 89.3705 188.75 89.2785 188.71C89.1905 188.67 89.1125 188.616 89.0445 188.548C88.9765 188.476 88.9225 188.396 88.8825 188.308C88.8425 188.216 88.8225 188.118 88.8225 188.014C88.8225 187.91 88.8425 187.812 88.8825 187.72C88.9225 187.624 88.9765 187.542 89.0445 187.474C89.1125 187.402 89.1905 187.346 89.2785 187.306C89.3705 187.266 89.4685 187.246 89.5725 187.246C89.6765 187.246 89.7745 187.266 89.8665 187.306C89.9585 187.346 90.0385 187.402 90.1065 187.474C90.1785 187.542 90.2345 187.624 90.2745 187.72C90.3185 187.812 90.3405 187.91 90.3405 188.014ZM95.6673 193.264C95.1753 193.28 94.7553 193.32 94.4073 193.384C94.0633 193.444 93.7813 193.524 93.5613 193.624C93.3453 193.724 93.1873 193.842 93.0873 193.978C92.9913 194.114 92.9433 194.266 92.9433 194.434C92.9433 194.594 92.9693 194.732 93.0213 194.848C93.0733 194.964 93.1433 195.06 93.2313 195.136C93.3233 195.208 93.4293 195.262 93.5493 195.298C93.6733 195.33 93.8053 195.346 93.9453 195.346C94.1333 195.346 94.3053 195.328 94.4613 195.292C94.6173 195.252 94.7633 195.196 94.8993 195.124C95.0393 195.052 95.1713 194.966 95.2953 194.866C95.4233 194.766 95.5473 194.652 95.6673 194.524V193.264ZM92.2173 190.78C92.5533 190.456 92.9153 190.214 93.3033 190.054C93.6913 189.894 94.1213 189.814 94.5933 189.814C94.9333 189.814 95.2353 189.87 95.4993 189.982C95.7633 190.094 95.9853 190.25 96.1653 190.45C96.3453 190.65 96.4813 190.892 96.5733 191.176C96.6653 191.46 96.7113 191.772 96.7113 192.112V196H96.2373C96.1333 196 96.0533 195.984 95.9973 195.952C95.9413 195.916 95.8973 195.848 95.8653 195.748L95.7453 195.172C95.5853 195.32 95.4293 195.452 95.2773 195.568C95.1253 195.68 94.9653 195.776 94.7973 195.856C94.6293 195.932 94.4493 195.99 94.2573 196.03C94.0693 196.074 93.8593 196.096 93.6273 196.096C93.3913 196.096 93.1693 196.064 92.9613 196C92.7533 195.932 92.5713 195.832 92.4153 195.7C92.2633 195.568 92.1413 195.402 92.0493 195.202C91.9613 194.998 91.9173 194.758 91.9173 194.482C91.9173 194.242 91.9833 194.012 92.1153 193.792C92.2473 193.568 92.4613 193.37 92.7573 193.198C93.0533 193.026 93.4393 192.886 93.9153 192.778C94.3913 192.666 94.9753 192.602 95.6673 192.586V192.112C95.6673 191.64 95.5653 191.284 95.3613 191.044C95.1573 190.8 94.8593 190.678 94.4673 190.678C94.2033 190.678 93.9813 190.712 93.8013 190.78C93.6253 190.844 93.4713 190.918 93.3393 191.002C93.2113 191.082 93.0993 191.156 93.0033 191.224C92.9113 191.288 92.8193 191.32 92.7273 191.32C92.6553 191.32 92.5933 191.302 92.5413 191.266C92.4893 191.226 92.4453 191.178 92.4093 191.122L92.2173 190.78ZM102.132 193.264C101.64 193.28 101.22 193.32 100.872 193.384C100.528 193.444 100.246 193.524 100.026 193.624C99.8102 193.724 99.6522 193.842 99.5522 193.978C99.4562 194.114 99.4082 194.266 99.4082 194.434C99.4082 194.594 99.4342 194.732 99.4862 194.848C99.5382 194.964 99.6082 195.06 99.6962 195.136C99.7882 195.208 99.8942 195.262 100.014 195.298C100.138 195.33 100.27 195.346 100.41 195.346C100.598 195.346 100.77 195.328 100.926 195.292C101.082 195.252 101.228 195.196 101.364 195.124C101.504 195.052 101.636 194.966 101.76 194.866C101.888 194.766 102.012 194.652 102.132 194.524V193.264ZM98.6822 190.78C99.0182 190.456 99.3802 190.214 99.7682 190.054C100.156 189.894 100.586 189.814 101.058 189.814C101.398 189.814 101.7 189.87 101.964 189.982C102.228 190.094 102.45 190.25 102.63 190.45C102.81 190.65 102.946 190.892 103.038 191.176C103.13 191.46 103.176 191.772 103.176 192.112V196H102.702C102.598 196 102.518 195.984 102.462 195.952C102.406 195.916 102.362 195.848 102.33 195.748L102.21 195.172C102.05 195.32 101.894 195.452 101.742 195.568C101.59 195.68 101.43 195.776 101.262 195.856C101.094 195.932 100.914 195.99 100.722 196.03C100.534 196.074 100.324 196.096 100.092 196.096C99.8562 196.096 99.6342 196.064 99.4262 196C99.2182 195.932 99.0362 195.832 98.8802 195.7C98.7282 195.568 98.6062 195.402 98.5142 195.202C98.4262 194.998 98.3822 194.758 98.3822 194.482C98.3822 194.242 98.4482 194.012 98.5802 193.792C98.7122 193.568 98.9262 193.37 99.2222 193.198C99.5182 193.026 99.9042 192.886 100.38 192.778C100.856 192.666 101.44 192.602 102.132 192.586V192.112C102.132 191.64 102.03 191.284 101.826 191.044C101.622 190.8 101.324 190.678 100.932 190.678C100.668 190.678 100.446 190.712 100.266 190.78C100.09 190.844 99.9362 190.918 99.8042 191.002C99.6762 191.082 99.5642 191.156 99.4682 191.224C99.3762 191.288 99.2842 191.32 99.1922 191.32C99.1202 191.32 99.0582 191.302 99.0062 191.266C98.9542 191.226 98.9102 191.178 98.8742 191.122L98.6822 190.78ZM108.843 190.924C108.795 191.012 108.721 191.056 108.621 191.056C108.561 191.056 108.493 191.034 108.417 190.99C108.341 190.946 108.247 190.898 108.135 190.846C108.027 190.79 107.897 190.74 107.745 190.696C107.593 190.648 107.413 190.624 107.205 190.624C107.025 190.624 106.863 190.648 106.719 190.696C106.575 190.74 106.451 190.802 106.347 190.882C106.247 190.962 106.169 191.056 106.113 191.164C106.061 191.268 106.035 191.382 106.035 191.506C106.035 191.662 106.079 191.792 106.167 191.896C106.259 192 106.379 192.09 106.527 192.166C106.675 192.242 106.843 192.31 107.031 192.37C107.219 192.426 107.411 192.488 107.607 192.556C107.807 192.62 108.001 192.692 108.189 192.772C108.377 192.852 108.545 192.952 108.693 193.072C108.841 193.192 108.959 193.34 109.047 193.516C109.139 193.688 109.185 193.896 109.185 194.14C109.185 194.42 109.135 194.68 109.035 194.92C108.935 195.156 108.787 195.362 108.591 195.538C108.395 195.71 108.155 195.846 107.871 195.946C107.587 196.046 107.259 196.096 106.887 196.096C106.463 196.096 106.079 196.028 105.735 195.892C105.391 195.752 105.099 195.574 104.859 195.358L105.111 194.95C105.143 194.898 105.181 194.858 105.225 194.83C105.269 194.802 105.325 194.788 105.393 194.788C105.465 194.788 105.541 194.816 105.621 194.872C105.701 194.928 105.797 194.99 105.909 195.058C106.025 195.126 106.165 195.188 106.329 195.244C106.493 195.3 106.697 195.328 106.941 195.328C107.149 195.328 107.331 195.302 107.487 195.25C107.643 195.194 107.773 195.12 107.877 195.028C107.981 194.936 108.057 194.83 108.105 194.71C108.157 194.59 108.183 194.462 108.183 194.326C108.183 194.158 108.137 194.02 108.045 193.912C107.957 193.8 107.839 193.706 107.691 193.63C107.543 193.55 107.373 193.482 107.181 193.426C106.993 193.366 106.799 193.304 106.599 193.24C106.403 193.176 106.209 193.104 106.017 193.024C105.829 192.94 105.661 192.836 105.513 192.712C105.365 192.588 105.245 192.436 105.153 192.256C105.065 192.072 105.021 191.85 105.021 191.59C105.021 191.358 105.069 191.136 105.165 190.924C105.261 190.708 105.401 190.52 105.585 190.36C105.769 190.196 105.995 190.066 106.263 189.97C106.531 189.874 106.837 189.826 107.181 189.826C107.581 189.826 107.939 189.89 108.255 190.018C108.575 190.142 108.851 190.314 109.083 190.534L108.843 190.924ZM115.949 195.022V196H111.071V187.402H112.229V195.022H115.949ZM120.777 193.264C120.285 193.28 119.865 193.32 119.517 193.384C119.173 193.444 118.891 193.524 118.671 193.624C118.455 193.724 118.297 193.842 118.197 193.978C118.101 194.114 118.053 194.266 118.053 194.434C118.053 194.594 118.079 194.732 118.131 194.848C118.183 194.964 118.253 195.06 118.341 195.136C118.433 195.208 118.539 195.262 118.659 195.298C118.783 195.33 118.915 195.346 119.055 195.346C119.243 195.346 119.415 195.328 119.571 195.292C119.727 195.252 119.873 195.196 120.009 195.124C120.149 195.052 120.281 194.966 120.405 194.866C120.533 194.766 120.657 194.652 120.777 194.524V193.264ZM117.327 190.78C117.663 190.456 118.025 190.214 118.413 190.054C118.801 189.894 119.231 189.814 119.703 189.814C120.043 189.814 120.345 189.87 120.609 189.982C120.873 190.094 121.095 190.25 121.275 190.45C121.455 190.65 121.591 190.892 121.683 191.176C121.775 191.46 121.821 191.772 121.821 192.112V196H121.347C121.243 196 121.163 195.984 121.107 195.952C121.051 195.916 121.007 195.848 120.975 195.748L120.855 195.172C120.695 195.32 120.539 195.452 120.387 195.568C120.235 195.68 120.075 195.776 119.907 195.856C119.739 195.932 119.559 195.99 119.367 196.03C119.179 196.074 118.969 196.096 118.737 196.096C118.501 196.096 118.279 196.064 118.071 196C117.863 195.932 117.681 195.832 117.525 195.7C117.373 195.568 117.251 195.402 117.159 195.202C117.071 194.998 117.027 194.758 117.027 194.482C117.027 194.242 117.093 194.012 117.225 193.792C117.357 193.568 117.571 193.37 117.867 193.198C118.163 193.026 118.549 192.886 119.025 192.778C119.501 192.666 120.085 192.602 120.777 192.586V192.112C120.777 191.64 120.675 191.284 120.471 191.044C120.267 190.8 119.969 190.678 119.577 190.678C119.313 190.678 119.091 190.712 118.911 190.78C118.735 190.844 118.581 190.918 118.449 191.002C118.321 191.082 118.209 191.156 118.113 191.224C118.021 191.288 117.929 191.32 117.837 191.32C117.765 191.32 117.703 191.302 117.651 191.266C117.599 191.226 117.555 191.178 117.519 191.122L117.327 190.78ZM125.022 194.536C125.218 194.8 125.432 194.986 125.664 195.094C125.9 195.202 126.158 195.256 126.438 195.256C127.01 195.256 127.448 195.054 127.752 194.65C128.056 194.246 128.208 193.644 128.208 192.844C128.208 192.1 128.072 191.554 127.8 191.206C127.532 190.854 127.148 190.678 126.648 190.678C126.3 190.678 125.996 190.758 125.736 190.918C125.48 191.078 125.242 191.304 125.022 191.596V194.536ZM125.022 190.798C125.278 190.502 125.566 190.266 125.886 190.09C126.21 189.914 126.582 189.826 127.002 189.826C127.358 189.826 127.678 189.894 127.962 190.03C128.25 190.166 128.494 190.364 128.694 190.624C128.894 190.88 129.046 191.192 129.15 191.56C129.258 191.928 129.312 192.342 129.312 192.802C129.312 193.294 129.252 193.742 129.132 194.146C129.012 194.55 128.838 194.896 128.61 195.184C128.386 195.468 128.112 195.69 127.788 195.85C127.464 196.006 127.1 196.084 126.696 196.084C126.296 196.084 125.958 196.01 125.682 195.862C125.41 195.71 125.172 195.496 124.968 195.22L124.914 195.772C124.882 195.924 124.79 196 124.638 196H123.948V187.162H125.022V190.798ZM134.702 190.924C134.654 191.012 134.58 191.056 134.48 191.056C134.42 191.056 134.352 191.034 134.276 190.99C134.2 190.946 134.106 190.898 133.994 190.846C133.886 190.79 133.756 190.74 133.604 190.696C133.452 190.648 133.272 190.624 133.064 190.624C132.884 190.624 132.722 190.648 132.578 190.696C132.434 190.74 132.31 190.802 132.206 190.882C132.106 190.962 132.028 191.056 131.972 191.164C131.92 191.268 131.894 191.382 131.894 191.506C131.894 191.662 131.938 191.792 132.026 191.896C132.118 192 132.238 192.09 132.386 192.166C132.534 192.242 132.702 192.31 132.89 192.37C133.078 192.426 133.27 192.488 133.466 192.556C133.666 192.62 133.86 192.692 134.048 192.772C134.236 192.852 134.404 192.952 134.552 193.072C134.7 193.192 134.818 193.34 134.906 193.516C134.998 193.688 135.044 193.896 135.044 194.14C135.044 194.42 134.994 194.68 134.894 194.92C134.794 195.156 134.646 195.362 134.45 195.538C134.254 195.71 134.014 195.846 133.73 195.946C133.446 196.046 133.118 196.096 132.746 196.096C132.322 196.096 131.938 196.028 131.594 195.892C131.25 195.752 130.958 195.574 130.718 195.358L130.97 194.95C131.002 194.898 131.04 194.858 131.084 194.83C131.128 194.802 131.184 194.788 131.252 194.788C131.324 194.788 131.4 194.816 131.48 194.872C131.56 194.928 131.656 194.99 131.768 195.058C131.884 195.126 132.024 195.188 132.188 195.244C132.352 195.3 132.556 195.328 132.8 195.328C133.008 195.328 133.19 195.302 133.346 195.25C133.502 195.194 133.632 195.12 133.736 195.028C133.84 194.936 133.916 194.83 133.964 194.71C134.016 194.59 134.042 194.462 134.042 194.326C134.042 194.158 133.996 194.02 133.904 193.912C133.816 193.8 133.698 193.706 133.55 193.63C133.402 193.55 133.232 193.482 133.04 193.426C132.852 193.366 132.658 193.304 132.458 193.24C132.262 193.176 132.068 193.104 131.876 193.024C131.688 192.94 131.52 192.836 131.372 192.712C131.224 192.588 131.104 192.436 131.012 192.256C130.924 192.072 130.88 191.85 130.88 191.59C130.88 191.358 130.928 191.136 131.024 190.924C131.12 190.708 131.26 190.52 131.444 190.36C131.628 190.196 131.854 190.066 132.122 189.97C132.39 189.874 132.696 189.826 133.04 189.826C133.44 189.826 133.798 189.89 134.114 190.018C134.434 190.142 134.71 190.314 134.942 190.534L134.702 190.924Z" fill="#111111"/>
<path d="M185.116 100.076C185.448 100.076 185.734 100.038 185.974 99.962C186.214 99.886 186.41 99.78 186.562 99.644C186.718 99.504 186.832 99.34 186.904 99.152C186.976 98.96 187.012 98.75 187.012 98.522C187.012 98.078 186.854 97.728 186.538 97.472C186.222 97.212 185.748 97.082 185.116 97.082H183.256V100.076H185.116ZM183.256 93.32V96.254H184.792C185.12 96.254 185.404 96.218 185.644 96.146C185.888 96.074 186.088 95.974 186.244 95.846C186.404 95.718 186.522 95.564 186.598 95.384C186.674 95.2 186.712 95 186.712 94.784C186.712 94.276 186.56 93.906 186.256 93.674C185.952 93.438 185.48 93.32 184.84 93.32H183.256ZM184.84 92.402C185.368 92.402 185.822 92.454 186.202 92.558C186.586 92.662 186.9 92.81 187.144 93.002C187.392 93.194 187.574 93.43 187.69 93.71C187.806 93.986 187.864 94.298 187.864 94.646C187.864 94.858 187.83 95.062 187.762 95.258C187.698 95.45 187.6 95.63 187.468 95.798C187.336 95.966 187.168 96.118 186.964 96.254C186.764 96.386 186.528 96.494 186.256 96.578C186.888 96.698 187.362 96.924 187.678 97.256C187.998 97.584 188.158 98.016 188.158 98.552C188.158 98.916 188.09 99.248 187.954 99.548C187.822 99.848 187.626 100.106 187.366 100.322C187.11 100.538 186.794 100.706 186.418 100.826C186.042 100.942 185.614 101 185.134 101H182.098V92.402H184.84ZM195.18 99.986C195.296 99.986 195.388 100.02 195.456 100.088C195.524 100.156 195.558 100.244 195.558 100.352V101H189.822V100.634C189.822 100.558 189.838 100.48 189.87 100.4C189.902 100.32 189.952 100.246 190.02 100.178L192.774 97.412C193.002 97.18 193.21 96.958 193.398 96.746C193.586 96.53 193.746 96.314 193.878 96.098C194.01 95.882 194.112 95.664 194.184 95.444C194.256 95.22 194.292 94.982 194.292 94.73C194.292 94.478 194.252 94.258 194.172 94.07C194.092 93.878 193.982 93.72 193.842 93.596C193.706 93.472 193.544 93.38 193.356 93.32C193.168 93.256 192.966 93.224 192.75 93.224C192.53 93.224 192.328 93.256 192.144 93.32C191.96 93.384 191.796 93.474 191.652 93.59C191.512 93.702 191.394 93.836 191.298 93.992C191.202 94.148 191.134 94.32 191.094 94.508C191.046 94.648 190.98 94.742 190.896 94.79C190.816 94.834 190.702 94.846 190.554 94.826L189.996 94.73C190.052 94.338 190.16 93.992 190.32 93.692C190.484 93.388 190.688 93.134 190.932 92.93C191.18 92.726 191.462 92.572 191.778 92.468C192.094 92.36 192.436 92.306 192.804 92.306C193.168 92.306 193.508 92.36 193.824 92.468C194.14 92.576 194.414 92.734 194.646 92.942C194.878 93.146 195.06 93.396 195.192 93.692C195.324 93.988 195.39 94.324 195.39 94.7C195.39 95.02 195.342 95.318 195.246 95.594C195.15 95.866 195.02 96.126 194.856 96.374C194.692 96.622 194.502 96.864 194.286 97.1C194.074 97.336 193.848 97.574 193.608 97.814L191.34 100.13C191.5 100.086 191.662 100.052 191.826 100.028C191.99 100 192.148 99.986 192.3 99.986H195.18ZM200.835 100.076C201.167 100.076 201.453 100.038 201.693 99.962C201.933 99.886 202.129 99.78 202.281 99.644C202.437 99.504 202.551 99.34 202.623 99.152C202.695 98.96 202.731 98.75 202.731 98.522C202.731 98.078 202.573 97.728 202.257 97.472C201.941 97.212 201.467 97.082 200.835 97.082H198.975V100.076H200.835ZM198.975 93.32V96.254H200.511C200.839 96.254 201.123 96.218 201.363 96.146C201.607 96.074 201.807 95.974 201.963 95.846C202.123 95.718 202.241 95.564 202.317 95.384C202.393 95.2 202.431 95 202.431 94.784C202.431 94.276 202.279 93.906 201.975 93.674C201.671 93.438 201.199 93.32 200.559 93.32H198.975ZM200.559 92.402C201.087 92.402 201.541 92.454 201.921 92.558C202.305 92.662 202.619 92.81 202.863 93.002C203.111 93.194 203.293 93.43 203.409 93.71C203.525 93.986 203.583 94.298 203.583 94.646C203.583 94.858 203.549 95.062 203.481 95.258C203.417 95.45 203.319 95.63 203.187 95.798C203.055 95.966 202.887 96.118 202.683 96.254C202.483 96.386 202.247 96.494 201.975 96.578C202.607 96.698 203.081 96.924 203.397 97.256C203.717 97.584 203.877 98.016 203.877 98.552C203.877 98.916 203.809 99.248 203.673 99.548C203.541 99.848 203.345 100.106 203.085 100.322C202.829 100.538 202.513 100.706 202.137 100.826C201.761 100.942 201.333 101 200.853 101H197.817V92.402H200.559Z" fill="#111111"/>
<path d="M286.062 193.03C286.062 193.51 286.002 193.94 285.882 194.32C285.766 194.7 285.592 195.022 285.36 195.286C285.132 195.546 284.85 195.746 284.514 195.886C284.178 196.026 283.792 196.096 283.356 196.096C282.96 196.096 282.556 196.04 282.144 195.928C282.152 195.812 282.162 195.698 282.174 195.586C282.186 195.47 282.196 195.356 282.204 195.244C282.212 195.176 282.236 195.122 282.276 195.082C282.32 195.038 282.386 195.016 282.474 195.016C282.546 195.016 282.64 195.034 282.756 195.07C282.876 195.106 283.036 195.124 283.236 195.124C283.5 195.124 283.736 195.084 283.944 195.004C284.152 194.924 284.326 194.8 284.466 194.632C284.606 194.464 284.712 194.25 284.784 193.99C284.86 193.726 284.898 193.414 284.898 193.054V187.402H286.062V193.03ZM293.254 189.922V196H292.618C292.466 196 292.37 195.926 292.33 195.778L292.246 195.124C291.982 195.416 291.686 195.652 291.358 195.832C291.03 196.008 290.654 196.096 290.23 196.096C289.898 196.096 289.604 196.042 289.348 195.934C289.096 195.822 288.884 195.666 288.712 195.466C288.54 195.266 288.41 195.024 288.322 194.74C288.238 194.456 288.196 194.142 288.196 193.798V189.922H289.264V193.798C289.264 194.258 289.368 194.614 289.576 194.866C289.788 195.118 290.11 195.244 290.542 195.244C290.858 195.244 291.152 195.17 291.424 195.022C291.7 194.87 291.954 194.662 292.186 194.398V189.922H293.254ZM295.448 196V189.922H296.09C296.242 189.922 296.336 189.996 296.372 190.144L296.45 190.768C296.674 190.492 296.926 190.266 297.206 190.09C297.486 189.914 297.81 189.826 298.178 189.826C298.586 189.826 298.916 189.94 299.168 190.168C299.424 190.396 299.608 190.704 299.72 191.092C299.808 190.872 299.92 190.682 300.056 190.522C300.196 190.362 300.352 190.23 300.524 190.126C300.696 190.022 300.878 189.946 301.07 189.898C301.266 189.85 301.464 189.826 301.664 189.826C301.984 189.826 302.268 189.878 302.516 189.982C302.768 190.082 302.98 190.23 303.152 190.426C303.328 190.622 303.462 190.864 303.554 191.152C303.646 191.436 303.692 191.762 303.692 192.13V196H302.618V192.13C302.618 191.654 302.514 191.294 302.306 191.05C302.098 190.802 301.798 190.678 301.406 190.678C301.23 190.678 301.062 190.71 300.902 190.774C300.746 190.834 300.608 190.924 300.488 191.044C300.368 191.164 300.272 191.316 300.2 191.5C300.132 191.68 300.098 191.89 300.098 192.13V196H299.024V192.13C299.024 191.642 298.926 191.278 298.73 191.038C298.534 190.798 298.248 190.678 297.872 190.678C297.608 190.678 297.364 190.75 297.14 190.894C296.916 191.034 296.71 191.226 296.522 191.47V196H295.448ZM306.889 187.162V192.364H307.165C307.245 192.364 307.311 192.354 307.363 192.334C307.419 192.31 307.477 192.264 307.537 192.196L309.457 190.138C309.513 190.07 309.571 190.018 309.631 189.982C309.695 189.942 309.779 189.922 309.883 189.922H310.849L308.611 192.304C308.503 192.44 308.387 192.546 308.263 192.622C308.335 192.67 308.399 192.726 308.455 192.79C308.515 192.85 308.571 192.92 308.623 193L310.999 196H310.045C309.953 196 309.873 195.986 309.805 195.958C309.741 195.926 309.685 195.87 309.637 195.79L307.639 193.3C307.579 193.216 307.519 193.162 307.459 193.138C307.403 193.11 307.315 193.096 307.195 193.096H306.889V196H305.815V187.162H306.889ZM316.137 192.298C316.137 192.05 316.101 191.824 316.029 191.62C315.961 191.412 315.859 191.234 315.723 191.086C315.591 190.934 315.429 190.818 315.237 190.738C315.045 190.654 314.827 190.612 314.583 190.612C314.071 190.612 313.665 190.762 313.365 191.062C313.069 191.358 312.885 191.77 312.813 192.298H316.137ZM317.001 195.148C316.869 195.308 316.711 195.448 316.527 195.568C316.343 195.684 316.145 195.78 315.933 195.856C315.725 195.932 315.509 195.988 315.285 196.024C315.061 196.064 314.839 196.084 314.619 196.084C314.199 196.084 313.811 196.014 313.455 195.874C313.103 195.73 312.797 195.522 312.537 195.25C312.281 194.974 312.081 194.634 311.937 194.23C311.793 193.826 311.721 193.362 311.721 192.838C311.721 192.414 311.785 192.018 311.913 191.65C312.045 191.282 312.233 190.964 312.477 190.696C312.721 190.424 313.019 190.212 313.371 190.06C313.723 189.904 314.119 189.826 314.559 189.826C314.923 189.826 315.259 189.888 315.567 190.012C315.879 190.132 316.147 190.308 316.371 190.54C316.599 190.768 316.777 191.052 316.905 191.392C317.033 191.728 317.097 192.112 317.097 192.544C317.097 192.712 317.079 192.824 317.043 192.88C317.007 192.936 316.939 192.964 316.839 192.964H312.777C312.789 193.348 312.841 193.682 312.933 193.966C313.029 194.25 313.161 194.488 313.329 194.68C313.497 194.868 313.697 195.01 313.929 195.106C314.161 195.198 314.421 195.244 314.709 195.244C314.977 195.244 315.207 195.214 315.399 195.154C315.595 195.09 315.763 195.022 315.903 194.95C316.043 194.878 316.159 194.812 316.251 194.752C316.347 194.688 316.429 194.656 316.497 194.656C316.585 194.656 316.653 194.69 316.701 194.758L317.001 195.148ZM324 189.922L320.61 197.794C320.574 197.874 320.528 197.938 320.472 197.986C320.42 198.034 320.338 198.058 320.226 198.058H319.434L320.544 195.646L318.036 189.922H318.96C319.052 189.922 319.124 189.946 319.176 189.994C319.232 190.038 319.27 190.088 319.29 190.144L320.916 193.972C320.98 194.14 321.034 194.316 321.078 194.5C321.134 194.312 321.194 194.134 321.258 193.966L322.836 190.144C322.86 190.08 322.9 190.028 322.956 189.988C323.016 189.944 323.082 189.922 323.154 189.922H324Z" fill="#111111"/>
<path d="M181.044 284.402V293H180.024V286.682C180.024 286.598 180.026 286.508 180.03 286.412C180.038 286.316 180.046 286.218 180.054 286.118L177.102 291.494C177.01 291.674 176.87 291.764 176.682 291.764H176.514C176.326 291.764 176.186 291.674 176.094 291.494L173.082 286.094C173.106 286.306 173.118 286.502 173.118 286.682V293H172.098V284.402H172.956C173.06 284.402 173.14 284.412 173.196 284.432C173.252 284.452 173.306 284.508 173.358 284.6L176.328 289.892C176.376 289.988 176.422 290.088 176.466 290.192C176.514 290.296 176.558 290.402 176.598 290.51C176.638 290.402 176.68 290.296 176.724 290.192C176.768 290.084 176.816 289.982 176.868 289.886L179.784 284.6C179.832 284.508 179.884 284.452 179.94 284.432C180 284.412 180.082 284.402 180.186 284.402H181.044ZM186.609 290.264C186.117 290.28 185.697 290.32 185.349 290.384C185.005 290.444 184.723 290.524 184.503 290.624C184.287 290.724 184.129 290.842 184.029 290.978C183.933 291.114 183.885 291.266 183.885 291.434C183.885 291.594 183.911 291.732 183.963 291.848C184.015 291.964 184.085 292.06 184.173 292.136C184.265 292.208 184.371 292.262 184.491 292.298C184.615 292.33 184.747 292.346 184.887 292.346C185.075 292.346 185.247 292.328 185.403 292.292C185.559 292.252 185.705 292.196 185.841 292.124C185.981 292.052 186.113 291.966 186.237 291.866C186.365 291.766 186.489 291.652 186.609 291.524V290.264ZM183.159 287.78C183.495 287.456 183.857 287.214 184.245 287.054C184.633 286.894 185.063 286.814 185.535 286.814C185.875 286.814 186.177 286.87 186.441 286.982C186.705 287.094 186.927 287.25 187.107 287.45C187.287 287.65 187.423 287.892 187.515 288.176C187.607 288.46 187.653 288.772 187.653 289.112V293H187.179C187.075 293 186.995 292.984 186.939 292.952C186.883 292.916 186.839 292.848 186.807 292.748L186.687 292.172C186.527 292.32 186.371 292.452 186.219 292.568C186.067 292.68 185.907 292.776 185.739 292.856C185.571 292.932 185.391 292.99 185.199 293.03C185.011 293.074 184.801 293.096 184.569 293.096C184.333 293.096 184.111 293.064 183.903 293C183.695 292.932 183.513 292.832 183.357 292.7C183.205 292.568 183.083 292.402 182.991 292.202C182.903 291.998 182.859 291.758 182.859 291.482C182.859 291.242 182.925 291.012 183.057 290.792C183.189 290.568 183.403 290.37 183.699 290.198C183.995 290.026 184.381 289.886 184.857 289.778C185.333 289.666 185.917 289.602 186.609 289.586V289.112C186.609 288.64 186.507 288.284 186.303 288.044C186.099 287.8 185.801 287.678 185.409 287.678C185.145 287.678 184.923 287.712 184.743 287.78C184.567 287.844 184.413 287.918 184.281 288.002C184.153 288.082 184.041 288.156 183.945 288.224C183.853 288.288 183.761 288.32 183.669 288.32C183.597 288.32 183.535 288.302 183.483 288.266C183.431 288.226 183.387 288.178 183.351 288.122L183.159 287.78ZM190.788 287.804C190.92 287.656 191.06 287.522 191.208 287.402C191.356 287.282 191.512 287.18 191.676 287.096C191.844 287.008 192.02 286.942 192.204 286.898C192.392 286.85 192.594 286.826 192.81 286.826C193.142 286.826 193.434 286.882 193.686 286.994C193.942 287.102 194.154 287.258 194.322 287.462C194.494 287.662 194.624 287.904 194.712 288.188C194.8 288.472 194.844 288.786 194.844 289.13V293H193.77V289.13C193.77 288.67 193.664 288.314 193.452 288.062C193.244 287.806 192.926 287.678 192.498 287.678C192.182 287.678 191.886 287.754 191.61 287.906C191.338 288.058 191.086 288.264 190.854 288.524V293H189.78V286.922H190.422C190.574 286.922 190.668 286.996 190.704 287.144L190.788 287.804ZM201.969 286.922V293H201.333C201.181 293 201.085 292.926 201.045 292.778L200.961 292.124C200.697 292.416 200.401 292.652 200.073 292.832C199.745 293.008 199.369 293.096 198.945 293.096C198.613 293.096 198.319 293.042 198.063 292.934C197.811 292.822 197.599 292.666 197.427 292.466C197.255 292.266 197.125 292.024 197.037 291.74C196.953 291.456 196.911 291.142 196.911 290.798V286.922H197.979V290.798C197.979 291.258 198.083 291.614 198.291 291.866C198.503 292.118 198.825 292.244 199.257 292.244C199.573 292.244 199.867 292.17 200.139 292.022C200.415 291.87 200.669 291.662 200.901 291.398V286.922H201.969ZM207.456 290.264C206.964 290.28 206.544 290.32 206.196 290.384C205.852 290.444 205.57 290.524 205.35 290.624C205.134 290.724 204.976 290.842 204.876 290.978C204.78 291.114 204.732 291.266 204.732 291.434C204.732 291.594 204.758 291.732 204.81 291.848C204.862 291.964 204.932 292.06 205.02 292.136C205.112 292.208 205.218 292.262 205.338 292.298C205.462 292.33 205.594 292.346 205.734 292.346C205.922 292.346 206.094 292.328 206.25 292.292C206.406 292.252 206.552 292.196 206.688 292.124C206.828 292.052 206.96 291.966 207.084 291.866C207.212 291.766 207.336 291.652 207.456 291.524V290.264ZM204.006 287.78C204.342 287.456 204.704 287.214 205.092 287.054C205.48 286.894 205.91 286.814 206.382 286.814C206.722 286.814 207.024 286.87 207.288 286.982C207.552 287.094 207.774 287.25 207.954 287.45C208.134 287.65 208.27 287.892 208.362 288.176C208.454 288.46 208.5 288.772 208.5 289.112V293H208.026C207.922 293 207.842 292.984 207.786 292.952C207.73 292.916 207.686 292.848 207.654 292.748L207.534 292.172C207.374 292.32 207.218 292.452 207.066 292.568C206.914 292.68 206.754 292.776 206.586 292.856C206.418 292.932 206.238 292.99 206.046 293.03C205.858 293.074 205.648 293.096 205.416 293.096C205.18 293.096 204.958 293.064 204.75 293C204.542 292.932 204.36 292.832 204.204 292.7C204.052 292.568 203.93 292.402 203.838 292.202C203.75 291.998 203.706 291.758 203.706 291.482C203.706 291.242 203.772 291.012 203.904 290.792C204.036 290.568 204.25 290.37 204.546 290.198C204.842 290.026 205.228 289.886 205.704 289.778C206.18 289.666 206.764 289.602 207.456 289.586V289.112C207.456 288.64 207.354 288.284 207.15 288.044C206.946 287.8 206.648 287.678 206.256 287.678C205.992 287.678 205.77 287.712 205.59 287.78C205.414 287.844 205.26 287.918 205.128 288.002C205 288.082 204.888 288.156 204.792 288.224C204.7 288.288 204.608 288.32 204.516 288.32C204.444 288.32 204.382 288.302 204.33 288.266C204.278 288.226 204.234 288.178 204.198 288.122L204.006 287.78ZM211.731 284.162V293H210.663V284.162H211.731Z" fill="#111111"/>
<path d="M182.023 206.566C182.359 206.566 182.655 206.526 182.911 206.446C183.171 206.362 183.387 206.246 183.559 206.098C183.735 205.946 183.867 205.766 183.955 205.558C184.043 205.35 184.087 205.12 184.087 204.868C184.087 204.356 183.919 203.97 183.583 203.71C183.247 203.45 182.743 203.32 182.071 203.32H180.799V206.566H182.023ZM185.995 211H184.963C184.751 211 184.595 210.918 184.495 210.754L182.263 207.682C182.195 207.586 182.121 207.518 182.041 207.478C181.965 207.434 181.845 207.412 181.681 207.412H180.799V211H179.641V202.402H182.071C182.615 202.402 183.085 202.458 183.481 202.57C183.877 202.678 184.203 202.836 184.459 203.044C184.719 203.252 184.911 203.504 185.035 203.8C185.159 204.092 185.221 204.42 185.221 204.784C185.221 205.088 185.173 205.372 185.077 205.636C184.981 205.9 184.841 206.138 184.657 206.35C184.477 206.558 184.255 206.736 183.991 206.884C183.731 207.032 183.435 207.144 183.103 207.22C183.251 207.304 183.379 207.426 183.487 207.586L185.995 211ZM191.094 207.298C191.094 207.05 191.058 206.824 190.986 206.62C190.918 206.412 190.816 206.234 190.68 206.086C190.548 205.934 190.386 205.818 190.194 205.738C190.002 205.654 189.784 205.612 189.54 205.612C189.028 205.612 188.622 205.762 188.322 206.062C188.026 206.358 187.842 206.77 187.77 207.298H191.094ZM191.958 210.148C191.826 210.308 191.668 210.448 191.484 210.568C191.3 210.684 191.102 210.78 190.89 210.856C190.682 210.932 190.466 210.988 190.242 211.024C190.018 211.064 189.796 211.084 189.576 211.084C189.156 211.084 188.768 211.014 188.412 210.874C188.06 210.73 187.754 210.522 187.494 210.25C187.238 209.974 187.038 209.634 186.894 209.23C186.75 208.826 186.678 208.362 186.678 207.838C186.678 207.414 186.742 207.018 186.87 206.65C187.002 206.282 187.19 205.964 187.434 205.696C187.678 205.424 187.976 205.212 188.328 205.06C188.68 204.904 189.076 204.826 189.516 204.826C189.88 204.826 190.216 204.888 190.524 205.012C190.836 205.132 191.104 205.308 191.328 205.54C191.556 205.768 191.734 206.052 191.862 206.392C191.99 206.728 192.054 207.112 192.054 207.544C192.054 207.712 192.036 207.824 192 207.88C191.964 207.936 191.896 207.964 191.796 207.964H187.734C187.746 208.348 187.798 208.682 187.89 208.966C187.986 209.25 188.118 209.488 188.286 209.68C188.454 209.868 188.654 210.01 188.886 210.106C189.118 210.198 189.378 210.244 189.666 210.244C189.934 210.244 190.164 210.214 190.356 210.154C190.552 210.09 190.72 210.022 190.86 209.95C191 209.878 191.116 209.812 191.208 209.752C191.304 209.688 191.386 209.656 191.454 209.656C191.542 209.656 191.61 209.69 191.658 209.758L191.958 210.148ZM195.685 211.096C195.205 211.096 194.835 210.962 194.575 210.694C194.319 210.426 194.191 210.04 194.191 209.536V205.816H193.459C193.395 205.816 193.341 205.798 193.297 205.762C193.253 205.722 193.231 205.662 193.231 205.582V205.156L194.227 205.03L194.473 203.152C194.485 203.092 194.511 203.044 194.551 203.008C194.595 202.968 194.651 202.948 194.719 202.948H195.259V205.042H197.017V205.816H195.259V209.464C195.259 209.72 195.321 209.91 195.445 210.034C195.569 210.158 195.729 210.22 195.925 210.22C196.037 210.22 196.133 210.206 196.213 210.178C196.297 210.146 196.369 210.112 196.429 210.076C196.489 210.04 196.539 210.008 196.579 209.98C196.623 209.948 196.661 209.932 196.693 209.932C196.749 209.932 196.799 209.966 196.843 210.034L197.155 210.544C196.971 210.716 196.749 210.852 196.489 210.952C196.229 211.048 195.961 211.096 195.685 211.096ZM201.913 208.264C201.421 208.28 201.001 208.32 200.653 208.384C200.309 208.444 200.027 208.524 199.807 208.624C199.591 208.724 199.433 208.842 199.333 208.978C199.237 209.114 199.189 209.266 199.189 209.434C199.189 209.594 199.215 209.732 199.267 209.848C199.319 209.964 199.389 210.06 199.477 210.136C199.569 210.208 199.675 210.262 199.795 210.298C199.919 210.33 200.051 210.346 200.191 210.346C200.379 210.346 200.551 210.328 200.707 210.292C200.863 210.252 201.009 210.196 201.145 210.124C201.285 210.052 201.417 209.966 201.541 209.866C201.669 209.766 201.793 209.652 201.913 209.524V208.264ZM198.463 205.78C198.799 205.456 199.161 205.214 199.549 205.054C199.937 204.894 200.367 204.814 200.839 204.814C201.179 204.814 201.481 204.87 201.745 204.982C202.009 205.094 202.231 205.25 202.411 205.45C202.591 205.65 202.727 205.892 202.819 206.176C202.911 206.46 202.957 206.772 202.957 207.112V211H202.483C202.379 211 202.299 210.984 202.243 210.952C202.187 210.916 202.143 210.848 202.111 210.748L201.991 210.172C201.831 210.32 201.675 210.452 201.523 210.568C201.371 210.68 201.211 210.776 201.043 210.856C200.875 210.932 200.695 210.99 200.503 211.03C200.315 211.074 200.105 211.096 199.873 211.096C199.637 211.096 199.415 211.064 199.207 211C198.999 210.932 198.817 210.832 198.661 210.7C198.509 210.568 198.387 210.402 198.295 210.202C198.207 209.998 198.163 209.758 198.163 209.482C198.163 209.242 198.229 209.012 198.361 208.792C198.493 208.568 198.707 208.37 199.003 208.198C199.299 208.026 199.685 207.886 200.161 207.778C200.637 207.666 201.221 207.602 201.913 207.586V207.112C201.913 206.64 201.811 206.284 201.607 206.044C201.403 205.8 201.105 205.678 200.713 205.678C200.449 205.678 200.227 205.712 200.047 205.78C199.871 205.844 199.717 205.918 199.585 206.002C199.457 206.082 199.345 206.156 199.249 206.224C199.157 206.288 199.065 206.32 198.973 206.32C198.901 206.32 198.839 206.302 198.787 206.266C198.735 206.226 198.691 206.178 198.655 206.122L198.463 205.78ZM206.212 204.922V211H205.144V204.922H206.212ZM206.44 203.014C206.44 203.118 206.418 203.216 206.374 203.308C206.334 203.396 206.278 203.476 206.206 203.548C206.138 203.616 206.056 203.67 205.96 203.71C205.868 203.75 205.77 203.77 205.666 203.77C205.562 203.77 205.464 203.75 205.372 203.71C205.284 203.67 205.206 203.616 205.138 203.548C205.07 203.476 205.016 203.396 204.976 203.308C204.936 203.216 204.916 203.118 204.916 203.014C204.916 202.91 204.936 202.812 204.976 202.72C205.016 202.624 205.07 202.542 205.138 202.474C205.206 202.402 205.284 202.346 205.372 202.306C205.464 202.266 205.562 202.246 205.666 202.246C205.77 202.246 205.868 202.266 205.96 202.306C206.056 202.346 206.138 202.402 206.206 202.474C206.278 202.542 206.334 202.624 206.374 202.72C206.418 202.812 206.44 202.91 206.44 203.014ZM209.571 202.162V211H208.503V202.162H209.571ZM180.276 216.402L176.772 225H175.728L172.224 216.402H173.154C173.258 216.402 173.342 216.428 173.406 216.48C173.47 216.532 173.518 216.598 173.55 216.678L175.974 222.744C176.026 222.88 176.076 223.028 176.124 223.188C176.176 223.348 176.222 223.516 176.262 223.692C176.302 223.516 176.344 223.348 176.388 223.188C176.432 223.028 176.48 222.88 176.532 222.744L178.95 216.678C178.974 216.61 179.02 216.548 179.088 216.492C179.16 216.432 179.246 216.402 179.346 216.402H180.276ZM184.82 221.298C184.82 221.05 184.784 220.824 184.712 220.62C184.644 220.412 184.542 220.234 184.406 220.086C184.274 219.934 184.112 219.818 183.92 219.738C183.728 219.654 183.51 219.612 183.266 219.612C182.754 219.612 182.348 219.762 182.048 220.062C181.752 220.358 181.568 220.77 181.496 221.298H184.82ZM185.684 224.148C185.552 224.308 185.394 224.448 185.21 224.568C185.026 224.684 184.828 224.78 184.616 224.856C184.408 224.932 184.192 224.988 183.968 225.024C183.744 225.064 183.522 225.084 183.302 225.084C182.882 225.084 182.494 225.014 182.138 224.874C181.786 224.73 181.48 224.522 181.22 224.25C180.964 223.974 180.764 223.634 180.62 223.23C180.476 222.826 180.404 222.362 180.404 221.838C180.404 221.414 180.468 221.018 180.596 220.65C180.728 220.282 180.916 219.964 181.16 219.696C181.404 219.424 181.702 219.212 182.054 219.06C182.406 218.904 182.802 218.826 183.242 218.826C183.606 218.826 183.942 218.888 184.25 219.012C184.562 219.132 184.83 219.308 185.054 219.54C185.282 219.768 185.46 220.052 185.588 220.392C185.716 220.728 185.78 221.112 185.78 221.544C185.78 221.712 185.762 221.824 185.726 221.88C185.69 221.936 185.622 221.964 185.522 221.964H181.46C181.472 222.348 181.524 222.682 181.616 222.966C181.712 223.25 181.844 223.488 182.012 223.68C182.18 223.868 182.38 224.01 182.612 224.106C182.844 224.198 183.104 224.244 183.392 224.244C183.66 224.244 183.89 224.214 184.082 224.154C184.278 224.09 184.446 224.022 184.586 223.95C184.726 223.878 184.842 223.812 184.934 223.752C185.03 223.688 185.112 223.656 185.18 223.656C185.268 223.656 185.336 223.69 185.384 223.758L185.684 224.148ZM188.6 219.804C188.732 219.656 188.872 219.522 189.02 219.402C189.168 219.282 189.324 219.18 189.488 219.096C189.656 219.008 189.832 218.942 190.016 218.898C190.204 218.85 190.406 218.826 190.622 218.826C190.954 218.826 191.246 218.882 191.498 218.994C191.754 219.102 191.966 219.258 192.134 219.462C192.306 219.662 192.436 219.904 192.524 220.188C192.612 220.472 192.656 220.786 192.656 221.13V225H191.582V221.13C191.582 220.67 191.476 220.314 191.264 220.062C191.056 219.806 190.738 219.678 190.31 219.678C189.994 219.678 189.698 219.754 189.422 219.906C189.15 220.058 188.898 220.264 188.666 220.524V225H187.592V218.922H188.234C188.386 218.922 188.48 218.996 188.516 219.144L188.6 219.804ZM196.567 225.096C196.087 225.096 195.717 224.962 195.457 224.694C195.201 224.426 195.073 224.04 195.073 223.536V219.816H194.341C194.277 219.816 194.223 219.798 194.179 219.762C194.135 219.722 194.113 219.662 194.113 219.582V219.156L195.109 219.03L195.355 217.152C195.367 217.092 195.393 217.044 195.433 217.008C195.477 216.968 195.533 216.948 195.601 216.948H196.141V219.042H197.899V219.816H196.141V223.464C196.141 223.72 196.203 223.91 196.327 224.034C196.451 224.158 196.611 224.22 196.807 224.22C196.919 224.22 197.015 224.206 197.095 224.178C197.179 224.146 197.251 224.112 197.311 224.076C197.371 224.04 197.421 224.008 197.461 223.98C197.505 223.948 197.543 223.932 197.575 223.932C197.631 223.932 197.681 223.966 197.725 224.034L198.037 224.544C197.853 224.716 197.631 224.852 197.371 224.952C197.111 225.048 196.843 225.096 196.567 225.096ZM204.5 218.922V225H203.864C203.712 225 203.616 224.926 203.576 224.778L203.492 224.124C203.228 224.416 202.932 224.652 202.604 224.832C202.276 225.008 201.9 225.096 201.476 225.096C201.144 225.096 200.85 225.042 200.594 224.934C200.342 224.822 200.13 224.666 199.958 224.466C199.786 224.266 199.656 224.024 199.568 223.74C199.484 223.456 199.442 223.142 199.442 222.798V218.922H200.51V222.798C200.51 223.258 200.614 223.614 200.822 223.866C201.034 224.118 201.356 224.244 201.788 224.244C202.104 224.244 202.398 224.17 202.67 224.022C202.946 223.87 203.2 223.662 203.432 223.398V218.922H204.5ZM207.708 220.14C207.9 219.724 208.136 219.4 208.416 219.168C208.696 218.932 209.038 218.814 209.442 218.814C209.57 218.814 209.692 218.828 209.808 218.856C209.928 218.884 210.034 218.928 210.126 218.988L210.048 219.786C210.024 219.886 209.964 219.936 209.868 219.936C209.812 219.936 209.73 219.924 209.622 219.9C209.514 219.876 209.392 219.864 209.256 219.864C209.064 219.864 208.892 219.892 208.74 219.948C208.592 220.004 208.458 220.088 208.338 220.2C208.222 220.308 208.116 220.444 208.02 220.608C207.928 220.768 207.844 220.952 207.768 221.16V225H206.694V218.922H207.306C207.422 218.922 207.502 218.944 207.546 218.988C207.59 219.032 207.62 219.108 207.636 219.216L207.708 220.14ZM215.387 221.298C215.387 221.05 215.351 220.824 215.279 220.62C215.211 220.412 215.109 220.234 214.973 220.086C214.841 219.934 214.679 219.818 214.487 219.738C214.295 219.654 214.077 219.612 213.833 219.612C213.321 219.612 212.915 219.762 212.615 220.062C212.319 220.358 212.135 220.77 212.063 221.298H215.387ZM216.251 224.148C216.119 224.308 215.961 224.448 215.777 224.568C215.593 224.684 215.395 224.78 215.183 224.856C214.975 224.932 214.759 224.988 214.535 225.024C214.311 225.064 214.089 225.084 213.869 225.084C213.449 225.084 213.061 225.014 212.705 224.874C212.353 224.73 212.047 224.522 211.787 224.25C211.531 223.974 211.331 223.634 211.187 223.23C211.043 222.826 210.971 222.362 210.971 221.838C210.971 221.414 211.035 221.018 211.163 220.65C211.295 220.282 211.483 219.964 211.727 219.696C211.971 219.424 212.269 219.212 212.621 219.06C212.973 218.904 213.369 218.826 213.809 218.826C214.173 218.826 214.509 218.888 214.817 219.012C215.129 219.132 215.397 219.308 215.621 219.54C215.849 219.768 216.027 220.052 216.155 220.392C216.283 220.728 216.347 221.112 216.347 221.544C216.347 221.712 216.329 221.824 216.293 221.88C216.257 221.936 216.189 221.964 216.089 221.964H212.027C212.039 222.348 212.091 222.682 212.183 222.966C212.279 223.25 212.411 223.488 212.579 223.68C212.747 223.868 212.947 224.01 213.179 224.106C213.411 224.198 213.671 224.244 213.959 224.244C214.227 224.244 214.457 224.214 214.649 224.154C214.845 224.09 215.013 224.022 215.153 223.95C215.293 223.878 215.409 223.812 215.501 223.752C215.597 223.688 215.679 223.656 215.747 223.656C215.835 223.656 215.903 223.69 215.951 223.758L216.251 224.148Z" fill="#111111"/>
<path d="M398.249 100.076C398.581 100.076 398.867 100.038 399.107 99.962C399.347 99.886 399.543 99.78 399.695 99.644C399.851 99.504 399.965 99.34 400.037 99.152C400.109 98.96 400.145 98.75 400.145 98.522C400.145 98.078 399.987 97.728 399.671 97.472C399.355 97.212 398.881 97.082 398.249 97.082H396.389V100.076H398.249ZM396.389 93.32V96.254H397.925C398.253 96.254 398.537 96.218 398.777 96.146C399.021 96.074 399.221 95.974 399.377 95.846C399.537 95.718 399.655 95.564 399.731 95.384C399.807 95.2 399.845 95 399.845 94.784C399.845 94.276 399.693 93.906 399.389 93.674C399.085 93.438 398.613 93.32 397.973 93.32H396.389ZM397.973 92.402C398.501 92.402 398.955 92.454 399.335 92.558C399.719 92.662 400.033 92.81 400.277 93.002C400.525 93.194 400.707 93.43 400.823 93.71C400.939 93.986 400.997 94.298 400.997 94.646C400.997 94.858 400.963 95.062 400.895 95.258C400.831 95.45 400.733 95.63 400.601 95.798C400.469 95.966 400.301 96.118 400.097 96.254C399.897 96.386 399.661 96.494 399.389 96.578C400.021 96.698 400.495 96.924 400.811 97.256C401.131 97.584 401.291 98.016 401.291 98.552C401.291 98.916 401.223 99.248 401.087 99.548C400.955 99.848 400.759 100.106 400.499 100.322C400.243 100.538 399.927 100.706 399.551 100.826C399.175 100.942 398.747 101 398.267 101H395.231V92.402H397.973ZM408.313 99.986C408.429 99.986 408.521 100.02 408.589 100.088C408.657 100.156 408.691 100.244 408.691 100.352V101H402.955V100.634C402.955 100.558 402.971 100.48 403.003 100.4C403.035 100.32 403.085 100.246 403.153 100.178L405.907 97.412C406.135 97.18 406.343 96.958 406.531 96.746C406.719 96.53 406.879 96.314 407.011 96.098C407.143 95.882 407.245 95.664 407.317 95.444C407.389 95.22 407.425 94.982 407.425 94.73C407.425 94.478 407.385 94.258 407.305 94.07C407.225 93.878 407.115 93.72 406.975 93.596C406.839 93.472 406.677 93.38 406.489 93.32C406.301 93.256 406.099 93.224 405.883 93.224C405.663 93.224 405.461 93.256 405.277 93.32C405.093 93.384 404.929 93.474 404.785 93.59C404.645 93.702 404.527 93.836 404.431 93.992C404.335 94.148 404.267 94.32 404.227 94.508C404.179 94.648 404.113 94.742 404.029 94.79C403.949 94.834 403.835 94.846 403.687 94.826L403.129 94.73C403.185 94.338 403.293 93.992 403.453 93.692C403.617 93.388 403.821 93.134 404.065 92.93C404.313 92.726 404.595 92.572 404.911 92.468C405.227 92.36 405.569 92.306 405.937 92.306C406.301 92.306 406.641 92.36 406.957 92.468C407.273 92.576 407.547 92.734 407.779 92.942C408.011 93.146 408.193 93.396 408.325 93.692C408.457 93.988 408.523 94.324 408.523 94.7C408.523 95.02 408.475 95.318 408.379 95.594C408.283 95.866 408.153 96.126 407.989 96.374C407.825 96.622 407.635 96.864 407.419 97.1C407.207 97.336 406.981 97.574 406.741 97.814L404.473 100.13C404.633 100.086 404.795 100.052 404.959 100.028C405.123 100 405.281 99.986 405.433 99.986H408.313ZM416.986 99.224C417.05 99.224 417.106 99.25 417.154 99.302L417.616 99.8C417.264 100.208 416.836 100.526 416.332 100.754C415.832 100.982 415.226 101.096 414.514 101.096C413.898 101.096 413.338 100.99 412.834 100.778C412.33 100.562 411.9 100.262 411.544 99.878C411.188 99.49 410.912 99.026 410.716 98.486C410.52 97.946 410.422 97.352 410.422 96.704C410.422 96.056 410.524 95.462 410.728 94.922C410.932 94.382 411.218 93.918 411.586 93.53C411.958 93.142 412.402 92.842 412.918 92.63C413.434 92.414 414.004 92.306 414.628 92.306C415.24 92.306 415.78 92.404 416.248 92.6C416.716 92.796 417.128 93.062 417.484 93.398L417.1 93.932C417.076 93.972 417.044 94.006 417.004 94.034C416.968 94.058 416.918 94.07 416.854 94.07C416.782 94.07 416.694 94.032 416.59 93.956C416.486 93.876 416.35 93.788 416.182 93.692C416.014 93.596 415.804 93.51 415.552 93.434C415.3 93.354 414.99 93.314 414.622 93.314C414.178 93.314 413.772 93.392 413.404 93.548C413.036 93.7 412.718 93.922 412.45 94.214C412.186 94.506 411.98 94.862 411.832 95.282C411.684 95.702 411.61 96.176 411.61 96.704C411.61 97.24 411.686 97.718 411.838 98.138C411.994 98.558 412.204 98.914 412.468 99.206C412.736 99.494 413.05 99.714 413.41 99.866C413.774 100.018 414.166 100.094 414.586 100.094C414.842 100.094 415.072 100.08 415.276 100.052C415.484 100.02 415.674 99.972 415.846 99.908C416.022 99.844 416.184 99.764 416.332 99.668C416.484 99.568 416.634 99.45 416.782 99.314C416.85 99.254 416.918 99.224 416.986 99.224Z" fill="#F3FDE7"/>
<path d="M379.762 289.808L378.412 286.31C378.372 286.206 378.33 286.086 378.286 285.95C378.242 285.81 378.2 285.662 378.16 285.506C378.076 285.83 377.99 286.1 377.902 286.316L376.552 289.808H379.762ZM382.186 293H381.286C381.182 293 381.098 292.974 381.034 292.922C380.97 292.87 380.922 292.804 380.89 292.724L380.086 290.648H376.228L375.424 292.724C375.4 292.796 375.354 292.86 375.286 292.916C375.218 292.972 375.134 293 375.034 293H374.134L377.572 284.402H378.748L382.186 293ZM388.41 286.922V293H387.774C387.622 293 387.526 292.926 387.486 292.778L387.402 292.124C387.138 292.416 386.842 292.652 386.514 292.832C386.186 293.008 385.81 293.096 385.386 293.096C385.054 293.096 384.76 293.042 384.504 292.934C384.252 292.822 384.04 292.666 383.868 292.466C383.696 292.266 383.566 292.024 383.478 291.74C383.394 291.456 383.352 291.142 383.352 290.798V286.922H384.42V290.798C384.42 291.258 384.524 291.614 384.732 291.866C384.944 292.118 385.266 292.244 385.698 292.244C386.014 292.244 386.308 292.17 386.58 292.022C386.856 291.87 387.11 291.662 387.342 291.398V286.922H388.41ZM392.47 293.096C391.99 293.096 391.62 292.962 391.36 292.694C391.104 292.426 390.976 292.04 390.976 291.536V287.816H390.244C390.18 287.816 390.126 287.798 390.082 287.762C390.038 287.722 390.016 287.662 390.016 287.582V287.156L391.012 287.03L391.258 285.152C391.27 285.092 391.296 285.044 391.336 285.008C391.38 284.968 391.436 284.948 391.504 284.948H392.044V287.042H393.802V287.816H392.044V291.464C392.044 291.72 392.106 291.91 392.23 292.034C392.354 292.158 392.514 292.22 392.71 292.22C392.822 292.22 392.918 292.206 392.998 292.178C393.082 292.146 393.154 292.112 393.214 292.076C393.274 292.04 393.324 292.008 393.364 291.98C393.408 291.948 393.446 291.932 393.478 291.932C393.534 291.932 393.584 291.966 393.628 292.034L393.94 292.544C393.756 292.716 393.534 292.852 393.274 292.952C393.014 293.048 392.746 293.096 392.47 293.096ZM397.931 286.826C398.375 286.826 398.775 286.9 399.131 287.048C399.487 287.196 399.791 287.406 400.043 287.678C400.295 287.95 400.487 288.28 400.619 288.668C400.755 289.052 400.823 289.482 400.823 289.958C400.823 290.438 400.755 290.87 400.619 291.254C400.487 291.638 400.295 291.966 400.043 292.238C399.791 292.51 399.487 292.72 399.131 292.868C398.775 293.012 398.375 293.084 397.931 293.084C397.483 293.084 397.079 293.012 396.719 292.868C396.363 292.72 396.059 292.51 395.807 292.238C395.555 291.966 395.361 291.638 395.225 291.254C395.093 290.87 395.027 290.438 395.027 289.958C395.027 289.482 395.093 289.052 395.225 288.668C395.361 288.28 395.555 287.95 395.807 287.678C396.059 287.406 396.363 287.196 396.719 287.048C397.079 286.9 397.483 286.826 397.931 286.826ZM397.931 292.25C398.531 292.25 398.979 292.05 399.275 291.65C399.571 291.246 399.719 290.684 399.719 289.964C399.719 289.24 399.571 288.676 399.275 288.272C398.979 287.868 398.531 287.666 397.931 287.666C397.627 287.666 397.361 287.718 397.133 287.822C396.909 287.926 396.721 288.076 396.569 288.272C396.421 288.468 396.309 288.71 396.233 288.998C396.161 289.282 396.125 289.604 396.125 289.964C396.125 290.684 396.273 291.246 396.569 291.65C396.869 292.05 397.323 292.25 397.931 292.25ZM402.678 293V286.922H403.32C403.472 286.922 403.566 286.996 403.602 287.144L403.68 287.768C403.904 287.492 404.156 287.266 404.436 287.09C404.716 286.914 405.04 286.826 405.408 286.826C405.816 286.826 406.146 286.94 406.398 287.168C406.654 287.396 406.838 287.704 406.95 288.092C407.038 287.872 407.15 287.682 407.286 287.522C407.426 287.362 407.582 287.23 407.754 287.126C407.926 287.022 408.108 286.946 408.3 286.898C408.496 286.85 408.694 286.826 408.894 286.826C409.214 286.826 409.498 286.878 409.746 286.982C409.998 287.082 410.21 287.23 410.382 287.426C410.558 287.622 410.692 287.864 410.784 288.152C410.876 288.436 410.922 288.762 410.922 289.13V293H409.848V289.13C409.848 288.654 409.744 288.294 409.536 288.05C409.328 287.802 409.028 287.678 408.636 287.678C408.46 287.678 408.292 287.71 408.132 287.774C407.976 287.834 407.838 287.924 407.718 288.044C407.598 288.164 407.502 288.316 407.43 288.5C407.362 288.68 407.328 288.89 407.328 289.13V293H406.254V289.13C406.254 288.642 406.156 288.278 405.96 288.038C405.764 287.798 405.478 287.678 405.102 287.678C404.838 287.678 404.594 287.75 404.37 287.894C404.146 288.034 403.94 288.226 403.752 288.47V293H402.678ZM416.339 290.264C415.847 290.28 415.427 290.32 415.079 290.384C414.735 290.444 414.453 290.524 414.233 290.624C414.017 290.724 413.859 290.842 413.759 290.978C413.663 291.114 413.615 291.266 413.615 291.434C413.615 291.594 413.641 291.732 413.693 291.848C413.745 291.964 413.815 292.06 413.903 292.136C413.995 292.208 414.101 292.262 414.221 292.298C414.345 292.33 414.477 292.346 414.617 292.346C414.805 292.346 414.977 292.328 415.133 292.292C415.289 292.252 415.435 292.196 415.571 292.124C415.711 292.052 415.843 291.966 415.967 291.866C416.095 291.766 416.219 291.652 416.339 291.524V290.264ZM412.889 287.78C413.225 287.456 413.587 287.214 413.975 287.054C414.363 286.894 414.793 286.814 415.265 286.814C415.605 286.814 415.907 286.87 416.171 286.982C416.435 287.094 416.657 287.25 416.837 287.45C417.017 287.65 417.153 287.892 417.245 288.176C417.337 288.46 417.383 288.772 417.383 289.112V293H416.909C416.805 293 416.725 292.984 416.669 292.952C416.613 292.916 416.569 292.848 416.537 292.748L416.417 292.172C416.257 292.32 416.101 292.452 415.949 292.568C415.797 292.68 415.637 292.776 415.469 292.856C415.301 292.932 415.121 292.99 414.929 293.03C414.741 293.074 414.531 293.096 414.299 293.096C414.063 293.096 413.841 293.064 413.633 293C413.425 292.932 413.243 292.832 413.087 292.7C412.935 292.568 412.813 292.402 412.721 292.202C412.633 291.998 412.589 291.758 412.589 291.482C412.589 291.242 412.655 291.012 412.787 290.792C412.919 290.568 413.133 290.37 413.429 290.198C413.725 290.026 414.111 289.886 414.587 289.778C415.063 289.666 415.647 289.602 416.339 289.586V289.112C416.339 288.64 416.237 288.284 416.033 288.044C415.829 287.8 415.531 287.678 415.139 287.678C414.875 287.678 414.653 287.712 414.473 287.78C414.297 287.844 414.143 287.918 414.011 288.002C413.883 288.082 413.771 288.156 413.675 288.224C413.583 288.288 413.491 288.32 413.399 288.32C413.327 288.32 413.265 288.302 413.213 288.266C413.161 288.226 413.117 288.178 413.081 288.122L412.889 287.78ZM421.294 293.096C420.814 293.096 420.444 292.962 420.184 292.694C419.928 292.426 419.8 292.04 419.8 291.536V287.816H419.068C419.004 287.816 418.95 287.798 418.906 287.762C418.862 287.722 418.84 287.662 418.84 287.582V287.156L419.836 287.03L420.082 285.152C420.094 285.092 420.12 285.044 420.16 285.008C420.204 284.968 420.26 284.948 420.328 284.948H420.868V287.042H422.626V287.816H420.868V291.464C420.868 291.72 420.93 291.91 421.054 292.034C421.178 292.158 421.338 292.22 421.534 292.22C421.646 292.22 421.742 292.206 421.822 292.178C421.906 292.146 421.978 292.112 422.038 292.076C422.098 292.04 422.148 292.008 422.188 291.98C422.232 291.948 422.27 291.932 422.302 291.932C422.358 291.932 422.408 291.966 422.452 292.034L422.764 292.544C422.58 292.716 422.358 292.852 422.098 292.952C421.838 293.048 421.57 293.096 421.294 293.096ZM428.262 289.298C428.262 289.05 428.226 288.824 428.154 288.62C428.086 288.412 427.984 288.234 427.848 288.086C427.716 287.934 427.554 287.818 427.362 287.738C427.17 287.654 426.952 287.612 426.708 287.612C426.196 287.612 425.79 287.762 425.49 288.062C425.194 288.358 425.01 288.77 424.938 289.298H428.262ZM429.126 292.148C428.994 292.308 428.836 292.448 428.652 292.568C428.468 292.684 428.27 292.78 428.058 292.856C427.85 292.932 427.634 292.988 427.41 293.024C427.186 293.064 426.964 293.084 426.744 293.084C426.324 293.084 425.936 293.014 425.58 292.874C425.228 292.73 424.922 292.522 424.662 292.25C424.406 291.974 424.206 291.634 424.062 291.23C423.918 290.826 423.846 290.362 423.846 289.838C423.846 289.414 423.91 289.018 424.038 288.65C424.17 288.282 424.358 287.964 424.602 287.696C424.846 287.424 425.144 287.212 425.496 287.06C425.848 286.904 426.244 286.826 426.684 286.826C427.048 286.826 427.384 286.888 427.692 287.012C428.004 287.132 428.272 287.308 428.496 287.54C428.724 287.768 428.902 288.052 429.03 288.392C429.158 288.728 429.222 289.112 429.222 289.544C429.222 289.712 429.204 289.824 429.168 289.88C429.132 289.936 429.064 289.964 428.964 289.964H424.902C424.914 290.348 424.966 290.682 425.058 290.966C425.154 291.25 425.286 291.488 425.454 291.68C425.622 291.868 425.822 292.01 426.054 292.106C426.286 292.198 426.546 292.244 426.834 292.244C427.102 292.244 427.332 292.214 427.524 292.154C427.72 292.09 427.888 292.022 428.028 291.95C428.168 291.878 428.284 291.812 428.376 291.752C428.472 291.688 428.554 291.656 428.622 291.656C428.71 291.656 428.778 291.69 428.826 291.758L429.126 292.148ZM434.994 288.368C434.794 288.1 434.578 287.914 434.346 287.81C434.114 287.702 433.854 287.648 433.566 287.648C433.002 287.648 432.568 287.85 432.264 288.254C431.96 288.658 431.808 289.234 431.808 289.982C431.808 290.378 431.842 290.718 431.91 291.002C431.978 291.282 432.078 291.514 432.21 291.698C432.342 291.878 432.504 292.01 432.696 292.094C432.888 292.178 433.106 292.22 433.35 292.22C433.702 292.22 434.008 292.14 434.268 291.98C434.532 291.82 434.774 291.594 434.994 291.302V288.368ZM436.062 284.162V293H435.426C435.274 293 435.178 292.926 435.138 292.778L435.042 292.04C434.782 292.352 434.486 292.604 434.154 292.796C433.822 292.988 433.438 293.084 433.002 293.084C432.654 293.084 432.338 293.018 432.054 292.886C431.77 292.75 431.528 292.552 431.328 292.292C431.128 292.032 430.974 291.708 430.866 291.32C430.758 290.932 430.704 290.486 430.704 289.982C430.704 289.534 430.764 289.118 430.884 288.734C431.004 288.346 431.176 288.01 431.4 287.726C431.624 287.442 431.898 287.22 432.222 287.06C432.55 286.896 432.918 286.814 433.326 286.814C433.698 286.814 434.016 286.878 434.28 287.006C434.548 287.13 434.786 287.304 434.994 287.528V284.162H436.062Z" fill="#F3FDE7"/>
<path d="M215 105.5L272 162.5M336 162.5C356.112 142.388 367.388 131.112 387.5 111" stroke="#424242"/>
<path d="M171 104L122.5 152.5" stroke="#424242"/>
<path d="M253.688 370H252.524V361.402H253.688V370ZM257.049 364.804C257.181 364.656 257.321 364.522 257.469 364.402C257.617 364.282 257.773 364.18 257.937 364.096C258.105 364.008 258.281 363.942 258.465 363.898C258.653 363.85 258.855 363.826 259.071 363.826C259.403 363.826 259.695 363.882 259.947 363.994C260.203 364.102 260.415 364.258 260.583 364.462C260.755 364.662 260.885 364.904 260.973 365.188C261.061 365.472 261.105 365.786 261.105 366.13V370H260.031V366.13C260.031 365.67 259.925 365.314 259.713 365.062C259.505 364.806 259.187 364.678 258.759 364.678C258.443 364.678 258.147 364.754 257.871 364.906C257.599 365.058 257.347 365.264 257.115 365.524V370H256.041V363.922H256.683C256.835 363.922 256.929 363.996 256.965 364.144L257.049 364.804ZM268.312 363.922L265.834 370H264.874L262.396 363.922H263.266C263.354 363.922 263.426 363.944 263.482 363.988C263.538 364.032 263.576 364.084 263.596 364.144L265.138 368.056C265.186 368.204 265.228 368.348 265.264 368.488C265.3 368.628 265.334 368.768 265.366 368.908C265.398 368.768 265.432 368.628 265.468 368.488C265.504 368.348 265.548 368.204 265.6 368.056L267.16 364.144C267.184 364.08 267.224 364.028 267.28 363.988C267.336 363.944 267.402 363.922 267.478 363.922H268.312ZM272.189 363.826C272.633 363.826 273.033 363.9 273.389 364.048C273.745 364.196 274.049 364.406 274.301 364.678C274.553 364.95 274.745 365.28 274.877 365.668C275.013 366.052 275.081 366.482 275.081 366.958C275.081 367.438 275.013 367.87 274.877 368.254C274.745 368.638 274.553 368.966 274.301 369.238C274.049 369.51 273.745 369.72 273.389 369.868C273.033 370.012 272.633 370.084 272.189 370.084C271.741 370.084 271.337 370.012 270.977 369.868C270.621 369.72 270.317 369.51 270.065 369.238C269.813 368.966 269.619 368.638 269.483 368.254C269.351 367.87 269.285 367.438 269.285 366.958C269.285 366.482 269.351 366.052 269.483 365.668C269.619 365.28 269.813 364.95 270.065 364.678C270.317 364.406 270.621 364.196 270.977 364.048C271.337 363.9 271.741 363.826 272.189 363.826ZM272.189 369.25C272.789 369.25 273.237 369.05 273.533 368.65C273.829 368.246 273.977 367.684 273.977 366.964C273.977 366.24 273.829 365.676 273.533 365.272C273.237 364.868 272.789 364.666 272.189 364.666C271.885 364.666 271.619 364.718 271.391 364.822C271.167 364.926 270.979 365.076 270.827 365.272C270.679 365.468 270.567 365.71 270.491 365.998C270.419 366.282 270.383 366.604 270.383 366.964C270.383 367.684 270.531 368.246 270.827 368.65C271.127 369.05 271.581 369.25 272.189 369.25ZM278.064 363.922V370H276.996V363.922H278.064ZM278.292 362.014C278.292 362.118 278.27 362.216 278.226 362.308C278.186 362.396 278.13 362.476 278.058 362.548C277.99 362.616 277.908 362.67 277.812 362.71C277.72 362.75 277.622 362.77 277.518 362.77C277.414 362.77 277.316 362.75 277.224 362.71C277.136 362.67 277.058 362.616 276.99 362.548C276.922 362.476 276.868 362.396 276.828 362.308C276.788 362.216 276.768 362.118 276.768 362.014C276.768 361.91 276.788 361.812 276.828 361.72C276.868 361.624 276.922 361.542 276.99 361.474C277.058 361.402 277.136 361.346 277.224 361.306C277.316 361.266 277.414 361.246 277.518 361.246C277.622 361.246 277.72 361.266 277.812 361.306C277.908 361.346 277.99 361.402 278.058 361.474C278.13 361.542 278.186 361.624 278.226 361.72C278.27 361.812 278.292 361.91 278.292 362.014ZM284.549 365.002C284.517 365.046 284.485 365.08 284.453 365.104C284.421 365.128 284.377 365.14 284.321 365.14C284.261 365.14 284.195 365.116 284.123 365.068C284.051 365.016 283.961 364.96 283.853 364.9C283.749 364.84 283.619 364.786 283.463 364.738C283.311 364.686 283.123 364.66 282.899 364.66C282.599 364.66 282.335 364.714 282.107 364.822C281.879 364.926 281.687 365.078 281.531 365.278C281.379 365.478 281.263 365.72 281.183 366.004C281.107 366.288 281.069 366.606 281.069 366.958C281.069 367.326 281.111 367.654 281.195 367.942C281.279 368.226 281.397 368.466 281.549 368.662C281.705 368.854 281.891 369.002 282.107 369.106C282.327 369.206 282.573 369.256 282.845 369.256C283.105 369.256 283.319 369.226 283.487 369.166C283.655 369.102 283.793 369.032 283.901 368.956C284.013 368.88 284.105 368.812 284.177 368.752C284.253 368.688 284.327 368.656 284.399 368.656C284.487 368.656 284.555 368.69 284.603 368.758L284.903 369.148C284.771 369.312 284.621 369.452 284.453 369.568C284.285 369.684 284.103 369.782 283.907 369.862C283.715 369.938 283.513 369.994 283.301 370.03C283.089 370.066 282.873 370.084 282.653 370.084C282.273 370.084 281.919 370.014 281.591 369.874C281.267 369.734 280.985 369.532 280.745 369.268C280.505 369 280.317 368.672 280.181 368.284C280.045 367.896 279.977 367.454 279.977 366.958C279.977 366.506 280.039 366.088 280.163 365.704C280.291 365.32 280.475 364.99 280.715 364.714C280.959 364.434 281.257 364.216 281.609 364.06C281.965 363.904 282.373 363.826 282.833 363.826C283.261 363.826 283.637 363.896 283.961 364.036C284.289 364.172 284.579 364.366 284.831 364.618L284.549 365.002ZM290.512 366.298C290.512 366.05 290.476 365.824 290.404 365.62C290.336 365.412 290.234 365.234 290.098 365.086C289.966 364.934 289.804 364.818 289.612 364.738C289.42 364.654 289.202 364.612 288.958 364.612C288.446 364.612 288.04 364.762 287.74 365.062C287.444 365.358 287.26 365.77 287.188 366.298H290.512ZM291.376 369.148C291.244 369.308 291.086 369.448 290.902 369.568C290.718 369.684 290.52 369.78 290.308 369.856C290.1 369.932 289.884 369.988 289.66 370.024C289.436 370.064 289.214 370.084 288.994 370.084C288.574 370.084 288.186 370.014 287.83 369.874C287.478 369.73 287.172 369.522 286.912 369.25C286.656 368.974 286.456 368.634 286.312 368.23C286.168 367.826 286.096 367.362 286.096 366.838C286.096 366.414 286.16 366.018 286.288 365.65C286.42 365.282 286.608 364.964 286.852 364.696C287.096 364.424 287.394 364.212 287.746 364.06C288.098 363.904 288.494 363.826 288.934 363.826C289.298 363.826 289.634 363.888 289.942 364.012C290.254 364.132 290.522 364.308 290.746 364.54C290.974 364.768 291.152 365.052 291.28 365.392C291.408 365.728 291.472 366.112 291.472 366.544C291.472 366.712 291.454 366.824 291.418 366.88C291.382 366.936 291.314 366.964 291.214 366.964H287.152C287.164 367.348 287.216 367.682 287.308 367.966C287.404 368.25 287.536 368.488 287.704 368.68C287.872 368.868 288.072 369.01 288.304 369.106C288.536 369.198 288.796 369.244 289.084 369.244C289.352 369.244 289.582 369.214 289.774 369.154C289.97 369.09 290.138 369.022 290.278 368.95C290.418 368.878 290.534 368.812 290.626 368.752C290.722 368.688 290.804 368.656 290.872 368.656C290.96 368.656 291.028 368.69 291.076 368.758L291.376 369.148ZM298.972 367.03C299.188 367.03 299.378 367 299.542 366.94C299.706 366.88 299.844 366.796 299.956 366.688C300.068 366.58 300.152 366.452 300.208 366.304C300.264 366.152 300.292 365.986 300.292 365.806C300.292 365.434 300.178 365.138 299.95 364.918C299.726 364.698 299.4 364.588 298.972 364.588C298.54 364.588 298.21 364.698 297.982 364.918C297.758 365.138 297.646 365.434 297.646 365.806C297.646 365.986 297.674 366.152 297.73 366.304C297.79 366.452 297.876 366.58 297.988 366.688C298.1 366.796 298.238 366.88 298.402 366.94C298.566 367 298.756 367.03 298.972 367.03ZM300.898 370.33C300.898 370.182 300.856 370.062 300.772 369.97C300.688 369.878 300.574 369.806 300.43 369.754C300.29 369.702 300.126 369.666 299.938 369.646C299.75 369.622 299.55 369.604 299.338 369.592C299.13 369.58 298.918 369.568 298.702 369.556C298.486 369.544 298.278 369.524 298.078 369.496C297.854 369.6 297.67 369.732 297.526 369.892C297.386 370.048 297.316 370.232 297.316 370.444C297.316 370.58 297.35 370.706 297.418 370.822C297.49 370.942 297.598 371.044 297.742 371.128C297.886 371.216 298.066 371.284 298.282 371.332C298.502 371.384 298.76 371.41 299.056 371.41C299.344 371.41 299.602 371.384 299.83 371.332C300.058 371.28 300.25 371.206 300.406 371.11C300.566 371.014 300.688 370.9 300.772 370.768C300.856 370.636 300.898 370.49 300.898 370.33ZM301.984 364.162V364.558C301.984 364.69 301.9 364.774 301.732 364.81L301.042 364.9C301.178 365.164 301.246 365.456 301.246 365.776C301.246 366.072 301.188 366.342 301.072 366.586C300.96 366.826 300.804 367.032 300.604 367.204C300.404 367.376 300.164 367.508 299.884 367.6C299.604 367.692 299.3 367.738 298.972 367.738C298.688 367.738 298.42 367.704 298.168 367.636C298.04 367.716 297.942 367.802 297.874 367.894C297.806 367.982 297.772 368.072 297.772 368.164C297.772 368.308 297.83 368.418 297.946 368.494C298.066 368.566 298.222 368.618 298.414 368.65C298.606 368.682 298.824 368.702 299.068 368.71C299.316 368.718 299.568 368.732 299.824 368.752C300.084 368.768 300.336 368.798 300.58 368.842C300.828 368.886 301.048 368.958 301.24 369.058C301.432 369.158 301.586 369.296 301.702 369.472C301.822 369.648 301.882 369.876 301.882 370.156C301.882 370.416 301.816 370.668 301.684 370.912C301.556 371.156 301.37 371.372 301.126 371.56C300.882 371.752 300.582 371.904 300.226 372.016C299.874 372.132 299.476 372.19 299.032 372.19C298.588 372.19 298.2 372.146 297.868 372.058C297.536 371.97 297.26 371.852 297.04 371.704C296.82 371.556 296.654 371.384 296.542 371.188C296.434 370.996 296.38 370.794 296.38 370.582C296.38 370.282 296.474 370.028 296.662 369.82C296.85 369.612 297.108 369.446 297.436 369.322C297.256 369.242 297.112 369.136 297.004 369.004C296.9 368.868 296.848 368.686 296.848 368.458C296.848 368.37 296.864 368.28 296.896 368.188C296.928 368.092 296.976 367.998 297.04 367.906C297.108 367.81 297.19 367.72 297.286 367.636C297.382 367.552 297.494 367.478 297.622 367.414C297.322 367.246 297.088 367.024 296.92 366.748C296.752 366.468 296.668 366.144 296.668 365.776C296.668 365.48 296.724 365.212 296.836 364.972C296.952 364.728 297.112 364.522 297.316 364.354C297.52 364.182 297.762 364.05 298.042 363.958C298.326 363.866 298.636 363.82 298.972 363.82C299.236 363.82 299.482 363.85 299.71 363.91C299.938 363.966 300.146 364.05 300.334 364.162H301.984ZM307.562 366.298C307.562 366.05 307.526 365.824 307.454 365.62C307.386 365.412 307.284 365.234 307.148 365.086C307.016 364.934 306.854 364.818 306.662 364.738C306.47 364.654 306.252 364.612 306.008 364.612C305.496 364.612 305.09 364.762 304.79 365.062C304.494 365.358 304.31 365.77 304.238 366.298H307.562ZM308.426 369.148C308.294 369.308 308.136 369.448 307.952 369.568C307.768 369.684 307.57 369.78 307.358 369.856C307.15 369.932 306.934 369.988 306.71 370.024C306.486 370.064 306.264 370.084 306.044 370.084C305.624 370.084 305.236 370.014 304.88 369.874C304.528 369.73 304.222 369.522 303.962 369.25C303.706 368.974 303.506 368.634 303.362 368.23C303.218 367.826 303.146 367.362 303.146 366.838C303.146 366.414 303.21 366.018 303.338 365.65C303.47 365.282 303.658 364.964 303.902 364.696C304.146 364.424 304.444 364.212 304.796 364.06C305.148 363.904 305.544 363.826 305.984 363.826C306.348 363.826 306.684 363.888 306.992 364.012C307.304 364.132 307.572 364.308 307.796 364.54C308.024 364.768 308.202 365.052 308.33 365.392C308.458 365.728 308.522 366.112 308.522 366.544C308.522 366.712 308.504 366.824 308.468 366.88C308.432 366.936 308.364 366.964 308.264 366.964H304.202C304.214 367.348 304.266 367.682 304.358 367.966C304.454 368.25 304.586 368.488 304.754 368.68C304.922 368.868 305.122 369.01 305.354 369.106C305.586 369.198 305.846 369.244 306.134 369.244C306.402 369.244 306.632 369.214 306.824 369.154C307.02 369.09 307.188 369.022 307.328 368.95C307.468 368.878 307.584 368.812 307.676 368.752C307.772 368.688 307.854 368.656 307.922 368.656C308.01 368.656 308.078 368.69 308.126 368.758L308.426 369.148ZM311.342 364.804C311.474 364.656 311.614 364.522 311.762 364.402C311.91 364.282 312.066 364.18 312.23 364.096C312.398 364.008 312.574 363.942 312.758 363.898C312.946 363.85 313.148 363.826 313.364 363.826C313.696 363.826 313.988 363.882 314.24 363.994C314.496 364.102 314.708 364.258 314.876 364.462C315.048 364.662 315.178 364.904 315.266 365.188C315.354 365.472 315.398 365.786 315.398 366.13V370H314.324V366.13C314.324 365.67 314.218 365.314 314.006 365.062C313.798 364.806 313.48 364.678 313.052 364.678C312.736 364.678 312.44 364.754 312.164 364.906C311.892 365.058 311.64 365.264 311.408 365.524V370H310.334V363.922H310.976C311.128 363.922 311.222 363.996 311.258 364.144L311.342 364.804ZM321.594 366.298C321.594 366.05 321.558 365.824 321.486 365.62C321.418 365.412 321.316 365.234 321.18 365.086C321.048 364.934 320.886 364.818 320.694 364.738C320.502 364.654 320.284 364.612 320.04 364.612C319.528 364.612 319.122 364.762 318.822 365.062C318.526 365.358 318.342 365.77 318.27 366.298H321.594ZM322.458 369.148C322.326 369.308 322.168 369.448 321.984 369.568C321.8 369.684 321.602 369.78 321.39 369.856C321.182 369.932 320.966 369.988 320.742 370.024C320.518 370.064 320.296 370.084 320.076 370.084C319.656 370.084 319.268 370.014 318.912 369.874C318.56 369.73 318.254 369.522 317.994 369.25C317.738 368.974 317.538 368.634 317.394 368.23C317.25 367.826 317.178 367.362 317.178 366.838C317.178 366.414 317.242 366.018 317.37 365.65C317.502 365.282 317.69 364.964 317.934 364.696C318.178 364.424 318.476 364.212 318.828 364.06C319.18 363.904 319.576 363.826 320.016 363.826C320.38 363.826 320.716 363.888 321.024 364.012C321.336 364.132 321.604 364.308 321.828 364.54C322.056 364.768 322.234 365.052 322.362 365.392C322.49 365.728 322.554 366.112 322.554 366.544C322.554 366.712 322.536 366.824 322.5 366.88C322.464 366.936 322.396 366.964 322.296 366.964H318.234C318.246 367.348 318.298 367.682 318.39 367.966C318.486 368.25 318.618 368.488 318.786 368.68C318.954 368.868 319.154 369.01 319.386 369.106C319.618 369.198 319.878 369.244 320.166 369.244C320.434 369.244 320.664 369.214 320.856 369.154C321.052 369.09 321.22 369.022 321.36 368.95C321.5 368.878 321.616 368.812 321.708 368.752C321.804 368.688 321.886 368.656 321.954 368.656C322.042 368.656 322.11 368.69 322.158 368.758L322.458 369.148ZM325.38 365.14C325.572 364.724 325.808 364.4 326.088 364.168C326.368 363.932 326.71 363.814 327.114 363.814C327.242 363.814 327.364 363.828 327.48 363.856C327.6 363.884 327.706 363.928 327.798 363.988L327.72 364.786C327.696 364.886 327.636 364.936 327.54 364.936C327.484 364.936 327.402 364.924 327.294 364.9C327.186 364.876 327.064 364.864 326.928 364.864C326.736 364.864 326.564 364.892 326.412 364.948C326.264 365.004 326.13 365.088 326.01 365.2C325.894 365.308 325.788 365.444 325.692 365.608C325.6 365.768 325.516 365.952 325.44 366.16V370H324.366V363.922H324.978C325.094 363.922 325.174 363.944 325.218 363.988C325.262 364.032 325.292 364.108 325.308 364.216L325.38 365.14ZM332.437 367.264C331.945 367.28 331.525 367.32 331.177 367.384C330.833 367.444 330.551 367.524 330.331 367.624C330.115 367.724 329.957 367.842 329.857 367.978C329.761 368.114 329.713 368.266 329.713 368.434C329.713 368.594 329.739 368.732 329.791 368.848C329.843 368.964 329.913 369.06 330.001 369.136C330.093 369.208 330.199 369.262 330.319 369.298C330.443 369.33 330.575 369.346 330.715 369.346C330.903 369.346 331.075 369.328 331.231 369.292C331.387 369.252 331.533 369.196 331.669 369.124C331.809 369.052 331.941 368.966 332.065 368.866C332.193 368.766 332.317 368.652 332.437 368.524V367.264ZM328.987 364.78C329.323 364.456 329.685 364.214 330.073 364.054C330.461 363.894 330.891 363.814 331.363 363.814C331.703 363.814 332.005 363.87 332.269 363.982C332.533 364.094 332.755 364.25 332.935 364.45C333.115 364.65 333.251 364.892 333.343 365.176C333.435 365.46 333.481 365.772 333.481 366.112V370H333.007C332.903 370 332.823 369.984 332.767 369.952C332.711 369.916 332.667 369.848 332.635 369.748L332.515 369.172C332.355 369.32 332.199 369.452 332.047 369.568C331.895 369.68 331.735 369.776 331.567 369.856C331.399 369.932 331.219 369.99 331.027 370.03C330.839 370.074 330.629 370.096 330.397 370.096C330.161 370.096 329.939 370.064 329.731 370C329.523 369.932 329.341 369.832 329.185 369.7C329.033 369.568 328.911 369.402 328.819 369.202C328.731 368.998 328.687 368.758 328.687 368.482C328.687 368.242 328.753 368.012 328.885 367.792C329.017 367.568 329.231 367.37 329.527 367.198C329.823 367.026 330.209 366.886 330.685 366.778C331.161 366.666 331.745 366.602 332.437 366.586V366.112C332.437 365.64 332.335 365.284 332.131 365.044C331.927 364.8 331.629 364.678 331.237 364.678C330.973 364.678 330.751 364.712 330.571 364.78C330.395 364.844 330.241 364.918 330.109 365.002C329.981 365.082 329.869 365.156 329.773 365.224C329.681 365.288 329.589 365.32 329.497 365.32C329.425 365.32 329.363 365.302 329.311 365.266C329.259 365.226 329.215 365.178 329.179 365.122L328.987 364.78ZM341.166 370H340.098V364.816H336.966V368.464C336.966 368.72 337.028 368.91 337.152 369.034C337.276 369.158 337.436 369.22 337.632 369.22C337.744 369.22 337.84 369.206 337.92 369.178C338.004 369.146 338.076 369.112 338.136 369.076C338.196 369.04 338.246 369.008 338.286 368.98C338.33 368.948 338.368 368.932 338.4 368.932C338.456 368.932 338.506 368.966 338.55 369.034L338.862 369.544C338.678 369.716 338.456 369.852 338.196 369.952C337.936 370.048 337.668 370.096 337.392 370.096C336.912 370.096 336.542 369.962 336.282 369.694C336.026 369.426 335.898 369.04 335.898 368.536V364.816H335.166C335.102 364.816 335.048 364.798 335.004 364.762C334.96 364.722 334.938 364.662 334.938 364.582V364.156L335.934 364.024L336.18 362.152C336.192 362.092 336.218 362.044 336.258 362.008C336.302 361.968 336.358 361.948 336.426 361.948H336.966V364.042H341.166V370ZM341.43 361.972C341.43 362.076 341.408 362.174 341.364 362.266C341.324 362.354 341.268 362.432 341.196 362.5C341.128 362.568 341.048 362.622 340.956 362.662C340.864 362.702 340.766 362.722 340.662 362.722C340.558 362.722 340.46 362.702 340.368 362.662C340.28 362.622 340.202 362.568 340.134 362.5C340.066 362.432 340.012 362.354 339.972 362.266C339.932 362.174 339.912 362.076 339.912 361.972C339.912 361.868 339.932 361.77 339.972 361.678C340.012 361.582 340.066 361.5 340.134 361.432C340.202 361.36 340.28 361.304 340.368 361.264C340.46 361.224 340.558 361.204 340.662 361.204C340.766 361.204 340.864 361.224 340.956 361.264C341.048 361.304 341.128 361.36 341.196 361.432C341.268 361.5 341.324 361.582 341.364 361.678C341.408 361.77 341.43 361.868 341.43 361.972ZM345.982 363.826C346.426 363.826 346.826 363.9 347.182 364.048C347.538 364.196 347.842 364.406 348.094 364.678C348.346 364.95 348.538 365.28 348.67 365.668C348.806 366.052 348.874 366.482 348.874 366.958C348.874 367.438 348.806 367.87 348.67 368.254C348.538 368.638 348.346 368.966 348.094 369.238C347.842 369.51 347.538 369.72 347.182 369.868C346.826 370.012 346.426 370.084 345.982 370.084C345.534 370.084 345.13 370.012 344.77 369.868C344.414 369.72 344.11 369.51 343.858 369.238C343.606 368.966 343.412 368.638 343.276 368.254C343.144 367.87 343.078 367.438 343.078 366.958C343.078 366.482 343.144 366.052 343.276 365.668C343.412 365.28 343.606 364.95 343.858 364.678C344.11 364.406 344.414 364.196 344.77 364.048C345.13 363.9 345.534 363.826 345.982 363.826ZM345.982 369.25C346.582 369.25 347.03 369.05 347.326 368.65C347.622 368.246 347.77 367.684 347.77 366.964C347.77 366.24 347.622 365.676 347.326 365.272C347.03 364.868 346.582 364.666 345.982 364.666C345.678 364.666 345.412 364.718 345.184 364.822C344.96 364.926 344.772 365.076 344.62 365.272C344.472 365.468 344.36 365.71 344.284 365.998C344.212 366.282 344.176 366.604 344.176 366.964C344.176 367.684 344.324 368.246 344.62 368.65C344.92 369.05 345.374 369.25 345.982 369.25ZM351.737 364.804C351.869 364.656 352.009 364.522 352.157 364.402C352.305 364.282 352.461 364.18 352.625 364.096C352.793 364.008 352.969 363.942 353.153 363.898C353.341 363.85 353.543 363.826 353.759 363.826C354.091 363.826 354.383 363.882 354.635 363.994C354.891 364.102 355.103 364.258 355.271 364.462C355.443 364.662 355.573 364.904 355.661 365.188C355.749 365.472 355.793 365.786 355.793 366.13V370H354.719V366.13C354.719 365.67 354.613 365.314 354.401 365.062C354.193 364.806 353.875 364.678 353.447 364.678C353.131 364.678 352.835 364.754 352.559 364.906C352.287 365.058 352.035 365.264 351.803 365.524V370H350.729V363.922H351.371C351.523 363.922 351.617 363.996 351.653 364.144L351.737 364.804Z" fill="#F3FDE7"/>
<path d="M259.854 191.354C260.049 191.158 260.049 190.842 259.854 190.646L256.672 187.464C256.476 187.269 256.16 187.269 255.964 187.464C255.769 187.66 255.769 187.976 255.964 188.172L258.793 191L255.964 193.828C255.769 194.024 255.769 194.34 255.964 194.536C256.16 194.731 256.476 194.731 256.672 194.536L259.854 191.354ZM148 191.5H259.5V190.5H148V191.5Z" fill="#424242"/>
</svg>
