<svg width="509" height="109" viewBox="0 0 509 109" fill="none" xmlns="http://www.w3.org/2000/svg">
<rect width="509" height="109" rx="8.64233" fill="#EFFCF5"/>
<path d="M44.2997 45.3666H45.6923C46.3745 45.3666 46.9372 45.2541 47.3803 45.029C47.8304 44.7969 48.1645 44.484 48.3825 44.0901C48.6075 43.6892 48.7201 43.2391 48.7201 42.7397C48.7201 42.149 48.6216 41.6531 48.4247 41.2522C48.2278 40.8513 47.9324 40.5489 47.5385 40.345C47.1446 40.141 46.6453 40.039 46.0404 40.039C45.4919 40.039 45.0066 40.148 44.5846 40.3661C44.1696 40.5771 43.8426 40.8795 43.6035 41.2733C43.3714 41.6672 43.2553 42.1314 43.2553 42.6659H41.3036C41.3036 41.8852 41.5006 41.1749 41.8944 40.5349C42.2883 39.8948 42.8404 39.3849 43.5507 39.0051C44.2681 38.6254 45.098 38.4355 46.0404 38.4355C46.9688 38.4355 47.7811 38.6007 48.4774 38.9313C49.1737 39.2548 49.7153 39.7401 50.1021 40.3872C50.4889 41.0272 50.6823 41.8254 50.6823 42.7819C50.6823 43.1688 50.5909 43.5837 50.408 44.0268C50.2322 44.4629 49.9544 44.8708 49.5746 45.2506C49.2018 45.6304 48.7166 45.9433 48.1187 46.1895C47.5209 46.4286 46.8035 46.5482 45.9666 46.5482H44.2997V45.3666ZM44.2997 46.9702V45.7992H45.9666C46.9442 45.7992 47.753 45.9152 48.393 46.1473C49.033 46.3794 49.5359 46.6889 49.9016 47.0757C50.2744 47.4625 50.5346 47.888 50.6823 48.3522C50.837 48.8093 50.9144 49.2665 50.9144 49.7237C50.9144 50.441 50.7913 51.0775 50.5452 51.6332C50.306 52.1888 49.9649 52.66 49.5219 53.0468C49.0858 53.4336 48.5724 53.7255 47.9816 53.9224C47.3908 54.1194 46.7473 54.2178 46.051 54.2178C45.3828 54.2178 44.7534 54.1229 44.1626 53.933C43.5788 53.7431 43.0619 53.4688 42.6118 53.1101C42.1617 52.7444 41.81 52.2978 41.5568 51.7703C41.3036 51.2358 41.177 50.6274 41.177 49.9452H43.1287C43.1287 50.4797 43.2448 50.9474 43.4769 51.3483C43.716 51.7492 44.0536 52.0622 44.4896 52.2872C44.9327 52.5053 45.4532 52.6143 46.051 52.6143C46.6488 52.6143 47.1622 52.5123 47.5913 52.3083C48.0273 52.0973 48.3614 51.7808 48.5935 51.3589C48.8326 50.9369 48.9522 50.4059 48.9522 49.7659C48.9522 49.1258 48.8185 48.6019 48.5513 48.1939C48.284 47.779 47.9042 47.473 47.4119 47.2761C46.9266 47.0722 46.3534 46.9702 45.6923 46.9702H44.2997ZM63.8952 45.1029V47.4449C63.8952 48.7038 63.7827 49.7659 63.5576 50.6309C63.3326 51.496 63.009 52.1923 62.587 52.7198C62.1651 53.2473 61.6551 53.6306 61.0573 53.8697C60.4665 54.1018 59.7984 54.2178 59.0529 54.2178C58.4621 54.2178 57.917 54.144 57.4177 53.9963C56.9183 53.8486 56.4682 53.613 56.0673 53.2895C55.6735 52.9589 55.3359 52.5299 55.0545 52.0024C54.7732 51.4749 54.5587 50.8349 54.411 50.0823C54.2633 49.3298 54.1895 48.4507 54.1895 47.4449V45.1029C54.1895 43.8439 54.302 42.789 54.5271 41.938C54.7592 41.087 55.0862 40.4047 55.5082 39.8913C55.9302 39.3709 56.4366 38.9981 57.0273 38.773C57.6252 38.548 58.2933 38.4355 59.0318 38.4355C59.6296 38.4355 60.1782 38.5093 60.6775 38.657C61.1839 38.7977 61.634 39.0262 62.0279 39.3427C62.4218 39.6522 62.7558 40.0671 63.0301 40.5876C63.3115 41.101 63.526 41.7305 63.6737 42.476C63.8214 43.2215 63.8952 44.0971 63.8952 45.1029ZM61.933 47.7614V44.7758C61.933 44.0866 61.8908 43.4817 61.8064 42.9613C61.729 42.4338 61.6129 41.9837 61.4582 41.6109C61.3035 41.2382 61.1066 40.9357 60.8674 40.7036C60.6353 40.4716 60.3646 40.3028 60.0551 40.1973C59.7527 40.0847 59.4116 40.0285 59.0318 40.0285C58.5676 40.0285 58.1562 40.1164 57.7975 40.2922C57.4388 40.461 57.1364 40.7318 56.8902 41.1045C56.6511 41.4773 56.4682 41.9661 56.3416 42.5709C56.215 43.1758 56.1517 43.9108 56.1517 44.7758V47.7614C56.1517 48.4507 56.1904 49.059 56.2678 49.5865C56.3522 50.114 56.4752 50.5711 56.637 50.958C56.7988 51.3378 56.9957 51.6507 57.2278 51.8969C57.4599 52.1431 57.7271 52.3259 58.0296 52.4455C58.339 52.558 58.6801 52.6143 59.0529 52.6143C59.5311 52.6143 59.9496 52.5228 60.3083 52.34C60.667 52.1571 60.9659 51.8723 61.205 51.4855C61.4512 51.0916 61.634 50.5887 61.7536 49.9768C61.8732 49.3579 61.933 48.6194 61.933 47.7614ZM77.1292 45.7675V47.6032H66.6006V45.7675H77.1292ZM72.846 41.2839V52.4666H70.8943V41.2839H72.846ZM87.0921 47.6042V54.0068H85.7186V46.0165H87.0183L87.0921 47.6042ZM86.8115 49.7089L86.1764 49.6867C86.1813 49.1403 86.2527 48.6356 86.3906 48.1728C86.5284 47.7051 86.7327 47.299 87.0035 46.9544C87.2743 46.6097 87.6115 46.3439 88.0152 46.1568C88.4189 45.9648 88.8866 45.8688 89.4183 45.8688C89.7925 45.8688 90.1371 45.9229 90.4522 46.0313C90.7673 46.1346 91.0405 46.2996 91.2719 46.526C91.5033 46.7525 91.683 47.043 91.811 47.3974C91.939 47.7519 92.003 48.1802 92.003 48.6824V54.0068H90.6368V48.7489C90.6368 48.3304 90.5654 47.9956 90.4227 47.7445C90.2848 47.4934 90.0879 47.3113 89.8319 47.1981C89.5759 47.0799 89.2756 47.0208 88.9309 47.0208C88.5272 47.0208 88.19 47.0922 87.9192 47.235C87.6484 47.3777 87.4318 47.5747 87.2694 47.8258C87.1069 48.0768 86.9887 48.3648 86.9149 48.6898C86.846 49.0098 86.8115 49.3495 86.8115 49.7089ZM91.9882 48.9556L91.0725 49.2363C91.0775 48.7981 91.1488 48.3772 91.2867 47.9735C91.4295 47.5698 91.6338 47.2104 91.8996 46.8953C92.1704 46.5802 92.5027 46.3316 92.8966 46.1494C93.2904 45.9623 93.7409 45.8688 94.248 45.8688C94.6763 45.8688 95.0554 45.9254 95.3853 46.0386C95.72 46.1519 96.0007 46.3266 96.2271 46.563C96.4585 46.7943 96.6333 47.0922 96.7514 47.4565C96.8696 47.8208 96.9287 48.2541 96.9287 48.7562V54.0068H95.5551V48.7415C95.5551 48.2935 95.4837 47.9464 95.3409 47.7002C95.2031 47.4491 95.0062 47.2744 94.7502 47.1759C94.4991 47.0725 94.1988 47.0208 93.8492 47.0208C93.5489 47.0208 93.2831 47.0725 93.0517 47.1759C92.8203 47.2793 92.6258 47.4221 92.4683 47.6042C92.3107 47.7814 92.1901 47.9858 92.1064 48.2172C92.0276 48.4485 91.9882 48.6947 91.9882 48.9556ZM100.934 46.0165V54.0068H99.5609V46.0165H100.934ZM99.4575 43.897C99.4575 43.6755 99.524 43.4884 99.6569 43.3358C99.7948 43.1832 99.9966 43.1069 100.262 43.1069C100.523 43.1069 100.723 43.1832 100.861 43.3358C101.003 43.4884 101.075 43.6755 101.075 43.897C101.075 44.1087 101.003 44.2909 100.861 44.4435C100.723 44.5912 100.523 44.6651 100.262 44.6651C99.9966 44.6651 99.7948 44.5912 99.6569 44.4435C99.524 44.2909 99.4575 44.1087 99.4575 43.897ZM104.948 47.7224V54.0068H103.581V46.0165H104.874L104.948 47.7224ZM104.623 49.7089L104.054 49.6867C104.059 49.1403 104.14 48.6356 104.298 48.1728C104.455 47.7051 104.677 47.299 104.962 46.9544C105.248 46.6097 105.588 46.3439 105.982 46.1568C106.38 45.9648 106.821 45.8688 107.303 45.8688C107.697 45.8688 108.052 45.9229 108.367 46.0313C108.682 46.1346 108.95 46.302 109.172 46.5334C109.398 46.7648 109.571 47.0651 109.689 47.4344C109.807 47.7987 109.866 48.2442 109.866 48.771V54.0068H108.492V48.7562C108.492 48.3378 108.431 48.003 108.308 47.7519C108.185 47.4959 108.005 47.3113 107.769 47.1981C107.532 47.0799 107.242 47.0208 106.897 47.0208C106.558 47.0208 106.247 47.0922 105.967 47.235C105.691 47.3777 105.452 47.5747 105.25 47.8258C105.054 48.0768 104.898 48.3648 104.785 48.6898C104.677 49.0098 104.623 49.3495 104.623 49.7089ZM117.284 52.1606V46.0165H118.657V54.0068H117.35L117.284 52.1606ZM117.542 50.4769L118.111 50.4621C118.111 50.9938 118.054 51.4862 117.941 51.9391C117.832 52.3871 117.655 52.776 117.409 53.1059C117.163 53.4357 116.84 53.6942 116.442 53.8813C116.043 54.0635 115.558 54.1545 114.987 54.1545C114.598 54.1545 114.241 54.0979 113.916 53.9847C113.596 53.8714 113.32 53.6967 113.089 53.4604C112.858 53.224 112.678 52.9163 112.55 52.5373C112.427 52.1582 112.365 51.7028 112.365 51.1711V46.0165H113.731V51.1858C113.731 51.5452 113.771 51.8431 113.85 52.0794C113.933 52.3108 114.044 52.4954 114.182 52.6333C114.325 52.7662 114.482 52.8597 114.655 52.9139C114.832 52.968 115.014 52.9951 115.201 52.9951C115.782 52.9951 116.242 52.8843 116.582 52.6628C116.922 52.4363 117.165 52.1336 117.313 51.7545C117.466 51.3705 117.542 50.9446 117.542 50.4769ZM124.539 46.0165V47.0651H120.219V46.0165H124.539ZM121.681 44.0743H123.047V52.0277C123.047 52.2985 123.089 52.5028 123.172 52.6406C123.256 52.7785 123.364 52.8696 123.497 52.9139C123.63 52.9582 123.773 52.9803 123.926 52.9803C124.039 52.9803 124.157 52.9705 124.28 52.9508C124.408 52.9262 124.504 52.9065 124.568 52.8917L124.576 54.0068C124.467 54.0413 124.325 54.0733 124.147 54.1028C123.975 54.1373 123.766 54.1545 123.52 54.1545C123.185 54.1545 122.877 54.0881 122.596 53.9551C122.316 53.8222 122.092 53.6007 121.924 53.2905C121.762 52.9754 121.681 52.552 121.681 52.0203V44.0743ZM129.911 54.1545C129.354 54.1545 128.85 54.061 128.397 53.8739C127.949 53.6819 127.562 53.4136 127.237 53.069C126.917 52.7243 126.671 52.3157 126.499 51.8431C126.327 51.3705 126.24 50.8535 126.24 50.2923V49.9821C126.24 49.3323 126.336 48.7538 126.528 48.2467C126.72 47.7347 126.981 47.3014 127.311 46.947C127.641 46.5925 128.015 46.3242 128.434 46.142C128.852 45.9599 129.285 45.8688 129.733 45.8688C130.305 45.8688 130.797 45.9673 131.21 46.1642C131.629 46.3611 131.971 46.6368 132.237 46.9913C132.503 47.3408 132.7 47.7544 132.828 48.2319C132.956 48.7045 133.02 49.2215 133.02 49.7827V50.3957H127.053V49.2806H131.653V49.1772C131.634 48.8227 131.56 48.4781 131.432 48.1433C131.309 47.8085 131.112 47.5328 130.841 47.3162C130.57 47.0996 130.201 46.9913 129.733 46.9913C129.423 46.9913 129.138 47.0577 128.877 47.1907C128.616 47.3187 128.392 47.5107 128.205 47.7667C128.018 48.0227 127.872 48.3353 127.769 48.7045C127.666 49.0738 127.614 49.4996 127.614 49.9821V50.2923C127.614 50.6714 127.666 51.0283 127.769 51.3631C127.877 51.6929 128.032 51.9834 128.234 52.2345C128.441 52.4856 128.69 52.6825 128.98 52.8253C129.276 52.968 129.61 53.0394 129.985 53.0394C130.467 53.0394 130.876 52.941 131.21 52.744C131.545 52.5471 131.838 52.2837 132.089 51.9539L132.916 52.6111C132.744 52.872 132.525 53.1207 132.259 53.357C131.993 53.5933 131.666 53.7853 131.277 53.933C130.893 54.0807 130.437 54.1545 129.911 54.1545ZM139.721 51.8874C139.721 51.6905 139.677 51.5083 139.588 51.3409C139.504 51.1686 139.33 51.0135 139.064 50.8757C138.803 50.7329 138.409 50.6098 137.882 50.5064C137.439 50.4129 137.038 50.3021 136.678 50.1741C136.324 50.0461 136.021 49.891 135.77 49.7089C135.524 49.5267 135.334 49.3126 135.201 49.0664C135.069 48.8202 135.002 48.5322 135.002 48.2024C135.002 47.8873 135.071 47.5894 135.209 47.3088C135.352 47.0282 135.551 46.7796 135.807 46.563C136.068 46.3463 136.381 46.1765 136.745 46.0534C137.109 45.9303 137.515 45.8688 137.963 45.8688C138.603 45.8688 139.15 45.982 139.603 46.2085C140.056 46.435 140.403 46.7377 140.644 47.1168C140.885 47.491 141.006 47.907 141.006 48.3648H139.64C139.64 48.1433 139.573 47.9291 139.44 47.7224C139.312 47.5107 139.123 47.3359 138.872 47.1981C138.626 47.0602 138.323 46.9913 137.963 46.9913C137.584 46.9913 137.277 47.0504 137.04 47.1685C136.809 47.2817 136.639 47.427 136.531 47.6042C136.427 47.7814 136.376 47.9685 136.376 48.1655C136.376 48.3132 136.4 48.4461 136.449 48.5642C136.504 48.6775 136.597 48.7833 136.73 48.8818C136.863 48.9753 137.05 49.0639 137.291 49.1476C137.533 49.2313 137.84 49.315 138.214 49.3987C138.869 49.5464 139.408 49.7237 139.832 49.9304C140.255 50.1372 140.57 50.3907 140.777 50.6911C140.984 50.9914 141.087 51.3557 141.087 51.784C141.087 52.1336 141.013 52.4536 140.866 52.744C140.723 53.0345 140.514 53.2856 140.238 53.4973C139.967 53.7041 139.642 53.8665 139.263 53.9847C138.889 54.0979 138.468 54.1545 138 54.1545C137.296 54.1545 136.701 54.029 136.213 53.7779C135.726 53.5268 135.357 53.2019 135.105 52.8031C134.854 52.4043 134.729 51.9834 134.729 51.5403H136.102C136.122 51.9145 136.23 52.2123 136.427 52.4339C136.624 52.6505 136.865 52.8056 137.151 52.8991C137.437 52.9877 137.72 53.032 138 53.032C138.374 53.032 138.687 52.9828 138.938 52.8843C139.194 52.7859 139.389 52.6505 139.522 52.4782C139.654 52.3059 139.721 52.1089 139.721 51.8874Z" fill="#064925"/>
<path d="M315.73 45.3666H317.123C317.805 45.3666 318.368 45.2541 318.811 45.029C319.261 44.7969 319.595 44.484 319.813 44.0901C320.038 43.6892 320.151 43.2391 320.151 42.7397C320.151 42.149 320.052 41.6531 319.855 41.2522C319.658 40.8513 319.363 40.5489 318.969 40.345C318.575 40.141 318.076 40.039 317.471 40.039C316.923 40.039 316.437 40.148 316.015 40.3661C315.6 40.5771 315.273 40.8795 315.034 41.2733C314.802 41.6672 314.686 42.1314 314.686 42.6659H312.734C312.734 41.8852 312.931 41.1749 313.325 40.5349C313.719 39.8948 314.271 39.3849 314.981 39.0051C315.699 38.6254 316.529 38.4355 317.471 38.4355C318.399 38.4355 319.212 38.6007 319.908 38.9313C320.604 39.2548 321.146 39.7401 321.533 40.3872C321.92 41.0272 322.113 41.8254 322.113 42.7819C322.113 43.1688 322.022 43.5837 321.839 44.0268C321.663 44.4629 321.385 44.8708 321.005 45.2506C320.633 45.6304 320.147 45.9433 319.549 46.1895C318.952 46.4286 318.234 46.5482 317.397 46.5482H315.73V45.3666ZM315.73 46.9702V45.7992H317.397C318.375 45.7992 319.184 45.9152 319.824 46.1473C320.464 46.3794 320.967 46.6889 321.332 47.0757C321.705 47.4625 321.965 47.888 322.113 48.3522C322.268 48.8093 322.345 49.2665 322.345 49.7237C322.345 50.441 322.222 51.0775 321.976 51.6332C321.737 52.1888 321.396 52.66 320.953 53.0468C320.516 53.4336 320.003 53.7255 319.412 53.9224C318.821 54.1194 318.178 54.2178 317.482 54.2178C316.814 54.2178 316.184 54.1229 315.593 53.933C315.01 53.7431 314.493 53.4688 314.042 53.1101C313.592 52.7444 313.241 52.2978 312.987 51.7703C312.734 51.2358 312.608 50.6274 312.608 49.9452H314.559C314.559 50.4797 314.675 50.9474 314.908 51.3483C315.147 51.7492 315.484 52.0622 315.92 52.2872C316.363 52.5053 316.884 52.6143 317.482 52.6143C318.079 52.6143 318.593 52.5123 319.022 52.3083C319.458 52.0973 319.792 51.7808 320.024 51.3589C320.263 50.9369 320.383 50.4059 320.383 49.7659C320.383 49.1258 320.249 48.6019 319.982 48.1939C319.715 47.779 319.335 47.473 318.843 47.2761C318.357 47.0722 317.784 46.9702 317.123 46.9702H315.73ZM328.152 46.6959L326.591 46.295L327.361 38.6465H335.241V40.4505H329.017L328.553 44.6281C328.834 44.4664 329.189 44.3152 329.618 44.1745C330.055 44.0338 330.554 43.9635 331.117 43.9635C331.827 43.9635 332.463 44.0866 333.026 44.3327C333.589 44.5719 334.067 44.9165 334.461 45.3666C334.862 45.8167 335.168 46.3583 335.379 46.9913C335.59 47.6243 335.695 48.3311 335.695 49.1118C335.695 49.8502 335.593 50.5289 335.389 51.1479C335.192 51.7668 334.893 52.3083 334.492 52.7725C334.092 53.2297 333.585 53.5848 332.973 53.838C332.368 54.0912 331.655 54.2178 330.832 54.2178C330.213 54.2178 329.626 54.1334 329.07 53.9646C328.521 53.7888 328.029 53.5251 327.593 53.1734C327.164 52.8147 326.812 52.3716 326.538 51.8441C326.271 51.3096 326.102 50.6837 326.032 49.9663H327.888C327.973 50.543 328.142 51.0283 328.395 51.4222C328.648 51.816 328.978 52.1149 329.386 52.3189C329.801 52.5158 330.283 52.6143 330.832 52.6143C331.296 52.6143 331.707 52.5334 332.066 52.3716C332.425 52.2099 332.727 51.9778 332.973 51.6753C333.219 51.3729 333.406 51.0072 333.532 50.5782C333.666 50.1492 333.733 49.6674 333.733 49.1329C333.733 48.6476 333.666 48.1975 333.532 47.7825C333.399 47.3675 333.198 47.0053 332.931 46.6959C332.671 46.3864 332.351 46.1473 331.971 45.9785C331.591 45.8027 331.155 45.7148 330.663 45.7148C330.009 45.7148 329.513 45.8027 329.175 45.9785C328.845 46.1543 328.504 46.3935 328.152 46.6959ZM348.56 45.7675V47.6032H338.031V45.7675H348.56ZM344.277 41.2839V52.4666H342.325V41.2839H344.277ZM358.53 42.6638V54.0068H357.164V42.6638H358.53ZM358.205 49.7089L357.637 49.6867C357.642 49.1403 357.723 48.6356 357.88 48.1728C358.038 47.7051 358.259 47.299 358.545 46.9544C358.83 46.6097 359.17 46.3439 359.564 46.1568C359.963 45.9648 360.403 45.8688 360.886 45.8688C361.28 45.8688 361.634 45.9229 361.949 46.0313C362.264 46.1346 362.533 46.302 362.754 46.5334C362.981 46.7648 363.153 47.0651 363.271 47.4344C363.389 47.7987 363.448 48.2442 363.448 48.771V54.0068H362.075V48.7562C362.075 48.3378 362.013 48.003 361.89 47.7519C361.767 47.4959 361.587 47.3113 361.351 47.1981C361.115 47.0799 360.824 47.0208 360.48 47.0208C360.14 47.0208 359.83 47.0922 359.549 47.235C359.274 47.3777 359.035 47.5747 358.833 47.8258C358.636 48.0768 358.481 48.3648 358.368 48.6898C358.259 49.0098 358.205 49.3495 358.205 49.7089ZM365.586 50.1003V49.9304C365.586 49.3544 365.67 48.8202 365.837 48.3279C366.004 47.8307 366.246 47.3999 366.561 47.0356C366.876 46.6663 367.257 46.3808 367.705 46.1789C368.153 45.9722 368.656 45.8688 369.212 45.8688C369.773 45.8688 370.278 45.9722 370.726 46.1789C371.179 46.3808 371.563 46.6663 371.878 47.0356C372.198 47.3999 372.441 47.8307 372.609 48.3279C372.776 48.8202 372.86 49.3544 372.86 49.9304V50.1003C372.86 50.6763 372.776 51.2105 372.609 51.7028C372.441 52.1951 372.198 52.6259 371.878 52.9951C371.563 53.3594 371.181 53.645 370.733 53.8518C370.29 54.0536 369.788 54.1545 369.227 54.1545C368.665 54.1545 368.161 54.0536 367.713 53.8518C367.265 53.645 366.881 53.3594 366.561 52.9951C366.246 52.6259 366.004 52.1951 365.837 51.7028C365.67 51.2105 365.586 50.6763 365.586 50.1003ZM366.952 49.9304V50.1003C366.952 50.4991 366.999 50.8757 367.092 51.2302C367.186 51.5797 367.326 51.8899 367.513 52.1606C367.705 52.4314 367.944 52.6456 368.23 52.8031C368.515 52.9557 368.848 53.032 369.227 53.032C369.601 53.032 369.928 52.9557 370.209 52.8031C370.494 52.6456 370.731 52.4314 370.918 52.1606C371.105 51.8899 371.245 51.5797 371.339 51.2302C371.437 50.8757 371.486 50.4991 371.486 50.1003V49.9304C371.486 49.5366 371.437 49.1649 371.339 48.8153C371.245 48.4609 371.102 48.1482 370.91 47.8775C370.723 47.6018 370.487 47.3851 370.201 47.2276C369.921 47.07 369.591 46.9913 369.212 46.9913C368.838 46.9913 368.508 47.07 368.222 47.2276C367.942 47.3851 367.705 47.6018 367.513 47.8775C367.326 48.1482 367.186 48.4609 367.092 48.8153C366.999 49.1649 366.952 49.5366 366.952 49.9304ZM379.916 52.1606V46.0165H381.289V54.0068H379.982L379.916 52.1606ZM380.174 50.4769L380.743 50.4621C380.743 50.9938 380.686 51.4862 380.573 51.9391C380.465 52.3871 380.287 52.776 380.041 53.1059C379.795 53.4357 379.473 53.6942 379.074 53.8813C378.675 54.0635 378.19 54.1545 377.619 54.1545C377.23 54.1545 376.873 54.0979 376.548 53.9847C376.228 53.8714 375.952 53.6967 375.721 53.4604C375.49 53.224 375.31 52.9163 375.182 52.5373C375.059 52.1582 374.997 51.7028 374.997 51.1711V46.0165H376.364V51.1858C376.364 51.5452 376.403 51.8431 376.482 52.0794C376.565 52.3108 376.676 52.4954 376.814 52.6333C376.957 52.7662 377.114 52.8597 377.287 52.9139C377.464 52.968 377.646 52.9951 377.833 52.9951C378.414 52.9951 378.874 52.8843 379.214 52.6628C379.554 52.4363 379.798 52.1336 379.945 51.7545C380.098 51.3705 380.174 50.9446 380.174 50.4769ZM385.192 47.2719V54.0068H383.825V46.0165H385.155L385.192 47.2719ZM387.688 45.9722L387.68 47.2424C387.567 47.2177 387.459 47.203 387.355 47.1981C387.257 47.1882 387.144 47.1833 387.016 47.1833C386.701 47.1833 386.422 47.2325 386.181 47.331C385.94 47.4294 385.736 47.5673 385.568 47.7445C385.401 47.9218 385.268 48.1335 385.17 48.3796C385.076 48.6209 385.014 48.8867 384.985 49.1772L384.601 49.3987C384.601 48.9162 384.648 48.4633 384.741 48.0399C384.84 47.6165 384.99 47.2424 385.192 46.9174C385.394 46.5876 385.65 46.3316 385.96 46.1494C386.275 45.9623 386.649 45.8688 387.082 45.8688C387.181 45.8688 387.294 45.8811 387.422 45.9057C387.55 45.9254 387.638 45.9476 387.688 45.9722ZM394.057 51.8874C394.057 51.6905 394.012 51.5083 393.924 51.3409C393.84 51.1686 393.665 51.0135 393.399 50.8757C393.138 50.7329 392.745 50.6098 392.218 50.5064C391.775 50.4129 391.374 50.3021 391.014 50.1741C390.66 50.0461 390.357 49.891 390.106 49.7089C389.86 49.5267 389.67 49.3126 389.537 49.0664C389.404 48.8202 389.338 48.5322 389.338 48.2024C389.338 47.8873 389.407 47.5894 389.545 47.3088C389.687 47.0282 389.887 46.7796 390.143 46.563C390.404 46.3463 390.716 46.1765 391.081 46.0534C391.445 45.9303 391.851 45.8688 392.299 45.8688C392.939 45.8688 393.486 45.982 393.939 46.2085C394.391 46.435 394.739 46.7377 394.98 47.1168C395.221 47.491 395.342 47.907 395.342 48.3648H393.975C393.975 48.1433 393.909 47.9291 393.776 47.7224C393.648 47.5107 393.459 47.3359 393.207 47.1981C392.961 47.0602 392.658 46.9913 392.299 46.9913C391.92 46.9913 391.612 47.0504 391.376 47.1685C391.145 47.2817 390.975 47.427 390.866 47.6042C390.763 47.7814 390.711 47.9685 390.711 48.1655C390.711 48.3132 390.736 48.4461 390.785 48.5642C390.839 48.6775 390.933 48.7833 391.066 48.8818C391.199 48.9753 391.386 49.0639 391.627 49.1476C391.868 49.2313 392.176 49.315 392.55 49.3987C393.205 49.5464 393.744 49.7237 394.167 49.9304C394.591 50.1372 394.906 50.3907 395.113 50.6911C395.319 50.9914 395.423 51.3557 395.423 51.784C395.423 52.1336 395.349 52.4536 395.201 52.744C395.059 53.0345 394.849 53.2856 394.574 53.4973C394.303 53.7041 393.978 53.8665 393.599 53.9847C393.225 54.0979 392.804 54.1545 392.336 54.1545C391.632 54.1545 391.036 54.029 390.549 53.7779C390.061 53.5268 389.692 53.2019 389.441 52.8031C389.19 52.4043 389.065 51.9834 389.065 51.5403H390.438C390.458 51.9145 390.566 52.2123 390.763 52.4339C390.96 52.6505 391.201 52.8056 391.487 52.8991C391.772 52.9877 392.055 53.032 392.336 53.032C392.71 53.032 393.023 52.9828 393.274 52.8843C393.53 52.7859 393.724 52.6505 393.857 52.4782C393.99 52.3059 394.057 52.1089 394.057 51.8874Z" fill="#064925"/>
<path d="M45.245 64.7984L43.6562 74.0146H42.903L44.4981 64.7984H45.245ZM48.3086 64.7984L48.201 65.4694H41.3205L41.4344 64.7984H48.3086ZM47.6597 70.7168L47.6913 70.5079C47.7546 70.0606 47.877 69.6281 48.0585 69.2103C48.2399 68.7925 48.4762 68.4212 48.7674 68.0963C49.0628 67.7671 49.4088 67.5076 49.8055 67.3177C50.2022 67.1278 50.6432 67.035 51.1284 67.0392C51.6095 67.0434 52.0188 67.1447 52.3564 67.343C52.694 67.5371 52.9641 67.7988 53.1667 68.1279C53.3734 68.4571 53.5148 68.8263 53.5907 69.2356C53.6667 69.6407 53.6794 70.0564 53.6287 70.4826L53.6034 70.6915C53.5401 71.1388 53.4156 71.5692 53.2299 71.9828C53.0485 72.3963 52.8101 72.7677 52.5147 73.0968C52.2235 73.4218 51.8796 73.6792 51.4829 73.8691C51.0862 74.0547 50.6453 74.1455 50.16 74.1412C49.6831 74.137 49.2738 74.0379 48.932 73.8437C48.5944 73.6454 48.3243 73.3838 48.1218 73.0588C47.9192 72.7297 47.78 72.3626 47.704 71.9575C47.6281 71.5523 47.6133 71.1388 47.6597 70.7168ZM48.4319 70.5079L48.4066 70.7168C48.3644 71.0333 48.3623 71.354 48.4003 71.6789C48.4383 72.0039 48.5248 72.3035 48.6598 72.5778C48.7991 72.8479 48.9932 73.0673 49.2422 73.2361C49.4911 73.4049 49.8034 73.4914 50.179 73.4956C50.563 73.4998 50.909 73.4218 51.2171 73.2614C51.5251 73.101 51.791 72.8858 52.0146 72.6158C52.2425 72.3415 52.4261 72.0376 52.5653 71.7043C52.7046 71.3667 52.8016 71.0291 52.8565 70.6915L52.8818 70.4826C52.924 70.1703 52.924 69.8517 52.8818 69.5268C52.8438 69.1976 52.7573 68.8959 52.6223 68.6216C52.4872 68.3473 52.2952 68.1258 52.0463 67.957C51.7973 67.784 51.485 67.6954 51.1095 67.6911C50.7254 67.6827 50.3794 67.7608 50.0714 67.9254C49.7633 68.0857 49.4975 68.303 49.2738 68.5773C49.0502 68.8516 48.8666 69.1576 48.7231 69.4952C48.5839 69.8285 48.4868 70.1661 48.4319 70.5079ZM59.6038 68.514L58.1986 76.6479H57.4517L59.0911 67.1658H59.7874L59.6038 68.514ZM63.8701 70.5079L63.8511 70.6408C63.7878 71.046 63.6802 71.4553 63.5283 71.8688C63.3806 72.2824 63.1823 72.6622 62.9333 73.0082C62.6843 73.3542 62.3805 73.6327 62.0218 73.8437C61.6674 74.0505 61.2517 74.1497 60.7749 74.1412C60.4204 74.1412 60.0976 74.0737 59.8064 73.9387C59.5152 73.7994 59.2684 73.6116 59.0658 73.3753C58.8632 73.1348 58.7113 72.8584 58.61 72.5461C58.5088 72.2339 58.4687 71.9026 58.4898 71.5523L58.7683 69.8053C58.8527 69.4382 58.9856 69.0879 59.1671 68.7546C59.3485 68.4212 59.5722 68.1237 59.838 67.8621C60.1081 67.6004 60.4119 67.3979 60.7495 67.2544C61.0913 67.1067 61.4585 67.035 61.8509 67.0392C62.3235 67.0434 62.7054 67.1531 62.9966 67.3683C63.2878 67.5835 63.5051 67.8642 63.6486 68.2102C63.7921 68.5562 63.8765 68.9318 63.9018 69.3369C63.9313 69.7378 63.9208 70.1281 63.8701 70.5079ZM63.1042 70.6408L63.1232 70.5016C63.1654 70.2146 63.1823 69.9108 63.1739 69.5901C63.1654 69.2652 63.1127 68.9613 63.0156 68.6786C62.9228 68.3959 62.7687 68.1638 62.5535 67.9823C62.3383 67.7966 62.0408 67.7017 61.661 67.6975C61.3741 67.6933 61.0977 67.7439 60.8318 67.8494C60.5702 67.9507 60.3297 68.092 60.1102 68.2735C59.8908 68.4549 59.7009 68.6659 59.5405 68.9065C59.3844 69.147 59.2705 69.4044 59.1987 69.6787L58.8443 71.7106C58.8316 72.0524 58.9076 72.3583 59.0721 72.6284C59.2367 72.8943 59.4561 73.1053 59.7304 73.2614C60.0089 73.4133 60.3107 73.4914 60.6356 73.4956C61.0238 73.4998 61.3593 73.4175 61.642 73.2487C61.929 73.0757 62.1695 72.8479 62.3636 72.5651C62.562 72.2782 62.7202 71.968 62.8384 71.6346C62.9608 71.297 63.0494 70.9658 63.1042 70.6408ZM66.7469 68.3241L65.7658 74.0146H65.0252L66.2089 67.1658H66.9305L66.7469 68.3241ZM69.2852 67.1151L69.1902 67.8051C69.1143 67.7924 69.0362 67.7819 68.956 67.7734C68.8758 67.765 68.7957 67.7608 68.7155 67.7608C68.3737 67.7566 68.0699 67.8199 67.804 67.9507C67.5424 68.0815 67.3124 68.2587 67.114 68.4824C66.9199 68.706 66.7575 68.9592 66.6267 69.242C66.4958 69.5205 66.3946 69.8074 66.3228 70.1028L66.0253 70.2104C66.0886 69.8433 66.1836 69.4719 66.3102 69.0964C66.441 68.7208 66.614 68.3769 66.8292 68.0646C67.0486 67.7481 67.3166 67.4949 67.6331 67.305C67.9538 67.1151 68.3336 67.0244 68.7725 67.0328C68.8611 67.0328 68.9476 67.0413 69.032 67.0582C69.1164 67.0708 69.2008 67.0898 69.2852 67.1151ZM71.9341 74.1412C71.4699 74.137 71.069 74.04 70.7314 73.8501C70.3938 73.6602 70.1195 73.407 69.9085 73.0905C69.7018 72.7698 69.5562 72.4111 69.4718 72.0144C69.3916 71.6178 69.3747 71.2105 69.4211 70.7928L69.4591 70.5143C69.514 70.0923 69.63 69.6745 69.8073 69.2609C69.9845 68.8474 70.2145 68.4739 70.4972 68.1406C70.7842 67.803 71.1196 67.535 71.5037 67.3367C71.8877 67.1341 72.3139 67.035 72.7823 67.0392C73.2254 67.0434 73.5967 67.1362 73.8963 67.3177C74.2002 67.4949 74.4407 67.7333 74.6179 68.033C74.7952 68.3326 74.9112 68.6681 74.9661 69.0394C75.0252 69.4108 75.0315 69.7905 74.9851 70.1788L74.9218 70.6408H69.8832L69.9782 69.9952H74.2571L74.2761 69.9066C74.331 69.5479 74.312 69.1998 74.2192 68.8622C74.1305 68.5246 73.966 68.2461 73.7254 68.0266C73.4849 67.8072 73.1621 67.6954 72.757 67.6911C72.3772 67.6827 72.0396 67.7629 71.7442 67.9317C71.4488 68.0963 71.1935 68.3199 70.9783 68.6026C70.7673 68.8812 70.5964 69.1892 70.4656 69.5268C70.3347 69.8602 70.244 70.1893 70.1934 70.5143L70.1617 70.7864C70.1195 71.1029 70.1216 71.4194 70.1681 71.7359C70.2187 72.0524 70.3158 72.3436 70.4592 72.6094C70.6069 72.8711 70.8053 73.0842 71.0542 73.2487C71.3074 73.4091 71.6155 73.4914 71.9784 73.4956C72.3835 73.504 72.7485 73.4239 73.0735 73.2551C73.4026 73.0821 73.7043 72.8542 73.9786 72.5714L74.4217 72.9386C74.2192 73.2002 73.9871 73.4218 73.7254 73.6032C73.468 73.7847 73.1874 73.9197 72.8836 74.0083C72.5797 74.0969 72.2632 74.1412 71.9341 74.1412ZM77.577 68.514L76.1718 76.6479H75.4249L77.0643 67.1658H77.7606L77.577 68.514ZM81.8433 70.5079L81.8243 70.6408C81.761 71.046 81.6534 71.4553 81.5015 71.8688C81.3538 72.2824 81.1555 72.6622 80.9065 73.0082C80.6575 73.3542 80.3537 73.6327 79.995 73.8437C79.6405 74.0505 79.2249 74.1497 78.748 74.1412C78.3935 74.1412 78.0707 74.0737 77.7796 73.9387C77.4884 73.7994 77.2415 73.6116 77.039 73.3753C76.8364 73.1348 76.6845 72.8584 76.5832 72.5461C76.4819 72.2339 76.4419 71.9026 76.463 71.5523L76.7415 69.8053C76.8259 69.4382 76.9588 69.0879 77.1402 68.7546C77.3217 68.4212 77.5454 68.1237 77.8112 67.8621C78.0813 67.6004 78.3851 67.3979 78.7227 67.2544C79.0645 67.1067 79.4316 67.035 79.8241 67.0392C80.2967 67.0434 80.6786 67.1531 80.9698 67.3683C81.261 67.5835 81.4783 67.8642 81.6218 68.2102C81.7652 68.5562 81.8496 68.9318 81.875 69.3369C81.9045 69.7378 81.8939 70.1281 81.8433 70.5079ZM81.0774 70.6408L81.0964 70.5016C81.1386 70.2146 81.1555 69.9108 81.147 69.5901C81.1386 69.2652 81.0858 68.9613 80.9888 68.6786C80.8959 68.3959 80.7419 68.1638 80.5267 67.9823C80.3115 67.7966 80.014 67.7017 79.6342 67.6975C79.3472 67.6933 79.0708 67.7439 78.805 67.8494C78.5434 67.9507 78.3028 68.092 78.0834 68.2735C77.864 68.4549 77.6741 68.6659 77.5137 68.9065C77.3576 69.147 77.2436 69.4044 77.1719 69.6787L76.8174 71.7106C76.8048 72.0524 76.8807 72.3583 77.0453 72.6284C77.2099 72.8943 77.4293 73.1053 77.7036 73.2614C77.9821 73.4133 78.2838 73.4914 78.6088 73.4956C78.997 73.4998 79.3325 73.4175 79.6152 73.2487C79.9022 73.0757 80.1427 72.8479 80.3368 72.5651C80.5351 72.2782 80.6934 71.968 80.8115 71.6346C80.9339 71.297 81.0225 70.9658 81.0774 70.6408ZM90.5212 72.7867L91.1099 69.2483C91.1563 68.9234 91.1268 68.6448 91.0213 68.4128C90.92 68.1764 90.7555 67.9971 90.5276 67.8747C90.3039 67.7481 90.0275 67.6827 89.6984 67.6785C89.4072 67.6743 89.1202 67.7249 88.8375 67.8304C88.5548 67.9359 88.3079 68.0899 88.0969 68.2925C87.8901 68.495 87.753 68.7482 87.6855 69.0521L86.9449 69.0457C86.9913 68.7208 87.1052 68.4338 87.2867 68.1849C87.4682 67.9317 87.6918 67.7207 87.9577 67.5519C88.2277 67.3789 88.5189 67.2502 88.8312 67.1658C89.1435 67.0772 89.4515 67.035 89.7553 67.0392C90.2069 67.0392 90.5993 67.1299 90.9327 67.3114C91.2661 67.4886 91.515 67.7439 91.6796 68.0773C91.8484 68.4064 91.9033 68.8031 91.8442 69.2673L91.2872 72.5778C91.2492 72.8014 91.2239 73.0293 91.2112 73.2614C91.1985 73.4893 91.2154 73.7129 91.2618 73.9324L91.2555 74.0146H90.4833C90.4537 73.8121 90.4432 73.6074 90.4516 73.4007C90.4643 73.1939 90.4875 72.9892 90.5212 72.7867ZM91.1606 70.0269L91.0783 70.6092H89.6794C89.4177 70.6092 89.1413 70.6324 88.8502 70.6788C88.559 70.7252 88.2805 70.8054 88.0146 70.9194C87.7488 71.0333 87.523 71.1915 87.3373 71.3941C87.1517 71.5924 87.0335 71.8456 86.9829 72.1537C86.9407 72.4195 86.9702 72.6516 87.0715 72.85C87.177 73.0441 87.331 73.196 87.5336 73.3057C87.7361 73.4112 87.964 73.4661 88.2172 73.4703C88.5885 73.4745 88.9409 73.407 89.2743 73.2677C89.6076 73.1243 89.9051 72.9259 90.1668 72.6727C90.4284 72.4195 90.6331 72.1241 90.7808 71.7865L91.0403 72.2296C90.9264 72.5166 90.766 72.7803 90.5592 73.0209C90.3567 73.2572 90.1246 73.4597 89.8629 73.6285C89.6013 73.7931 89.3207 73.9218 89.0211 74.0146C88.7215 74.1033 88.4176 74.1476 88.1096 74.1476C87.734 74.1391 87.3964 74.0568 87.0968 73.9007C86.8014 73.7446 86.5714 73.523 86.4069 73.2361C86.2423 72.9491 86.1811 72.6115 86.2233 72.2233C86.2697 71.8098 86.4005 71.4637 86.6157 71.1852C86.8352 70.9025 87.1074 70.6767 87.4323 70.5079C87.7572 70.3391 88.1075 70.2168 88.483 70.1408C88.8586 70.0648 89.2236 70.0269 89.5781 70.0269H91.1606ZM100.712 72.2486C100.763 71.9448 100.71 71.7 100.554 71.5144C100.398 71.3245 100.193 71.1789 99.9398 71.0776C99.6866 70.9721 99.4397 70.8898 99.1992 70.8307C98.946 70.7674 98.6907 70.6915 98.4333 70.6029C98.1801 70.51 97.9501 70.394 97.7433 70.2547C97.5366 70.1113 97.3762 69.9319 97.2623 69.7167C97.1483 69.5015 97.1061 69.2377 97.1357 68.9255C97.1652 68.609 97.2602 68.3326 97.4205 68.0963C97.5851 67.8599 97.7897 67.6637 98.0345 67.5076C98.2835 67.3472 98.5514 67.2291 98.8384 67.1531C99.1296 67.0772 99.4186 67.0392 99.7056 67.0392C100.123 67.0434 100.503 67.1236 100.845 67.2797C101.191 67.4358 101.461 67.6658 101.655 67.9697C101.853 68.2693 101.938 68.6427 101.908 69.09L101.174 69.0837C101.199 68.7841 101.145 68.533 101.01 68.3305C100.879 68.1237 100.695 67.9676 100.459 67.8621C100.227 67.7523 99.9693 67.6954 99.6866 67.6911C99.425 67.6911 99.1633 67.7333 98.9017 67.8177C98.6443 67.9021 98.4206 68.033 98.2307 68.2102C98.0408 68.3874 97.9227 68.6174 97.8763 68.9001C97.8383 69.1238 97.8615 69.3116 97.9459 69.4635C98.0345 69.6112 98.159 69.7315 98.3193 69.8243C98.4839 69.9171 98.6612 69.9931 98.8511 70.0522C99.0409 70.1113 99.2203 70.164 99.3891 70.2104C99.7351 70.3033 100.075 70.4235 100.408 70.5712C100.742 70.7189 101.007 70.9236 101.206 71.1852C101.408 71.4426 101.488 71.7823 101.446 72.2043C101.417 72.5419 101.318 72.8331 101.149 73.0778C100.98 73.3226 100.767 73.5251 100.509 73.6855C100.252 73.8416 99.9714 73.9556 99.6676 74.0273C99.3638 74.1033 99.062 74.1412 98.7624 74.1412C98.3489 74.137 97.9564 74.059 97.5851 73.907C97.218 73.7551 96.9226 73.5273 96.6989 73.2234C96.4753 72.9196 96.3782 72.5398 96.4077 72.0841L97.1483 72.0904C97.1399 72.4111 97.2095 72.6748 97.3572 72.8816C97.5049 73.0884 97.7032 73.2403 97.9522 73.3374C98.2054 73.4344 98.4797 73.4851 98.7751 73.4893C99.0409 73.4893 99.3131 73.4471 99.5916 73.3627C99.8702 73.2783 100.113 73.1454 100.32 72.9639C100.531 72.7824 100.661 72.544 100.712 72.2486ZM104.899 67.1658L103.715 74.0146H102.975L104.158 67.1658H104.899ZM104.374 65.1909C104.378 65.0474 104.431 64.925 104.532 64.8237C104.633 64.7225 104.756 64.6718 104.899 64.6718C105.047 64.6676 105.167 64.7161 105.26 64.8174C105.357 64.9187 105.399 65.0411 105.386 65.1845C105.382 65.3238 105.327 65.4441 105.222 65.5453C105.116 65.6424 104.994 65.6909 104.855 65.6909C104.711 65.6951 104.593 65.6487 104.5 65.5517C104.407 65.4546 104.365 65.3343 104.374 65.1909ZM107.504 68.6596L106.58 74.0146H105.839L107.023 67.1658H107.732L107.504 68.6596ZM107.092 70.1661L106.795 69.9762C106.879 69.6049 107.008 69.2441 107.181 68.8938C107.354 68.5393 107.569 68.2229 107.826 67.9443C108.088 67.6616 108.388 67.4401 108.725 67.2797C109.067 67.1151 109.447 67.035 109.865 67.0392C110.24 67.0434 110.55 67.113 110.795 67.2481C111.044 67.3789 111.236 67.5624 111.371 67.7988C111.506 68.0309 111.591 68.2988 111.624 68.6026C111.662 68.9023 111.658 69.2209 111.612 69.5584L110.858 74.0146H110.112L110.877 69.5458C110.924 69.2166 110.922 68.9128 110.871 68.6343C110.825 68.3516 110.707 68.1258 110.517 67.957C110.327 67.784 110.042 67.6975 109.662 67.6975C109.325 67.6933 109.014 67.7629 108.732 67.9064C108.449 68.0456 108.196 68.2355 107.972 68.476C107.753 68.7124 107.567 68.9782 107.415 69.2736C107.267 69.5648 107.16 69.8623 107.092 70.1661ZM118.432 67.1658H119.128L117.976 73.8944C117.888 74.4303 117.708 74.9156 117.438 75.3502C117.168 75.7849 116.814 76.1288 116.375 76.382C115.94 76.6352 115.438 76.7576 114.868 76.7491C114.569 76.7449 114.284 76.6943 114.014 76.5972C113.744 76.5044 113.495 76.3693 113.267 76.1921C113.043 76.0191 112.851 75.8081 112.691 75.5591L113.147 75.1097C113.345 75.4093 113.583 75.6477 113.862 75.825C114.14 76.0022 114.465 76.0951 114.837 76.1035C115.276 76.1077 115.66 76.0149 115.989 75.825C116.322 75.6351 116.592 75.3735 116.799 75.0401C117.01 74.7109 117.151 74.3375 117.223 73.9197L118.128 68.647L118.432 67.1658ZM113.172 70.6852L113.191 70.5459C113.25 70.1324 113.355 69.7188 113.507 69.3053C113.659 68.8917 113.86 68.5119 114.109 68.1659C114.362 67.8199 114.668 67.5456 115.027 67.343C115.389 67.1362 115.811 67.035 116.293 67.0392C116.668 67.0434 116.997 67.1236 117.28 67.2797C117.563 67.4316 117.797 67.6384 117.983 67.9C118.172 68.1617 118.31 68.4571 118.394 68.7862C118.483 69.1111 118.516 69.4487 118.495 69.799L118.223 71.489C118.147 71.852 118.018 72.1938 117.837 72.5145C117.656 72.8352 117.432 73.12 117.166 73.369C116.9 73.6138 116.601 73.8058 116.267 73.945C115.934 74.0843 115.575 74.1497 115.191 74.1412C114.727 74.137 114.349 74.0252 114.058 73.8058C113.771 73.5863 113.554 73.3036 113.406 72.9576C113.263 72.6115 113.174 72.2381 113.14 71.8372C113.111 71.4363 113.121 71.0523 113.172 70.6852ZM113.938 70.5459L113.919 70.6788C113.877 70.9658 113.858 71.2696 113.862 71.5903C113.87 71.911 113.919 72.2149 114.007 72.5018C114.1 72.7846 114.252 73.0166 114.463 73.1981C114.678 73.3796 114.974 73.4724 115.349 73.4766C115.712 73.4851 116.06 73.4112 116.394 73.2551C116.727 73.0947 117.016 72.8753 117.261 72.5968C117.51 72.3183 117.687 72.0039 117.793 71.6536L118.128 69.6787C118.145 69.4129 118.116 69.1618 118.04 68.9255C117.964 68.6892 117.848 68.4803 117.691 68.2988C117.539 68.1131 117.354 67.9676 117.134 67.8621C116.915 67.7566 116.67 67.7038 116.4 67.7038C116.012 67.6954 115.674 67.7777 115.387 67.9507C115.105 68.1195 114.864 68.3452 114.666 68.628C114.472 68.9107 114.313 69.2209 114.191 69.5584C114.073 69.8918 113.988 70.221 113.938 70.5459ZM122.492 64.292L120.815 74.0146H120.074L121.752 64.292H122.492ZM125.616 74.1412C125.152 74.137 124.751 74.04 124.413 73.8501C124.076 73.6602 123.802 73.407 123.591 73.0905C123.384 72.7698 123.238 72.4111 123.154 72.0144C123.074 71.6178 123.057 71.2105 123.103 70.7928L123.141 70.5143C123.196 70.0923 123.312 69.6745 123.489 69.2609C123.667 68.8474 123.896 68.4739 124.179 68.1406C124.466 67.803 124.802 67.535 125.186 67.3367C125.57 67.1341 125.996 67.035 126.464 67.0392C126.907 67.0434 127.279 67.1362 127.578 67.3177C127.882 67.4949 128.123 67.7333 128.3 68.033C128.477 68.3326 128.593 68.6681 128.648 69.0394C128.707 69.4108 128.713 69.7905 128.667 70.1788L128.604 70.6408H123.565L123.66 69.9952H127.939L127.958 69.9066C128.013 69.5479 127.994 69.1998 127.901 68.8622C127.813 68.5246 127.648 68.2461 127.407 68.0266C127.167 67.8072 126.844 67.6954 126.439 67.6911C126.059 67.6827 125.722 67.7629 125.426 67.9317C125.131 68.0963 124.876 68.3199 124.66 68.6026C124.449 68.8812 124.278 69.1892 124.148 69.5268C124.017 69.8602 123.926 70.1893 123.875 70.5143L123.844 70.7864C123.802 71.1029 123.804 71.4194 123.85 71.7359C123.901 72.0524 123.998 72.3436 124.141 72.6094C124.289 72.8711 124.487 73.0842 124.736 73.2487C124.989 73.4091 125.297 73.4914 125.66 73.4956C126.066 73.504 126.431 73.4239 126.755 73.2551C127.085 73.0821 127.386 72.8542 127.661 72.5714L128.104 72.9386C127.901 73.2002 127.669 73.4218 127.407 73.6032C127.15 73.7847 126.869 73.9197 126.566 74.0083C126.262 74.0969 125.945 74.1412 125.616 74.1412ZM134.845 67.1658L133.661 74.0146H132.92L134.104 67.1658H134.845ZM134.319 65.1909C134.324 65.0474 134.376 64.925 134.478 64.8237C134.579 64.7225 134.701 64.6718 134.845 64.6718C134.992 64.6676 135.113 64.7161 135.206 64.8174C135.303 64.9187 135.345 65.0411 135.332 65.1845C135.328 65.3238 135.273 65.4441 135.168 65.5453C135.062 65.6424 134.94 65.6909 134.8 65.6909C134.657 65.6951 134.539 65.6487 134.446 65.5517C134.353 65.4546 134.311 65.3343 134.319 65.1909ZM137.449 68.6596L136.525 74.0146H135.785L136.968 67.1658H137.677L137.449 68.6596ZM137.038 70.1661L136.74 69.9762C136.825 69.6049 136.953 69.2441 137.127 68.8938C137.3 68.5393 137.515 68.2229 137.772 67.9443C138.034 67.6616 138.333 67.4401 138.671 67.2797C139.013 67.1151 139.393 67.035 139.81 67.0392C140.186 67.0434 140.496 67.113 140.741 67.2481C140.99 67.3789 141.182 67.5624 141.317 67.7988C141.452 68.0309 141.536 68.2988 141.57 68.6026C141.608 68.9023 141.604 69.2209 141.557 69.5584L140.804 74.0146H140.057L140.823 69.5458C140.87 69.2166 140.867 68.9128 140.817 68.6343C140.77 68.3516 140.652 68.1258 140.462 67.957C140.272 67.784 139.988 67.6975 139.608 67.6975C139.27 67.6933 138.96 67.7629 138.677 67.9064C138.395 68.0456 138.141 68.2355 137.918 68.476C137.698 68.7124 137.513 68.9782 137.361 69.2736C137.213 69.5648 137.105 69.8623 137.038 70.1661ZM144.96 73.2551L148.036 67.1721H148.821L145.27 74.0146H144.706L144.96 73.2551ZM143.978 67.1594L145.194 73.331V74.0146H144.675L143.238 67.1594H143.978ZM149.083 70.7168L149.115 70.5079C149.178 70.0606 149.301 69.6281 149.482 69.2103C149.664 68.7925 149.9 68.4212 150.191 68.0963C150.486 67.7671 150.832 67.5076 151.229 67.3177C151.626 67.1278 152.067 67.035 152.552 67.0392C153.033 67.0434 153.442 67.1447 153.78 67.343C154.118 67.5371 154.388 67.7988 154.59 68.1279C154.797 68.4571 154.938 68.8263 155.014 69.2356C155.09 69.6407 155.103 70.0564 155.052 70.4826L155.027 70.6915C154.964 71.1388 154.839 71.5692 154.654 71.9828C154.472 72.3963 154.234 72.7677 153.938 73.0968C153.647 73.4218 153.303 73.6792 152.907 73.8691C152.51 74.0547 152.069 74.1455 151.584 74.1412C151.107 74.137 150.697 74.0379 150.356 73.8437C150.018 73.6454 149.748 73.3838 149.545 73.0588C149.343 72.7297 149.204 72.3626 149.128 71.9575C149.052 71.5523 149.037 71.1388 149.083 70.7168ZM149.856 70.5079L149.83 70.7168C149.788 71.0333 149.786 71.354 149.824 71.6789C149.862 72.0039 149.948 72.3035 150.083 72.5778C150.223 72.8479 150.417 73.0673 150.666 73.2361C150.915 73.4049 151.227 73.4914 151.603 73.4956C151.987 73.4998 152.333 73.4218 152.641 73.2614C152.949 73.101 153.215 72.8858 153.438 72.6158C153.666 72.3415 153.85 72.0376 153.989 71.7043C154.128 71.3667 154.225 71.0291 154.28 70.6915L154.305 70.4826C154.348 70.1703 154.348 69.8517 154.305 69.5268C154.267 69.1976 154.181 68.8959 154.046 68.6216C153.911 68.3473 153.719 68.1258 153.47 67.957C153.221 67.784 152.909 67.6954 152.533 67.6911C152.149 67.6827 151.803 67.7608 151.495 67.9254C151.187 68.0857 150.921 68.303 150.697 68.5773C150.474 68.8516 150.29 69.1576 150.147 69.4952C150.007 69.8285 149.91 70.1661 149.856 70.5079ZM158.1 67.1658L156.916 74.0146H156.176L157.359 67.1658H158.1ZM157.575 65.1909C157.579 65.0474 157.632 64.925 157.733 64.8237C157.834 64.7225 157.957 64.6718 158.1 64.6718C158.248 64.6676 158.368 64.7161 158.461 64.8174C158.558 64.9187 158.6 65.0411 158.587 65.1845C158.583 65.3238 158.528 65.4441 158.423 65.5453C158.317 65.6424 158.195 65.6909 158.056 65.6909C157.912 65.6951 157.794 65.6487 157.701 65.5517C157.608 65.4546 157.566 65.3343 157.575 65.1909ZM161.622 73.4956C161.96 73.4956 162.272 73.4302 162.559 73.2994C162.846 73.1686 163.089 72.9829 163.287 72.7424C163.49 72.5018 163.635 72.2212 163.724 71.9005H164.439C164.355 72.3478 164.173 72.7402 163.895 73.0778C163.616 73.4154 163.277 73.6792 162.876 73.8691C162.479 74.0547 162.055 74.1455 161.603 74.1412C161.122 74.137 160.719 74.0357 160.394 73.8374C160.07 73.6391 159.814 73.3774 159.629 73.0525C159.443 72.7234 159.318 72.3583 159.255 71.9575C159.196 71.5523 159.194 71.143 159.249 70.7295L159.28 70.4636C159.339 70.0247 159.453 69.6006 159.622 69.1913C159.791 68.7778 160.013 68.4085 160.287 68.0836C160.565 67.7587 160.897 67.5034 161.281 67.3177C161.665 67.1278 162.097 67.035 162.578 67.0392C163.055 67.0434 163.464 67.1531 163.806 67.3683C164.148 67.5793 164.408 67.8684 164.585 68.2355C164.766 68.5984 164.849 69.012 164.832 69.4762L164.129 69.4698C164.142 69.1407 164.089 68.8432 163.971 68.5773C163.857 68.3073 163.68 68.0941 163.439 67.938C163.199 67.7777 162.905 67.6933 162.559 67.6848C162.167 67.6806 161.823 67.7587 161.527 67.919C161.236 68.0752 160.987 68.2883 160.781 68.5583C160.574 68.8284 160.407 69.128 160.281 69.4572C160.154 69.7863 160.065 70.1218 160.015 70.4636L159.977 70.7295C159.939 71.0417 159.93 71.3603 159.951 71.6853C159.977 72.006 160.046 72.3035 160.16 72.5778C160.278 72.8479 160.456 73.0673 160.692 73.2361C160.928 73.4007 161.238 73.4872 161.622 73.4956ZM168.329 74.1412C167.865 74.137 167.464 74.04 167.126 73.8501C166.789 73.6602 166.514 73.407 166.303 73.0905C166.096 72.7698 165.951 72.4111 165.866 72.0144C165.786 71.6178 165.769 71.2105 165.816 70.7928L165.854 70.5143C165.909 70.0923 166.025 69.6745 166.202 69.2609C166.379 68.8474 166.609 68.4739 166.892 68.1406C167.179 67.803 167.514 67.535 167.898 67.3367C168.282 67.1341 168.709 67.035 169.177 67.0392C169.62 67.0434 169.991 67.1362 170.291 67.3177C170.595 67.4949 170.835 67.7333 171.013 68.033C171.19 68.3326 171.306 68.6681 171.361 69.0394C171.42 69.4108 171.426 69.7905 171.38 70.1788L171.316 70.6408H166.278L166.373 69.9952H170.652L170.671 69.9066C170.726 69.5479 170.707 69.1998 170.614 68.8622C170.525 68.5246 170.361 68.2461 170.12 68.0266C169.88 67.8072 169.557 67.6954 169.152 67.6911C168.772 67.6827 168.434 67.7629 168.139 67.9317C167.843 68.0963 167.588 68.3199 167.373 68.6026C167.162 68.8812 166.991 69.1892 166.86 69.5268C166.729 69.8602 166.639 70.1893 166.588 70.5143L166.556 70.7864C166.514 71.1029 166.516 71.4194 166.563 71.7359C166.613 72.0524 166.71 72.3436 166.854 72.6094C167.002 72.8711 167.2 73.0842 167.449 73.2487C167.702 73.4091 168.01 73.4914 168.373 73.4956C168.778 73.504 169.143 73.4239 169.468 73.2551C169.797 73.0821 170.099 72.8542 170.373 72.5714L170.816 72.9386C170.614 73.2002 170.382 73.4218 170.12 73.6032C169.863 73.7847 169.582 73.9197 169.278 74.0083C168.974 74.0969 168.658 74.1412 168.329 74.1412ZM177.184 68.6153L176.247 74.0146H175.507L176.684 67.1658H177.399L177.184 68.6153ZM176.785 70.1661L176.462 69.9762C176.547 69.5964 176.673 69.2314 176.842 68.8812C177.011 68.5267 177.222 68.2102 177.475 67.9317C177.733 67.6532 178.03 67.4337 178.368 67.2734C178.709 67.113 179.093 67.035 179.52 67.0392C179.883 67.0434 180.186 67.1088 180.431 67.2354C180.68 67.3578 180.876 67.5308 181.02 67.7544C181.163 67.9739 181.256 68.2292 181.298 68.5204C181.345 68.8115 181.347 69.1238 181.305 69.4572L180.532 74.0146H179.792L180.564 69.4762C180.615 69.1428 180.608 68.8432 180.545 68.5773C180.482 68.3073 180.349 68.0941 180.146 67.938C179.944 67.7777 179.657 67.6954 179.285 67.6911C178.935 67.6911 178.621 67.7608 178.342 67.9C178.064 68.0393 177.821 68.2271 177.614 68.4634C177.408 68.6997 177.235 68.9656 177.095 69.2609C176.96 69.5563 176.857 69.8581 176.785 70.1661ZM181.311 69.5711L180.798 69.5774C180.878 69.2272 181.007 68.898 181.184 68.59C181.362 68.2777 181.581 68.0055 181.843 67.7734C182.104 67.5413 182.398 67.3599 182.723 67.2291C183.052 67.0983 183.406 67.035 183.786 67.0392C184.166 67.0392 184.482 67.1067 184.735 67.2417C184.989 67.3725 185.185 67.554 185.324 67.7861C185.468 68.014 185.56 68.2798 185.603 68.5837C185.645 68.8875 185.643 69.2103 185.596 69.5521L184.837 74.0146H184.09L184.849 69.5395C184.9 69.2019 184.898 68.8938 184.843 68.6153C184.788 68.3326 184.659 68.1089 184.457 67.9443C184.259 67.7755 183.967 67.6933 183.583 67.6975C183.305 67.6975 183.041 67.746 182.792 67.8431C182.547 67.9359 182.326 68.0688 182.128 68.2418C181.929 68.4106 181.758 68.609 181.615 68.8368C181.476 69.0605 181.374 69.3053 181.311 69.5711ZM191.094 72.7867L191.682 69.2483C191.729 68.9234 191.699 68.6448 191.594 68.4128C191.492 68.1764 191.328 67.9971 191.1 67.8747C190.876 67.7481 190.6 67.6827 190.271 67.6785C189.98 67.6743 189.693 67.7249 189.41 67.8304C189.127 67.9359 188.88 68.0899 188.669 68.2925C188.463 68.495 188.325 68.7482 188.258 69.0521L187.517 69.0457C187.564 68.7208 187.678 68.4338 187.859 68.1849C188.041 67.9317 188.264 67.7207 188.53 67.5519C188.8 67.3789 189.091 67.2502 189.404 67.1658C189.716 67.0772 190.024 67.035 190.328 67.0392C190.779 67.0392 191.172 67.1299 191.505 67.3114C191.838 67.4886 192.087 67.7439 192.252 68.0773C192.421 68.4064 192.476 68.8031 192.417 69.2673L191.86 72.5778C191.822 72.8014 191.796 73.0293 191.784 73.2614C191.771 73.4893 191.788 73.7129 191.834 73.9324L191.828 74.0146H191.056C191.026 73.8121 191.016 73.6074 191.024 73.4007C191.037 73.1939 191.06 72.9892 191.094 72.7867ZM191.733 70.0269L191.651 70.6092H190.252C189.99 70.6092 189.714 70.6324 189.423 70.6788C189.131 70.7252 188.853 70.8054 188.587 70.9194C188.321 71.0333 188.095 71.1915 187.91 71.3941C187.724 71.5924 187.606 71.8456 187.555 72.1537C187.513 72.4195 187.543 72.6516 187.644 72.85C187.749 73.0441 187.903 73.196 188.106 73.3057C188.308 73.4112 188.536 73.4661 188.79 73.4703C189.161 73.4745 189.513 73.407 189.847 73.2677C190.18 73.1243 190.478 72.9259 190.739 72.6727C191.001 72.4195 191.205 72.1241 191.353 71.7865L191.613 72.2296C191.499 72.5166 191.338 72.7803 191.132 73.0209C190.929 73.2572 190.697 73.4597 190.435 73.6285C190.174 73.7931 189.893 73.9218 189.593 74.0146C189.294 74.1033 188.99 74.1476 188.682 74.1476C188.306 74.1391 187.969 74.0568 187.669 73.9007C187.374 73.7446 187.144 73.523 186.979 73.2361C186.815 72.9491 186.753 72.6115 186.796 72.2233C186.842 71.8098 186.973 71.4637 187.188 71.1852C187.408 70.9025 187.68 70.6767 188.005 70.5079C188.33 70.3391 188.68 70.2168 189.055 70.1408C189.431 70.0648 189.796 70.0269 190.15 70.0269H191.733ZM195.369 68.6596L194.445 74.0146H193.705L194.888 67.1658H195.597L195.369 68.6596ZM194.958 70.1661L194.66 69.9762C194.745 69.6049 194.873 69.2441 195.046 68.8938C195.219 68.5393 195.435 68.2229 195.692 67.9443C195.954 67.6616 196.253 67.4401 196.591 67.2797C196.933 67.1151 197.313 67.035 197.73 67.0392C198.106 67.0434 198.416 67.113 198.661 67.2481C198.91 67.3789 199.102 67.5624 199.237 67.7988C199.372 68.0309 199.456 68.2988 199.49 68.6026C199.528 68.9023 199.524 69.2209 199.477 69.5584L198.724 74.0146H197.977L198.743 69.5458C198.79 69.2166 198.787 68.9128 198.737 68.6343C198.69 68.3516 198.572 68.1258 198.382 67.957C198.192 67.784 197.908 67.6975 197.528 67.6975C197.19 67.6933 196.88 67.7629 196.597 67.9064C196.315 68.0456 196.061 68.2355 195.838 68.476C195.618 68.7124 195.433 68.9782 195.281 69.2736C195.133 69.5648 195.025 69.8623 194.958 70.1661ZM205.285 72.4005L206.184 67.1658H206.931L205.747 74.0146H205.032L205.285 72.4005ZM205.62 71.1662L206 71.1536C205.937 71.5671 205.827 71.9575 205.671 72.3246C205.519 72.6875 205.319 73.0061 205.07 73.2804C204.821 73.5547 204.521 73.7699 204.171 73.926C203.821 74.0779 203.418 74.1497 202.962 74.1412C202.578 74.137 202.259 74.0653 202.006 73.926C201.753 73.7868 201.557 73.5969 201.417 73.3563C201.278 73.1116 201.189 72.8352 201.151 72.5271C201.113 72.2149 201.116 71.8878 201.158 71.546L201.905 67.1658H202.645L201.898 71.565C201.865 71.8013 201.854 72.0334 201.867 72.2613C201.884 72.4849 201.932 72.6875 202.012 72.8689C202.097 73.0504 202.223 73.196 202.392 73.3057C202.565 73.4154 202.791 73.4724 203.069 73.4766C203.555 73.4851 203.972 73.3901 204.323 73.1918C204.673 72.9892 204.956 72.7128 205.171 72.3626C205.39 72.0123 205.54 71.6135 205.62 71.1662ZM212.054 72.7867L212.643 69.2483C212.69 68.9234 212.66 68.6448 212.555 68.4128C212.453 68.1764 212.289 67.9971 212.061 67.8747C211.837 67.7481 211.561 67.6827 211.232 67.6785C210.94 67.6743 210.653 67.7249 210.371 67.8304C210.088 67.9359 209.841 68.0899 209.63 68.2925C209.423 68.495 209.286 68.7482 209.219 69.0521L208.478 69.0457C208.525 68.7208 208.638 68.4338 208.82 68.1849C209.001 67.9317 209.225 67.7207 209.491 67.5519C209.761 67.3789 210.052 67.2502 210.364 67.1658C210.677 67.0772 210.985 67.035 211.289 67.0392C211.74 67.0392 212.133 67.1299 212.466 67.3114C212.799 67.4886 213.048 67.7439 213.213 68.0773C213.382 68.4064 213.436 68.8031 213.377 69.2673L212.82 72.5778C212.782 72.8014 212.757 73.0293 212.744 73.2614C212.732 73.4893 212.749 73.7129 212.795 73.9324L212.789 74.0146H212.016C211.987 73.8121 211.976 73.6074 211.985 73.4007C211.997 73.1939 212.021 72.9892 212.054 72.7867ZM212.694 70.0269L212.611 70.6092H211.213C210.951 70.6092 210.675 70.6324 210.383 70.6788C210.092 70.7252 209.814 70.8054 209.548 70.9194C209.282 71.0333 209.056 71.1915 208.871 71.3941C208.685 71.5924 208.567 71.8456 208.516 72.1537C208.474 72.4195 208.503 72.6516 208.605 72.85C208.71 73.0441 208.864 73.196 209.067 73.3057C209.269 73.4112 209.497 73.4661 209.75 73.4703C210.122 73.4745 210.474 73.407 210.807 73.2677C211.141 73.1243 211.438 72.9259 211.7 72.6727C211.962 72.4195 212.166 72.1241 212.314 71.7865L212.574 72.2296C212.46 72.5166 212.299 72.7803 212.092 73.0209C211.89 73.2572 211.658 73.4597 211.396 73.6285C211.135 73.7931 210.854 73.9218 210.554 74.0146C210.255 74.1033 209.951 74.1476 209.643 74.1476C209.267 74.1391 208.93 74.0568 208.63 73.9007C208.335 73.7446 208.105 73.523 207.94 73.2361C207.776 72.9491 207.714 72.6115 207.757 72.2233C207.803 71.8098 207.934 71.4637 208.149 71.1852C208.368 70.9025 208.641 70.6767 208.966 70.5079C209.29 70.3391 209.641 70.2168 210.016 70.1408C210.392 70.0648 210.757 70.0269 211.111 70.0269H212.694ZM217.172 64.292L215.495 74.0146H214.754L216.431 64.292H217.172ZM220.125 64.292L218.447 74.0146H217.707L219.384 64.292H220.125ZM222.653 73.2994L225.787 67.1721H226.61L222.438 75.116C222.328 75.3313 222.206 75.538 222.071 75.7364C221.936 75.9389 221.784 76.1183 221.615 76.2744C221.446 76.4348 221.254 76.5592 221.039 76.6479C220.828 76.7407 220.59 76.7892 220.324 76.7934C220.227 76.7892 220.128 76.7787 220.026 76.7618C219.925 76.7491 219.828 76.7301 219.735 76.7048L219.786 76.0655C219.849 76.074 219.913 76.0824 219.976 76.0908C220.035 76.1035 220.094 76.1098 220.153 76.1098C220.436 76.1183 220.681 76.0655 220.887 75.9516C221.094 75.8419 221.273 75.6921 221.425 75.5022C221.582 75.3123 221.719 75.1013 221.837 74.8692L222.653 73.2994ZM221.78 67.1594L222.894 73.0778L222.957 73.8564L222.388 74.1602L221.001 67.1594H221.78Z" fill="#2B6043"/>
<path d="M316.676 64.7984L315.087 74.0146H314.334L315.929 64.7984H316.676ZM319.739 64.7984L319.632 65.4694H312.751L312.865 64.7984H319.739ZM319.09 70.7168L319.122 70.5079C319.185 70.0606 319.308 69.6281 319.489 69.2103C319.671 68.7925 319.907 68.4212 320.198 68.0963C320.493 67.7671 320.84 67.5076 321.236 67.3177C321.633 67.1278 322.074 67.035 322.559 67.0392C323.04 67.0434 323.45 67.1447 323.787 67.343C324.125 67.5371 324.395 67.7988 324.597 68.1279C324.804 68.4571 324.945 68.8263 325.021 69.2356C325.097 69.6407 325.11 70.0564 325.059 70.4826L325.034 70.6915C324.971 71.1388 324.846 71.5692 324.661 71.9828C324.479 72.3963 324.241 72.7677 323.945 73.0968C323.654 73.4218 323.31 73.6792 322.914 73.8691C322.517 74.0547 322.076 74.1455 321.591 74.1412C321.114 74.137 320.704 74.0379 320.363 73.8437C320.025 73.6454 319.755 73.3838 319.552 73.0588C319.35 72.7297 319.211 72.3626 319.135 71.9575C319.059 71.5523 319.044 71.1388 319.09 70.7168ZM319.863 70.5079L319.837 70.7168C319.795 71.0333 319.793 71.354 319.831 71.6789C319.869 72.0039 319.955 72.3035 320.09 72.5778C320.23 72.8479 320.424 73.0673 320.673 73.2361C320.922 73.4049 321.234 73.4914 321.61 73.4956C321.994 73.4998 322.34 73.4218 322.648 73.2614C322.956 73.101 323.222 72.8858 323.445 72.6158C323.673 72.3415 323.857 72.0376 323.996 71.7043C324.135 71.3667 324.232 71.0291 324.287 70.6915L324.312 70.4826C324.355 70.1703 324.355 69.8517 324.312 69.5268C324.274 69.1976 324.188 68.8959 324.053 68.6216C323.918 68.3473 323.726 68.1258 323.477 67.957C323.228 67.784 322.916 67.6954 322.54 67.6911C322.156 67.6827 321.81 67.7608 321.502 67.9254C321.194 68.0857 320.928 68.303 320.704 68.5773C320.481 68.8516 320.297 69.1576 320.154 69.4952C320.015 69.8285 319.917 70.1661 319.863 70.5079ZM331.933 73.4956C332.271 73.4956 332.583 73.4302 332.87 73.2994C333.157 73.1686 333.4 72.9829 333.598 72.7424C333.801 72.5018 333.946 72.2212 334.035 71.9005H334.75C334.666 72.3478 334.484 72.7402 334.206 73.0778C333.927 73.4154 333.588 73.6792 333.187 73.8691C332.79 74.0547 332.366 74.1455 331.914 74.1412C331.433 74.137 331.03 74.0357 330.705 73.8374C330.38 73.6391 330.125 73.3774 329.939 73.0525C329.754 72.7234 329.629 72.3583 329.566 71.9575C329.507 71.5523 329.505 71.143 329.56 70.7295L329.591 70.4636C329.65 70.0247 329.764 69.6006 329.933 69.1913C330.102 68.7778 330.323 68.4085 330.598 68.0836C330.876 67.7587 331.208 67.5034 331.592 67.3177C331.976 67.1278 332.408 67.035 332.889 67.0392C333.366 67.0434 333.775 67.1531 334.117 67.3683C334.459 67.5793 334.718 67.8684 334.896 68.2355C335.077 68.5984 335.159 69.012 335.143 69.4762L334.44 69.4698C334.453 69.1407 334.4 68.8432 334.282 68.5773C334.168 68.3073 333.991 68.0941 333.75 67.938C333.509 67.7777 333.216 67.6933 332.87 67.6848C332.478 67.6806 332.134 67.7587 331.838 67.919C331.547 68.0752 331.298 68.2883 331.091 68.5583C330.885 68.8284 330.718 69.128 330.591 69.4572C330.465 69.7863 330.376 70.1218 330.326 70.4636L330.288 70.7295C330.25 71.0417 330.241 71.3603 330.262 71.6853C330.288 72.006 330.357 72.3035 330.471 72.5778C330.589 72.8479 330.767 73.0673 331.003 73.2361C331.239 73.4007 331.549 73.4872 331.933 73.4956ZM336.139 70.7168L336.171 70.5079C336.234 70.0606 336.357 69.6281 336.538 69.2103C336.72 68.7925 336.956 68.4212 337.247 68.0963C337.542 67.7671 337.889 67.5076 338.285 67.3177C338.682 67.1278 339.123 67.035 339.608 67.0392C340.089 67.0434 340.499 67.1447 340.836 67.343C341.174 67.5371 341.444 67.7988 341.646 68.1279C341.853 68.4571 341.994 68.8263 342.07 69.2356C342.146 69.6407 342.159 70.0564 342.108 70.4826L342.083 70.6915C342.02 71.1388 341.895 71.5692 341.71 71.9828C341.528 72.3963 341.29 72.7677 340.994 73.0968C340.703 73.4218 340.359 73.6792 339.963 73.8691C339.566 74.0547 339.125 74.1455 338.64 74.1412C338.163 74.137 337.753 74.0379 337.412 73.8437C337.074 73.6454 336.804 73.3838 336.601 73.0588C336.399 72.7297 336.26 72.3626 336.184 71.9575C336.108 71.5523 336.093 71.1388 336.139 70.7168ZM336.912 70.5079L336.886 70.7168C336.844 71.0333 336.842 71.354 336.88 71.6789C336.918 72.0039 337.004 72.3035 337.139 72.5778C337.279 72.8479 337.473 73.0673 337.722 73.2361C337.971 73.4049 338.283 73.4914 338.659 73.4956C339.043 73.4998 339.389 73.4218 339.697 73.2614C340.005 73.101 340.271 72.8858 340.494 72.6158C340.722 72.3415 340.906 72.0376 341.045 71.7043C341.184 71.3667 341.281 71.0291 341.336 70.6915L341.361 70.4826C341.404 70.1703 341.404 69.8517 341.361 69.5268C341.324 69.1976 341.237 68.8959 341.102 68.6216C340.967 68.3473 340.775 68.1258 340.526 67.957C340.277 67.784 339.965 67.6954 339.589 67.6911C339.205 67.6827 338.859 67.7608 338.551 67.9254C338.243 68.0857 337.977 68.303 337.753 68.5773C337.53 68.8516 337.346 69.1576 337.203 69.4952C337.064 69.8285 336.966 70.1661 336.912 70.5079ZM344.783 68.6153L343.846 74.0146H343.105L344.283 67.1658H344.998L344.783 68.6153ZM344.384 70.1661L344.061 69.9762C344.145 69.5964 344.272 69.2314 344.441 68.8812C344.61 68.5267 344.821 68.2102 345.074 67.9317C345.331 67.6532 345.629 67.4337 345.966 67.2734C346.308 67.113 346.692 67.035 347.118 67.0392C347.481 67.0434 347.785 67.1088 348.03 67.2354C348.279 67.3578 348.475 67.5308 348.619 67.7544C348.762 67.9739 348.855 68.2292 348.897 68.5204C348.943 68.8115 348.946 69.1238 348.903 69.4572L348.131 74.0146H347.391L348.163 69.4762C348.213 69.1428 348.207 68.8432 348.144 68.5773C348.08 68.3073 347.948 68.0941 347.745 67.938C347.542 67.7777 347.255 67.6954 346.884 67.6911C346.534 67.6911 346.22 67.7608 345.941 67.9C345.662 68.0393 345.42 68.2271 345.213 68.4634C345.006 68.6997 344.833 68.9656 344.694 69.2609C344.559 69.5563 344.456 69.8581 344.384 70.1661ZM348.91 69.5711L348.397 69.5774C348.477 69.2272 348.606 68.898 348.783 68.59C348.96 68.2777 349.18 68.0055 349.441 67.7734C349.703 67.5413 349.996 67.3599 350.321 67.2291C350.65 67.0983 351.005 67.035 351.385 67.0392C351.764 67.0392 352.081 67.1067 352.334 67.2417C352.587 67.3725 352.784 67.554 352.923 67.7861C353.066 68.014 353.159 68.2798 353.201 68.5837C353.244 68.8875 353.241 69.2103 353.195 69.5521L352.435 74.0146H351.688L352.448 69.5395C352.499 69.2019 352.497 68.8938 352.442 68.6153C352.387 68.3326 352.258 68.1089 352.056 67.9443C351.857 67.7755 351.566 67.6933 351.182 67.6975C350.904 67.6975 350.64 67.746 350.391 67.8431C350.146 67.9359 349.925 68.0688 349.726 68.2418C349.528 68.4106 349.357 68.609 349.214 68.8368C349.074 69.0605 348.973 69.3053 348.91 69.5711ZM356.11 68.514L354.705 76.6479H353.958L355.597 67.1658H356.293L356.11 68.514ZM360.376 70.5079L360.357 70.6408C360.294 71.046 360.186 71.4553 360.034 71.8688C359.887 72.2824 359.688 72.6622 359.439 73.0082C359.19 73.3542 358.886 73.6327 358.528 73.8437C358.173 74.0505 357.758 74.1497 357.281 74.1412C356.926 74.1412 356.603 74.0737 356.312 73.9387C356.021 73.7994 355.774 73.6116 355.572 73.3753C355.369 73.1348 355.217 72.8584 355.116 72.5461C355.015 72.2339 354.975 71.9026 354.996 71.5523L355.274 69.8053C355.359 69.4382 355.492 69.0879 355.673 68.7546C355.854 68.4212 356.078 68.1237 356.344 67.8621C356.614 67.6004 356.918 67.3979 357.255 67.2544C357.597 67.1067 357.964 67.035 358.357 67.0392C358.829 67.0434 359.211 67.1531 359.503 67.3683C359.794 67.5835 360.011 67.8642 360.154 68.2102C360.298 68.5562 360.382 68.9318 360.408 69.3369C360.437 69.7378 360.427 70.1281 360.376 70.5079ZM359.61 70.6408L359.629 70.5016C359.671 70.2146 359.688 69.9108 359.68 69.5901C359.671 69.2652 359.619 68.9613 359.522 68.6786C359.429 68.3959 359.275 68.1638 359.059 67.9823C358.844 67.7966 358.547 67.7017 358.167 67.6975C357.88 67.6933 357.604 67.7439 357.338 67.8494C357.076 67.9507 356.836 68.092 356.616 68.2735C356.397 68.4549 356.207 68.6659 356.046 68.9065C355.89 69.147 355.776 69.4044 355.705 69.6787L355.35 71.7106C355.337 72.0524 355.413 72.3583 355.578 72.6284C355.743 72.8943 355.962 73.1053 356.236 73.2614C356.515 73.4133 356.817 73.4914 357.141 73.4956C357.53 73.4998 357.865 73.4175 358.148 73.2487C358.435 73.0757 358.675 72.8479 358.87 72.5651C359.068 72.2782 359.226 71.968 359.344 71.6346C359.467 71.297 359.555 70.9658 359.61 70.6408ZM364.038 64.292L362.36 74.0146H361.62L363.297 64.292H364.038ZM367.161 74.1412C366.697 74.137 366.296 74.04 365.959 73.8501C365.621 73.6602 365.347 73.407 365.136 73.0905C364.929 72.7698 364.783 72.4111 364.699 72.0144C364.619 71.6178 364.602 71.2105 364.648 70.7928L364.686 70.5143C364.741 70.0923 364.857 69.6745 365.035 69.2609C365.212 68.8474 365.442 68.4739 365.724 68.1406C366.011 67.803 366.347 67.535 366.731 67.3367C367.115 67.1341 367.541 67.035 368.01 67.0392C368.453 67.0434 368.824 67.1362 369.124 67.3177C369.427 67.4949 369.668 67.7333 369.845 68.033C370.022 68.3326 370.138 68.6681 370.193 69.0394C370.252 69.4108 370.259 69.7905 370.212 70.1788L370.149 70.6408H365.11L365.205 69.9952H369.484L369.503 69.9066C369.558 69.5479 369.539 69.1998 369.446 68.8622C369.358 68.5246 369.193 68.2461 368.953 68.0266C368.712 67.8072 368.389 67.6954 367.984 67.6911C367.604 67.6827 367.267 67.7629 366.971 67.9317C366.676 68.0963 366.421 68.3199 366.206 68.6026C365.995 68.8812 365.824 69.1892 365.693 69.5268C365.562 69.8602 365.471 70.1893 365.421 70.5143L365.389 70.7864C365.347 71.1029 365.349 71.4194 365.395 71.7359C365.446 72.0524 365.543 72.3436 365.687 72.6094C365.834 72.8711 366.033 73.0842 366.282 73.2487C366.535 73.4091 366.843 73.4914 367.206 73.4956C367.611 73.504 367.976 73.4239 368.301 73.2551C368.63 73.0821 368.932 72.8542 369.206 72.5714L369.649 72.9386C369.446 73.2002 369.214 73.4218 368.953 73.6032C368.695 73.7847 368.415 73.9197 368.111 74.0083C367.807 74.0969 367.491 74.1412 367.161 74.1412ZM374.823 67.1658L374.722 67.7861H371.38L371.488 67.1658H374.823ZM373.013 65.4061H373.754L372.564 72.3562C372.538 72.5377 372.532 72.7128 372.545 72.8816C372.562 73.0504 372.619 73.1897 372.716 73.2994C372.813 73.4049 372.971 73.4597 373.19 73.464C373.296 73.464 373.399 73.4576 373.501 73.445C373.606 73.4281 373.709 73.4133 373.811 73.4007L373.779 74.0463C373.652 74.0801 373.526 74.1033 373.399 74.1159C373.273 74.1328 373.144 74.1391 373.013 74.1349C372.659 74.1307 372.391 74.0442 372.209 73.8754C372.028 73.7066 371.91 73.4872 371.855 73.2171C371.8 72.9428 371.794 72.6516 371.836 72.3436L373.013 65.4061ZM377.979 74.1412C377.515 74.137 377.114 74.04 376.776 73.8501C376.439 73.6602 376.164 73.407 375.953 73.0905C375.746 72.7698 375.601 72.4111 375.516 72.0144C375.436 71.6178 375.419 71.2105 375.466 70.7928L375.504 70.5143C375.559 70.0923 375.675 69.6745 375.852 69.2609C376.029 68.8474 376.259 68.4739 376.542 68.1406C376.829 67.803 377.164 67.535 377.548 67.3367C377.932 67.1341 378.359 67.035 378.827 67.0392C379.27 67.0434 379.641 67.1362 379.941 67.3177C380.245 67.4949 380.485 67.7333 380.663 68.033C380.84 68.3326 380.956 68.6681 381.011 69.0394C381.07 69.4108 381.076 69.7905 381.03 70.1788L380.966 70.6408H375.928L376.023 69.9952H380.302L380.321 69.9066C380.376 69.5479 380.357 69.1998 380.264 68.8622C380.175 68.5246 380.011 68.2461 379.77 68.0266C379.53 67.8072 379.207 67.6954 378.802 67.6911C378.422 67.6827 378.084 67.7629 377.789 67.9317C377.493 68.0963 377.238 68.3199 377.023 68.6026C376.812 68.8812 376.641 69.1892 376.51 69.5268C376.379 69.8602 376.289 70.1893 376.238 70.5143L376.206 70.7864C376.164 71.1029 376.166 71.4194 376.213 71.7359C376.263 72.0524 376.36 72.3436 376.504 72.6094C376.652 72.8711 376.85 73.0842 377.099 73.2487C377.352 73.4091 377.66 73.4914 378.023 73.4956C378.428 73.504 378.793 73.4239 379.118 73.2551C379.447 73.0821 379.749 72.8542 380.023 72.5714L380.466 72.9386C380.264 73.2002 380.032 73.4218 379.77 73.6032C379.513 73.7847 379.232 73.9197 378.928 74.0083C378.624 74.0969 378.308 74.1412 377.979 74.1412ZM386.834 68.6153L385.897 74.0146H385.157L386.334 67.1658H387.049L386.834 68.6153ZM386.435 70.1661L386.112 69.9762C386.197 69.5964 386.323 69.2314 386.492 68.8812C386.661 68.5267 386.872 68.2102 387.125 67.9317C387.383 67.6532 387.68 67.4337 388.018 67.2734C388.359 67.113 388.743 67.035 389.17 67.0392C389.533 67.0434 389.836 67.1088 390.081 67.2354C390.33 67.3578 390.526 67.5308 390.67 67.7544C390.813 67.9739 390.906 68.2292 390.948 68.5204C390.995 68.8115 390.997 69.1238 390.955 69.4572L390.182 74.0146H389.442L390.214 69.4762C390.265 69.1428 390.258 68.8432 390.195 68.5773C390.132 68.3073 389.999 68.0941 389.796 67.938C389.594 67.7777 389.307 67.6954 388.935 67.6911C388.585 67.6911 388.271 67.7608 387.992 67.9C387.714 68.0393 387.471 68.2271 387.264 68.4634C387.058 68.6997 386.885 68.9656 386.745 69.2609C386.61 69.5563 386.507 69.8581 386.435 70.1661ZM390.961 69.5711L390.448 69.5774C390.528 69.2272 390.657 68.898 390.834 68.59C391.012 68.2777 391.231 68.0055 391.493 67.7734C391.754 67.5413 392.048 67.3599 392.373 67.2291C392.702 67.0983 393.056 67.035 393.436 67.0392C393.816 67.0392 394.132 67.1067 394.385 67.2417C394.639 67.3725 394.835 67.554 394.974 67.7861C395.118 68.014 395.21 68.2798 395.253 68.5837C395.295 68.8875 395.293 69.2103 395.246 69.5521L394.487 74.0146H393.74L394.499 69.5395C394.55 69.2019 394.548 68.8938 394.493 68.6153C394.438 68.3326 394.309 68.1089 394.107 67.9443C393.909 67.7755 393.617 67.6933 393.233 67.6975C392.955 67.6975 392.691 67.746 392.442 67.8431C392.197 67.9359 391.976 68.0688 391.778 68.2418C391.579 68.4106 391.408 68.609 391.265 68.8368C391.126 69.0605 391.024 69.3053 390.961 69.5711ZM396.655 70.7168L396.686 70.5079C396.75 70.0606 396.872 69.6281 397.053 69.2103C397.235 68.7925 397.471 68.4212 397.762 68.0963C398.058 67.7671 398.404 67.5076 398.8 67.3177C399.197 67.1278 399.638 67.035 400.123 67.0392C400.604 67.0434 401.014 67.1447 401.351 67.343C401.689 67.5371 401.959 67.7988 402.162 68.1279C402.368 68.4571 402.51 68.8263 402.586 69.2356C402.662 69.6407 402.674 70.0564 402.624 70.4826L402.598 70.6915C402.535 71.1388 402.41 71.5692 402.225 71.9828C402.043 72.3963 401.805 72.7677 401.51 73.0968C401.218 73.4218 400.874 73.6792 400.478 73.8691C400.081 74.0547 399.64 74.1455 399.155 74.1412C398.678 74.137 398.269 74.0379 397.927 73.8437C397.589 73.6454 397.319 73.3838 397.117 73.0588C396.914 72.7297 396.775 72.3626 396.699 71.9575C396.623 71.5523 396.608 71.1388 396.655 70.7168ZM397.427 70.5079L397.401 70.7168C397.359 71.0333 397.357 71.354 397.395 71.6789C397.433 72.0039 397.52 72.3035 397.655 72.5778C397.794 72.8479 397.988 73.0673 398.237 73.2361C398.486 73.4049 398.798 73.4914 399.174 73.4956C399.558 73.4998 399.904 73.4218 400.212 73.2614C400.52 73.101 400.786 72.8858 401.009 72.6158C401.237 72.3415 401.421 72.0376 401.56 71.7043C401.699 71.3667 401.796 71.0291 401.851 70.6915L401.877 70.4826C401.919 70.1703 401.919 69.8517 401.877 69.5268C401.839 69.1976 401.752 68.8959 401.617 68.6216C401.482 68.3473 401.29 68.1258 401.041 67.957C400.792 67.784 400.48 67.6954 400.104 67.6911C399.72 67.6827 399.374 67.7608 399.066 67.9254C398.758 68.0857 398.492 68.303 398.269 68.5773C398.045 68.8516 397.861 69.1576 397.718 69.4952C397.579 69.8285 397.482 70.1661 397.427 70.5079ZM405.323 68.6596L404.399 74.0146H403.658L404.842 67.1658H405.551L405.323 68.6596ZM404.912 70.1661L404.614 69.9762C404.699 69.6049 404.827 69.2441 405 68.8938C405.173 68.5393 405.389 68.2229 405.646 67.9443C405.908 67.6616 406.207 67.4401 406.545 67.2797C406.887 67.1151 407.266 67.035 407.684 67.0392C408.06 67.0434 408.37 67.113 408.615 67.2481C408.864 67.3789 409.056 67.5624 409.191 67.7988C409.326 68.0309 409.41 68.2988 409.444 68.6026C409.482 68.9023 409.478 69.2209 409.431 69.5584L408.678 74.0146H407.931L408.697 69.5458C408.743 69.2166 408.741 68.9128 408.691 68.6343C408.644 68.3516 408.526 68.1258 408.336 67.957C408.146 67.784 407.861 67.6975 407.482 67.6975C407.144 67.6933 406.834 67.7629 406.551 67.9064C406.268 68.0456 406.015 68.2355 405.792 68.476C405.572 68.7124 405.386 68.9782 405.235 69.2736C405.087 69.5648 404.979 69.8623 404.912 70.1661ZM414.403 67.1658L414.302 67.7861H410.96L411.067 67.1658H414.403ZM412.593 65.4061H413.333L412.143 72.3562C412.118 72.5377 412.112 72.7128 412.124 72.8816C412.141 73.0504 412.198 73.1897 412.295 73.2994C412.392 73.4049 412.551 73.4597 412.77 73.464C412.876 73.464 412.979 73.4576 413.08 73.445C413.186 73.4281 413.289 73.4133 413.39 73.4007L413.359 74.0463C413.232 74.0801 413.106 74.1033 412.979 74.1159C412.852 74.1328 412.724 74.1391 412.593 74.1349C412.238 74.1307 411.97 74.0442 411.789 73.8754C411.607 73.7066 411.489 73.4872 411.434 73.2171C411.38 72.9428 411.373 72.6516 411.415 72.3436L412.593 65.4061ZM417.305 64.292L415.622 74.0146H414.881L416.565 64.292H417.305ZM416.134 70.1661L415.837 69.9762C415.921 69.6049 416.05 69.2441 416.223 68.8938C416.396 68.5393 416.611 68.2229 416.868 67.9443C417.13 67.6616 417.43 67.4401 417.767 67.2797C418.109 67.1151 418.489 67.035 418.907 67.0392C419.282 67.0434 419.592 67.113 419.837 67.2481C420.086 67.3789 420.278 67.5624 420.413 67.7988C420.548 68.0309 420.633 68.2988 420.666 68.6026C420.704 68.9023 420.7 69.2209 420.654 69.5584L419.9 74.0146H419.154L419.919 69.5458C419.966 69.2166 419.964 68.9128 419.913 68.6343C419.867 68.3516 419.749 68.1258 419.559 67.957C419.369 67.784 419.084 67.6975 418.704 67.6975C418.367 67.6933 418.056 67.7629 417.774 67.9064C417.491 68.0456 417.238 68.2355 417.014 68.476C416.795 68.7124 416.609 68.9782 416.457 69.2736C416.309 69.5648 416.202 69.8623 416.134 70.1661ZM424.417 64.292L422.739 74.0146H421.999L423.676 64.292H424.417ZM426.945 73.2994L430.079 67.1721H430.901L426.73 75.116C426.62 75.3313 426.498 75.538 426.363 75.7364C426.228 75.9389 426.076 76.1183 425.907 76.2744C425.738 76.4348 425.546 76.5592 425.331 76.6479C425.12 76.7407 424.882 76.7892 424.616 76.7934C424.519 76.7892 424.42 76.7787 424.318 76.7618C424.217 76.7491 424.12 76.7301 424.027 76.7048L424.078 76.0655C424.141 76.074 424.205 76.0824 424.268 76.0908C424.327 76.1035 424.386 76.1098 424.445 76.1098C424.728 76.1183 424.973 76.0655 425.179 75.9516C425.386 75.8419 425.565 75.6921 425.717 75.5022C425.873 75.3123 426.011 75.1013 426.129 74.8692L426.945 73.2994ZM426.072 67.1594L427.186 73.0778L427.249 73.8564L426.679 74.1602L425.293 67.1594H426.072ZM435.959 68.3241L434.978 74.0146H434.237L435.421 67.1658H436.142L435.959 68.3241ZM438.497 67.1151L438.402 67.8051C438.326 67.7924 438.248 67.7819 438.168 67.7734C438.088 67.765 438.007 67.7608 437.927 67.7608C437.586 67.7566 437.282 67.8199 437.016 67.9507C436.754 68.0815 436.524 68.2587 436.326 68.4824C436.132 68.706 435.969 68.9592 435.838 69.242C435.708 69.5205 435.606 69.8074 435.535 70.1028L435.237 70.2104C435.3 69.8433 435.395 69.4719 435.522 69.0964C435.653 68.7208 435.826 68.3769 436.041 68.0646C436.26 67.7481 436.528 67.4949 436.845 67.305C437.166 67.1151 437.545 67.0244 437.984 67.0328C438.073 67.0328 438.159 67.0413 438.244 67.0582C438.328 67.0708 438.413 67.0898 438.497 67.1151ZM441.146 74.1412C440.682 74.137 440.281 74.04 439.943 73.8501C439.606 73.6602 439.331 73.407 439.12 73.0905C438.914 72.7698 438.768 72.4111 438.684 72.0144C438.603 71.6178 438.587 71.2105 438.633 70.7928L438.671 70.5143C438.726 70.0923 438.842 69.6745 439.019 69.2609C439.196 68.8474 439.426 68.4739 439.709 68.1406C439.996 67.803 440.331 67.535 440.715 67.3367C441.099 67.1341 441.526 67.035 441.994 67.0392C442.437 67.0434 442.809 67.1362 443.108 67.3177C443.412 67.4949 443.653 67.7333 443.83 68.033C444.007 68.3326 444.123 68.6681 444.178 69.0394C444.237 69.4108 444.243 69.7905 444.197 70.1788L444.134 70.6408H439.095L439.19 69.9952H443.469L443.488 69.9066C443.543 69.5479 443.524 69.1998 443.431 68.8622C443.342 68.5246 443.178 68.2461 442.937 68.0266C442.697 67.8072 442.374 67.6954 441.969 67.6911C441.589 67.6827 441.251 67.7629 440.956 67.9317C440.661 68.0963 440.405 68.3199 440.19 68.6026C439.979 68.8812 439.808 69.1892 439.677 69.5268C439.547 69.8602 439.456 70.1893 439.405 70.5143L439.374 70.7864C439.331 71.1029 439.333 71.4194 439.38 71.7359C439.431 72.0524 439.528 72.3436 439.671 72.6094C439.819 72.8711 440.017 73.0842 440.266 73.2487C440.519 73.4091 440.827 73.4914 441.19 73.4956C441.595 73.504 441.96 73.4239 442.285 73.2551C442.614 73.0821 442.916 72.8542 443.19 72.5714L443.634 72.9386C443.431 73.2002 443.199 73.4218 442.937 73.6032C442.68 73.7847 442.399 73.9197 442.095 74.0083C441.792 74.0969 441.475 74.1412 441.146 74.1412ZM446.789 68.514L445.384 76.6479H444.637L446.276 67.1658H446.972L446.789 68.514ZM451.055 70.5079L451.036 70.6408C450.973 71.046 450.865 71.4553 450.713 71.8688C450.566 72.2824 450.367 72.6622 450.118 73.0082C449.869 73.3542 449.566 73.6327 449.207 73.8437C448.852 74.0505 448.437 74.1497 447.96 74.1412C447.605 74.1412 447.283 74.0737 446.991 73.9387C446.7 73.7994 446.453 73.6116 446.251 73.3753C446.048 73.1348 445.896 72.8584 445.795 72.5461C445.694 72.2339 445.654 71.9026 445.675 71.5523L445.953 69.8053C446.038 69.4382 446.171 69.0879 446.352 68.7546C446.534 68.4212 446.757 68.1237 447.023 67.8621C447.293 67.6004 447.597 67.3979 447.935 67.2544C448.276 67.1067 448.643 67.035 449.036 67.0392C449.509 67.0434 449.89 67.1531 450.182 67.3683C450.473 67.5835 450.69 67.8642 450.834 68.2102C450.977 68.5562 451.061 68.9318 451.087 69.3369C451.116 69.7378 451.106 70.1281 451.055 70.5079ZM450.289 70.6408L450.308 70.5016C450.35 70.2146 450.367 69.9108 450.359 69.5901C450.35 69.2652 450.298 68.9613 450.201 68.6786C450.108 68.3959 449.954 68.1638 449.739 67.9823C449.523 67.7966 449.226 67.7017 448.846 67.6975C448.559 67.6933 448.283 67.7439 448.017 67.8494C447.755 67.9507 447.515 68.092 447.295 68.2735C447.076 68.4549 446.886 68.6659 446.726 68.9065C446.569 69.147 446.455 69.4044 446.384 69.6787L446.029 71.7106C446.017 72.0524 446.093 72.3583 446.257 72.6284C446.422 72.8943 446.641 73.1053 446.915 73.2614C447.194 73.4133 447.496 73.4914 447.821 73.4956C448.209 73.4998 448.544 73.4175 448.827 73.2487C449.114 73.0757 449.355 72.8479 449.549 72.5651C449.747 72.2782 449.905 71.968 450.023 71.6346C450.146 71.297 450.234 70.9658 450.289 70.6408ZM452.387 70.7168L452.419 70.5079C452.482 70.0606 452.605 69.6281 452.786 69.2103C452.968 68.7925 453.204 68.4212 453.495 68.0963C453.791 67.7671 454.137 67.5076 454.533 67.3177C454.93 67.1278 455.371 67.035 455.856 67.0392C456.337 67.0434 456.747 67.1447 457.084 67.343C457.422 67.5371 457.692 67.7988 457.894 68.1279C458.101 68.4571 458.243 68.8263 458.318 69.2356C458.394 69.6407 458.407 70.0564 458.356 70.4826L458.331 70.6915C458.268 71.1388 458.143 71.5692 457.958 71.9828C457.776 72.3963 457.538 72.7677 457.242 73.0968C456.951 73.4218 456.607 73.6792 456.211 73.8691C455.814 74.0547 455.373 74.1455 454.888 74.1412C454.411 74.137 454.002 74.0379 453.66 73.8437C453.322 73.6454 453.052 73.3838 452.85 73.0588C452.647 72.7297 452.508 72.3626 452.432 71.9575C452.356 71.5523 452.341 71.1388 452.387 70.7168ZM453.16 70.5079L453.134 70.7168C453.092 71.0333 453.09 71.354 453.128 71.6789C453.166 72.0039 453.253 72.3035 453.388 72.5778C453.527 72.8479 453.721 73.0673 453.97 73.2361C454.219 73.4049 454.531 73.4914 454.907 73.4956C455.291 73.4998 455.637 73.4218 455.945 73.2614C456.253 73.101 456.519 72.8858 456.742 72.6158C456.97 72.3415 457.154 72.0376 457.293 71.7043C457.432 71.3667 457.529 71.0291 457.584 70.6915L457.61 70.4826C457.652 70.1703 457.652 69.8517 457.61 69.5268C457.572 69.1976 457.485 68.8959 457.35 68.6216C457.215 68.3473 457.023 68.1258 456.774 67.957C456.525 67.784 456.213 67.6954 455.837 67.6911C455.453 67.6827 455.107 67.7608 454.799 67.9254C454.491 68.0857 454.225 68.303 454.002 68.5773C453.778 68.8516 453.594 69.1576 453.451 69.4952C453.312 69.8285 453.215 70.1661 453.16 70.5079ZM461.113 68.3241L460.132 74.0146H459.391L460.575 67.1658H461.297L461.113 68.3241ZM463.651 67.1151L463.556 67.8051C463.48 67.7924 463.402 67.7819 463.322 67.7734C463.242 67.765 463.162 67.7608 463.082 67.7608C462.74 67.7566 462.436 67.8199 462.17 67.9507C461.908 68.0815 461.678 68.2587 461.48 68.4824C461.286 68.706 461.124 68.9592 460.993 69.242C460.862 69.5205 460.761 69.8074 460.689 70.1028L460.391 70.2104C460.455 69.8433 460.55 69.4719 460.676 69.0964C460.807 68.7208 460.98 68.3769 461.195 68.0646C461.415 67.7481 461.683 67.4949 461.999 67.305C462.32 67.1151 462.7 67.0244 463.139 67.0328C463.227 67.0328 463.314 67.0413 463.398 67.0582C463.482 67.0708 463.567 67.0898 463.651 67.1151ZM467.769 67.1658L467.667 67.7861H464.325L464.433 67.1658H467.769ZM465.958 65.4061H466.699L465.509 72.3562C465.484 72.5377 465.477 72.7128 465.49 72.8816C465.507 73.0504 465.564 73.1897 465.661 73.2994C465.758 73.4049 465.916 73.4597 466.136 73.464C466.241 73.464 466.344 73.4576 466.446 73.445C466.551 73.4281 466.655 73.4133 466.756 73.4007L466.724 74.0463C466.598 74.0801 466.471 74.1033 466.344 74.1159C466.218 74.1328 466.089 74.1391 465.958 74.1349C465.604 74.1307 465.336 74.0442 465.154 73.8754C464.973 73.7066 464.855 73.4872 464.8 73.2171C464.745 72.9428 464.739 72.6516 464.781 72.3436L465.958 65.4061Z" fill="#3E795A"/>
<line x1="270.381" y1="51.1038" x2="270.381" y2="60.8065" stroke="#DDEFE5" stroke-width="1.76414" stroke-linecap="round"/>
<path d="M42.335 53.4531H144.963" stroke="#F3C05C" stroke-opacity="0.31" stroke-width="3.24087" stroke-linecap="round"/>
<path d="M313.766 53.4531H400.189" stroke="#F3C05C" stroke-opacity="0.31" stroke-width="3.24087" stroke-linecap="round"/>
</svg>
