<svg width="47" height="42" viewBox="0 0 47 42" fill="currentColor" stroke="currentColor" xmlns="http://www.w3.org/2000/svg">
<path d="M35 42L30.95 39C32.05 37.6 33.2 35.6 34.4 33C35.6 30.4 36.55 27.55 37.25 24.45C37.95 21.35 38.15 18.25 37.85 15.15C37.15 15.45 36.5 15.65 35.9 15.75C35.3 15.95 34.7 16.05 34.1 16.05C32.1 16.05 30.45 15.35 29.15 13.95C27.85 12.55 27.2 10.8 27.2 8.70001C27.2 5.90001 28 3.75001 29.6 2.25001C31.2 0.750004 33.15 2.86102e-06 35.45 2.86102e-06C38.85 2.86102e-06 41.5 1.3 43.4 3.90001C45.2 6.60001 46.1 9.85001 46.1 13.65C46.1 16.25 45.65 19.3 44.75 22.8C43.75 26.4 42.45 29.95 40.85 33.45C39.15 36.95 37.2 39.8 35 42ZM8.6 42L4.55 39C5.65 37.6 6.8 35.6 8 33C9.2 30.4 10.15 27.55 10.85 24.45C11.55 21.35 11.75 18.25 11.45 15.15C10.75 15.45 10.1 15.65 9.5 15.75C8.9 15.95 8.3 16.05 7.7 16.05C5.7 16.05 4.05 15.35 2.75 13.95C1.45 12.55 0.799997 10.8 0.799997 8.70001C0.799997 5.90001 1.6 3.75001 3.2 2.25001C4.8 0.750004 6.75 2.86102e-06 9.05 2.86102e-06C12.45 2.86102e-06 15.1 1.3 17 3.90001C18.8 6.60001 19.7 9.85001 19.7 13.65C19.7 16.25 19.25 19.3 18.35 22.8C17.35 26.4 16.05 29.95 14.45 33.45C12.75 36.95 10.8 39.8 8.6 42Z" />
</svg>
