<svg width="24" height="22" viewBox="0 0 24 22" fill="currentColor" xmlns="http://www.w3.org/2000/svg">
<path d="M5.576 21.376C3.848 21.376 2.552 20.8 1.688 19.648C0.824 18.448 0.392 16.936 0.392 15.112C0.44 13.816 0.704 12.328 1.184 10.648C1.664 8.92 2.36 7.168 3.272 5.392C4.232 3.616 5.408 1.912 6.8 0.279996L8.888 1.936C8.168 2.8 7.496 3.88 6.872 5.176C6.248 6.424 5.72 7.768 5.288 9.208C4.904 10.648 4.688 12.04 4.64 13.384C4.928 13.288 5.216 13.216 5.504 13.168C5.792 13.12 6.08 13.096 6.368 13.096C7.424 13.096 8.312 13.456 9.032 14.176C9.752 14.848 10.088 15.76 10.04 16.912C10.04 18.256 9.608 19.336 8.744 20.152C7.88 20.968 6.824 21.376 5.576 21.376ZM18.536 21.376C16.856 21.376 15.56 20.8 14.648 19.648C13.784 18.448 13.376 16.936 13.424 15.112C13.472 13.816 13.712 12.328 14.144 10.648C14.624 8.92 15.344 7.168 16.304 5.392C17.264 3.616 18.44 1.912 19.832 0.279996L21.92 1.936C21.2 2.8 20.504 3.88 19.832 5.176C19.208 6.424 18.68 7.768 18.248 9.208C17.864 10.648 17.672 12.04 17.672 13.384C17.96 13.288 18.224 13.216 18.464 13.168C18.752 13.12 19.064 13.096 19.4 13.096C20.408 13.096 21.272 13.456 21.992 14.176C22.76 14.848 23.12 15.76 23.072 16.912C23.072 18.256 22.616 19.336 21.704 20.152C20.84 20.968 19.784 21.376 18.536 21.376Z" fill="#424242"/>
</svg>
