<svg width="32" height="32" viewBox="0 0 32 32" fill="none" xmlns="http://www.w3.org/2000/svg">
<path d="M21.44 28.0022H10.56C6.94 28.0022 4 25.0622 4 21.4422V11.9422C4 11.4222 4.42 11.0022 4.94 11.0022H27.06C27.58 11.0022 28 11.4222 28 11.9422V21.4422C28 25.0622 25.06 28.0022 21.44 28.0022Z" fill="url(#paint0_linear_713_8088)"/>
<path d="M21.44 28.0022H10.56C6.94 28.0022 4 25.0622 4 21.4422V11.9422C4 11.4222 4.42 11.0022 4.94 11.0022H27.06C27.58 11.0022 28 11.4222 28 11.9422V21.4422C28 25.0622 25.06 28.0022 21.44 28.0022Z" fill="url(#paint1_linear_713_8088)"/>
<path d="M21.44 28.0022H10.56C6.94 28.0022 4 25.0622 4 21.4422V11.9422C4 11.4222 4.42 11.0022 4.94 11.0022H27.06C27.58 11.0022 28 11.4222 28 11.9422V21.4422C28 25.0622 25.06 28.0022 21.44 28.0022Z" fill="url(#paint2_linear_713_8088)"/>
<path d="M21.44 28.0022H10.56C6.94 28.0022 4 25.0622 4 21.4422V11.9422C4 11.4222 4.42 11.0022 4.94 11.0022H27.06C27.58 11.0022 28 11.4222 28 11.9422V21.4422C28 25.0622 25.06 28.0022 21.44 28.0022Z" fill="url(#paint3_radial_713_8088)"/>
<path d="M21.44 28.0022H10.56C6.94 28.0022 4 25.0622 4 21.4422V11.9422C4 11.4222 4.42 11.0022 4.94 11.0022H27.06C27.58 11.0022 28 11.4222 28 11.9422V21.4422C28 25.0622 25.06 28.0022 21.44 28.0022Z" fill="url(#paint4_radial_713_8088)"/>
<path d="M29 28.0022H3C2.45 28.0022 2 28.4522 2 29.0022C2 29.5522 2.45 30.0022 3 30.0022H29C29.55 30.0022 30 29.5522 30 29.0022C30 28.4522 29.55 28.0022 29 28.0022Z" fill="url(#paint5_linear_713_8088)"/>
<path d="M29 28.0022H3C2.45 28.0022 2 28.4522 2 29.0022C2 29.5522 2.45 30.0022 3 30.0022H29C29.55 30.0022 30 29.5522 30 29.0022C30 28.4522 29.55 28.0022 29 28.0022Z" fill="url(#paint6_linear_713_8088)"/>
<path d="M29 28.0022H3C2.45 28.0022 2 28.4522 2 29.0022C2 29.5522 2.45 30.0022 3 30.0022H29C29.55 30.0022 30 29.5522 30 29.0022C30 28.4522 29.55 28.0022 29 28.0022Z" fill="url(#paint7_radial_713_8088)"/>
<path d="M29 28.0022H3C2.45 28.0022 2 28.4522 2 29.0022C2 29.5522 2.45 30.0022 3 30.0022H29C29.55 30.0022 30 29.5522 30 29.0022C30 28.4522 29.55 28.0022 29 28.0022Z" fill="url(#paint8_radial_713_8088)"/>
<path d="M16.43 9.24217C16.46 9.42217 16.26 9.55217 16.11 9.46217C15.53 9.12217 14.5 8.28217 14.5 6.65217C14.5 5.23217 16.19 4.13217 16.46 2.18217C16.49 1.99217 16.74 1.93217 16.85 2.09217C17.22 2.64217 17.7 3.66217 17.38 4.99217C16.93 6.92217 16.05 6.68217 16.43 9.24217Z" fill="url(#paint9_linear_713_8088)"/>
<path d="M10.93 9.24217C10.96 9.42217 10.76 9.55217 10.61 9.46217C10.03 9.12217 9 8.28217 9 6.65217C9 5.23217 10.69 4.13217 10.96 2.18217C10.99 1.99217 11.24 1.93217 11.35 2.09217C11.72 2.64217 12.2 3.66217 11.88 4.99217C11.43 6.92217 10.55 6.68217 10.93 9.24217Z" fill="url(#paint10_linear_713_8088)"/>
<g filter="url(#filter0_f_713_8088)">
<path d="M16.2576 9.13283C16.2721 9.31283 16.1289 9.33219 16.0566 9.24219C15.7773 8.90219 14.916 8.12997 14.916 6.49997C14.916 5.07997 16.6113 4.59751 16.6113 2.40628C16.6258 2.21628 16.7935 2.24182 16.8695 2.40635C17.1038 2.91406 17.2811 3.27155 17.127 4.60155C16.9102 6.53155 15.7988 6.59375 16.2576 9.13283Z" fill="url(#paint11_linear_713_8088)"/>
</g>
<g filter="url(#filter1_f_713_8088)">
<path d="M16.2138 9.28125C16.2422 9.63566 15.3153 8.24998 15.4559 6.98436C15.5966 5.71873 16.4683 5.46875 16.6825 2.21094C17.0966 2.96094 17.236 3.70246 17.1669 4.63281C17.0977 5.56317 15.6534 6.77342 16.2138 9.28125Z" fill="url(#paint12_radial_713_8088)"/>
<path d="M16.2138 9.28125C16.2422 9.63566 15.3153 8.24998 15.4559 6.98436C15.5966 5.71873 16.4683 5.46875 16.6825 2.21094C17.0966 2.96094 17.236 3.70246 17.1669 4.63281C17.0977 5.56317 15.6534 6.77342 16.2138 9.28125Z" fill="url(#paint13_radial_713_8088)"/>
</g>
<path d="M21.93 9.24217C21.96 9.42217 21.76 9.55217 21.61 9.46217C21.03 9.12217 20 8.28217 20 6.65217C20 5.23217 21.69 4.13217 21.96 2.18217C21.99 1.99217 22.24 1.93217 22.35 2.09217C22.72 2.64217 23.2 3.66217 22.88 4.99217C22.43 6.92217 21.55 6.68217 21.93 9.24217Z" fill="url(#paint14_linear_713_8088)"/>
<defs>
<filter id="filter0_f_713_8088" x="14.416" y="1.77319" width="3.26953" height="8.02148" filterUnits="userSpaceOnUse" color-interpolation-filters="sRGB">
<feFlood flood-opacity="0" result="BackgroundImageFix"/>
<feBlend mode="normal" in="SourceGraphic" in2="BackgroundImageFix" result="shape"/>
<feGaussianBlur stdDeviation="0.25" result="effect1_foregroundBlur_713_8088"/>
</filter>
<filter id="filter1_f_713_8088" x="15.1914" y="1.96094" width="2.24219" height="7.62671" filterUnits="userSpaceOnUse" color-interpolation-filters="sRGB">
<feFlood flood-opacity="0" result="BackgroundImageFix"/>
<feBlend mode="normal" in="SourceGraphic" in2="BackgroundImageFix" result="shape"/>
<feGaussianBlur stdDeviation="0.125" result="effect1_foregroundBlur_713_8088"/>
</filter>
<linearGradient id="paint0_linear_713_8088" x1="3.5" y1="19.5022" x2="28.3125" y2="19.5022" gradientUnits="userSpaceOnUse">
<stop stop-color="#ACA9B3"/>
<stop offset="0.18136" stop-color="#ADA0C1"/>
<stop offset="0.455919" stop-color="#DBCEED"/>
<stop offset="0.687657" stop-color="#F9F2FF"/>
<stop offset="0.871536" stop-color="#FAF5FF"/>
<stop offset="0.994962" stop-color="#ECEAF4"/>
</linearGradient>
<linearGradient id="paint1_linear_713_8088" x1="16" y1="21.9375" x2="16" y2="30.5" gradientUnits="userSpaceOnUse">
<stop offset="0.153285" stop-color="#D0BEE6" stop-opacity="0"/>
<stop offset="0.627737" stop-color="#7C7982"/>
<stop offset="0.70073" stop-color="#3E3D40"/>
</linearGradient>
<linearGradient id="paint2_linear_713_8088" x1="16" y1="11.0022" x2="16" y2="28.0022" gradientUnits="userSpaceOnUse">
<stop stop-color="#C1C2C3"/>
<stop offset="0.0136575" stop-color="#C4C4C4" stop-opacity="0"/>
</linearGradient>
<radialGradient id="paint3_radial_713_8088" cx="0" cy="0" r="1" gradientUnits="userSpaceOnUse" gradientTransform="translate(5.3125 11.0022) rotate(91.9797) scale(0.904592 4.81537)">
<stop stop-color="#A3A3A7"/>
<stop offset="1" stop-color="#99989E" stop-opacity="0"/>
</radialGradient>
<radialGradient id="paint4_radial_713_8088" cx="0" cy="0" r="1" gradientUnits="userSpaceOnUse" gradientTransform="translate(26.375 11.7812) rotate(90) scale(0.484375 13)">
<stop stop-color="white"/>
<stop offset="1" stop-color="white" stop-opacity="0"/>
</radialGradient>
<linearGradient id="paint5_linear_713_8088" x1="2" y1="30.0022" x2="30" y2="30.0022" gradientUnits="userSpaceOnUse">
<stop stop-color="#634340"/>
<stop offset="0.388393" stop-color="#724842"/>
<stop offset="1" stop-color="#825057"/>
</linearGradient>
<linearGradient id="paint6_linear_713_8088" x1="16" y1="28.0022" x2="16" y2="30.0022" gradientUnits="userSpaceOnUse">
<stop offset="0.436401" stop-color="#7B4359" stop-opacity="0"/>
<stop offset="0.873901" stop-color="#7B4568"/>
</linearGradient>
<radialGradient id="paint7_radial_713_8088" cx="0" cy="0" r="1" gradientUnits="userSpaceOnUse" gradientTransform="translate(24.6875 28.625) rotate(90) scale(0.625 10.25)">
<stop stop-color="#A17C77"/>
<stop offset="1" stop-color="#9F7A76" stop-opacity="0"/>
</radialGradient>
<radialGradient id="paint8_radial_713_8088" cx="0" cy="0" r="1" gradientUnits="userSpaceOnUse" gradientTransform="translate(2.625 29.5) rotate(90) scale(1.1875 8.4906)">
<stop stop-color="#7F5977"/>
<stop offset="1" stop-color="#72575A" stop-opacity="0"/>
</radialGradient>
<linearGradient id="paint9_linear_713_8088" x1="17.3125" y1="6.03125" x2="14.8125" y2="5.74573" gradientUnits="userSpaceOnUse">
<stop offset="0.110003" stop-color="#C0C1C5"/>
<stop offset="0.652938" stop-color="#8E8D90"/>
</linearGradient>
<linearGradient id="paint10_linear_713_8088" x1="11.8125" y1="6.03125" x2="9.3125" y2="5.74573" gradientUnits="userSpaceOnUse">
<stop offset="0.110003" stop-color="#B3B4B7"/>
<stop offset="0.524238" stop-color="#8E8D90"/>
</linearGradient>
<linearGradient id="paint11_linear_713_8088" x1="16.7754" y1="6.35937" x2="14.916" y2="6.03125" gradientUnits="userSpaceOnUse">
<stop stop-color="#BBBBC1"/>
<stop offset="1" stop-color="#9A98A0"/>
</linearGradient>
<radialGradient id="paint12_radial_713_8088" cx="0" cy="0" r="1" gradientUnits="userSpaceOnUse" gradientTransform="translate(16.7997 2.59375) rotate(90) scale(3.75 3.08036)">
<stop stop-color="#E5E5E5"/>
<stop offset="1" stop-color="#E5E5E5" stop-opacity="0"/>
</radialGradient>
<radialGradient id="paint13_radial_713_8088" cx="0" cy="0" r="1" gradientUnits="userSpaceOnUse" gradientTransform="translate(16.6747 10.2188) rotate(-75.7956) scale(4.58469 3.766)">
<stop stop-color="#E5E5E5"/>
<stop offset="1" stop-color="#E5E5E5" stop-opacity="0"/>
</radialGradient>
<linearGradient id="paint14_linear_713_8088" x1="22.8125" y1="6.03125" x2="20.3125" y2="5.74573" gradientUnits="userSpaceOnUse">
<stop offset="0.110003" stop-color="#C4C4C6"/>
<stop offset="1" stop-color="#8E8D90"/>
</linearGradient>
</defs>
</svg>
