<?xml version="1.0" standalone="no"?>
<!DOCTYPE svg PUBLIC "-//W3C//DTD SVG 20010904//EN"
 "http://www.w3.org/TR/2001/REC-SVG-20010904/DTD/svg10.dtd">
<svg version="1.0" xmlns="http://www.w3.org/2000/svg"
 width="260.000000pt" height="260.000000pt" viewBox="0 0 260.000000 260.000000"
 preserveAspectRatio="xMidYMid meet">
<metadata>
Created by potrace 1.14, written by Peter Selinger 2001-2017
</metadata>
<g transform="translate(0.000000,260.000000) scale(0.100000,-0.100000)"
fill="#000000" stroke="none">
<path d="M0 1300 l0 -1300 1300 0 1300 0 0 1300 0 1300 -1300 0 -1300 0 0
-1300z m1465 680 c43 -11 97 -31 121 -45 23 -14 44 -25 46 -25 2 0 3 17 3 37
l0 38 59 3 59 3 -7 -163 c-4 -90 -9 -191 -13 -225 l-6 -63 -43 0 c-42 0 -43 1
-49 38 -34 199 -131 305 -294 319 -208 17 -350 -148 -270 -315 32 -66 101
-113 324 -221 223 -109 302 -168 353 -265 24 -46 27 -61 27 -151 -1 -82 -5
-109 -23 -150 -73 -158 -215 -242 -428 -252 -154 -8 -230 7 -381 74 -9 3 -13
-6 -13 -31 l0 -36 -61 0 -62 0 7 92 c3 50 6 149 6 220 l0 128 49 0 c50 0 60
-10 61 -62 0 -39 45 -134 83 -176 131 -141 395 -146 511 -10 39 46 60 120 50
177 -19 103 -80 154 -338 281 -234 115 -304 168 -353 268 -36 74 -38 197 -5
282 46 116 143 202 262 234 82 22 231 20 325 -4z"/>
</g>
</svg>
